<?xml version="1.0" encoding="UTF-8" standalone="no"?>
<!-- This is a Stata 18.0 generated SVG file (http://www.stata.com) -->

<svg version="1.1" width="4000px" height="2400px" viewBox="0 0 5400 3240" xmlns="http://www.w3.org/2000/svg" xmlns:xlink="http://www.w3.org/1999/xlink">
	<desc>Stata Graph - endo_thres_lv_pop_fin</desc>
	<rect x="0" y="0" width="5400" height="3240" style="fill:#FFFFFF;stroke:none"/>
	<rect x="0.00" y="0.00" width="5400.00" height="3240.00" style="fill:#FFFFFF"/>
	<rect x="3.24" y="3.24" width="5393.52" height="3233.52" style="fill:none;stroke:#FFFFFF;stroke-width:6.48"/>
	<rect x="524.98" y="113.40" width="4761.62" height="2653.26" style="fill:#FFFFFF"/>
	<rect x="528.22" y="116.64" width="4755.14" height="2646.78" style="fill:none;stroke:#FFFFFF;stroke-width:6.48"/>
	<line x1="524.98" y1="2695.28" x2="589.78" y2="2695.28" style="stroke:#F0F0F0;stroke-width:9.72"/>
	<line x1="622.18" y1="2695.28" x2="686.98" y2="2695.28" style="stroke:#F0F0F0;stroke-width:9.72"/>
	<line x1="719.38" y1="2695.28" x2="784.18" y2="2695.28" style="stroke:#F0F0F0;stroke-width:9.72"/>
	<line x1="816.58" y1="2695.28" x2="881.38" y2="2695.28" style="stroke:#F0F0F0;stroke-width:9.72"/>
	<line x1="913.78" y1="2695.28" x2="978.58" y2="2695.28" style="stroke:#F0F0F0;stroke-width:9.72"/>
	<line x1="1010.98" y1="2695.28" x2="1075.78" y2="2695.28" style="stroke:#F0F0F0;stroke-width:9.72"/>
	<line x1="1108.18" y1="2695.28" x2="1172.98" y2="2695.28" style="stroke:#F0F0F0;stroke-width:9.72"/>
	<line x1="1205.38" y1="2695.28" x2="1270.18" y2="2695.28" style="stroke:#F0F0F0;stroke-width:9.72"/>
	<line x1="1302.58" y1="2695.28" x2="1367.38" y2="2695.28" style="stroke:#F0F0F0;stroke-width:9.72"/>
	<line x1="1399.78" y1="2695.28" x2="1464.58" y2="2695.28" style="stroke:#F0F0F0;stroke-width:9.72"/>
	<line x1="1496.98" y1="2695.28" x2="1561.78" y2="2695.28" style="stroke:#F0F0F0;stroke-width:9.72"/>
	<line x1="1594.18" y1="2695.28" x2="1658.98" y2="2695.28" style="stroke:#F0F0F0;stroke-width:9.72"/>
	<line x1="1691.38" y1="2695.28" x2="1756.18" y2="2695.28" style="stroke:#F0F0F0;stroke-width:9.72"/>
	<line x1="1788.58" y1="2695.28" x2="1853.38" y2="2695.28" style="stroke:#F0F0F0;stroke-width:9.72"/>
	<line x1="1885.78" y1="2695.28" x2="1950.58" y2="2695.28" style="stroke:#F0F0F0;stroke-width:9.72"/>
	<line x1="1982.98" y1="2695.28" x2="2047.78" y2="2695.28" style="stroke:#F0F0F0;stroke-width:9.72"/>
	<line x1="2080.18" y1="2695.28" x2="2144.98" y2="2695.28" style="stroke:#F0F0F0;stroke-width:9.72"/>
	<line x1="2177.38" y1="2695.28" x2="2242.18" y2="2695.28" style="stroke:#F0F0F0;stroke-width:9.72"/>
	<line x1="2274.58" y1="2695.28" x2="2339.38" y2="2695.28" style="stroke:#F0F0F0;stroke-width:9.72"/>
	<line x1="2371.78" y1="2695.28" x2="2436.58" y2="2695.28" style="stroke:#F0F0F0;stroke-width:9.72"/>
	<line x1="2468.98" y1="2695.28" x2="2533.78" y2="2695.28" style="stroke:#F0F0F0;stroke-width:9.72"/>
	<line x1="2566.18" y1="2695.28" x2="2630.98" y2="2695.28" style="stroke:#F0F0F0;stroke-width:9.72"/>
	<line x1="2663.38" y1="2695.28" x2="2728.18" y2="2695.28" style="stroke:#F0F0F0;stroke-width:9.72"/>
	<line x1="2760.58" y1="2695.28" x2="2825.38" y2="2695.28" style="stroke:#F0F0F0;stroke-width:9.72"/>
	<line x1="2857.78" y1="2695.28" x2="2922.58" y2="2695.28" style="stroke:#F0F0F0;stroke-width:9.72"/>
	<line x1="2954.98" y1="2695.28" x2="3019.78" y2="2695.28" style="stroke:#F0F0F0;stroke-width:9.72"/>
	<line x1="3052.18" y1="2695.28" x2="3116.98" y2="2695.28" style="stroke:#F0F0F0;stroke-width:9.72"/>
	<line x1="3149.38" y1="2695.28" x2="3214.18" y2="2695.28" style="stroke:#F0F0F0;stroke-width:9.72"/>
	<line x1="3246.58" y1="2695.28" x2="3311.38" y2="2695.28" style="stroke:#F0F0F0;stroke-width:9.72"/>
	<line x1="3343.78" y1="2695.28" x2="3408.58" y2="2695.28" style="stroke:#F0F0F0;stroke-width:9.72"/>
	<line x1="3440.98" y1="2695.28" x2="3505.78" y2="2695.28" style="stroke:#F0F0F0;stroke-width:9.72"/>
	<line x1="3538.18" y1="2695.28" x2="3602.98" y2="2695.28" style="stroke:#F0F0F0;stroke-width:9.72"/>
	<line x1="3635.38" y1="2695.28" x2="3700.18" y2="2695.28" style="stroke:#F0F0F0;stroke-width:9.72"/>
	<line x1="3732.58" y1="2695.28" x2="3797.38" y2="2695.28" style="stroke:#F0F0F0;stroke-width:9.72"/>
	<line x1="3829.78" y1="2695.28" x2="3894.58" y2="2695.28" style="stroke:#F0F0F0;stroke-width:9.72"/>
	<line x1="3926.98" y1="2695.28" x2="3991.78" y2="2695.28" style="stroke:#F0F0F0;stroke-width:9.72"/>
	<line x1="4024.18" y1="2695.28" x2="4088.98" y2="2695.28" style="stroke:#F0F0F0;stroke-width:9.72"/>
	<line x1="4121.38" y1="2695.28" x2="4186.18" y2="2695.28" style="stroke:#F0F0F0;stroke-width:9.72"/>
	<line x1="4218.58" y1="2695.28" x2="4283.38" y2="2695.28" style="stroke:#F0F0F0;stroke-width:9.72"/>
	<line x1="4315.78" y1="2695.28" x2="4380.58" y2="2695.28" style="stroke:#F0F0F0;stroke-width:9.72"/>
	<line x1="4412.98" y1="2695.28" x2="4477.78" y2="2695.28" style="stroke:#F0F0F0;stroke-width:9.72"/>
	<line x1="4510.18" y1="2695.28" x2="4574.98" y2="2695.28" style="stroke:#F0F0F0;stroke-width:9.72"/>
	<line x1="4607.38" y1="2695.28" x2="4672.18" y2="2695.28" style="stroke:#F0F0F0;stroke-width:9.72"/>
	<line x1="4704.58" y1="2695.28" x2="4769.38" y2="2695.28" style="stroke:#F0F0F0;stroke-width:9.72"/>
	<line x1="4801.78" y1="2695.28" x2="4866.58" y2="2695.28" style="stroke:#F0F0F0;stroke-width:9.72"/>
	<line x1="4898.98" y1="2695.28" x2="4963.78" y2="2695.28" style="stroke:#F0F0F0;stroke-width:9.72"/>
	<line x1="4996.18" y1="2695.28" x2="5060.98" y2="2695.28" style="stroke:#F0F0F0;stroke-width:9.72"/>
	<line x1="5093.38" y1="2695.28" x2="5158.18" y2="2695.28" style="stroke:#F0F0F0;stroke-width:9.72"/>
	<line x1="5190.58" y1="2695.28" x2="5255.38" y2="2695.28" style="stroke:#F0F0F0;stroke-width:9.72"/>
	<line x1="524.98" y1="2067.69" x2="589.78" y2="2067.69" style="stroke:#F0F0F0;stroke-width:9.72"/>
	<line x1="622.18" y1="2067.69" x2="686.98" y2="2067.69" style="stroke:#F0F0F0;stroke-width:9.72"/>
	<line x1="719.38" y1="2067.69" x2="784.18" y2="2067.69" style="stroke:#F0F0F0;stroke-width:9.72"/>
	<line x1="816.58" y1="2067.69" x2="881.38" y2="2067.69" style="stroke:#F0F0F0;stroke-width:9.72"/>
	<line x1="913.78" y1="2067.69" x2="978.58" y2="2067.69" style="stroke:#F0F0F0;stroke-width:9.72"/>
	<line x1="1010.98" y1="2067.69" x2="1075.78" y2="2067.69" style="stroke:#F0F0F0;stroke-width:9.72"/>
	<line x1="1108.18" y1="2067.69" x2="1172.98" y2="2067.69" style="stroke:#F0F0F0;stroke-width:9.72"/>
	<line x1="1205.38" y1="2067.69" x2="1270.18" y2="2067.69" style="stroke:#F0F0F0;stroke-width:9.72"/>
	<line x1="1302.58" y1="2067.69" x2="1367.38" y2="2067.69" style="stroke:#F0F0F0;stroke-width:9.72"/>
	<line x1="1399.78" y1="2067.69" x2="1464.58" y2="2067.69" style="stroke:#F0F0F0;stroke-width:9.72"/>
	<line x1="1496.98" y1="2067.69" x2="1561.78" y2="2067.69" style="stroke:#F0F0F0;stroke-width:9.72"/>
	<line x1="1594.18" y1="2067.69" x2="1658.98" y2="2067.69" style="stroke:#F0F0F0;stroke-width:9.72"/>
	<line x1="1691.38" y1="2067.69" x2="1756.18" y2="2067.69" style="stroke:#F0F0F0;stroke-width:9.72"/>
	<line x1="1788.58" y1="2067.69" x2="1853.38" y2="2067.69" style="stroke:#F0F0F0;stroke-width:9.72"/>
	<line x1="1885.78" y1="2067.69" x2="1950.58" y2="2067.69" style="stroke:#F0F0F0;stroke-width:9.72"/>
	<line x1="1982.98" y1="2067.69" x2="2047.78" y2="2067.69" style="stroke:#F0F0F0;stroke-width:9.72"/>
	<line x1="2080.18" y1="2067.69" x2="2144.98" y2="2067.69" style="stroke:#F0F0F0;stroke-width:9.72"/>
	<line x1="2177.38" y1="2067.69" x2="2242.18" y2="2067.69" style="stroke:#F0F0F0;stroke-width:9.72"/>
	<line x1="2274.58" y1="2067.69" x2="2339.38" y2="2067.69" style="stroke:#F0F0F0;stroke-width:9.72"/>
	<line x1="2371.78" y1="2067.69" x2="2436.58" y2="2067.69" style="stroke:#F0F0F0;stroke-width:9.72"/>
	<line x1="2468.98" y1="2067.69" x2="2533.78" y2="2067.69" style="stroke:#F0F0F0;stroke-width:9.72"/>
	<line x1="2566.18" y1="2067.69" x2="2630.98" y2="2067.69" style="stroke:#F0F0F0;stroke-width:9.72"/>
	<line x1="2663.38" y1="2067.69" x2="2728.18" y2="2067.69" style="stroke:#F0F0F0;stroke-width:9.72"/>
	<line x1="2760.58" y1="2067.69" x2="2825.38" y2="2067.69" style="stroke:#F0F0F0;stroke-width:9.72"/>
	<line x1="2857.78" y1="2067.69" x2="2922.58" y2="2067.69" style="stroke:#F0F0F0;stroke-width:9.72"/>
	<line x1="2954.98" y1="2067.69" x2="3019.78" y2="2067.69" style="stroke:#F0F0F0;stroke-width:9.72"/>
	<line x1="3052.18" y1="2067.69" x2="3116.98" y2="2067.69" style="stroke:#F0F0F0;stroke-width:9.72"/>
	<line x1="3149.38" y1="2067.69" x2="3214.18" y2="2067.69" style="stroke:#F0F0F0;stroke-width:9.72"/>
	<line x1="3246.58" y1="2067.69" x2="3311.38" y2="2067.69" style="stroke:#F0F0F0;stroke-width:9.72"/>
	<line x1="3343.78" y1="2067.69" x2="3408.58" y2="2067.69" style="stroke:#F0F0F0;stroke-width:9.72"/>
	<line x1="3440.98" y1="2067.69" x2="3505.78" y2="2067.69" style="stroke:#F0F0F0;stroke-width:9.72"/>
	<line x1="3538.18" y1="2067.69" x2="3602.98" y2="2067.69" style="stroke:#F0F0F0;stroke-width:9.72"/>
	<line x1="3635.38" y1="2067.69" x2="3700.18" y2="2067.69" style="stroke:#F0F0F0;stroke-width:9.72"/>
	<line x1="3732.58" y1="2067.69" x2="3797.38" y2="2067.69" style="stroke:#F0F0F0;stroke-width:9.72"/>
	<line x1="3829.78" y1="2067.69" x2="3894.58" y2="2067.69" style="stroke:#F0F0F0;stroke-width:9.72"/>
	<line x1="3926.98" y1="2067.69" x2="3991.78" y2="2067.69" style="stroke:#F0F0F0;stroke-width:9.72"/>
	<line x1="4024.18" y1="2067.69" x2="4088.98" y2="2067.69" style="stroke:#F0F0F0;stroke-width:9.72"/>
	<line x1="4121.38" y1="2067.69" x2="4186.18" y2="2067.69" style="stroke:#F0F0F0;stroke-width:9.72"/>
	<line x1="4218.58" y1="2067.69" x2="4283.38" y2="2067.69" style="stroke:#F0F0F0;stroke-width:9.72"/>
	<line x1="4315.78" y1="2067.69" x2="4380.58" y2="2067.69" style="stroke:#F0F0F0;stroke-width:9.72"/>
	<line x1="4412.98" y1="2067.69" x2="4477.78" y2="2067.69" style="stroke:#F0F0F0;stroke-width:9.72"/>
	<line x1="4510.18" y1="2067.69" x2="4574.98" y2="2067.69" style="stroke:#F0F0F0;stroke-width:9.72"/>
	<line x1="4607.38" y1="2067.69" x2="4672.18" y2="2067.69" style="stroke:#F0F0F0;stroke-width:9.72"/>
	<line x1="4704.58" y1="2067.69" x2="4769.38" y2="2067.69" style="stroke:#F0F0F0;stroke-width:9.72"/>
	<line x1="4801.78" y1="2067.69" x2="4866.58" y2="2067.69" style="stroke:#F0F0F0;stroke-width:9.72"/>
	<line x1="4898.98" y1="2067.69" x2="4963.78" y2="2067.69" style="stroke:#F0F0F0;stroke-width:9.72"/>
	<line x1="4996.18" y1="2067.69" x2="5060.98" y2="2067.69" style="stroke:#F0F0F0;stroke-width:9.72"/>
	<line x1="5093.38" y1="2067.69" x2="5158.18" y2="2067.69" style="stroke:#F0F0F0;stroke-width:9.72"/>
	<line x1="5190.58" y1="2067.69" x2="5255.38" y2="2067.69" style="stroke:#F0F0F0;stroke-width:9.72"/>
	<line x1="524.98" y1="1439.94" x2="589.78" y2="1439.94" style="stroke:#F0F0F0;stroke-width:9.72"/>
	<line x1="622.18" y1="1439.94" x2="686.98" y2="1439.94" style="stroke:#F0F0F0;stroke-width:9.72"/>
	<line x1="719.38" y1="1439.94" x2="784.18" y2="1439.94" style="stroke:#F0F0F0;stroke-width:9.72"/>
	<line x1="816.58" y1="1439.94" x2="881.38" y2="1439.94" style="stroke:#F0F0F0;stroke-width:9.72"/>
	<line x1="913.78" y1="1439.94" x2="978.58" y2="1439.94" style="stroke:#F0F0F0;stroke-width:9.72"/>
	<line x1="1010.98" y1="1439.94" x2="1075.78" y2="1439.94" style="stroke:#F0F0F0;stroke-width:9.72"/>
	<line x1="1108.18" y1="1439.94" x2="1172.98" y2="1439.94" style="stroke:#F0F0F0;stroke-width:9.72"/>
	<line x1="1205.38" y1="1439.94" x2="1270.18" y2="1439.94" style="stroke:#F0F0F0;stroke-width:9.72"/>
	<line x1="1302.58" y1="1439.94" x2="1367.38" y2="1439.94" style="stroke:#F0F0F0;stroke-width:9.72"/>
	<line x1="1399.78" y1="1439.94" x2="1464.58" y2="1439.94" style="stroke:#F0F0F0;stroke-width:9.72"/>
	<line x1="1496.98" y1="1439.94" x2="1561.78" y2="1439.94" style="stroke:#F0F0F0;stroke-width:9.72"/>
	<line x1="1594.18" y1="1439.94" x2="1658.98" y2="1439.94" style="stroke:#F0F0F0;stroke-width:9.72"/>
	<line x1="1691.38" y1="1439.94" x2="1756.18" y2="1439.94" style="stroke:#F0F0F0;stroke-width:9.72"/>
	<line x1="1788.58" y1="1439.94" x2="1853.38" y2="1439.94" style="stroke:#F0F0F0;stroke-width:9.72"/>
	<line x1="1885.78" y1="1439.94" x2="1950.58" y2="1439.94" style="stroke:#F0F0F0;stroke-width:9.72"/>
	<line x1="1982.98" y1="1439.94" x2="2047.78" y2="1439.94" style="stroke:#F0F0F0;stroke-width:9.72"/>
	<line x1="2080.18" y1="1439.94" x2="2144.98" y2="1439.94" style="stroke:#F0F0F0;stroke-width:9.72"/>
	<line x1="2177.38" y1="1439.94" x2="2242.18" y2="1439.94" style="stroke:#F0F0F0;stroke-width:9.72"/>
	<line x1="2274.58" y1="1439.94" x2="2339.38" y2="1439.94" style="stroke:#F0F0F0;stroke-width:9.72"/>
	<line x1="2371.78" y1="1439.94" x2="2436.58" y2="1439.94" style="stroke:#F0F0F0;stroke-width:9.72"/>
	<line x1="2468.98" y1="1439.94" x2="2533.78" y2="1439.94" style="stroke:#F0F0F0;stroke-width:9.72"/>
	<line x1="2566.18" y1="1439.94" x2="2630.98" y2="1439.94" style="stroke:#F0F0F0;stroke-width:9.72"/>
	<line x1="2663.38" y1="1439.94" x2="2728.18" y2="1439.94" style="stroke:#F0F0F0;stroke-width:9.72"/>
	<line x1="2760.58" y1="1439.94" x2="2825.38" y2="1439.94" style="stroke:#F0F0F0;stroke-width:9.72"/>
	<line x1="2857.78" y1="1439.94" x2="2922.58" y2="1439.94" style="stroke:#F0F0F0;stroke-width:9.72"/>
	<line x1="2954.98" y1="1439.94" x2="3019.78" y2="1439.94" style="stroke:#F0F0F0;stroke-width:9.72"/>
	<line x1="3052.18" y1="1439.94" x2="3116.98" y2="1439.94" style="stroke:#F0F0F0;stroke-width:9.72"/>
	<line x1="3149.38" y1="1439.94" x2="3214.18" y2="1439.94" style="stroke:#F0F0F0;stroke-width:9.72"/>
	<line x1="3246.58" y1="1439.94" x2="3311.38" y2="1439.94" style="stroke:#F0F0F0;stroke-width:9.72"/>
	<line x1="3343.78" y1="1439.94" x2="3408.58" y2="1439.94" style="stroke:#F0F0F0;stroke-width:9.72"/>
	<line x1="3440.98" y1="1439.94" x2="3505.78" y2="1439.94" style="stroke:#F0F0F0;stroke-width:9.72"/>
	<line x1="3538.18" y1="1439.94" x2="3602.98" y2="1439.94" style="stroke:#F0F0F0;stroke-width:9.72"/>
	<line x1="3635.38" y1="1439.94" x2="3700.18" y2="1439.94" style="stroke:#F0F0F0;stroke-width:9.72"/>
	<line x1="3732.58" y1="1439.94" x2="3797.38" y2="1439.94" style="stroke:#F0F0F0;stroke-width:9.72"/>
	<line x1="3829.78" y1="1439.94" x2="3894.58" y2="1439.94" style="stroke:#F0F0F0;stroke-width:9.72"/>
	<line x1="3926.98" y1="1439.94" x2="3991.78" y2="1439.94" style="stroke:#F0F0F0;stroke-width:9.72"/>
	<line x1="4024.18" y1="1439.94" x2="4088.98" y2="1439.94" style="stroke:#F0F0F0;stroke-width:9.72"/>
	<line x1="4121.38" y1="1439.94" x2="4186.18" y2="1439.94" style="stroke:#F0F0F0;stroke-width:9.72"/>
	<line x1="4218.58" y1="1439.94" x2="4283.38" y2="1439.94" style="stroke:#F0F0F0;stroke-width:9.72"/>
	<line x1="4315.78" y1="1439.94" x2="4380.58" y2="1439.94" style="stroke:#F0F0F0;stroke-width:9.72"/>
	<line x1="4412.98" y1="1439.94" x2="4477.78" y2="1439.94" style="stroke:#F0F0F0;stroke-width:9.72"/>
	<line x1="4510.18" y1="1439.94" x2="4574.98" y2="1439.94" style="stroke:#F0F0F0;stroke-width:9.72"/>
	<line x1="4607.38" y1="1439.94" x2="4672.18" y2="1439.94" style="stroke:#F0F0F0;stroke-width:9.72"/>
	<line x1="4704.58" y1="1439.94" x2="4769.38" y2="1439.94" style="stroke:#F0F0F0;stroke-width:9.72"/>
	<line x1="4801.78" y1="1439.94" x2="4866.58" y2="1439.94" style="stroke:#F0F0F0;stroke-width:9.72"/>
	<line x1="4898.98" y1="1439.94" x2="4963.78" y2="1439.94" style="stroke:#F0F0F0;stroke-width:9.72"/>
	<line x1="4996.18" y1="1439.94" x2="5060.98" y2="1439.94" style="stroke:#F0F0F0;stroke-width:9.72"/>
	<line x1="5093.38" y1="1439.94" x2="5158.18" y2="1439.94" style="stroke:#F0F0F0;stroke-width:9.72"/>
	<line x1="5190.58" y1="1439.94" x2="5255.38" y2="1439.94" style="stroke:#F0F0F0;stroke-width:9.72"/>
	<line x1="524.98" y1="812.36" x2="589.78" y2="812.36" style="stroke:#F0F0F0;stroke-width:9.72"/>
	<line x1="622.18" y1="812.36" x2="686.98" y2="812.36" style="stroke:#F0F0F0;stroke-width:9.72"/>
	<line x1="719.38" y1="812.36" x2="784.18" y2="812.36" style="stroke:#F0F0F0;stroke-width:9.72"/>
	<line x1="816.58" y1="812.36" x2="881.38" y2="812.36" style="stroke:#F0F0F0;stroke-width:9.72"/>
	<line x1="913.78" y1="812.36" x2="978.58" y2="812.36" style="stroke:#F0F0F0;stroke-width:9.72"/>
	<line x1="1010.98" y1="812.36" x2="1075.78" y2="812.36" style="stroke:#F0F0F0;stroke-width:9.72"/>
	<line x1="1108.18" y1="812.36" x2="1172.98" y2="812.36" style="stroke:#F0F0F0;stroke-width:9.72"/>
	<line x1="1205.38" y1="812.36" x2="1270.18" y2="812.36" style="stroke:#F0F0F0;stroke-width:9.72"/>
	<line x1="1302.58" y1="812.36" x2="1367.38" y2="812.36" style="stroke:#F0F0F0;stroke-width:9.72"/>
	<line x1="1399.78" y1="812.36" x2="1464.58" y2="812.36" style="stroke:#F0F0F0;stroke-width:9.72"/>
	<line x1="1496.98" y1="812.36" x2="1561.78" y2="812.36" style="stroke:#F0F0F0;stroke-width:9.72"/>
	<line x1="1594.18" y1="812.36" x2="1658.98" y2="812.36" style="stroke:#F0F0F0;stroke-width:9.72"/>
	<line x1="1691.38" y1="812.36" x2="1756.18" y2="812.36" style="stroke:#F0F0F0;stroke-width:9.72"/>
	<line x1="1788.58" y1="812.36" x2="1853.38" y2="812.36" style="stroke:#F0F0F0;stroke-width:9.72"/>
	<line x1="1885.78" y1="812.36" x2="1950.58" y2="812.36" style="stroke:#F0F0F0;stroke-width:9.72"/>
	<line x1="1982.98" y1="812.36" x2="2047.78" y2="812.36" style="stroke:#F0F0F0;stroke-width:9.72"/>
	<line x1="2080.18" y1="812.36" x2="2144.98" y2="812.36" style="stroke:#F0F0F0;stroke-width:9.72"/>
	<line x1="2177.38" y1="812.36" x2="2242.18" y2="812.36" style="stroke:#F0F0F0;stroke-width:9.72"/>
	<line x1="2274.58" y1="812.36" x2="2339.38" y2="812.36" style="stroke:#F0F0F0;stroke-width:9.72"/>
	<line x1="2371.78" y1="812.36" x2="2436.58" y2="812.36" style="stroke:#F0F0F0;stroke-width:9.72"/>
	<line x1="2468.98" y1="812.36" x2="2533.78" y2="812.36" style="stroke:#F0F0F0;stroke-width:9.72"/>
	<line x1="2566.18" y1="812.36" x2="2630.98" y2="812.36" style="stroke:#F0F0F0;stroke-width:9.72"/>
	<line x1="2663.38" y1="812.36" x2="2728.18" y2="812.36" style="stroke:#F0F0F0;stroke-width:9.72"/>
	<line x1="2760.58" y1="812.36" x2="2825.38" y2="812.36" style="stroke:#F0F0F0;stroke-width:9.72"/>
	<line x1="2857.78" y1="812.36" x2="2922.58" y2="812.36" style="stroke:#F0F0F0;stroke-width:9.72"/>
	<line x1="2954.98" y1="812.36" x2="3019.78" y2="812.36" style="stroke:#F0F0F0;stroke-width:9.72"/>
	<line x1="3052.18" y1="812.36" x2="3116.98" y2="812.36" style="stroke:#F0F0F0;stroke-width:9.72"/>
	<line x1="3149.38" y1="812.36" x2="3214.18" y2="812.36" style="stroke:#F0F0F0;stroke-width:9.72"/>
	<line x1="3246.58" y1="812.36" x2="3311.38" y2="812.36" style="stroke:#F0F0F0;stroke-width:9.72"/>
	<line x1="3343.78" y1="812.36" x2="3408.58" y2="812.36" style="stroke:#F0F0F0;stroke-width:9.72"/>
	<line x1="3440.98" y1="812.36" x2="3505.78" y2="812.36" style="stroke:#F0F0F0;stroke-width:9.72"/>
	<line x1="3538.18" y1="812.36" x2="3602.98" y2="812.36" style="stroke:#F0F0F0;stroke-width:9.72"/>
	<line x1="3635.38" y1="812.36" x2="3700.18" y2="812.36" style="stroke:#F0F0F0;stroke-width:9.72"/>
	<line x1="3732.58" y1="812.36" x2="3797.38" y2="812.36" style="stroke:#F0F0F0;stroke-width:9.72"/>
	<line x1="3829.78" y1="812.36" x2="3894.58" y2="812.36" style="stroke:#F0F0F0;stroke-width:9.72"/>
	<line x1="3926.98" y1="812.36" x2="3991.78" y2="812.36" style="stroke:#F0F0F0;stroke-width:9.72"/>
	<line x1="4024.18" y1="812.36" x2="4088.98" y2="812.36" style="stroke:#F0F0F0;stroke-width:9.72"/>
	<line x1="4121.38" y1="812.36" x2="4186.18" y2="812.36" style="stroke:#F0F0F0;stroke-width:9.72"/>
	<line x1="4218.58" y1="812.36" x2="4283.38" y2="812.36" style="stroke:#F0F0F0;stroke-width:9.72"/>
	<line x1="4315.78" y1="812.36" x2="4380.58" y2="812.36" style="stroke:#F0F0F0;stroke-width:9.72"/>
	<line x1="4412.98" y1="812.36" x2="4477.78" y2="812.36" style="stroke:#F0F0F0;stroke-width:9.72"/>
	<line x1="4510.18" y1="812.36" x2="4574.98" y2="812.36" style="stroke:#F0F0F0;stroke-width:9.72"/>
	<line x1="4607.38" y1="812.36" x2="4672.18" y2="812.36" style="stroke:#F0F0F0;stroke-width:9.72"/>
	<line x1="4704.58" y1="812.36" x2="4769.38" y2="812.36" style="stroke:#F0F0F0;stroke-width:9.72"/>
	<line x1="4801.78" y1="812.36" x2="4866.58" y2="812.36" style="stroke:#F0F0F0;stroke-width:9.72"/>
	<line x1="4898.98" y1="812.36" x2="4963.78" y2="812.36" style="stroke:#F0F0F0;stroke-width:9.72"/>
	<line x1="4996.18" y1="812.36" x2="5060.98" y2="812.36" style="stroke:#F0F0F0;stroke-width:9.72"/>
	<line x1="5093.38" y1="812.36" x2="5158.18" y2="812.36" style="stroke:#F0F0F0;stroke-width:9.72"/>
	<line x1="5190.58" y1="812.36" x2="5255.38" y2="812.36" style="stroke:#F0F0F0;stroke-width:9.72"/>
	<line x1="524.98" y1="184.61" x2="589.78" y2="184.61" style="stroke:#F0F0F0;stroke-width:9.72"/>
	<line x1="622.18" y1="184.61" x2="686.98" y2="184.61" style="stroke:#F0F0F0;stroke-width:9.72"/>
	<line x1="719.38" y1="184.61" x2="784.18" y2="184.61" style="stroke:#F0F0F0;stroke-width:9.72"/>
	<line x1="816.58" y1="184.61" x2="881.38" y2="184.61" style="stroke:#F0F0F0;stroke-width:9.72"/>
	<line x1="913.78" y1="184.61" x2="978.58" y2="184.61" style="stroke:#F0F0F0;stroke-width:9.72"/>
	<line x1="1010.98" y1="184.61" x2="1075.78" y2="184.61" style="stroke:#F0F0F0;stroke-width:9.72"/>
	<line x1="1108.18" y1="184.61" x2="1172.98" y2="184.61" style="stroke:#F0F0F0;stroke-width:9.72"/>
	<line x1="1205.38" y1="184.61" x2="1270.18" y2="184.61" style="stroke:#F0F0F0;stroke-width:9.72"/>
	<line x1="1302.58" y1="184.61" x2="1367.38" y2="184.61" style="stroke:#F0F0F0;stroke-width:9.72"/>
	<line x1="1399.78" y1="184.61" x2="1464.58" y2="184.61" style="stroke:#F0F0F0;stroke-width:9.72"/>
	<line x1="1496.98" y1="184.61" x2="1561.78" y2="184.61" style="stroke:#F0F0F0;stroke-width:9.72"/>
	<line x1="1594.18" y1="184.61" x2="1658.98" y2="184.61" style="stroke:#F0F0F0;stroke-width:9.72"/>
	<line x1="1691.38" y1="184.61" x2="1756.18" y2="184.61" style="stroke:#F0F0F0;stroke-width:9.72"/>
	<line x1="1788.58" y1="184.61" x2="1853.38" y2="184.61" style="stroke:#F0F0F0;stroke-width:9.72"/>
	<line x1="1885.78" y1="184.61" x2="1950.58" y2="184.61" style="stroke:#F0F0F0;stroke-width:9.72"/>
	<line x1="1982.98" y1="184.61" x2="2047.78" y2="184.61" style="stroke:#F0F0F0;stroke-width:9.72"/>
	<line x1="2080.18" y1="184.61" x2="2144.98" y2="184.61" style="stroke:#F0F0F0;stroke-width:9.72"/>
	<line x1="2177.38" y1="184.61" x2="2242.18" y2="184.61" style="stroke:#F0F0F0;stroke-width:9.72"/>
	<line x1="2274.58" y1="184.61" x2="2339.38" y2="184.61" style="stroke:#F0F0F0;stroke-width:9.72"/>
	<line x1="2371.78" y1="184.61" x2="2436.58" y2="184.61" style="stroke:#F0F0F0;stroke-width:9.72"/>
	<line x1="2468.98" y1="184.61" x2="2533.78" y2="184.61" style="stroke:#F0F0F0;stroke-width:9.72"/>
	<line x1="2566.18" y1="184.61" x2="2630.98" y2="184.61" style="stroke:#F0F0F0;stroke-width:9.72"/>
	<line x1="2663.38" y1="184.61" x2="2728.18" y2="184.61" style="stroke:#F0F0F0;stroke-width:9.72"/>
	<line x1="2760.58" y1="184.61" x2="2825.38" y2="184.61" style="stroke:#F0F0F0;stroke-width:9.72"/>
	<line x1="2857.78" y1="184.61" x2="2922.58" y2="184.61" style="stroke:#F0F0F0;stroke-width:9.72"/>
	<line x1="2954.98" y1="184.61" x2="3019.78" y2="184.61" style="stroke:#F0F0F0;stroke-width:9.72"/>
	<line x1="3052.18" y1="184.61" x2="3116.98" y2="184.61" style="stroke:#F0F0F0;stroke-width:9.72"/>
	<line x1="3149.38" y1="184.61" x2="3214.18" y2="184.61" style="stroke:#F0F0F0;stroke-width:9.72"/>
	<line x1="3246.58" y1="184.61" x2="3311.38" y2="184.61" style="stroke:#F0F0F0;stroke-width:9.72"/>
	<line x1="3343.78" y1="184.61" x2="3408.58" y2="184.61" style="stroke:#F0F0F0;stroke-width:9.72"/>
	<line x1="3440.98" y1="184.61" x2="3505.78" y2="184.61" style="stroke:#F0F0F0;stroke-width:9.72"/>
	<line x1="3538.18" y1="184.61" x2="3602.98" y2="184.61" style="stroke:#F0F0F0;stroke-width:9.72"/>
	<line x1="3635.38" y1="184.61" x2="3700.18" y2="184.61" style="stroke:#F0F0F0;stroke-width:9.72"/>
	<line x1="3732.58" y1="184.61" x2="3797.38" y2="184.61" style="stroke:#F0F0F0;stroke-width:9.72"/>
	<line x1="3829.78" y1="184.61" x2="3894.58" y2="184.61" style="stroke:#F0F0F0;stroke-width:9.72"/>
	<line x1="3926.98" y1="184.61" x2="3991.78" y2="184.61" style="stroke:#F0F0F0;stroke-width:9.72"/>
	<line x1="4024.18" y1="184.61" x2="4088.98" y2="184.61" style="stroke:#F0F0F0;stroke-width:9.72"/>
	<line x1="4121.38" y1="184.61" x2="4186.18" y2="184.61" style="stroke:#F0F0F0;stroke-width:9.72"/>
	<line x1="4218.58" y1="184.61" x2="4283.38" y2="184.61" style="stroke:#F0F0F0;stroke-width:9.72"/>
	<line x1="4315.78" y1="184.61" x2="4380.58" y2="184.61" style="stroke:#F0F0F0;stroke-width:9.72"/>
	<line x1="4412.98" y1="184.61" x2="4477.78" y2="184.61" style="stroke:#F0F0F0;stroke-width:9.72"/>
	<line x1="4510.18" y1="184.61" x2="4574.98" y2="184.61" style="stroke:#F0F0F0;stroke-width:9.72"/>
	<line x1="4607.38" y1="184.61" x2="4672.18" y2="184.61" style="stroke:#F0F0F0;stroke-width:9.72"/>
	<line x1="4704.58" y1="184.61" x2="4769.38" y2="184.61" style="stroke:#F0F0F0;stroke-width:9.72"/>
	<line x1="4801.78" y1="184.61" x2="4866.58" y2="184.61" style="stroke:#F0F0F0;stroke-width:9.72"/>
	<line x1="4898.98" y1="184.61" x2="4963.78" y2="184.61" style="stroke:#F0F0F0;stroke-width:9.72"/>
	<line x1="4996.18" y1="184.61" x2="5060.98" y2="184.61" style="stroke:#F0F0F0;stroke-width:9.72"/>
	<line x1="5093.38" y1="184.61" x2="5158.18" y2="184.61" style="stroke:#F0F0F0;stroke-width:9.72"/>
	<line x1="5190.58" y1="184.61" x2="5255.38" y2="184.61" style="stroke:#F0F0F0;stroke-width:9.72"/>
	<line x1="596.19" y1="2766.66" x2="596.19" y2="2701.86" style="stroke:#F0F0F0;stroke-width:9.72"/>
	<line x1="596.19" y1="2669.46" x2="596.19" y2="2604.66" style="stroke:#F0F0F0;stroke-width:9.72"/>
	<line x1="596.19" y1="2572.26" x2="596.19" y2="2507.46" style="stroke:#F0F0F0;stroke-width:9.72"/>
	<line x1="596.19" y1="2475.06" x2="596.19" y2="2410.26" style="stroke:#F0F0F0;stroke-width:9.72"/>
	<line x1="596.19" y1="2377.86" x2="596.19" y2="2313.06" style="stroke:#F0F0F0;stroke-width:9.72"/>
	<line x1="596.19" y1="2280.66" x2="596.19" y2="2215.86" style="stroke:#F0F0F0;stroke-width:9.72"/>
	<line x1="596.19" y1="2183.46" x2="596.19" y2="2118.66" style="stroke:#F0F0F0;stroke-width:9.72"/>
	<line x1="596.19" y1="2086.26" x2="596.19" y2="2021.46" style="stroke:#F0F0F0;stroke-width:9.72"/>
	<line x1="596.19" y1="1989.06" x2="596.19" y2="1924.26" style="stroke:#F0F0F0;stroke-width:9.72"/>
	<line x1="596.19" y1="1891.86" x2="596.19" y2="1827.06" style="stroke:#F0F0F0;stroke-width:9.72"/>
	<line x1="596.19" y1="1794.66" x2="596.19" y2="1729.86" style="stroke:#F0F0F0;stroke-width:9.72"/>
	<line x1="596.19" y1="1697.46" x2="596.19" y2="1632.66" style="stroke:#F0F0F0;stroke-width:9.72"/>
	<line x1="596.19" y1="1600.26" x2="596.19" y2="1535.46" style="stroke:#F0F0F0;stroke-width:9.72"/>
	<line x1="596.19" y1="1503.06" x2="596.19" y2="1438.26" style="stroke:#F0F0F0;stroke-width:9.72"/>
	<line x1="596.19" y1="1405.86" x2="596.19" y2="1341.06" style="stroke:#F0F0F0;stroke-width:9.72"/>
	<line x1="596.19" y1="1308.66" x2="596.19" y2="1243.86" style="stroke:#F0F0F0;stroke-width:9.72"/>
	<line x1="596.19" y1="1211.46" x2="596.19" y2="1146.66" style="stroke:#F0F0F0;stroke-width:9.72"/>
	<line x1="596.19" y1="1114.26" x2="596.19" y2="1049.46" style="stroke:#F0F0F0;stroke-width:9.72"/>
	<line x1="596.19" y1="1017.06" x2="596.19" y2="952.26" style="stroke:#F0F0F0;stroke-width:9.72"/>
	<line x1="596.19" y1="919.86" x2="596.19" y2="855.06" style="stroke:#F0F0F0;stroke-width:9.72"/>
	<line x1="596.19" y1="822.66" x2="596.19" y2="757.86" style="stroke:#F0F0F0;stroke-width:9.72"/>
	<line x1="596.19" y1="725.46" x2="596.19" y2="660.66" style="stroke:#F0F0F0;stroke-width:9.72"/>
	<line x1="596.19" y1="628.26" x2="596.19" y2="563.46" style="stroke:#F0F0F0;stroke-width:9.72"/>
	<line x1="596.19" y1="531.06" x2="596.19" y2="466.26" style="stroke:#F0F0F0;stroke-width:9.72"/>
	<line x1="596.19" y1="433.86" x2="596.19" y2="369.06" style="stroke:#F0F0F0;stroke-width:9.72"/>
	<line x1="596.19" y1="336.66" x2="596.19" y2="271.86" style="stroke:#F0F0F0;stroke-width:9.72"/>
	<line x1="596.19" y1="239.46" x2="596.19" y2="174.66" style="stroke:#F0F0F0;stroke-width:9.72"/>
	<line x1="596.19" y1="142.26" x2="596.19" y2="113.40" style="stroke:#F0F0F0;stroke-width:9.72"/>
	<line x1="2135.87" y1="2766.66" x2="2135.87" y2="2701.86" style="stroke:#F0F0F0;stroke-width:9.72"/>
	<line x1="2135.87" y1="2669.46" x2="2135.87" y2="2604.66" style="stroke:#F0F0F0;stroke-width:9.72"/>
	<line x1="2135.87" y1="2572.26" x2="2135.87" y2="2507.46" style="stroke:#F0F0F0;stroke-width:9.72"/>
	<line x1="2135.87" y1="2475.06" x2="2135.87" y2="2410.26" style="stroke:#F0F0F0;stroke-width:9.72"/>
	<line x1="2135.87" y1="2377.86" x2="2135.87" y2="2313.06" style="stroke:#F0F0F0;stroke-width:9.72"/>
	<line x1="2135.87" y1="2280.66" x2="2135.87" y2="2215.86" style="stroke:#F0F0F0;stroke-width:9.72"/>
	<line x1="2135.87" y1="2183.46" x2="2135.87" y2="2118.66" style="stroke:#F0F0F0;stroke-width:9.72"/>
	<line x1="2135.87" y1="2086.26" x2="2135.87" y2="2021.46" style="stroke:#F0F0F0;stroke-width:9.72"/>
	<line x1="2135.87" y1="1989.06" x2="2135.87" y2="1924.26" style="stroke:#F0F0F0;stroke-width:9.72"/>
	<line x1="2135.87" y1="1891.86" x2="2135.87" y2="1827.06" style="stroke:#F0F0F0;stroke-width:9.72"/>
	<line x1="2135.87" y1="1794.66" x2="2135.87" y2="1729.86" style="stroke:#F0F0F0;stroke-width:9.72"/>
	<line x1="2135.87" y1="1697.46" x2="2135.87" y2="1632.66" style="stroke:#F0F0F0;stroke-width:9.72"/>
	<line x1="2135.87" y1="1600.26" x2="2135.87" y2="1535.46" style="stroke:#F0F0F0;stroke-width:9.72"/>
	<line x1="2135.87" y1="1503.06" x2="2135.87" y2="1438.26" style="stroke:#F0F0F0;stroke-width:9.72"/>
	<line x1="2135.87" y1="1405.86" x2="2135.87" y2="1341.06" style="stroke:#F0F0F0;stroke-width:9.72"/>
	<line x1="2135.87" y1="1308.66" x2="2135.87" y2="1243.86" style="stroke:#F0F0F0;stroke-width:9.72"/>
	<line x1="2135.87" y1="1211.46" x2="2135.87" y2="1146.66" style="stroke:#F0F0F0;stroke-width:9.72"/>
	<line x1="2135.87" y1="1114.26" x2="2135.87" y2="1049.46" style="stroke:#F0F0F0;stroke-width:9.72"/>
	<line x1="2135.87" y1="1017.06" x2="2135.87" y2="952.26" style="stroke:#F0F0F0;stroke-width:9.72"/>
	<line x1="2135.87" y1="919.86" x2="2135.87" y2="855.06" style="stroke:#F0F0F0;stroke-width:9.72"/>
	<line x1="2135.87" y1="822.66" x2="2135.87" y2="757.86" style="stroke:#F0F0F0;stroke-width:9.72"/>
	<line x1="2135.87" y1="725.46" x2="2135.87" y2="660.66" style="stroke:#F0F0F0;stroke-width:9.72"/>
	<line x1="2135.87" y1="628.26" x2="2135.87" y2="563.46" style="stroke:#F0F0F0;stroke-width:9.72"/>
	<line x1="2135.87" y1="531.06" x2="2135.87" y2="466.26" style="stroke:#F0F0F0;stroke-width:9.72"/>
	<line x1="2135.87" y1="433.86" x2="2135.87" y2="369.06" style="stroke:#F0F0F0;stroke-width:9.72"/>
	<line x1="2135.87" y1="336.66" x2="2135.87" y2="271.86" style="stroke:#F0F0F0;stroke-width:9.72"/>
	<line x1="2135.87" y1="239.46" x2="2135.87" y2="174.66" style="stroke:#F0F0F0;stroke-width:9.72"/>
	<line x1="2135.87" y1="142.26" x2="2135.87" y2="113.40" style="stroke:#F0F0F0;stroke-width:9.72"/>
	<line x1="3675.54" y1="2766.66" x2="3675.54" y2="2701.86" style="stroke:#F0F0F0;stroke-width:9.72"/>
	<line x1="3675.54" y1="2669.46" x2="3675.54" y2="2604.66" style="stroke:#F0F0F0;stroke-width:9.72"/>
	<line x1="3675.54" y1="2572.26" x2="3675.54" y2="2507.46" style="stroke:#F0F0F0;stroke-width:9.72"/>
	<line x1="3675.54" y1="2475.06" x2="3675.54" y2="2410.26" style="stroke:#F0F0F0;stroke-width:9.72"/>
	<line x1="3675.54" y1="2377.86" x2="3675.54" y2="2313.06" style="stroke:#F0F0F0;stroke-width:9.72"/>
	<line x1="3675.54" y1="2280.66" x2="3675.54" y2="2215.86" style="stroke:#F0F0F0;stroke-width:9.72"/>
	<line x1="3675.54" y1="2183.46" x2="3675.54" y2="2118.66" style="stroke:#F0F0F0;stroke-width:9.72"/>
	<line x1="3675.54" y1="2086.26" x2="3675.54" y2="2021.46" style="stroke:#F0F0F0;stroke-width:9.72"/>
	<line x1="3675.54" y1="1989.06" x2="3675.54" y2="1924.26" style="stroke:#F0F0F0;stroke-width:9.72"/>
	<line x1="3675.54" y1="1891.86" x2="3675.54" y2="1827.06" style="stroke:#F0F0F0;stroke-width:9.72"/>
	<line x1="3675.54" y1="1794.66" x2="3675.54" y2="1729.86" style="stroke:#F0F0F0;stroke-width:9.72"/>
	<line x1="3675.54" y1="1697.46" x2="3675.54" y2="1632.66" style="stroke:#F0F0F0;stroke-width:9.72"/>
	<line x1="3675.54" y1="1600.26" x2="3675.54" y2="1535.46" style="stroke:#F0F0F0;stroke-width:9.72"/>
	<line x1="3675.54" y1="1503.06" x2="3675.54" y2="1438.26" style="stroke:#F0F0F0;stroke-width:9.72"/>
	<line x1="3675.54" y1="1405.86" x2="3675.54" y2="1341.06" style="stroke:#F0F0F0;stroke-width:9.72"/>
	<line x1="3675.54" y1="1308.66" x2="3675.54" y2="1243.86" style="stroke:#F0F0F0;stroke-width:9.72"/>
	<line x1="3675.54" y1="1211.46" x2="3675.54" y2="1146.66" style="stroke:#F0F0F0;stroke-width:9.72"/>
	<line x1="3675.54" y1="1114.26" x2="3675.54" y2="1049.46" style="stroke:#F0F0F0;stroke-width:9.72"/>
	<line x1="3675.54" y1="1017.06" x2="3675.54" y2="952.26" style="stroke:#F0F0F0;stroke-width:9.72"/>
	<line x1="3675.54" y1="919.86" x2="3675.54" y2="855.06" style="stroke:#F0F0F0;stroke-width:9.72"/>
	<line x1="3675.54" y1="822.66" x2="3675.54" y2="757.86" style="stroke:#F0F0F0;stroke-width:9.72"/>
	<line x1="3675.54" y1="725.46" x2="3675.54" y2="660.66" style="stroke:#F0F0F0;stroke-width:9.72"/>
	<line x1="3675.54" y1="628.26" x2="3675.54" y2="563.46" style="stroke:#F0F0F0;stroke-width:9.72"/>
	<line x1="3675.54" y1="531.06" x2="3675.54" y2="466.26" style="stroke:#F0F0F0;stroke-width:9.72"/>
	<line x1="3675.54" y1="433.86" x2="3675.54" y2="369.06" style="stroke:#F0F0F0;stroke-width:9.72"/>
	<line x1="3675.54" y1="336.66" x2="3675.54" y2="271.86" style="stroke:#F0F0F0;stroke-width:9.72"/>
	<line x1="3675.54" y1="239.46" x2="3675.54" y2="174.66" style="stroke:#F0F0F0;stroke-width:9.72"/>
	<line x1="3675.54" y1="142.26" x2="3675.54" y2="113.40" style="stroke:#F0F0F0;stroke-width:9.72"/>
	<line x1="5215.39" y1="2766.66" x2="5215.39" y2="2701.86" style="stroke:#F0F0F0;stroke-width:9.72"/>
	<line x1="5215.39" y1="2669.46" x2="5215.39" y2="2604.66" style="stroke:#F0F0F0;stroke-width:9.72"/>
	<line x1="5215.39" y1="2572.26" x2="5215.39" y2="2507.46" style="stroke:#F0F0F0;stroke-width:9.72"/>
	<line x1="5215.39" y1="2475.06" x2="5215.39" y2="2410.26" style="stroke:#F0F0F0;stroke-width:9.72"/>
	<line x1="5215.39" y1="2377.86" x2="5215.39" y2="2313.06" style="stroke:#F0F0F0;stroke-width:9.72"/>
	<line x1="5215.39" y1="2280.66" x2="5215.39" y2="2215.86" style="stroke:#F0F0F0;stroke-width:9.72"/>
	<line x1="5215.39" y1="2183.46" x2="5215.39" y2="2118.66" style="stroke:#F0F0F0;stroke-width:9.72"/>
	<line x1="5215.39" y1="2086.26" x2="5215.39" y2="2021.46" style="stroke:#F0F0F0;stroke-width:9.72"/>
	<line x1="5215.39" y1="1989.06" x2="5215.39" y2="1924.26" style="stroke:#F0F0F0;stroke-width:9.72"/>
	<line x1="5215.39" y1="1891.86" x2="5215.39" y2="1827.06" style="stroke:#F0F0F0;stroke-width:9.72"/>
	<line x1="5215.39" y1="1794.66" x2="5215.39" y2="1729.86" style="stroke:#F0F0F0;stroke-width:9.72"/>
	<line x1="5215.39" y1="1697.46" x2="5215.39" y2="1632.66" style="stroke:#F0F0F0;stroke-width:9.72"/>
	<line x1="5215.39" y1="1600.26" x2="5215.39" y2="1535.46" style="stroke:#F0F0F0;stroke-width:9.72"/>
	<line x1="5215.39" y1="1503.06" x2="5215.39" y2="1438.26" style="stroke:#F0F0F0;stroke-width:9.72"/>
	<line x1="5215.39" y1="1405.86" x2="5215.39" y2="1341.06" style="stroke:#F0F0F0;stroke-width:9.72"/>
	<line x1="5215.39" y1="1308.66" x2="5215.39" y2="1243.86" style="stroke:#F0F0F0;stroke-width:9.72"/>
	<line x1="5215.39" y1="1211.46" x2="5215.39" y2="1146.66" style="stroke:#F0F0F0;stroke-width:9.72"/>
	<line x1="5215.39" y1="1114.26" x2="5215.39" y2="1049.46" style="stroke:#F0F0F0;stroke-width:9.72"/>
	<line x1="5215.39" y1="1017.06" x2="5215.39" y2="952.26" style="stroke:#F0F0F0;stroke-width:9.72"/>
	<line x1="5215.39" y1="919.86" x2="5215.39" y2="855.06" style="stroke:#F0F0F0;stroke-width:9.72"/>
	<line x1="5215.39" y1="822.66" x2="5215.39" y2="757.86" style="stroke:#F0F0F0;stroke-width:9.72"/>
	<line x1="5215.39" y1="725.46" x2="5215.39" y2="660.66" style="stroke:#F0F0F0;stroke-width:9.72"/>
	<line x1="5215.39" y1="628.26" x2="5215.39" y2="563.46" style="stroke:#F0F0F0;stroke-width:9.72"/>
	<line x1="5215.39" y1="531.06" x2="5215.39" y2="466.26" style="stroke:#F0F0F0;stroke-width:9.72"/>
	<line x1="5215.39" y1="433.86" x2="5215.39" y2="369.06" style="stroke:#F0F0F0;stroke-width:9.72"/>
	<line x1="5215.39" y1="336.66" x2="5215.39" y2="271.86" style="stroke:#F0F0F0;stroke-width:9.72"/>
	<line x1="5215.39" y1="239.46" x2="5215.39" y2="174.66" style="stroke:#F0F0F0;stroke-width:9.72"/>
	<line x1="5215.39" y1="142.26" x2="5215.39" y2="113.40" style="stroke:#F0F0F0;stroke-width:9.72"/>
	<line x1="524.98" y1="1772.38" x2="654.58" y2="1772.38" style="stroke:#000000;stroke-width:9.72"/>
	<line x1="686.98" y1="1772.38" x2="816.58" y2="1772.38" style="stroke:#000000;stroke-width:9.72"/>
	<line x1="848.98" y1="1772.38" x2="978.58" y2="1772.38" style="stroke:#000000;stroke-width:9.72"/>
	<line x1="1010.98" y1="1772.38" x2="1140.58" y2="1772.38" style="stroke:#000000;stroke-width:9.72"/>
	<line x1="1172.98" y1="1772.38" x2="1302.58" y2="1772.38" style="stroke:#000000;stroke-width:9.72"/>
	<line x1="1334.98" y1="1772.38" x2="1464.58" y2="1772.38" style="stroke:#000000;stroke-width:9.72"/>
	<line x1="1496.98" y1="1772.38" x2="1626.58" y2="1772.38" style="stroke:#000000;stroke-width:9.72"/>
	<line x1="1658.98" y1="1772.38" x2="1788.58" y2="1772.38" style="stroke:#000000;stroke-width:9.72"/>
	<line x1="1820.98" y1="1772.38" x2="1950.58" y2="1772.38" style="stroke:#000000;stroke-width:9.72"/>
	<line x1="1982.98" y1="1772.38" x2="2112.58" y2="1772.38" style="stroke:#000000;stroke-width:9.72"/>
	<line x1="2144.98" y1="1772.38" x2="2274.58" y2="1772.38" style="stroke:#000000;stroke-width:9.72"/>
	<line x1="2306.98" y1="1772.38" x2="2436.58" y2="1772.38" style="stroke:#000000;stroke-width:9.72"/>
	<line x1="2468.98" y1="1772.38" x2="2598.58" y2="1772.38" style="stroke:#000000;stroke-width:9.72"/>
	<line x1="2630.98" y1="1772.38" x2="2760.58" y2="1772.38" style="stroke:#000000;stroke-width:9.72"/>
	<line x1="2792.98" y1="1772.38" x2="2922.58" y2="1772.38" style="stroke:#000000;stroke-width:9.72"/>
	<line x1="2954.98" y1="1772.38" x2="3084.58" y2="1772.38" style="stroke:#000000;stroke-width:9.72"/>
	<line x1="3116.98" y1="1772.38" x2="3246.58" y2="1772.38" style="stroke:#000000;stroke-width:9.72"/>
	<line x1="3278.98" y1="1772.38" x2="3408.58" y2="1772.38" style="stroke:#000000;stroke-width:9.72"/>
	<line x1="3440.98" y1="1772.38" x2="3570.58" y2="1772.38" style="stroke:#000000;stroke-width:9.72"/>
	<line x1="3602.98" y1="1772.38" x2="3732.58" y2="1772.38" style="stroke:#000000;stroke-width:9.72"/>
	<line x1="3764.98" y1="1772.38" x2="3894.58" y2="1772.38" style="stroke:#000000;stroke-width:9.72"/>
	<line x1="3926.98" y1="1772.38" x2="4056.58" y2="1772.38" style="stroke:#000000;stroke-width:9.72"/>
	<line x1="4088.98" y1="1772.38" x2="4218.58" y2="1772.38" style="stroke:#000000;stroke-width:9.72"/>
	<line x1="4250.98" y1="1772.38" x2="4380.58" y2="1772.38" style="stroke:#000000;stroke-width:9.72"/>
	<line x1="4412.98" y1="1772.38" x2="4542.58" y2="1772.38" style="stroke:#000000;stroke-width:9.72"/>
	<line x1="4574.98" y1="1772.38" x2="4704.58" y2="1772.38" style="stroke:#000000;stroke-width:9.72"/>
	<line x1="4736.98" y1="1772.38" x2="4866.58" y2="1772.38" style="stroke:#000000;stroke-width:9.72"/>
	<line x1="4898.98" y1="1772.38" x2="5028.58" y2="1772.38" style="stroke:#000000;stroke-width:9.72"/>
	<line x1="5060.98" y1="1772.38" x2="5190.58" y2="1772.38" style="stroke:#000000;stroke-width:9.72"/>
	<line x1="5222.98" y1="1772.38" x2="5286.60" y2="1772.38" style="stroke:#000000;stroke-width:9.72"/>
	<path d=" M1462.05 571.22 L1464.08 584.55 L1468.63 558.56 L1492.09 558.56 L1493.94 571.22 L1495.13 564.47 L1499.51 559.41 L1522.46 550.46 L1550.98 543.21 L1556.72 601.76 L1578.66 586.24 L1580.01 612.06 L1618.82 627.24 L1625.74 612.56 L1632.83 654.24 L1653.41 622.01 L1672.31 543.88 L1678.56 623.53 L1681.93 640.41 L1692.56 701.16 L1695.60 583.88 L1706.57 577.80 L1712.81 615.26 L1717.71 610.03 L1732.73 554.01 L1751.46 601.59 L1753.31 602.78 L1758.71 603.28 L1782.34 640.07 L1788.92 640.91 L1791.11 649.35 L1800.73 659.98 L1806.13 709.59 L1809.51 709.59 L1824.86 700.14 L1843.76 670.78 L1872.11 728.16 L1916.16 698.96 L1924.26 727.99 L1930.16 593.16 L1960.37 666.56 L1966.78 770.18 L2000.53 690.69 L2060.78 669.94 L2070.06 589.11 L2085.75 595.01 L2087.44 571.56 L2104.48 579.82 L2153.42 534.94 L2170.29 623.03 L2244.71 623.03 L2257.54 656.94 L2287.41 535.61 L2334.66 536.46 L2362.84 536.46 L2404.52 535.61 L2407.22 556.20 L2417.01 540.00 L2458.18 556.88 L2459.36 640.24 L2608.88 795.15 L2666.08 867.21 L2747.59 762.92 L3096.39 762.92 L3148.20 787.72 L3191.74 943.14 L3206.93 894.38 L3224.48 936.06 L3233.25 861.47 L3343.61 1007.44 L3482.83 833.29 L3516.41 761.57 L3517.26 1564.99 L3544.09 2284.03 L3554.04 2542.05 L3566.87 2695.44 L3575.48 2423.42 L3578.01 2177.04 L3609.73 850.16 L3684.83 778.28 L3724.14 766.46 L3730.89 856.57 L3737.81 921.04 L3758.91 1098.22 L3777.81 994.28 L3788.44 972.34 L3822.86 1362.99 L3852.90 1146.99 L3871.46 1224.79 L3876.53 1174.33 L3894.92 1287.06 L3919.73 743.51 L3935.08 694.74 L3952.13 571.22 L3959.38 571.22 L4042.74 555.19 L4043.08 544.22 L4074.98 544.39 L4110.41 546.75 L4118.01 536.29 L4128.98 538.82 L4138.26 655.09 L4160.53 582.36 L4232.42 563.63 L4259.76 560.42 L4288.27 566.32 L4303.46 563.12 L4309.20 545.57 L4315.44 588.43 L4318.31 583.71 L4336.88 558.90 L4347.68 564.30 L4365.90 588.77 L4386.99 581.34 L4408.93 598.89 L4410.62 622.86 L4416.69 635.68 L4427.33 569.53 L4464.11 578.47 L4541.74 584.21 L4571.61 830.93 L4621.56 1045.74 L4695.98 1029.04 L4753.35 1012.84 L4791.32 788.06 L4797.73 695.76 L4842.96 684.79 L4957.54 556.03 L4980.15 575.27" stroke-linejoin="round" style="fill:none;stroke:#1A85FF;stroke-width:9.72"/>
	<line x1="524.98" y1="2766.66" x2="524.98" y2="113.40" style="stroke:#000000;stroke-width:6.48"/>
	<line x1="524.98" y1="2695.28" x2="479.93" y2="2695.28" style="stroke:#000000;stroke-width:6.48"/>
	<text x="457.48" y="2734.71" style="font-family:'Helvetica';font-size:112.56px;fill:#000000" text-anchor="end">0</text>
	<line x1="524.98" y1="2067.69" x2="479.93" y2="2067.69" style="stroke:#000000;stroke-width:6.48"/>
	<text x="457.48" y="2107.13" style="font-family:'Helvetica';font-size:112.56px;fill:#000000" text-anchor="end">5</text>
	<line x1="524.98" y1="1439.94" x2="479.93" y2="1439.94" style="stroke:#000000;stroke-width:6.48"/>
	<text x="457.48" y="1479.38" style="font-family:'Helvetica';font-size:112.56px;fill:#000000" text-anchor="end">10</text>
	<line x1="524.98" y1="812.36" x2="479.93" y2="812.36" style="stroke:#000000;stroke-width:6.48"/>
	<text x="457.48" y="851.80" style="font-family:'Helvetica';font-size:112.56px;fill:#000000" text-anchor="end">15</text>
	<line x1="524.98" y1="184.61" x2="479.93" y2="184.61" style="stroke:#000000;stroke-width:6.48"/>
	<text x="457.48" y="224.05" style="font-family:'Helvetica';font-size:112.56px;fill:#000000" text-anchor="end">20</text>
	<text x="214.55" y="1439.94" style="font-family:'Helvetica';font-size:112.56px;fill:#000000" transform="rotate(-90 214.55,1439.94)" text-anchor="middle">Likelihood Ratio</text>
	<line x1="524.98" y1="2766.66" x2="5286.60" y2="2766.66" style="stroke:#000000;stroke-width:6.48"/>
	<line x1="596.19" y1="2766.66" x2="596.19" y2="2811.54" style="stroke:#000000;stroke-width:6.48"/>
	<text x="596.19" y="2912.86" style="font-family:'Helvetica';font-size:112.56px;fill:#000000" text-anchor="middle">0</text>
	<line x1="2135.87" y1="2766.66" x2="2135.87" y2="2811.54" style="stroke:#000000;stroke-width:6.48"/>
	<text x="2135.87" y="2912.86" style="font-family:'Helvetica';font-size:112.56px;fill:#000000" text-anchor="middle">50</text>
	<line x1="3675.54" y1="2766.66" x2="3675.54" y2="2811.54" style="stroke:#000000;stroke-width:6.48"/>
	<text x="3675.54" y="2912.86" style="font-family:'Helvetica';font-size:112.56px;fill:#000000" text-anchor="middle">100</text>
	<line x1="5215.39" y1="2766.66" x2="5215.39" y2="2811.54" style="stroke:#000000;stroke-width:6.48"/>
	<text x="5215.39" y="2912.86" style="font-family:'Helvetica';font-size:112.56px;fill:#000000" text-anchor="middle">150</text>
	<text x="2905.71" y="3070.31" style="font-family:'Helvetica';font-size:112.56px;fill:#000000" text-anchor="middle">Threshold Parameter</text>
</svg>
