<?xml version="1.0" encoding="UTF-8" standalone="no"?>
<!-- This is a Stata 19.5 generated SVG file (http://www.stata.com) -->

<svg version="1.1" width="7.500in" height="4.500in" viewBox="0 0 5400 3240" xmlns="http://www.w3.org/2000/svg" xmlns:xlink="http://www.w3.org/1999/xlink">
	<desc>Stata Graph - G3</desc>
	<rect x="0" y="0" width="5400" height="3240" style="fill:#FFFFFF;stroke:none"/>
	<rect x="0.00" y="0.00" width="5400.00" height="3240.00" style="fill:#FFFFFF"/>
	<rect x="3.24" y="3.24" width="5393.52" height="3233.52" style="fill:none;stroke:#FFFFFF;stroke-width:6.48"/>
	<rect x="376.31" y="113.40" width="4748.29" height="2208.26" style="fill:#FFFFFF"/>
	<rect x="379.55" y="116.64" width="4741.81" height="2201.78" style="fill:none;stroke:#FFFFFF;stroke-width:6.48"/>
	<line x1="376.31" y1="2250.45" x2="441.11" y2="2250.45" style="stroke:#F0F0F0;stroke-width:9.72"/>
	<line x1="473.51" y1="2250.45" x2="538.31" y2="2250.45" style="stroke:#F0F0F0;stroke-width:9.72"/>
	<line x1="570.71" y1="2250.45" x2="635.51" y2="2250.45" style="stroke:#F0F0F0;stroke-width:9.72"/>
	<line x1="667.91" y1="2250.45" x2="732.71" y2="2250.45" style="stroke:#F0F0F0;stroke-width:9.72"/>
	<line x1="765.11" y1="2250.45" x2="829.91" y2="2250.45" style="stroke:#F0F0F0;stroke-width:9.72"/>
	<line x1="862.31" y1="2250.45" x2="927.11" y2="2250.45" style="stroke:#F0F0F0;stroke-width:9.72"/>
	<line x1="959.51" y1="2250.45" x2="1024.31" y2="2250.45" style="stroke:#F0F0F0;stroke-width:9.72"/>
	<line x1="1056.71" y1="2250.45" x2="1121.51" y2="2250.45" style="stroke:#F0F0F0;stroke-width:9.72"/>
	<line x1="1153.91" y1="2250.45" x2="1218.71" y2="2250.45" style="stroke:#F0F0F0;stroke-width:9.72"/>
	<line x1="1251.11" y1="2250.45" x2="1315.91" y2="2250.45" style="stroke:#F0F0F0;stroke-width:9.72"/>
	<line x1="1348.31" y1="2250.45" x2="1413.11" y2="2250.45" style="stroke:#F0F0F0;stroke-width:9.72"/>
	<line x1="1445.51" y1="2250.45" x2="1510.31" y2="2250.45" style="stroke:#F0F0F0;stroke-width:9.72"/>
	<line x1="1542.71" y1="2250.45" x2="1607.51" y2="2250.45" style="stroke:#F0F0F0;stroke-width:9.72"/>
	<line x1="1639.91" y1="2250.45" x2="1704.71" y2="2250.45" style="stroke:#F0F0F0;stroke-width:9.72"/>
	<line x1="1737.11" y1="2250.45" x2="1801.91" y2="2250.45" style="stroke:#F0F0F0;stroke-width:9.72"/>
	<line x1="1834.31" y1="2250.45" x2="1899.11" y2="2250.45" style="stroke:#F0F0F0;stroke-width:9.72"/>
	<line x1="1931.51" y1="2250.45" x2="1996.31" y2="2250.45" style="stroke:#F0F0F0;stroke-width:9.72"/>
	<line x1="2028.71" y1="2250.45" x2="2093.51" y2="2250.45" style="stroke:#F0F0F0;stroke-width:9.72"/>
	<line x1="2125.91" y1="2250.45" x2="2190.71" y2="2250.45" style="stroke:#F0F0F0;stroke-width:9.72"/>
	<line x1="2223.11" y1="2250.45" x2="2287.91" y2="2250.45" style="stroke:#F0F0F0;stroke-width:9.72"/>
	<line x1="2320.31" y1="2250.45" x2="2385.11" y2="2250.45" style="stroke:#F0F0F0;stroke-width:9.72"/>
	<line x1="2417.51" y1="2250.45" x2="2482.31" y2="2250.45" style="stroke:#F0F0F0;stroke-width:9.72"/>
	<line x1="2514.71" y1="2250.45" x2="2579.51" y2="2250.45" style="stroke:#F0F0F0;stroke-width:9.72"/>
	<line x1="2611.91" y1="2250.45" x2="2676.71" y2="2250.45" style="stroke:#F0F0F0;stroke-width:9.72"/>
	<line x1="2709.11" y1="2250.45" x2="2773.91" y2="2250.45" style="stroke:#F0F0F0;stroke-width:9.72"/>
	<line x1="2806.31" y1="2250.45" x2="2871.11" y2="2250.45" style="stroke:#F0F0F0;stroke-width:9.72"/>
	<line x1="2903.51" y1="2250.45" x2="2968.31" y2="2250.45" style="stroke:#F0F0F0;stroke-width:9.72"/>
	<line x1="3000.71" y1="2250.45" x2="3065.51" y2="2250.45" style="stroke:#F0F0F0;stroke-width:9.72"/>
	<line x1="3097.91" y1="2250.45" x2="3162.71" y2="2250.45" style="stroke:#F0F0F0;stroke-width:9.72"/>
	<line x1="3195.11" y1="2250.45" x2="3259.91" y2="2250.45" style="stroke:#F0F0F0;stroke-width:9.72"/>
	<line x1="3292.31" y1="2250.45" x2="3357.11" y2="2250.45" style="stroke:#F0F0F0;stroke-width:9.72"/>
	<line x1="3389.51" y1="2250.45" x2="3454.31" y2="2250.45" style="stroke:#F0F0F0;stroke-width:9.72"/>
	<line x1="3486.71" y1="2250.45" x2="3551.51" y2="2250.45" style="stroke:#F0F0F0;stroke-width:9.72"/>
	<line x1="3583.91" y1="2250.45" x2="3648.71" y2="2250.45" style="stroke:#F0F0F0;stroke-width:9.72"/>
	<line x1="3681.11" y1="2250.45" x2="3745.91" y2="2250.45" style="stroke:#F0F0F0;stroke-width:9.72"/>
	<line x1="3778.31" y1="2250.45" x2="3843.11" y2="2250.45" style="stroke:#F0F0F0;stroke-width:9.72"/>
	<line x1="3875.51" y1="2250.45" x2="3940.31" y2="2250.45" style="stroke:#F0F0F0;stroke-width:9.72"/>
	<line x1="3972.71" y1="2250.45" x2="4037.51" y2="2250.45" style="stroke:#F0F0F0;stroke-width:9.72"/>
	<line x1="4069.91" y1="2250.45" x2="4134.71" y2="2250.45" style="stroke:#F0F0F0;stroke-width:9.72"/>
	<line x1="4167.11" y1="2250.45" x2="4231.91" y2="2250.45" style="stroke:#F0F0F0;stroke-width:9.72"/>
	<line x1="4264.31" y1="2250.45" x2="4329.11" y2="2250.45" style="stroke:#F0F0F0;stroke-width:9.72"/>
	<line x1="4361.51" y1="2250.45" x2="4426.31" y2="2250.45" style="stroke:#F0F0F0;stroke-width:9.72"/>
	<line x1="4458.71" y1="2250.45" x2="4523.51" y2="2250.45" style="stroke:#F0F0F0;stroke-width:9.72"/>
	<line x1="4555.91" y1="2250.45" x2="4620.71" y2="2250.45" style="stroke:#F0F0F0;stroke-width:9.72"/>
	<line x1="4653.11" y1="2250.45" x2="4717.91" y2="2250.45" style="stroke:#F0F0F0;stroke-width:9.72"/>
	<line x1="4750.31" y1="2250.45" x2="4815.11" y2="2250.45" style="stroke:#F0F0F0;stroke-width:9.72"/>
	<line x1="4847.51" y1="2250.45" x2="4912.31" y2="2250.45" style="stroke:#F0F0F0;stroke-width:9.72"/>
	<line x1="4944.71" y1="2250.45" x2="5009.51" y2="2250.45" style="stroke:#F0F0F0;stroke-width:9.72"/>
	<line x1="5041.91" y1="2250.45" x2="5106.71" y2="2250.45" style="stroke:#F0F0F0;stroke-width:9.72"/>
	<line x1="376.31" y1="1772.89" x2="441.11" y2="1772.89" style="stroke:#F0F0F0;stroke-width:9.72"/>
	<line x1="473.51" y1="1772.89" x2="538.31" y2="1772.89" style="stroke:#F0F0F0;stroke-width:9.72"/>
	<line x1="570.71" y1="1772.89" x2="635.51" y2="1772.89" style="stroke:#F0F0F0;stroke-width:9.72"/>
	<line x1="667.91" y1="1772.89" x2="732.71" y2="1772.89" style="stroke:#F0F0F0;stroke-width:9.72"/>
	<line x1="765.11" y1="1772.89" x2="829.91" y2="1772.89" style="stroke:#F0F0F0;stroke-width:9.72"/>
	<line x1="862.31" y1="1772.89" x2="927.11" y2="1772.89" style="stroke:#F0F0F0;stroke-width:9.72"/>
	<line x1="959.51" y1="1772.89" x2="1024.31" y2="1772.89" style="stroke:#F0F0F0;stroke-width:9.72"/>
	<line x1="1056.71" y1="1772.89" x2="1121.51" y2="1772.89" style="stroke:#F0F0F0;stroke-width:9.72"/>
	<line x1="1153.91" y1="1772.89" x2="1218.71" y2="1772.89" style="stroke:#F0F0F0;stroke-width:9.72"/>
	<line x1="1251.11" y1="1772.89" x2="1315.91" y2="1772.89" style="stroke:#F0F0F0;stroke-width:9.72"/>
	<line x1="1348.31" y1="1772.89" x2="1413.11" y2="1772.89" style="stroke:#F0F0F0;stroke-width:9.72"/>
	<line x1="1445.51" y1="1772.89" x2="1510.31" y2="1772.89" style="stroke:#F0F0F0;stroke-width:9.72"/>
	<line x1="1542.71" y1="1772.89" x2="1607.51" y2="1772.89" style="stroke:#F0F0F0;stroke-width:9.72"/>
	<line x1="1639.91" y1="1772.89" x2="1704.71" y2="1772.89" style="stroke:#F0F0F0;stroke-width:9.72"/>
	<line x1="1737.11" y1="1772.89" x2="1801.91" y2="1772.89" style="stroke:#F0F0F0;stroke-width:9.72"/>
	<line x1="1834.31" y1="1772.89" x2="1899.11" y2="1772.89" style="stroke:#F0F0F0;stroke-width:9.72"/>
	<line x1="1931.51" y1="1772.89" x2="1996.31" y2="1772.89" style="stroke:#F0F0F0;stroke-width:9.72"/>
	<line x1="2028.71" y1="1772.89" x2="2093.51" y2="1772.89" style="stroke:#F0F0F0;stroke-width:9.72"/>
	<line x1="2125.91" y1="1772.89" x2="2190.71" y2="1772.89" style="stroke:#F0F0F0;stroke-width:9.72"/>
	<line x1="2223.11" y1="1772.89" x2="2287.91" y2="1772.89" style="stroke:#F0F0F0;stroke-width:9.72"/>
	<line x1="2320.31" y1="1772.89" x2="2385.11" y2="1772.89" style="stroke:#F0F0F0;stroke-width:9.72"/>
	<line x1="2417.51" y1="1772.89" x2="2482.31" y2="1772.89" style="stroke:#F0F0F0;stroke-width:9.72"/>
	<line x1="2514.71" y1="1772.89" x2="2579.51" y2="1772.89" style="stroke:#F0F0F0;stroke-width:9.72"/>
	<line x1="2611.91" y1="1772.89" x2="2676.71" y2="1772.89" style="stroke:#F0F0F0;stroke-width:9.72"/>
	<line x1="2709.11" y1="1772.89" x2="2773.91" y2="1772.89" style="stroke:#F0F0F0;stroke-width:9.72"/>
	<line x1="2806.31" y1="1772.89" x2="2871.11" y2="1772.89" style="stroke:#F0F0F0;stroke-width:9.72"/>
	<line x1="2903.51" y1="1772.89" x2="2968.31" y2="1772.89" style="stroke:#F0F0F0;stroke-width:9.72"/>
	<line x1="3000.71" y1="1772.89" x2="3065.51" y2="1772.89" style="stroke:#F0F0F0;stroke-width:9.72"/>
	<line x1="3097.91" y1="1772.89" x2="3162.71" y2="1772.89" style="stroke:#F0F0F0;stroke-width:9.72"/>
	<line x1="3195.11" y1="1772.89" x2="3259.91" y2="1772.89" style="stroke:#F0F0F0;stroke-width:9.72"/>
	<line x1="3292.31" y1="1772.89" x2="3357.11" y2="1772.89" style="stroke:#F0F0F0;stroke-width:9.72"/>
	<line x1="3389.51" y1="1772.89" x2="3454.31" y2="1772.89" style="stroke:#F0F0F0;stroke-width:9.72"/>
	<line x1="3486.71" y1="1772.89" x2="3551.51" y2="1772.89" style="stroke:#F0F0F0;stroke-width:9.72"/>
	<line x1="3583.91" y1="1772.89" x2="3648.71" y2="1772.89" style="stroke:#F0F0F0;stroke-width:9.72"/>
	<line x1="3681.11" y1="1772.89" x2="3745.91" y2="1772.89" style="stroke:#F0F0F0;stroke-width:9.72"/>
	<line x1="3778.31" y1="1772.89" x2="3843.11" y2="1772.89" style="stroke:#F0F0F0;stroke-width:9.72"/>
	<line x1="3875.51" y1="1772.89" x2="3940.31" y2="1772.89" style="stroke:#F0F0F0;stroke-width:9.72"/>
	<line x1="3972.71" y1="1772.89" x2="4037.51" y2="1772.89" style="stroke:#F0F0F0;stroke-width:9.72"/>
	<line x1="4069.91" y1="1772.89" x2="4134.71" y2="1772.89" style="stroke:#F0F0F0;stroke-width:9.72"/>
	<line x1="4167.11" y1="1772.89" x2="4231.91" y2="1772.89" style="stroke:#F0F0F0;stroke-width:9.72"/>
	<line x1="4264.31" y1="1772.89" x2="4329.11" y2="1772.89" style="stroke:#F0F0F0;stroke-width:9.72"/>
	<line x1="4361.51" y1="1772.89" x2="4426.31" y2="1772.89" style="stroke:#F0F0F0;stroke-width:9.72"/>
	<line x1="4458.71" y1="1772.89" x2="4523.51" y2="1772.89" style="stroke:#F0F0F0;stroke-width:9.72"/>
	<line x1="4555.91" y1="1772.89" x2="4620.71" y2="1772.89" style="stroke:#F0F0F0;stroke-width:9.72"/>
	<line x1="4653.11" y1="1772.89" x2="4717.91" y2="1772.89" style="stroke:#F0F0F0;stroke-width:9.72"/>
	<line x1="4750.31" y1="1772.89" x2="4815.11" y2="1772.89" style="stroke:#F0F0F0;stroke-width:9.72"/>
	<line x1="4847.51" y1="1772.89" x2="4912.31" y2="1772.89" style="stroke:#F0F0F0;stroke-width:9.72"/>
	<line x1="4944.71" y1="1772.89" x2="5009.51" y2="1772.89" style="stroke:#F0F0F0;stroke-width:9.72"/>
	<line x1="5041.91" y1="1772.89" x2="5106.71" y2="1772.89" style="stroke:#F0F0F0;stroke-width:9.72"/>
	<line x1="376.31" y1="1295.33" x2="441.11" y2="1295.33" style="stroke:#F0F0F0;stroke-width:9.72"/>
	<line x1="473.51" y1="1295.33" x2="538.31" y2="1295.33" style="stroke:#F0F0F0;stroke-width:9.72"/>
	<line x1="570.71" y1="1295.33" x2="635.51" y2="1295.33" style="stroke:#F0F0F0;stroke-width:9.72"/>
	<line x1="667.91" y1="1295.33" x2="732.71" y2="1295.33" style="stroke:#F0F0F0;stroke-width:9.72"/>
	<line x1="765.11" y1="1295.33" x2="829.91" y2="1295.33" style="stroke:#F0F0F0;stroke-width:9.72"/>
	<line x1="862.31" y1="1295.33" x2="927.11" y2="1295.33" style="stroke:#F0F0F0;stroke-width:9.72"/>
	<line x1="959.51" y1="1295.33" x2="1024.31" y2="1295.33" style="stroke:#F0F0F0;stroke-width:9.72"/>
	<line x1="1056.71" y1="1295.33" x2="1121.51" y2="1295.33" style="stroke:#F0F0F0;stroke-width:9.72"/>
	<line x1="1153.91" y1="1295.33" x2="1218.71" y2="1295.33" style="stroke:#F0F0F0;stroke-width:9.72"/>
	<line x1="1251.11" y1="1295.33" x2="1315.91" y2="1295.33" style="stroke:#F0F0F0;stroke-width:9.72"/>
	<line x1="1348.31" y1="1295.33" x2="1413.11" y2="1295.33" style="stroke:#F0F0F0;stroke-width:9.72"/>
	<line x1="1445.51" y1="1295.33" x2="1510.31" y2="1295.33" style="stroke:#F0F0F0;stroke-width:9.72"/>
	<line x1="1542.71" y1="1295.33" x2="1607.51" y2="1295.33" style="stroke:#F0F0F0;stroke-width:9.72"/>
	<line x1="1639.91" y1="1295.33" x2="1704.71" y2="1295.33" style="stroke:#F0F0F0;stroke-width:9.72"/>
	<line x1="1737.11" y1="1295.33" x2="1801.91" y2="1295.33" style="stroke:#F0F0F0;stroke-width:9.72"/>
	<line x1="1834.31" y1="1295.33" x2="1899.11" y2="1295.33" style="stroke:#F0F0F0;stroke-width:9.72"/>
	<line x1="1931.51" y1="1295.33" x2="1996.31" y2="1295.33" style="stroke:#F0F0F0;stroke-width:9.72"/>
	<line x1="2028.71" y1="1295.33" x2="2093.51" y2="1295.33" style="stroke:#F0F0F0;stroke-width:9.72"/>
	<line x1="2125.91" y1="1295.33" x2="2190.71" y2="1295.33" style="stroke:#F0F0F0;stroke-width:9.72"/>
	<line x1="2223.11" y1="1295.33" x2="2287.91" y2="1295.33" style="stroke:#F0F0F0;stroke-width:9.72"/>
	<line x1="2320.31" y1="1295.33" x2="2385.11" y2="1295.33" style="stroke:#F0F0F0;stroke-width:9.72"/>
	<line x1="2417.51" y1="1295.33" x2="2482.31" y2="1295.33" style="stroke:#F0F0F0;stroke-width:9.72"/>
	<line x1="2514.71" y1="1295.33" x2="2579.51" y2="1295.33" style="stroke:#F0F0F0;stroke-width:9.72"/>
	<line x1="2611.91" y1="1295.33" x2="2676.71" y2="1295.33" style="stroke:#F0F0F0;stroke-width:9.72"/>
	<line x1="2709.11" y1="1295.33" x2="2773.91" y2="1295.33" style="stroke:#F0F0F0;stroke-width:9.72"/>
	<line x1="2806.31" y1="1295.33" x2="2871.11" y2="1295.33" style="stroke:#F0F0F0;stroke-width:9.72"/>
	<line x1="2903.51" y1="1295.33" x2="2968.31" y2="1295.33" style="stroke:#F0F0F0;stroke-width:9.72"/>
	<line x1="3000.71" y1="1295.33" x2="3065.51" y2="1295.33" style="stroke:#F0F0F0;stroke-width:9.72"/>
	<line x1="3097.91" y1="1295.33" x2="3162.71" y2="1295.33" style="stroke:#F0F0F0;stroke-width:9.72"/>
	<line x1="3195.11" y1="1295.33" x2="3259.91" y2="1295.33" style="stroke:#F0F0F0;stroke-width:9.72"/>
	<line x1="3292.31" y1="1295.33" x2="3357.11" y2="1295.33" style="stroke:#F0F0F0;stroke-width:9.72"/>
	<line x1="3389.51" y1="1295.33" x2="3454.31" y2="1295.33" style="stroke:#F0F0F0;stroke-width:9.72"/>
	<line x1="3486.71" y1="1295.33" x2="3551.51" y2="1295.33" style="stroke:#F0F0F0;stroke-width:9.72"/>
	<line x1="3583.91" y1="1295.33" x2="3648.71" y2="1295.33" style="stroke:#F0F0F0;stroke-width:9.72"/>
	<line x1="3681.11" y1="1295.33" x2="3745.91" y2="1295.33" style="stroke:#F0F0F0;stroke-width:9.72"/>
	<line x1="3778.31" y1="1295.33" x2="3843.11" y2="1295.33" style="stroke:#F0F0F0;stroke-width:9.72"/>
	<line x1="3875.51" y1="1295.33" x2="3940.31" y2="1295.33" style="stroke:#F0F0F0;stroke-width:9.72"/>
	<line x1="3972.71" y1="1295.33" x2="4037.51" y2="1295.33" style="stroke:#F0F0F0;stroke-width:9.72"/>
	<line x1="4069.91" y1="1295.33" x2="4134.71" y2="1295.33" style="stroke:#F0F0F0;stroke-width:9.72"/>
	<line x1="4167.11" y1="1295.33" x2="4231.91" y2="1295.33" style="stroke:#F0F0F0;stroke-width:9.72"/>
	<line x1="4264.31" y1="1295.33" x2="4329.11" y2="1295.33" style="stroke:#F0F0F0;stroke-width:9.72"/>
	<line x1="4361.51" y1="1295.33" x2="4426.31" y2="1295.33" style="stroke:#F0F0F0;stroke-width:9.72"/>
	<line x1="4458.71" y1="1295.33" x2="4523.51" y2="1295.33" style="stroke:#F0F0F0;stroke-width:9.72"/>
	<line x1="4555.91" y1="1295.33" x2="4620.71" y2="1295.33" style="stroke:#F0F0F0;stroke-width:9.72"/>
	<line x1="4653.11" y1="1295.33" x2="4717.91" y2="1295.33" style="stroke:#F0F0F0;stroke-width:9.72"/>
	<line x1="4750.31" y1="1295.33" x2="4815.11" y2="1295.33" style="stroke:#F0F0F0;stroke-width:9.72"/>
	<line x1="4847.51" y1="1295.33" x2="4912.31" y2="1295.33" style="stroke:#F0F0F0;stroke-width:9.72"/>
	<line x1="4944.71" y1="1295.33" x2="5009.51" y2="1295.33" style="stroke:#F0F0F0;stroke-width:9.72"/>
	<line x1="5041.91" y1="1295.33" x2="5106.71" y2="1295.33" style="stroke:#F0F0F0;stroke-width:9.72"/>
	<line x1="376.31" y1="817.76" x2="441.11" y2="817.76" style="stroke:#F0F0F0;stroke-width:9.72"/>
	<line x1="473.51" y1="817.76" x2="538.31" y2="817.76" style="stroke:#F0F0F0;stroke-width:9.72"/>
	<line x1="570.71" y1="817.76" x2="635.51" y2="817.76" style="stroke:#F0F0F0;stroke-width:9.72"/>
	<line x1="667.91" y1="817.76" x2="732.71" y2="817.76" style="stroke:#F0F0F0;stroke-width:9.72"/>
	<line x1="765.11" y1="817.76" x2="829.91" y2="817.76" style="stroke:#F0F0F0;stroke-width:9.72"/>
	<line x1="862.31" y1="817.76" x2="927.11" y2="817.76" style="stroke:#F0F0F0;stroke-width:9.72"/>
	<line x1="959.51" y1="817.76" x2="1024.31" y2="817.76" style="stroke:#F0F0F0;stroke-width:9.72"/>
	<line x1="1056.71" y1="817.76" x2="1121.51" y2="817.76" style="stroke:#F0F0F0;stroke-width:9.72"/>
	<line x1="1153.91" y1="817.76" x2="1218.71" y2="817.76" style="stroke:#F0F0F0;stroke-width:9.72"/>
	<line x1="1251.11" y1="817.76" x2="1315.91" y2="817.76" style="stroke:#F0F0F0;stroke-width:9.72"/>
	<line x1="1348.31" y1="817.76" x2="1413.11" y2="817.76" style="stroke:#F0F0F0;stroke-width:9.72"/>
	<line x1="1445.51" y1="817.76" x2="1510.31" y2="817.76" style="stroke:#F0F0F0;stroke-width:9.72"/>
	<line x1="1542.71" y1="817.76" x2="1607.51" y2="817.76" style="stroke:#F0F0F0;stroke-width:9.72"/>
	<line x1="1639.91" y1="817.76" x2="1704.71" y2="817.76" style="stroke:#F0F0F0;stroke-width:9.72"/>
	<line x1="1737.11" y1="817.76" x2="1801.91" y2="817.76" style="stroke:#F0F0F0;stroke-width:9.72"/>
	<line x1="1834.31" y1="817.76" x2="1899.11" y2="817.76" style="stroke:#F0F0F0;stroke-width:9.72"/>
	<line x1="1931.51" y1="817.76" x2="1996.31" y2="817.76" style="stroke:#F0F0F0;stroke-width:9.72"/>
	<line x1="2028.71" y1="817.76" x2="2093.51" y2="817.76" style="stroke:#F0F0F0;stroke-width:9.72"/>
	<line x1="2125.91" y1="817.76" x2="2190.71" y2="817.76" style="stroke:#F0F0F0;stroke-width:9.72"/>
	<line x1="2223.11" y1="817.76" x2="2287.91" y2="817.76" style="stroke:#F0F0F0;stroke-width:9.72"/>
	<line x1="2320.31" y1="817.76" x2="2385.11" y2="817.76" style="stroke:#F0F0F0;stroke-width:9.72"/>
	<line x1="2417.51" y1="817.76" x2="2482.31" y2="817.76" style="stroke:#F0F0F0;stroke-width:9.72"/>
	<line x1="2514.71" y1="817.76" x2="2579.51" y2="817.76" style="stroke:#F0F0F0;stroke-width:9.72"/>
	<line x1="2611.91" y1="817.76" x2="2676.71" y2="817.76" style="stroke:#F0F0F0;stroke-width:9.72"/>
	<line x1="2709.11" y1="817.76" x2="2773.91" y2="817.76" style="stroke:#F0F0F0;stroke-width:9.72"/>
	<line x1="2806.31" y1="817.76" x2="2871.11" y2="817.76" style="stroke:#F0F0F0;stroke-width:9.72"/>
	<line x1="2903.51" y1="817.76" x2="2968.31" y2="817.76" style="stroke:#F0F0F0;stroke-width:9.72"/>
	<line x1="3000.71" y1="817.76" x2="3065.51" y2="817.76" style="stroke:#F0F0F0;stroke-width:9.72"/>
	<line x1="3097.91" y1="817.76" x2="3162.71" y2="817.76" style="stroke:#F0F0F0;stroke-width:9.72"/>
	<line x1="3195.11" y1="817.76" x2="3259.91" y2="817.76" style="stroke:#F0F0F0;stroke-width:9.72"/>
	<line x1="3292.31" y1="817.76" x2="3357.11" y2="817.76" style="stroke:#F0F0F0;stroke-width:9.72"/>
	<line x1="3389.51" y1="817.76" x2="3454.31" y2="817.76" style="stroke:#F0F0F0;stroke-width:9.72"/>
	<line x1="3486.71" y1="817.76" x2="3551.51" y2="817.76" style="stroke:#F0F0F0;stroke-width:9.72"/>
	<line x1="3583.91" y1="817.76" x2="3648.71" y2="817.76" style="stroke:#F0F0F0;stroke-width:9.72"/>
	<line x1="3681.11" y1="817.76" x2="3745.91" y2="817.76" style="stroke:#F0F0F0;stroke-width:9.72"/>
	<line x1="3778.31" y1="817.76" x2="3843.11" y2="817.76" style="stroke:#F0F0F0;stroke-width:9.72"/>
	<line x1="3875.51" y1="817.76" x2="3940.31" y2="817.76" style="stroke:#F0F0F0;stroke-width:9.72"/>
	<line x1="3972.71" y1="817.76" x2="4037.51" y2="817.76" style="stroke:#F0F0F0;stroke-width:9.72"/>
	<line x1="4069.91" y1="817.76" x2="4134.71" y2="817.76" style="stroke:#F0F0F0;stroke-width:9.72"/>
	<line x1="4167.11" y1="817.76" x2="4231.91" y2="817.76" style="stroke:#F0F0F0;stroke-width:9.72"/>
	<line x1="4264.31" y1="817.76" x2="4329.11" y2="817.76" style="stroke:#F0F0F0;stroke-width:9.72"/>
	<line x1="4361.51" y1="817.76" x2="4426.31" y2="817.76" style="stroke:#F0F0F0;stroke-width:9.72"/>
	<line x1="4458.71" y1="817.76" x2="4523.51" y2="817.76" style="stroke:#F0F0F0;stroke-width:9.72"/>
	<line x1="4555.91" y1="817.76" x2="4620.71" y2="817.76" style="stroke:#F0F0F0;stroke-width:9.72"/>
	<line x1="4653.11" y1="817.76" x2="4717.91" y2="817.76" style="stroke:#F0F0F0;stroke-width:9.72"/>
	<line x1="4750.31" y1="817.76" x2="4815.11" y2="817.76" style="stroke:#F0F0F0;stroke-width:9.72"/>
	<line x1="4847.51" y1="817.76" x2="4912.31" y2="817.76" style="stroke:#F0F0F0;stroke-width:9.72"/>
	<line x1="4944.71" y1="817.76" x2="5009.51" y2="817.76" style="stroke:#F0F0F0;stroke-width:9.72"/>
	<line x1="5041.91" y1="817.76" x2="5106.71" y2="817.76" style="stroke:#F0F0F0;stroke-width:9.72"/>
	<line x1="376.31" y1="340.20" x2="441.11" y2="340.20" style="stroke:#F0F0F0;stroke-width:9.72"/>
	<line x1="473.51" y1="340.20" x2="538.31" y2="340.20" style="stroke:#F0F0F0;stroke-width:9.72"/>
	<line x1="570.71" y1="340.20" x2="635.51" y2="340.20" style="stroke:#F0F0F0;stroke-width:9.72"/>
	<line x1="667.91" y1="340.20" x2="732.71" y2="340.20" style="stroke:#F0F0F0;stroke-width:9.72"/>
	<line x1="765.11" y1="340.20" x2="829.91" y2="340.20" style="stroke:#F0F0F0;stroke-width:9.72"/>
	<line x1="862.31" y1="340.20" x2="927.11" y2="340.20" style="stroke:#F0F0F0;stroke-width:9.72"/>
	<line x1="959.51" y1="340.20" x2="1024.31" y2="340.20" style="stroke:#F0F0F0;stroke-width:9.72"/>
	<line x1="1056.71" y1="340.20" x2="1121.51" y2="340.20" style="stroke:#F0F0F0;stroke-width:9.72"/>
	<line x1="1153.91" y1="340.20" x2="1218.71" y2="340.20" style="stroke:#F0F0F0;stroke-width:9.72"/>
	<line x1="1251.11" y1="340.20" x2="1315.91" y2="340.20" style="stroke:#F0F0F0;stroke-width:9.72"/>
	<line x1="1348.31" y1="340.20" x2="1413.11" y2="340.20" style="stroke:#F0F0F0;stroke-width:9.72"/>
	<line x1="1445.51" y1="340.20" x2="1510.31" y2="340.20" style="stroke:#F0F0F0;stroke-width:9.72"/>
	<line x1="1542.71" y1="340.20" x2="1607.51" y2="340.20" style="stroke:#F0F0F0;stroke-width:9.72"/>
	<line x1="1639.91" y1="340.20" x2="1704.71" y2="340.20" style="stroke:#F0F0F0;stroke-width:9.72"/>
	<line x1="1737.11" y1="340.20" x2="1801.91" y2="340.20" style="stroke:#F0F0F0;stroke-width:9.72"/>
	<line x1="1834.31" y1="340.20" x2="1899.11" y2="340.20" style="stroke:#F0F0F0;stroke-width:9.72"/>
	<line x1="1931.51" y1="340.20" x2="1996.31" y2="340.20" style="stroke:#F0F0F0;stroke-width:9.72"/>
	<line x1="2028.71" y1="340.20" x2="2093.51" y2="340.20" style="stroke:#F0F0F0;stroke-width:9.72"/>
	<line x1="2125.91" y1="340.20" x2="2190.71" y2="340.20" style="stroke:#F0F0F0;stroke-width:9.72"/>
	<line x1="2223.11" y1="340.20" x2="2287.91" y2="340.20" style="stroke:#F0F0F0;stroke-width:9.72"/>
	<line x1="2320.31" y1="340.20" x2="2385.11" y2="340.20" style="stroke:#F0F0F0;stroke-width:9.72"/>
	<line x1="2417.51" y1="340.20" x2="2482.31" y2="340.20" style="stroke:#F0F0F0;stroke-width:9.72"/>
	<line x1="2514.71" y1="340.20" x2="2579.51" y2="340.20" style="stroke:#F0F0F0;stroke-width:9.72"/>
	<line x1="2611.91" y1="340.20" x2="2676.71" y2="340.20" style="stroke:#F0F0F0;stroke-width:9.72"/>
	<line x1="2709.11" y1="340.20" x2="2773.91" y2="340.20" style="stroke:#F0F0F0;stroke-width:9.72"/>
	<line x1="2806.31" y1="340.20" x2="2871.11" y2="340.20" style="stroke:#F0F0F0;stroke-width:9.72"/>
	<line x1="2903.51" y1="340.20" x2="2968.31" y2="340.20" style="stroke:#F0F0F0;stroke-width:9.72"/>
	<line x1="3000.71" y1="340.20" x2="3065.51" y2="340.20" style="stroke:#F0F0F0;stroke-width:9.72"/>
	<line x1="3097.91" y1="340.20" x2="3162.71" y2="340.20" style="stroke:#F0F0F0;stroke-width:9.72"/>
	<line x1="3195.11" y1="340.20" x2="3259.91" y2="340.20" style="stroke:#F0F0F0;stroke-width:9.72"/>
	<line x1="3292.31" y1="340.20" x2="3357.11" y2="340.20" style="stroke:#F0F0F0;stroke-width:9.72"/>
	<line x1="3389.51" y1="340.20" x2="3454.31" y2="340.20" style="stroke:#F0F0F0;stroke-width:9.72"/>
	<line x1="3486.71" y1="340.20" x2="3551.51" y2="340.20" style="stroke:#F0F0F0;stroke-width:9.72"/>
	<line x1="3583.91" y1="340.20" x2="3648.71" y2="340.20" style="stroke:#F0F0F0;stroke-width:9.72"/>
	<line x1="3681.11" y1="340.20" x2="3745.91" y2="340.20" style="stroke:#F0F0F0;stroke-width:9.72"/>
	<line x1="3778.31" y1="340.20" x2="3843.11" y2="340.20" style="stroke:#F0F0F0;stroke-width:9.72"/>
	<line x1="3875.51" y1="340.20" x2="3940.31" y2="340.20" style="stroke:#F0F0F0;stroke-width:9.72"/>
	<line x1="3972.71" y1="340.20" x2="4037.51" y2="340.20" style="stroke:#F0F0F0;stroke-width:9.72"/>
	<line x1="4069.91" y1="340.20" x2="4134.71" y2="340.20" style="stroke:#F0F0F0;stroke-width:9.72"/>
	<line x1="4167.11" y1="340.20" x2="4231.91" y2="340.20" style="stroke:#F0F0F0;stroke-width:9.72"/>
	<line x1="4264.31" y1="340.20" x2="4329.11" y2="340.20" style="stroke:#F0F0F0;stroke-width:9.72"/>
	<line x1="4361.51" y1="340.20" x2="4426.31" y2="340.20" style="stroke:#F0F0F0;stroke-width:9.72"/>
	<line x1="4458.71" y1="340.20" x2="4523.51" y2="340.20" style="stroke:#F0F0F0;stroke-width:9.72"/>
	<line x1="4555.91" y1="340.20" x2="4620.71" y2="340.20" style="stroke:#F0F0F0;stroke-width:9.72"/>
	<line x1="4653.11" y1="340.20" x2="4717.91" y2="340.20" style="stroke:#F0F0F0;stroke-width:9.72"/>
	<line x1="4750.31" y1="340.20" x2="4815.11" y2="340.20" style="stroke:#F0F0F0;stroke-width:9.72"/>
	<line x1="4847.51" y1="340.20" x2="4912.31" y2="340.20" style="stroke:#F0F0F0;stroke-width:9.72"/>
	<line x1="4944.71" y1="340.20" x2="5009.51" y2="340.20" style="stroke:#F0F0F0;stroke-width:9.72"/>
	<line x1="5041.91" y1="340.20" x2="5106.71" y2="340.20" style="stroke:#F0F0F0;stroke-width:9.72"/>
	<line x1="447.69" y1="2321.66" x2="447.69" y2="2256.86" style="stroke:#F0F0F0;stroke-width:9.72"/>
	<line x1="447.69" y1="2224.46" x2="447.69" y2="2159.66" style="stroke:#F0F0F0;stroke-width:9.72"/>
	<line x1="447.69" y1="2127.26" x2="447.69" y2="2062.46" style="stroke:#F0F0F0;stroke-width:9.72"/>
	<line x1="447.69" y1="2030.06" x2="447.69" y2="1965.26" style="stroke:#F0F0F0;stroke-width:9.72"/>
	<line x1="447.69" y1="1932.86" x2="447.69" y2="1868.06" style="stroke:#F0F0F0;stroke-width:9.72"/>
	<line x1="447.69" y1="1835.66" x2="447.69" y2="1770.86" style="stroke:#F0F0F0;stroke-width:9.72"/>
	<line x1="447.69" y1="1738.46" x2="447.69" y2="1673.66" style="stroke:#F0F0F0;stroke-width:9.72"/>
	<line x1="447.69" y1="1641.26" x2="447.69" y2="1576.46" style="stroke:#F0F0F0;stroke-width:9.72"/>
	<line x1="447.69" y1="1544.06" x2="447.69" y2="1479.26" style="stroke:#F0F0F0;stroke-width:9.72"/>
	<line x1="447.69" y1="1446.86" x2="447.69" y2="1382.06" style="stroke:#F0F0F0;stroke-width:9.72"/>
	<line x1="447.69" y1="1349.66" x2="447.69" y2="1284.86" style="stroke:#F0F0F0;stroke-width:9.72"/>
	<line x1="447.69" y1="1252.46" x2="447.69" y2="1187.66" style="stroke:#F0F0F0;stroke-width:9.72"/>
	<line x1="447.69" y1="1155.26" x2="447.69" y2="1090.46" style="stroke:#F0F0F0;stroke-width:9.72"/>
	<line x1="447.69" y1="1058.06" x2="447.69" y2="993.26" style="stroke:#F0F0F0;stroke-width:9.72"/>
	<line x1="447.69" y1="960.86" x2="447.69" y2="896.06" style="stroke:#F0F0F0;stroke-width:9.72"/>
	<line x1="447.69" y1="863.66" x2="447.69" y2="798.86" style="stroke:#F0F0F0;stroke-width:9.72"/>
	<line x1="447.69" y1="766.46" x2="447.69" y2="701.66" style="stroke:#F0F0F0;stroke-width:9.72"/>
	<line x1="447.69" y1="669.26" x2="447.69" y2="604.46" style="stroke:#F0F0F0;stroke-width:9.72"/>
	<line x1="447.69" y1="572.06" x2="447.69" y2="507.26" style="stroke:#F0F0F0;stroke-width:9.72"/>
	<line x1="447.69" y1="474.86" x2="447.69" y2="410.06" style="stroke:#F0F0F0;stroke-width:9.72"/>
	<line x1="447.69" y1="377.66" x2="447.69" y2="312.86" style="stroke:#F0F0F0;stroke-width:9.72"/>
	<line x1="447.69" y1="280.46" x2="447.69" y2="215.66" style="stroke:#F0F0F0;stroke-width:9.72"/>
	<line x1="447.69" y1="183.26" x2="447.69" y2="118.46" style="stroke:#F0F0F0;stroke-width:9.72"/>
	<line x1="1599.08" y1="2321.66" x2="1599.08" y2="2256.86" style="stroke:#F0F0F0;stroke-width:9.72"/>
	<line x1="1599.08" y1="2224.46" x2="1599.08" y2="2159.66" style="stroke:#F0F0F0;stroke-width:9.72"/>
	<line x1="1599.08" y1="2127.26" x2="1599.08" y2="2062.46" style="stroke:#F0F0F0;stroke-width:9.72"/>
	<line x1="1599.08" y1="2030.06" x2="1599.08" y2="1965.26" style="stroke:#F0F0F0;stroke-width:9.72"/>
	<line x1="1599.08" y1="1932.86" x2="1599.08" y2="1868.06" style="stroke:#F0F0F0;stroke-width:9.72"/>
	<line x1="1599.08" y1="1835.66" x2="1599.08" y2="1770.86" style="stroke:#F0F0F0;stroke-width:9.72"/>
	<line x1="1599.08" y1="1738.46" x2="1599.08" y2="1673.66" style="stroke:#F0F0F0;stroke-width:9.72"/>
	<line x1="1599.08" y1="1641.26" x2="1599.08" y2="1576.46" style="stroke:#F0F0F0;stroke-width:9.72"/>
	<line x1="1599.08" y1="1544.06" x2="1599.08" y2="1479.26" style="stroke:#F0F0F0;stroke-width:9.72"/>
	<line x1="1599.08" y1="1446.86" x2="1599.08" y2="1382.06" style="stroke:#F0F0F0;stroke-width:9.72"/>
	<line x1="1599.08" y1="1349.66" x2="1599.08" y2="1284.86" style="stroke:#F0F0F0;stroke-width:9.72"/>
	<line x1="1599.08" y1="1252.46" x2="1599.08" y2="1187.66" style="stroke:#F0F0F0;stroke-width:9.72"/>
	<line x1="1599.08" y1="1155.26" x2="1599.08" y2="1090.46" style="stroke:#F0F0F0;stroke-width:9.72"/>
	<line x1="1599.08" y1="1058.06" x2="1599.08" y2="993.26" style="stroke:#F0F0F0;stroke-width:9.72"/>
	<line x1="1599.08" y1="960.86" x2="1599.08" y2="896.06" style="stroke:#F0F0F0;stroke-width:9.72"/>
	<line x1="1599.08" y1="863.66" x2="1599.08" y2="798.86" style="stroke:#F0F0F0;stroke-width:9.72"/>
	<line x1="1599.08" y1="766.46" x2="1599.08" y2="701.66" style="stroke:#F0F0F0;stroke-width:9.72"/>
	<line x1="1599.08" y1="669.26" x2="1599.08" y2="604.46" style="stroke:#F0F0F0;stroke-width:9.72"/>
	<line x1="1599.08" y1="572.06" x2="1599.08" y2="507.26" style="stroke:#F0F0F0;stroke-width:9.72"/>
	<line x1="1599.08" y1="474.86" x2="1599.08" y2="410.06" style="stroke:#F0F0F0;stroke-width:9.72"/>
	<line x1="1599.08" y1="377.66" x2="1599.08" y2="312.86" style="stroke:#F0F0F0;stroke-width:9.72"/>
	<line x1="1599.08" y1="280.46" x2="1599.08" y2="215.66" style="stroke:#F0F0F0;stroke-width:9.72"/>
	<line x1="1599.08" y1="183.26" x2="1599.08" y2="118.46" style="stroke:#F0F0F0;stroke-width:9.72"/>
	<line x1="2750.46" y1="2321.66" x2="2750.46" y2="2256.86" style="stroke:#F0F0F0;stroke-width:9.72"/>
	<line x1="2750.46" y1="2224.46" x2="2750.46" y2="2159.66" style="stroke:#F0F0F0;stroke-width:9.72"/>
	<line x1="2750.46" y1="2127.26" x2="2750.46" y2="2062.46" style="stroke:#F0F0F0;stroke-width:9.72"/>
	<line x1="2750.46" y1="2030.06" x2="2750.46" y2="1965.26" style="stroke:#F0F0F0;stroke-width:9.72"/>
	<line x1="2750.46" y1="1932.86" x2="2750.46" y2="1868.06" style="stroke:#F0F0F0;stroke-width:9.72"/>
	<line x1="2750.46" y1="1835.66" x2="2750.46" y2="1770.86" style="stroke:#F0F0F0;stroke-width:9.72"/>
	<line x1="2750.46" y1="1738.46" x2="2750.46" y2="1673.66" style="stroke:#F0F0F0;stroke-width:9.72"/>
	<line x1="2750.46" y1="1641.26" x2="2750.46" y2="1576.46" style="stroke:#F0F0F0;stroke-width:9.72"/>
	<line x1="2750.46" y1="1544.06" x2="2750.46" y2="1479.26" style="stroke:#F0F0F0;stroke-width:9.72"/>
	<line x1="2750.46" y1="1446.86" x2="2750.46" y2="1382.06" style="stroke:#F0F0F0;stroke-width:9.72"/>
	<line x1="2750.46" y1="1349.66" x2="2750.46" y2="1284.86" style="stroke:#F0F0F0;stroke-width:9.72"/>
	<line x1="2750.46" y1="1252.46" x2="2750.46" y2="1187.66" style="stroke:#F0F0F0;stroke-width:9.72"/>
	<line x1="2750.46" y1="1155.26" x2="2750.46" y2="1090.46" style="stroke:#F0F0F0;stroke-width:9.72"/>
	<line x1="2750.46" y1="1058.06" x2="2750.46" y2="993.26" style="stroke:#F0F0F0;stroke-width:9.72"/>
	<line x1="2750.46" y1="960.86" x2="2750.46" y2="896.06" style="stroke:#F0F0F0;stroke-width:9.72"/>
	<line x1="2750.46" y1="863.66" x2="2750.46" y2="798.86" style="stroke:#F0F0F0;stroke-width:9.72"/>
	<line x1="2750.46" y1="766.46" x2="2750.46" y2="701.66" style="stroke:#F0F0F0;stroke-width:9.72"/>
	<line x1="2750.46" y1="669.26" x2="2750.46" y2="604.46" style="stroke:#F0F0F0;stroke-width:9.72"/>
	<line x1="2750.46" y1="572.06" x2="2750.46" y2="507.26" style="stroke:#F0F0F0;stroke-width:9.72"/>
	<line x1="2750.46" y1="474.86" x2="2750.46" y2="410.06" style="stroke:#F0F0F0;stroke-width:9.72"/>
	<line x1="2750.46" y1="377.66" x2="2750.46" y2="312.86" style="stroke:#F0F0F0;stroke-width:9.72"/>
	<line x1="2750.46" y1="280.46" x2="2750.46" y2="215.66" style="stroke:#F0F0F0;stroke-width:9.72"/>
	<line x1="2750.46" y1="183.26" x2="2750.46" y2="118.46" style="stroke:#F0F0F0;stroke-width:9.72"/>
	<line x1="3901.84" y1="2321.66" x2="3901.84" y2="2256.86" style="stroke:#F0F0F0;stroke-width:9.72"/>
	<line x1="3901.84" y1="2224.46" x2="3901.84" y2="2159.66" style="stroke:#F0F0F0;stroke-width:9.72"/>
	<line x1="3901.84" y1="2127.26" x2="3901.84" y2="2062.46" style="stroke:#F0F0F0;stroke-width:9.72"/>
	<line x1="3901.84" y1="2030.06" x2="3901.84" y2="1965.26" style="stroke:#F0F0F0;stroke-width:9.72"/>
	<line x1="3901.84" y1="1932.86" x2="3901.84" y2="1868.06" style="stroke:#F0F0F0;stroke-width:9.72"/>
	<line x1="3901.84" y1="1835.66" x2="3901.84" y2="1770.86" style="stroke:#F0F0F0;stroke-width:9.72"/>
	<line x1="3901.84" y1="1738.46" x2="3901.84" y2="1673.66" style="stroke:#F0F0F0;stroke-width:9.72"/>
	<line x1="3901.84" y1="1641.26" x2="3901.84" y2="1576.46" style="stroke:#F0F0F0;stroke-width:9.72"/>
	<line x1="3901.84" y1="1544.06" x2="3901.84" y2="1479.26" style="stroke:#F0F0F0;stroke-width:9.72"/>
	<line x1="3901.84" y1="1446.86" x2="3901.84" y2="1382.06" style="stroke:#F0F0F0;stroke-width:9.72"/>
	<line x1="3901.84" y1="1349.66" x2="3901.84" y2="1284.86" style="stroke:#F0F0F0;stroke-width:9.72"/>
	<line x1="3901.84" y1="1252.46" x2="3901.84" y2="1187.66" style="stroke:#F0F0F0;stroke-width:9.72"/>
	<line x1="3901.84" y1="1155.26" x2="3901.84" y2="1090.46" style="stroke:#F0F0F0;stroke-width:9.72"/>
	<line x1="3901.84" y1="1058.06" x2="3901.84" y2="993.26" style="stroke:#F0F0F0;stroke-width:9.72"/>
	<line x1="3901.84" y1="960.86" x2="3901.84" y2="896.06" style="stroke:#F0F0F0;stroke-width:9.72"/>
	<line x1="3901.84" y1="863.66" x2="3901.84" y2="798.86" style="stroke:#F0F0F0;stroke-width:9.72"/>
	<line x1="3901.84" y1="766.46" x2="3901.84" y2="701.66" style="stroke:#F0F0F0;stroke-width:9.72"/>
	<line x1="3901.84" y1="669.26" x2="3901.84" y2="604.46" style="stroke:#F0F0F0;stroke-width:9.72"/>
	<line x1="3901.84" y1="572.06" x2="3901.84" y2="507.26" style="stroke:#F0F0F0;stroke-width:9.72"/>
	<line x1="3901.84" y1="474.86" x2="3901.84" y2="410.06" style="stroke:#F0F0F0;stroke-width:9.72"/>
	<line x1="3901.84" y1="377.66" x2="3901.84" y2="312.86" style="stroke:#F0F0F0;stroke-width:9.72"/>
	<line x1="3901.84" y1="280.46" x2="3901.84" y2="215.66" style="stroke:#F0F0F0;stroke-width:9.72"/>
	<line x1="3901.84" y1="183.26" x2="3901.84" y2="118.46" style="stroke:#F0F0F0;stroke-width:9.72"/>
	<line x1="5053.39" y1="2321.66" x2="5053.39" y2="2256.86" style="stroke:#F0F0F0;stroke-width:9.72"/>
	<line x1="5053.39" y1="2224.46" x2="5053.39" y2="2159.66" style="stroke:#F0F0F0;stroke-width:9.72"/>
	<line x1="5053.39" y1="2127.26" x2="5053.39" y2="2062.46" style="stroke:#F0F0F0;stroke-width:9.72"/>
	<line x1="5053.39" y1="2030.06" x2="5053.39" y2="1965.26" style="stroke:#F0F0F0;stroke-width:9.72"/>
	<line x1="5053.39" y1="1932.86" x2="5053.39" y2="1868.06" style="stroke:#F0F0F0;stroke-width:9.72"/>
	<line x1="5053.39" y1="1835.66" x2="5053.39" y2="1770.86" style="stroke:#F0F0F0;stroke-width:9.72"/>
	<line x1="5053.39" y1="1738.46" x2="5053.39" y2="1673.66" style="stroke:#F0F0F0;stroke-width:9.72"/>
	<line x1="5053.39" y1="1641.26" x2="5053.39" y2="1576.46" style="stroke:#F0F0F0;stroke-width:9.72"/>
	<line x1="5053.39" y1="1544.06" x2="5053.39" y2="1479.26" style="stroke:#F0F0F0;stroke-width:9.72"/>
	<line x1="5053.39" y1="1446.86" x2="5053.39" y2="1382.06" style="stroke:#F0F0F0;stroke-width:9.72"/>
	<line x1="5053.39" y1="1349.66" x2="5053.39" y2="1284.86" style="stroke:#F0F0F0;stroke-width:9.72"/>
	<line x1="5053.39" y1="1252.46" x2="5053.39" y2="1187.66" style="stroke:#F0F0F0;stroke-width:9.72"/>
	<line x1="5053.39" y1="1155.26" x2="5053.39" y2="1090.46" style="stroke:#F0F0F0;stroke-width:9.72"/>
	<line x1="5053.39" y1="1058.06" x2="5053.39" y2="993.26" style="stroke:#F0F0F0;stroke-width:9.72"/>
	<line x1="5053.39" y1="960.86" x2="5053.39" y2="896.06" style="stroke:#F0F0F0;stroke-width:9.72"/>
	<line x1="5053.39" y1="863.66" x2="5053.39" y2="798.86" style="stroke:#F0F0F0;stroke-width:9.72"/>
	<line x1="5053.39" y1="766.46" x2="5053.39" y2="701.66" style="stroke:#F0F0F0;stroke-width:9.72"/>
	<line x1="5053.39" y1="669.26" x2="5053.39" y2="604.46" style="stroke:#F0F0F0;stroke-width:9.72"/>
	<line x1="5053.39" y1="572.06" x2="5053.39" y2="507.26" style="stroke:#F0F0F0;stroke-width:9.72"/>
	<line x1="5053.39" y1="474.86" x2="5053.39" y2="410.06" style="stroke:#F0F0F0;stroke-width:9.72"/>
	<line x1="5053.39" y1="377.66" x2="5053.39" y2="312.86" style="stroke:#F0F0F0;stroke-width:9.72"/>
	<line x1="5053.39" y1="280.46" x2="5053.39" y2="215.66" style="stroke:#F0F0F0;stroke-width:9.72"/>
	<line x1="5053.39" y1="183.26" x2="5053.39" y2="118.46" style="stroke:#F0F0F0;stroke-width:9.72"/>
	<path d=" M466.76 1358.27 L486.00 1228.33 L505.07 1435.39 L524.31 1148.01 L543.54 1238.12 L562.78 1336.16 L581.85 1500.36 L601.09 1247.40 L620.33 1512.84 L639.39 1453.95 L658.63 1397.25 L677.87 1359.11 L697.11 1220.57 L716.18 1485.34 L735.41 1017.90 L754.65 1426.95 L773.72 1487.03 L792.96 1414.97 L812.19 1243.01 L831.43 443.81 L850.50 1045.74 L869.74 1623.04 L888.98 1277.94 L908.04 1410.24 L927.28 1385.10 L946.52 1434.21 L965.76 1666.41 L984.83 1332.11 L1004.06 1342.07 L1023.30 1465.93 L1042.54 1246.89 L1061.61 913.61 L1080.84 908.04 L1100.08 1382.74 L1119.15 1138.22 L1138.39 747.56 L1157.63 664.54 L1176.86 970.48 L1195.93 838.01 L1215.17 1729.69 L1234.41 1390.50 L1253.47 1466.94 L1272.71 1225.29 L1291.95 1412.94 L1311.19 1233.06 L1330.26 1398.94 L1349.49 1083.54 L1368.73 1322.83 L1387.80 1370.76 L1407.04 1488.88 L1426.28 1189.69 L1445.51 1323.68 L1464.58 1319.79 L1483.82 1369.41 L1503.06 1515.38 L1522.29 1262.59 L1541.36 1379.19 L1560.60 1340.72 L1579.84 1259.21 L1598.91 1237.95 L1618.14 991.24 L1637.38 1276.09 L1656.62 1581.86 L1675.69 1309.67 L1694.93 1318.61 L1714.16 837.68 L1733.23 1609.54 L1752.47 1270.69 L1771.71 1694.59 L1790.94 1229.68 L1810.01 1561.44 L1829.25 768.49 L1848.49 1381.89 L1867.56 1224.62 L1886.79 1215.17 L1906.03 1191.21 L1925.27 1290.94 L1944.34 855.56 L1963.58 1425.43 L1982.81 1339.03 L2002.05 184.78 L2021.12 1804.78 L2040.36 1615.44 L2059.59 1443.99 L2078.66 1108.35 L2097.90 1366.71 L2117.14 1500.02 L2136.38 1396.07 L2155.44 1328.57 L2174.68 1357.43 L2193.92 1458.68 L2212.99 947.03 L2232.23 1057.72 L2251.46 1357.59 L2270.70 1279.80 L2289.77 1411.26 L2309.01 1528.03 L2328.24 1271.36 L2347.48 1399.11 L2366.55 1268.49 L2385.79 1259.89 L2405.03 1177.54 L2424.09 1267.65 L2443.33 1328.91 L2462.57 1358.78 L2481.81 1199.14 L2500.88 1266.13 L2520.11 1353.54 L2539.35 1325.87 L2558.42 1456.99 L2577.66 898.76 L2596.89 1426.11 L2616.13 1451.59 L2635.20 1380.54 L2654.44 1260.22 L2673.68 1001.70 L2692.74 1410.24 L2711.98 1444.50 L2731.22 1383.58 L2750.46 1362.15 L2769.53 1132.31 L2788.76 1373.46 L2808.00 1076.96 L2827.24 1023.64 L2846.31 1600.09 L2865.54 1699.14 L2884.78 1304.27 L2903.85 1346.12 L2923.09 1438.09 L2942.33 762.07 L2961.56 1271.53 L2980.63 1459.18 L2999.87 1420.37 L3019.11 1182.43 L3038.18 1758.88 L3057.41 1579.84 L3076.65 1209.26 L3095.89 1355.40 L3114.96 1336.16 L3134.19 1340.89 L3153.43 1289.42 L3172.50 873.11 L3191.74 1131.81 L3210.98 1204.20 L3230.21 776.08 L3249.28 1314.73 L3268.52 940.28 L3287.76 1525.84 L3306.99 1444.33 L3326.06 1231.54 L3345.30 1617.30 L3364.54 1356.08 L3383.61 1409.40 L3402.84 1393.88 L3422.08 1360.97 L3441.32 1374.47 L3460.39 1232.72 L3479.63 1362.49 L3498.86 904.84 L3517.93 1744.03 L3537.17 1311.86 L3556.41 1527.69 L3575.64 1467.62 L3594.71 1286.38 L3613.95 1422.06 L3633.19 1051.65 L3652.43 1450.24 L3671.49 1544.57 L3690.73 1423.58 L3709.97 865.35 L3729.04 1485.68 L3748.28 1375.31 L3767.51 1693.91 L3786.75 912.77 L3805.82 1424.42 L3825.06 1260.90 L3844.29 1670.96 L3863.36 1202.01 L3882.60 1619.33 L3901.84 1377.00 L3921.08 1475.04 L3940.14 1380.21 L3959.38 1169.94 L3978.62 1797.53 L3997.69 1565.16 L4016.93 754.99 L4036.16 1532.76 L4055.40 1580.18 L4074.47 1761.08 L4093.71 1248.24 L4112.94 1316.25 L4132.18 999.84 L4151.25 1596.54 L4170.49 1542.71 L4189.73 1770.02 L4208.79 1501.54 L4228.03 1766.64 L4247.27 1413.11 L4266.51 1521.28 L4285.58 1105.48 L4304.81 1803.94 L4324.05 1253.47 L4343.12 1088.94 L4362.36 1318.28 L4381.59 1266.30 L4400.83 1421.72 L4419.90 611.04 L4439.14 1614.77 L4458.38 1608.53 L4477.44 720.73 L4496.68 381.38 L4515.92 953.61 L4535.16 2048.12 L4554.23 1277.27 L4573.46 1247.74 L4592.70 1384.76 L4611.94 2007.28 L4631.01 505.41 L4650.24 633.82 L4669.48 274.39 L4688.55 1246.72 L4707.79 1261.41 L4727.02 1206.06 L4746.26 1433.53 L4765.33 830.93 L4784.57 1585.74 L4803.81 1108.69 L4822.88 1001.87 L4842.11 999.34 L4861.35 1595.53 L4880.59 1771.20 L4899.66 382.05 L4918.89 597.54 L4938.13 1752.30 L4957.37 644.29 L4976.44 1581.19 L4995.68 1661.34 L5014.91 1274.74 L5033.98 1365.02" stroke-linejoin="round" style="fill:none;stroke:#1A85FF;stroke-width:9.72"/>
	<path d=" M466.76 1303.76 L486.00 1286.38 L505.07 1314.06 L524.31 1275.75 L543.54 1287.73 L562.78 1300.89 L581.85 1322.83 L601.09 1288.91 L620.33 1324.35 L639.39 1316.59 L658.63 1308.99 L677.87 1303.93 L697.11 1285.37 L716.18 1320.81 L735.41 1258.37 L754.65 1312.88 L773.72 1320.98 L792.96 1311.36 L812.19 1288.41 L831.43 1181.59 L850.50 1262.08 L869.74 1339.20 L888.98 1292.96 L908.04 1310.68 L927.28 1307.31 L946.52 1313.89 L965.76 1344.94 L984.83 1300.22 L1004.06 1301.57 L1023.30 1318.11 L1042.54 1288.91 L1061.61 1244.36 L1080.84 1243.69 L1100.08 1306.97 L1119.15 1274.40 L1138.39 1222.26 L1157.63 1211.12 L1176.86 1251.96 L1195.93 1234.24 L1215.17 1353.38 L1234.41 1307.98 L1253.47 1318.28 L1272.71 1286.04 L1291.95 1311.02 L1311.19 1287.06 L1330.26 1309.16 L1349.49 1266.97 L1368.73 1299.04 L1387.80 1305.45 L1407.04 1321.14 L1426.28 1281.32 L1445.51 1299.21 L1464.58 1298.70 L1483.82 1305.28 L1503.06 1324.69 L1522.29 1290.94 L1541.36 1306.63 L1560.60 1301.40 L1579.84 1290.60 L1598.91 1287.73 L1618.14 1254.66 L1637.38 1292.79 L1656.62 1333.63 L1675.69 1297.35 L1694.93 1298.53 L1714.16 1234.24 L1733.23 1337.34 L1752.47 1292.12 L1771.71 1348.65 L1790.94 1286.55 L1810.01 1330.93 L1829.25 1224.96 L1848.49 1306.97 L1867.56 1285.88 L1886.79 1284.69 L1906.03 1281.49 L1925.27 1294.82 L1944.34 1236.60 L1963.58 1312.71 L1982.81 1301.23 L2002.05 1146.99 L2021.12 1363.33 L2040.36 1338.19 L2059.59 1315.24 L2078.66 1270.35 L2097.90 1304.94 L2117.14 1322.66 L2136.38 1308.83 L2155.44 1299.71 L2174.68 1303.59 L2193.92 1317.09 L2212.99 1248.75 L2232.23 1263.60 L2251.46 1303.59 L2270.70 1293.30 L2289.77 1310.85 L2309.01 1326.38 L2328.24 1292.12 L2347.48 1309.16 L2366.55 1291.78 L2385.79 1290.60 L2405.03 1279.63 L2424.09 1291.61 L2443.33 1299.88 L2462.57 1303.76 L2481.81 1282.50 L2500.88 1291.44 L2520.11 1303.09 L2539.35 1299.38 L2558.42 1316.93 L2577.66 1242.34 L2596.89 1312.88 L2616.13 1316.25 L2635.20 1306.80 L2654.44 1290.60 L2673.68 1256.18 L2692.74 1310.68 L2711.98 1315.24 L2731.22 1307.14 L2750.46 1304.27 L2769.53 1273.56 L2788.76 1305.79 L2808.00 1266.13 L2827.24 1259.04 L2846.31 1335.99 L2865.54 1349.33 L2884.78 1296.51 L2903.85 1302.08 L2923.09 1314.39 L2942.33 1224.11 L2961.56 1292.12 L2980.63 1317.26 L2999.87 1312.03 L3019.11 1280.31 L3038.18 1357.26 L3057.41 1333.29 L3076.65 1283.85 L3095.89 1303.43 L3114.96 1300.89 L3134.19 1301.40 L3153.43 1294.48 L3172.50 1238.96 L3191.74 1273.56 L3210.98 1283.18 L3230.21 1225.97 L3249.28 1298.03 L3268.52 1247.91 L3287.76 1326.21 L3306.99 1315.24 L3326.06 1286.89 L3345.30 1338.36 L3364.54 1303.43 L3383.61 1310.51 L3402.84 1308.49 L3422.08 1304.10 L3441.32 1305.96 L3460.39 1287.06 L3479.63 1304.27 L3498.86 1243.18 L3517.93 1355.23 L3537.17 1297.52 L3556.41 1326.38 L3575.64 1318.44 L3594.71 1294.14 L3613.95 1312.37 L3633.19 1262.76 L3652.43 1316.08 L3671.49 1328.57 L3690.73 1312.54 L3709.97 1237.95 L3729.04 1320.81 L3748.28 1306.13 L3767.51 1348.65 L3786.75 1244.19 L3805.82 1312.54 L3825.06 1290.77 L3844.29 1345.61 L3863.36 1282.84 L3882.60 1338.69 L3901.84 1306.29 L3921.08 1319.29 L3940.14 1306.63 L3959.38 1278.62 L3978.62 1362.49 L3997.69 1331.44 L4016.93 1223.10 L4036.16 1327.05 L4055.40 1333.46 L4074.47 1357.59 L4093.71 1289.08 L4112.94 1298.19 L4132.18 1255.84 L4151.25 1335.66 L4170.49 1328.40 L4189.73 1358.78 L4208.79 1322.83 L4228.03 1358.27 L4247.27 1311.02 L4266.51 1325.53 L4285.58 1270.01 L4304.81 1363.33 L4324.05 1289.76 L4343.12 1267.82 L4362.36 1298.36 L4381.59 1291.44 L4400.83 1312.20 L4419.90 1203.86 L4439.14 1338.02 L4458.38 1337.18 L4477.44 1218.54 L4496.68 1173.32 L4515.92 1249.76 L4535.16 1395.90 L4554.23 1292.96 L4573.46 1289.08 L4592.70 1307.31 L4611.94 1390.50 L4631.01 1189.86 L4650.24 1207.07 L4669.48 1158.97 L4688.55 1288.91 L4707.79 1290.77 L4727.02 1283.34 L4746.26 1313.89 L4765.33 1233.39 L4784.57 1334.14 L4803.81 1270.35 L4822.88 1256.18 L4842.11 1255.84 L4861.35 1335.49 L4880.59 1358.94 L4899.66 1173.32 L4918.89 1202.18 L4938.13 1356.41 L4957.37 1208.42 L4976.44 1333.46 L4995.68 1344.26 L5014.91 1292.63 L5033.98 1304.61" stroke-linejoin="round" style="fill:none;stroke:#D41159;stroke-width:9.72"/>
	<line x1="376.31" y1="2321.66" x2="376.31" y2="113.40" style="stroke:#000000;stroke-width:6.48"/>
	<line x1="376.31" y1="2250.45" x2="331.43" y2="2250.45" style="stroke:#000000;stroke-width:6.48"/>
	<text x="308.81" y="2289.89" style="font-family:'Helvetica';font-size:112.56px;fill:#000000" text-anchor="end">-4</text>
	<line x1="376.31" y1="1772.89" x2="331.43" y2="1772.89" style="stroke:#000000;stroke-width:6.48"/>
	<text x="308.81" y="1812.32" style="font-family:'Helvetica';font-size:112.56px;fill:#000000" text-anchor="end">-2</text>
	<line x1="376.31" y1="1295.33" x2="331.43" y2="1295.33" style="stroke:#000000;stroke-width:6.48"/>
	<text x="308.81" y="1334.76" style="font-family:'Helvetica';font-size:112.56px;fill:#000000" text-anchor="end">0</text>
	<line x1="376.31" y1="817.76" x2="331.43" y2="817.76" style="stroke:#000000;stroke-width:6.48"/>
	<text x="308.81" y="857.20" style="font-family:'Helvetica';font-size:112.56px;fill:#000000" text-anchor="end">2</text>
	<line x1="376.31" y1="340.20" x2="331.43" y2="340.20" style="stroke:#000000;stroke-width:6.48"/>
	<text x="308.81" y="379.64" style="font-family:'Helvetica';font-size:112.56px;fill:#000000" text-anchor="end">4</text>
	<line x1="376.31" y1="2321.66" x2="5124.60" y2="2321.66" style="stroke:#000000;stroke-width:6.48"/>
	<line x1="447.69" y1="2321.66" x2="447.69" y2="2366.72" style="stroke:#000000;stroke-width:6.48"/>
	<text x="447.69" y="2467.87" style="font-family:'Helvetica';font-size:112.56px;fill:#000000" text-anchor="middle">2000m1</text>
	<line x1="1599.08" y1="2321.66" x2="1599.08" y2="2366.72" style="stroke:#000000;stroke-width:6.48"/>
	<text x="1599.08" y="2467.87" style="font-family:'Helvetica';font-size:112.56px;fill:#000000" text-anchor="middle">2005m1</text>
	<line x1="2750.46" y1="2321.66" x2="2750.46" y2="2366.72" style="stroke:#000000;stroke-width:6.48"/>
	<text x="2750.46" y="2467.87" style="font-family:'Helvetica';font-size:112.56px;fill:#000000" text-anchor="middle">2010m1</text>
	<line x1="3901.84" y1="2321.66" x2="3901.84" y2="2366.72" style="stroke:#000000;stroke-width:6.48"/>
	<text x="3901.84" y="2467.87" style="font-family:'Helvetica';font-size:112.56px;fill:#000000" text-anchor="middle">2015m1</text>
	<line x1="5053.39" y1="2321.66" x2="5053.39" y2="2366.72" style="stroke:#000000;stroke-width:6.48"/>
	<text x="5053.39" y="2467.87" style="font-family:'Helvetica';font-size:112.56px;fill:#000000" text-anchor="middle">2020m1</text>
	<text x="2750.46" y="2625.31" style="font-family:'Helvetica';font-size:112.56px;fill:#000000" text-anchor="middle">Period</text>
	<rect x="1808.49" y="2720.59" width="1884.09" height="367.20" style="fill:#FFFFFF"/>
	<rect x="1811.73" y="2723.83" width="1877.61" height="360.72" style="fill:none;stroke:#FFFFFF;stroke-width:6.48"/>
	<line x1="1857.09" y1="2825.38" x2="2116.29" y2="2825.38" style="stroke:#1A85FF;stroke-width:9.72"/>
	<line x1="1857.09" y1="2982.83" x2="2116.29" y2="2982.83" style="stroke:#D41159;stroke-width:9.72"/>
	<text x="2183.79" y="2864.82" style="font-family:'Helvetica';font-size:112.56px;fill:#000000">Structural shocks - GPR</text>
	<text x="2183.79" y="3022.26" style="font-family:'Helvetica';font-size:112.56px;fill:#000000">Reduced-form shocks - GPR</text>
</svg>
