<?xml version="1.0" encoding="UTF-8" standalone="no"?>
<!-- This is a Stata 19.5 generated SVG file (http://www.stata.com) -->

<svg version="1.1" width="7.500in" height="4.500in" viewBox="0 0 5400 3240" xmlns="http://www.w3.org/2000/svg" xmlns:xlink="http://www.w3.org/1999/xlink">
	<desc>Stata Graph - G3R</desc>
	<rect x="0" y="0" width="5400" height="3240" style="fill:#FFFFFF;stroke:none"/>
	<rect x="0.00" y="0.00" width="5400.00" height="3240.00" style="fill:#FFFFFF"/>
	<rect x="3.24" y="3.24" width="5393.52" height="3233.52" style="fill:none;stroke:#FFFFFF;stroke-width:6.48"/>
	<rect x="376.31" y="113.40" width="4748.29" height="2208.26" style="fill:#FFFFFF"/>
	<rect x="379.55" y="116.64" width="4741.81" height="2201.78" style="fill:none;stroke:#FFFFFF;stroke-width:6.48"/>
	<line x1="376.31" y1="2250.45" x2="441.11" y2="2250.45" style="stroke:#F0F0F0;stroke-width:9.72"/>
	<line x1="473.51" y1="2250.45" x2="538.31" y2="2250.45" style="stroke:#F0F0F0;stroke-width:9.72"/>
	<line x1="570.71" y1="2250.45" x2="635.51" y2="2250.45" style="stroke:#F0F0F0;stroke-width:9.72"/>
	<line x1="667.91" y1="2250.45" x2="732.71" y2="2250.45" style="stroke:#F0F0F0;stroke-width:9.72"/>
	<line x1="765.11" y1="2250.45" x2="829.91" y2="2250.45" style="stroke:#F0F0F0;stroke-width:9.72"/>
	<line x1="862.31" y1="2250.45" x2="927.11" y2="2250.45" style="stroke:#F0F0F0;stroke-width:9.72"/>
	<line x1="959.51" y1="2250.45" x2="1024.31" y2="2250.45" style="stroke:#F0F0F0;stroke-width:9.72"/>
	<line x1="1056.71" y1="2250.45" x2="1121.51" y2="2250.45" style="stroke:#F0F0F0;stroke-width:9.72"/>
	<line x1="1153.91" y1="2250.45" x2="1218.71" y2="2250.45" style="stroke:#F0F0F0;stroke-width:9.72"/>
	<line x1="1251.11" y1="2250.45" x2="1315.91" y2="2250.45" style="stroke:#F0F0F0;stroke-width:9.72"/>
	<line x1="1348.31" y1="2250.45" x2="1413.11" y2="2250.45" style="stroke:#F0F0F0;stroke-width:9.72"/>
	<line x1="1445.51" y1="2250.45" x2="1510.31" y2="2250.45" style="stroke:#F0F0F0;stroke-width:9.72"/>
	<line x1="1542.71" y1="2250.45" x2="1607.51" y2="2250.45" style="stroke:#F0F0F0;stroke-width:9.72"/>
	<line x1="1639.91" y1="2250.45" x2="1704.71" y2="2250.45" style="stroke:#F0F0F0;stroke-width:9.72"/>
	<line x1="1737.11" y1="2250.45" x2="1801.91" y2="2250.45" style="stroke:#F0F0F0;stroke-width:9.72"/>
	<line x1="1834.31" y1="2250.45" x2="1899.11" y2="2250.45" style="stroke:#F0F0F0;stroke-width:9.72"/>
	<line x1="1931.51" y1="2250.45" x2="1996.31" y2="2250.45" style="stroke:#F0F0F0;stroke-width:9.72"/>
	<line x1="2028.71" y1="2250.45" x2="2093.51" y2="2250.45" style="stroke:#F0F0F0;stroke-width:9.72"/>
	<line x1="2125.91" y1="2250.45" x2="2190.71" y2="2250.45" style="stroke:#F0F0F0;stroke-width:9.72"/>
	<line x1="2223.11" y1="2250.45" x2="2287.91" y2="2250.45" style="stroke:#F0F0F0;stroke-width:9.72"/>
	<line x1="2320.31" y1="2250.45" x2="2385.11" y2="2250.45" style="stroke:#F0F0F0;stroke-width:9.72"/>
	<line x1="2417.51" y1="2250.45" x2="2482.31" y2="2250.45" style="stroke:#F0F0F0;stroke-width:9.72"/>
	<line x1="2514.71" y1="2250.45" x2="2579.51" y2="2250.45" style="stroke:#F0F0F0;stroke-width:9.72"/>
	<line x1="2611.91" y1="2250.45" x2="2676.71" y2="2250.45" style="stroke:#F0F0F0;stroke-width:9.72"/>
	<line x1="2709.11" y1="2250.45" x2="2773.91" y2="2250.45" style="stroke:#F0F0F0;stroke-width:9.72"/>
	<line x1="2806.31" y1="2250.45" x2="2871.11" y2="2250.45" style="stroke:#F0F0F0;stroke-width:9.72"/>
	<line x1="2903.51" y1="2250.45" x2="2968.31" y2="2250.45" style="stroke:#F0F0F0;stroke-width:9.72"/>
	<line x1="3000.71" y1="2250.45" x2="3065.51" y2="2250.45" style="stroke:#F0F0F0;stroke-width:9.72"/>
	<line x1="3097.91" y1="2250.45" x2="3162.71" y2="2250.45" style="stroke:#F0F0F0;stroke-width:9.72"/>
	<line x1="3195.11" y1="2250.45" x2="3259.91" y2="2250.45" style="stroke:#F0F0F0;stroke-width:9.72"/>
	<line x1="3292.31" y1="2250.45" x2="3357.11" y2="2250.45" style="stroke:#F0F0F0;stroke-width:9.72"/>
	<line x1="3389.51" y1="2250.45" x2="3454.31" y2="2250.45" style="stroke:#F0F0F0;stroke-width:9.72"/>
	<line x1="3486.71" y1="2250.45" x2="3551.51" y2="2250.45" style="stroke:#F0F0F0;stroke-width:9.72"/>
	<line x1="3583.91" y1="2250.45" x2="3648.71" y2="2250.45" style="stroke:#F0F0F0;stroke-width:9.72"/>
	<line x1="3681.11" y1="2250.45" x2="3745.91" y2="2250.45" style="stroke:#F0F0F0;stroke-width:9.72"/>
	<line x1="3778.31" y1="2250.45" x2="3843.11" y2="2250.45" style="stroke:#F0F0F0;stroke-width:9.72"/>
	<line x1="3875.51" y1="2250.45" x2="3940.31" y2="2250.45" style="stroke:#F0F0F0;stroke-width:9.72"/>
	<line x1="3972.71" y1="2250.45" x2="4037.51" y2="2250.45" style="stroke:#F0F0F0;stroke-width:9.72"/>
	<line x1="4069.91" y1="2250.45" x2="4134.71" y2="2250.45" style="stroke:#F0F0F0;stroke-width:9.72"/>
	<line x1="4167.11" y1="2250.45" x2="4231.91" y2="2250.45" style="stroke:#F0F0F0;stroke-width:9.72"/>
	<line x1="4264.31" y1="2250.45" x2="4329.11" y2="2250.45" style="stroke:#F0F0F0;stroke-width:9.72"/>
	<line x1="4361.51" y1="2250.45" x2="4426.31" y2="2250.45" style="stroke:#F0F0F0;stroke-width:9.72"/>
	<line x1="4458.71" y1="2250.45" x2="4523.51" y2="2250.45" style="stroke:#F0F0F0;stroke-width:9.72"/>
	<line x1="4555.91" y1="2250.45" x2="4620.71" y2="2250.45" style="stroke:#F0F0F0;stroke-width:9.72"/>
	<line x1="4653.11" y1="2250.45" x2="4717.91" y2="2250.45" style="stroke:#F0F0F0;stroke-width:9.72"/>
	<line x1="4750.31" y1="2250.45" x2="4815.11" y2="2250.45" style="stroke:#F0F0F0;stroke-width:9.72"/>
	<line x1="4847.51" y1="2250.45" x2="4912.31" y2="2250.45" style="stroke:#F0F0F0;stroke-width:9.72"/>
	<line x1="4944.71" y1="2250.45" x2="5009.51" y2="2250.45" style="stroke:#F0F0F0;stroke-width:9.72"/>
	<line x1="5041.91" y1="2250.45" x2="5106.71" y2="2250.45" style="stroke:#F0F0F0;stroke-width:9.72"/>
	<line x1="376.31" y1="1775.76" x2="441.11" y2="1775.76" style="stroke:#F0F0F0;stroke-width:9.72"/>
	<line x1="473.51" y1="1775.76" x2="538.31" y2="1775.76" style="stroke:#F0F0F0;stroke-width:9.72"/>
	<line x1="570.71" y1="1775.76" x2="635.51" y2="1775.76" style="stroke:#F0F0F0;stroke-width:9.72"/>
	<line x1="667.91" y1="1775.76" x2="732.71" y2="1775.76" style="stroke:#F0F0F0;stroke-width:9.72"/>
	<line x1="765.11" y1="1775.76" x2="829.91" y2="1775.76" style="stroke:#F0F0F0;stroke-width:9.72"/>
	<line x1="862.31" y1="1775.76" x2="927.11" y2="1775.76" style="stroke:#F0F0F0;stroke-width:9.72"/>
	<line x1="959.51" y1="1775.76" x2="1024.31" y2="1775.76" style="stroke:#F0F0F0;stroke-width:9.72"/>
	<line x1="1056.71" y1="1775.76" x2="1121.51" y2="1775.76" style="stroke:#F0F0F0;stroke-width:9.72"/>
	<line x1="1153.91" y1="1775.76" x2="1218.71" y2="1775.76" style="stroke:#F0F0F0;stroke-width:9.72"/>
	<line x1="1251.11" y1="1775.76" x2="1315.91" y2="1775.76" style="stroke:#F0F0F0;stroke-width:9.72"/>
	<line x1="1348.31" y1="1775.76" x2="1413.11" y2="1775.76" style="stroke:#F0F0F0;stroke-width:9.72"/>
	<line x1="1445.51" y1="1775.76" x2="1510.31" y2="1775.76" style="stroke:#F0F0F0;stroke-width:9.72"/>
	<line x1="1542.71" y1="1775.76" x2="1607.51" y2="1775.76" style="stroke:#F0F0F0;stroke-width:9.72"/>
	<line x1="1639.91" y1="1775.76" x2="1704.71" y2="1775.76" style="stroke:#F0F0F0;stroke-width:9.72"/>
	<line x1="1737.11" y1="1775.76" x2="1801.91" y2="1775.76" style="stroke:#F0F0F0;stroke-width:9.72"/>
	<line x1="1834.31" y1="1775.76" x2="1899.11" y2="1775.76" style="stroke:#F0F0F0;stroke-width:9.72"/>
	<line x1="1931.51" y1="1775.76" x2="1996.31" y2="1775.76" style="stroke:#F0F0F0;stroke-width:9.72"/>
	<line x1="2028.71" y1="1775.76" x2="2093.51" y2="1775.76" style="stroke:#F0F0F0;stroke-width:9.72"/>
	<line x1="2125.91" y1="1775.76" x2="2190.71" y2="1775.76" style="stroke:#F0F0F0;stroke-width:9.72"/>
	<line x1="2223.11" y1="1775.76" x2="2287.91" y2="1775.76" style="stroke:#F0F0F0;stroke-width:9.72"/>
	<line x1="2320.31" y1="1775.76" x2="2385.11" y2="1775.76" style="stroke:#F0F0F0;stroke-width:9.72"/>
	<line x1="2417.51" y1="1775.76" x2="2482.31" y2="1775.76" style="stroke:#F0F0F0;stroke-width:9.72"/>
	<line x1="2514.71" y1="1775.76" x2="2579.51" y2="1775.76" style="stroke:#F0F0F0;stroke-width:9.72"/>
	<line x1="2611.91" y1="1775.76" x2="2676.71" y2="1775.76" style="stroke:#F0F0F0;stroke-width:9.72"/>
	<line x1="2709.11" y1="1775.76" x2="2773.91" y2="1775.76" style="stroke:#F0F0F0;stroke-width:9.72"/>
	<line x1="2806.31" y1="1775.76" x2="2871.11" y2="1775.76" style="stroke:#F0F0F0;stroke-width:9.72"/>
	<line x1="2903.51" y1="1775.76" x2="2968.31" y2="1775.76" style="stroke:#F0F0F0;stroke-width:9.72"/>
	<line x1="3000.71" y1="1775.76" x2="3065.51" y2="1775.76" style="stroke:#F0F0F0;stroke-width:9.72"/>
	<line x1="3097.91" y1="1775.76" x2="3162.71" y2="1775.76" style="stroke:#F0F0F0;stroke-width:9.72"/>
	<line x1="3195.11" y1="1775.76" x2="3259.91" y2="1775.76" style="stroke:#F0F0F0;stroke-width:9.72"/>
	<line x1="3292.31" y1="1775.76" x2="3357.11" y2="1775.76" style="stroke:#F0F0F0;stroke-width:9.72"/>
	<line x1="3389.51" y1="1775.76" x2="3454.31" y2="1775.76" style="stroke:#F0F0F0;stroke-width:9.72"/>
	<line x1="3486.71" y1="1775.76" x2="3551.51" y2="1775.76" style="stroke:#F0F0F0;stroke-width:9.72"/>
	<line x1="3583.91" y1="1775.76" x2="3648.71" y2="1775.76" style="stroke:#F0F0F0;stroke-width:9.72"/>
	<line x1="3681.11" y1="1775.76" x2="3745.91" y2="1775.76" style="stroke:#F0F0F0;stroke-width:9.72"/>
	<line x1="3778.31" y1="1775.76" x2="3843.11" y2="1775.76" style="stroke:#F0F0F0;stroke-width:9.72"/>
	<line x1="3875.51" y1="1775.76" x2="3940.31" y2="1775.76" style="stroke:#F0F0F0;stroke-width:9.72"/>
	<line x1="3972.71" y1="1775.76" x2="4037.51" y2="1775.76" style="stroke:#F0F0F0;stroke-width:9.72"/>
	<line x1="4069.91" y1="1775.76" x2="4134.71" y2="1775.76" style="stroke:#F0F0F0;stroke-width:9.72"/>
	<line x1="4167.11" y1="1775.76" x2="4231.91" y2="1775.76" style="stroke:#F0F0F0;stroke-width:9.72"/>
	<line x1="4264.31" y1="1775.76" x2="4329.11" y2="1775.76" style="stroke:#F0F0F0;stroke-width:9.72"/>
	<line x1="4361.51" y1="1775.76" x2="4426.31" y2="1775.76" style="stroke:#F0F0F0;stroke-width:9.72"/>
	<line x1="4458.71" y1="1775.76" x2="4523.51" y2="1775.76" style="stroke:#F0F0F0;stroke-width:9.72"/>
	<line x1="4555.91" y1="1775.76" x2="4620.71" y2="1775.76" style="stroke:#F0F0F0;stroke-width:9.72"/>
	<line x1="4653.11" y1="1775.76" x2="4717.91" y2="1775.76" style="stroke:#F0F0F0;stroke-width:9.72"/>
	<line x1="4750.31" y1="1775.76" x2="4815.11" y2="1775.76" style="stroke:#F0F0F0;stroke-width:9.72"/>
	<line x1="4847.51" y1="1775.76" x2="4912.31" y2="1775.76" style="stroke:#F0F0F0;stroke-width:9.72"/>
	<line x1="4944.71" y1="1775.76" x2="5009.51" y2="1775.76" style="stroke:#F0F0F0;stroke-width:9.72"/>
	<line x1="5041.91" y1="1775.76" x2="5106.71" y2="1775.76" style="stroke:#F0F0F0;stroke-width:9.72"/>
	<line x1="376.31" y1="1301.06" x2="441.11" y2="1301.06" style="stroke:#F0F0F0;stroke-width:9.72"/>
	<line x1="473.51" y1="1301.06" x2="538.31" y2="1301.06" style="stroke:#F0F0F0;stroke-width:9.72"/>
	<line x1="570.71" y1="1301.06" x2="635.51" y2="1301.06" style="stroke:#F0F0F0;stroke-width:9.72"/>
	<line x1="667.91" y1="1301.06" x2="732.71" y2="1301.06" style="stroke:#F0F0F0;stroke-width:9.72"/>
	<line x1="765.11" y1="1301.06" x2="829.91" y2="1301.06" style="stroke:#F0F0F0;stroke-width:9.72"/>
	<line x1="862.31" y1="1301.06" x2="927.11" y2="1301.06" style="stroke:#F0F0F0;stroke-width:9.72"/>
	<line x1="959.51" y1="1301.06" x2="1024.31" y2="1301.06" style="stroke:#F0F0F0;stroke-width:9.72"/>
	<line x1="1056.71" y1="1301.06" x2="1121.51" y2="1301.06" style="stroke:#F0F0F0;stroke-width:9.72"/>
	<line x1="1153.91" y1="1301.06" x2="1218.71" y2="1301.06" style="stroke:#F0F0F0;stroke-width:9.72"/>
	<line x1="1251.11" y1="1301.06" x2="1315.91" y2="1301.06" style="stroke:#F0F0F0;stroke-width:9.72"/>
	<line x1="1348.31" y1="1301.06" x2="1413.11" y2="1301.06" style="stroke:#F0F0F0;stroke-width:9.72"/>
	<line x1="1445.51" y1="1301.06" x2="1510.31" y2="1301.06" style="stroke:#F0F0F0;stroke-width:9.72"/>
	<line x1="1542.71" y1="1301.06" x2="1607.51" y2="1301.06" style="stroke:#F0F0F0;stroke-width:9.72"/>
	<line x1="1639.91" y1="1301.06" x2="1704.71" y2="1301.06" style="stroke:#F0F0F0;stroke-width:9.72"/>
	<line x1="1737.11" y1="1301.06" x2="1801.91" y2="1301.06" style="stroke:#F0F0F0;stroke-width:9.72"/>
	<line x1="1834.31" y1="1301.06" x2="1899.11" y2="1301.06" style="stroke:#F0F0F0;stroke-width:9.72"/>
	<line x1="1931.51" y1="1301.06" x2="1996.31" y2="1301.06" style="stroke:#F0F0F0;stroke-width:9.72"/>
	<line x1="2028.71" y1="1301.06" x2="2093.51" y2="1301.06" style="stroke:#F0F0F0;stroke-width:9.72"/>
	<line x1="2125.91" y1="1301.06" x2="2190.71" y2="1301.06" style="stroke:#F0F0F0;stroke-width:9.72"/>
	<line x1="2223.11" y1="1301.06" x2="2287.91" y2="1301.06" style="stroke:#F0F0F0;stroke-width:9.72"/>
	<line x1="2320.31" y1="1301.06" x2="2385.11" y2="1301.06" style="stroke:#F0F0F0;stroke-width:9.72"/>
	<line x1="2417.51" y1="1301.06" x2="2482.31" y2="1301.06" style="stroke:#F0F0F0;stroke-width:9.72"/>
	<line x1="2514.71" y1="1301.06" x2="2579.51" y2="1301.06" style="stroke:#F0F0F0;stroke-width:9.72"/>
	<line x1="2611.91" y1="1301.06" x2="2676.71" y2="1301.06" style="stroke:#F0F0F0;stroke-width:9.72"/>
	<line x1="2709.11" y1="1301.06" x2="2773.91" y2="1301.06" style="stroke:#F0F0F0;stroke-width:9.72"/>
	<line x1="2806.31" y1="1301.06" x2="2871.11" y2="1301.06" style="stroke:#F0F0F0;stroke-width:9.72"/>
	<line x1="2903.51" y1="1301.06" x2="2968.31" y2="1301.06" style="stroke:#F0F0F0;stroke-width:9.72"/>
	<line x1="3000.71" y1="1301.06" x2="3065.51" y2="1301.06" style="stroke:#F0F0F0;stroke-width:9.72"/>
	<line x1="3097.91" y1="1301.06" x2="3162.71" y2="1301.06" style="stroke:#F0F0F0;stroke-width:9.72"/>
	<line x1="3195.11" y1="1301.06" x2="3259.91" y2="1301.06" style="stroke:#F0F0F0;stroke-width:9.72"/>
	<line x1="3292.31" y1="1301.06" x2="3357.11" y2="1301.06" style="stroke:#F0F0F0;stroke-width:9.72"/>
	<line x1="3389.51" y1="1301.06" x2="3454.31" y2="1301.06" style="stroke:#F0F0F0;stroke-width:9.72"/>
	<line x1="3486.71" y1="1301.06" x2="3551.51" y2="1301.06" style="stroke:#F0F0F0;stroke-width:9.72"/>
	<line x1="3583.91" y1="1301.06" x2="3648.71" y2="1301.06" style="stroke:#F0F0F0;stroke-width:9.72"/>
	<line x1="3681.11" y1="1301.06" x2="3745.91" y2="1301.06" style="stroke:#F0F0F0;stroke-width:9.72"/>
	<line x1="3778.31" y1="1301.06" x2="3843.11" y2="1301.06" style="stroke:#F0F0F0;stroke-width:9.72"/>
	<line x1="3875.51" y1="1301.06" x2="3940.31" y2="1301.06" style="stroke:#F0F0F0;stroke-width:9.72"/>
	<line x1="3972.71" y1="1301.06" x2="4037.51" y2="1301.06" style="stroke:#F0F0F0;stroke-width:9.72"/>
	<line x1="4069.91" y1="1301.06" x2="4134.71" y2="1301.06" style="stroke:#F0F0F0;stroke-width:9.72"/>
	<line x1="4167.11" y1="1301.06" x2="4231.91" y2="1301.06" style="stroke:#F0F0F0;stroke-width:9.72"/>
	<line x1="4264.31" y1="1301.06" x2="4329.11" y2="1301.06" style="stroke:#F0F0F0;stroke-width:9.72"/>
	<line x1="4361.51" y1="1301.06" x2="4426.31" y2="1301.06" style="stroke:#F0F0F0;stroke-width:9.72"/>
	<line x1="4458.71" y1="1301.06" x2="4523.51" y2="1301.06" style="stroke:#F0F0F0;stroke-width:9.72"/>
	<line x1="4555.91" y1="1301.06" x2="4620.71" y2="1301.06" style="stroke:#F0F0F0;stroke-width:9.72"/>
	<line x1="4653.11" y1="1301.06" x2="4717.91" y2="1301.06" style="stroke:#F0F0F0;stroke-width:9.72"/>
	<line x1="4750.31" y1="1301.06" x2="4815.11" y2="1301.06" style="stroke:#F0F0F0;stroke-width:9.72"/>
	<line x1="4847.51" y1="1301.06" x2="4912.31" y2="1301.06" style="stroke:#F0F0F0;stroke-width:9.72"/>
	<line x1="4944.71" y1="1301.06" x2="5009.51" y2="1301.06" style="stroke:#F0F0F0;stroke-width:9.72"/>
	<line x1="5041.91" y1="1301.06" x2="5106.71" y2="1301.06" style="stroke:#F0F0F0;stroke-width:9.72"/>
	<line x1="376.31" y1="826.37" x2="441.11" y2="826.37" style="stroke:#F0F0F0;stroke-width:9.72"/>
	<line x1="473.51" y1="826.37" x2="538.31" y2="826.37" style="stroke:#F0F0F0;stroke-width:9.72"/>
	<line x1="570.71" y1="826.37" x2="635.51" y2="826.37" style="stroke:#F0F0F0;stroke-width:9.72"/>
	<line x1="667.91" y1="826.37" x2="732.71" y2="826.37" style="stroke:#F0F0F0;stroke-width:9.72"/>
	<line x1="765.11" y1="826.37" x2="829.91" y2="826.37" style="stroke:#F0F0F0;stroke-width:9.72"/>
	<line x1="862.31" y1="826.37" x2="927.11" y2="826.37" style="stroke:#F0F0F0;stroke-width:9.72"/>
	<line x1="959.51" y1="826.37" x2="1024.31" y2="826.37" style="stroke:#F0F0F0;stroke-width:9.72"/>
	<line x1="1056.71" y1="826.37" x2="1121.51" y2="826.37" style="stroke:#F0F0F0;stroke-width:9.72"/>
	<line x1="1153.91" y1="826.37" x2="1218.71" y2="826.37" style="stroke:#F0F0F0;stroke-width:9.72"/>
	<line x1="1251.11" y1="826.37" x2="1315.91" y2="826.37" style="stroke:#F0F0F0;stroke-width:9.72"/>
	<line x1="1348.31" y1="826.37" x2="1413.11" y2="826.37" style="stroke:#F0F0F0;stroke-width:9.72"/>
	<line x1="1445.51" y1="826.37" x2="1510.31" y2="826.37" style="stroke:#F0F0F0;stroke-width:9.72"/>
	<line x1="1542.71" y1="826.37" x2="1607.51" y2="826.37" style="stroke:#F0F0F0;stroke-width:9.72"/>
	<line x1="1639.91" y1="826.37" x2="1704.71" y2="826.37" style="stroke:#F0F0F0;stroke-width:9.72"/>
	<line x1="1737.11" y1="826.37" x2="1801.91" y2="826.37" style="stroke:#F0F0F0;stroke-width:9.72"/>
	<line x1="1834.31" y1="826.37" x2="1899.11" y2="826.37" style="stroke:#F0F0F0;stroke-width:9.72"/>
	<line x1="1931.51" y1="826.37" x2="1996.31" y2="826.37" style="stroke:#F0F0F0;stroke-width:9.72"/>
	<line x1="2028.71" y1="826.37" x2="2093.51" y2="826.37" style="stroke:#F0F0F0;stroke-width:9.72"/>
	<line x1="2125.91" y1="826.37" x2="2190.71" y2="826.37" style="stroke:#F0F0F0;stroke-width:9.72"/>
	<line x1="2223.11" y1="826.37" x2="2287.91" y2="826.37" style="stroke:#F0F0F0;stroke-width:9.72"/>
	<line x1="2320.31" y1="826.37" x2="2385.11" y2="826.37" style="stroke:#F0F0F0;stroke-width:9.72"/>
	<line x1="2417.51" y1="826.37" x2="2482.31" y2="826.37" style="stroke:#F0F0F0;stroke-width:9.72"/>
	<line x1="2514.71" y1="826.37" x2="2579.51" y2="826.37" style="stroke:#F0F0F0;stroke-width:9.72"/>
	<line x1="2611.91" y1="826.37" x2="2676.71" y2="826.37" style="stroke:#F0F0F0;stroke-width:9.72"/>
	<line x1="2709.11" y1="826.37" x2="2773.91" y2="826.37" style="stroke:#F0F0F0;stroke-width:9.72"/>
	<line x1="2806.31" y1="826.37" x2="2871.11" y2="826.37" style="stroke:#F0F0F0;stroke-width:9.72"/>
	<line x1="2903.51" y1="826.37" x2="2968.31" y2="826.37" style="stroke:#F0F0F0;stroke-width:9.72"/>
	<line x1="3000.71" y1="826.37" x2="3065.51" y2="826.37" style="stroke:#F0F0F0;stroke-width:9.72"/>
	<line x1="3097.91" y1="826.37" x2="3162.71" y2="826.37" style="stroke:#F0F0F0;stroke-width:9.72"/>
	<line x1="3195.11" y1="826.37" x2="3259.91" y2="826.37" style="stroke:#F0F0F0;stroke-width:9.72"/>
	<line x1="3292.31" y1="826.37" x2="3357.11" y2="826.37" style="stroke:#F0F0F0;stroke-width:9.72"/>
	<line x1="3389.51" y1="826.37" x2="3454.31" y2="826.37" style="stroke:#F0F0F0;stroke-width:9.72"/>
	<line x1="3486.71" y1="826.37" x2="3551.51" y2="826.37" style="stroke:#F0F0F0;stroke-width:9.72"/>
	<line x1="3583.91" y1="826.37" x2="3648.71" y2="826.37" style="stroke:#F0F0F0;stroke-width:9.72"/>
	<line x1="3681.11" y1="826.37" x2="3745.91" y2="826.37" style="stroke:#F0F0F0;stroke-width:9.72"/>
	<line x1="3778.31" y1="826.37" x2="3843.11" y2="826.37" style="stroke:#F0F0F0;stroke-width:9.72"/>
	<line x1="3875.51" y1="826.37" x2="3940.31" y2="826.37" style="stroke:#F0F0F0;stroke-width:9.72"/>
	<line x1="3972.71" y1="826.37" x2="4037.51" y2="826.37" style="stroke:#F0F0F0;stroke-width:9.72"/>
	<line x1="4069.91" y1="826.37" x2="4134.71" y2="826.37" style="stroke:#F0F0F0;stroke-width:9.72"/>
	<line x1="4167.11" y1="826.37" x2="4231.91" y2="826.37" style="stroke:#F0F0F0;stroke-width:9.72"/>
	<line x1="4264.31" y1="826.37" x2="4329.11" y2="826.37" style="stroke:#F0F0F0;stroke-width:9.72"/>
	<line x1="4361.51" y1="826.37" x2="4426.31" y2="826.37" style="stroke:#F0F0F0;stroke-width:9.72"/>
	<line x1="4458.71" y1="826.37" x2="4523.51" y2="826.37" style="stroke:#F0F0F0;stroke-width:9.72"/>
	<line x1="4555.91" y1="826.37" x2="4620.71" y2="826.37" style="stroke:#F0F0F0;stroke-width:9.72"/>
	<line x1="4653.11" y1="826.37" x2="4717.91" y2="826.37" style="stroke:#F0F0F0;stroke-width:9.72"/>
	<line x1="4750.31" y1="826.37" x2="4815.11" y2="826.37" style="stroke:#F0F0F0;stroke-width:9.72"/>
	<line x1="4847.51" y1="826.37" x2="4912.31" y2="826.37" style="stroke:#F0F0F0;stroke-width:9.72"/>
	<line x1="4944.71" y1="826.37" x2="5009.51" y2="826.37" style="stroke:#F0F0F0;stroke-width:9.72"/>
	<line x1="5041.91" y1="826.37" x2="5106.71" y2="826.37" style="stroke:#F0F0F0;stroke-width:9.72"/>
	<line x1="376.31" y1="351.68" x2="441.11" y2="351.68" style="stroke:#F0F0F0;stroke-width:9.72"/>
	<line x1="473.51" y1="351.68" x2="538.31" y2="351.68" style="stroke:#F0F0F0;stroke-width:9.72"/>
	<line x1="570.71" y1="351.68" x2="635.51" y2="351.68" style="stroke:#F0F0F0;stroke-width:9.72"/>
	<line x1="667.91" y1="351.68" x2="732.71" y2="351.68" style="stroke:#F0F0F0;stroke-width:9.72"/>
	<line x1="765.11" y1="351.68" x2="829.91" y2="351.68" style="stroke:#F0F0F0;stroke-width:9.72"/>
	<line x1="862.31" y1="351.68" x2="927.11" y2="351.68" style="stroke:#F0F0F0;stroke-width:9.72"/>
	<line x1="959.51" y1="351.68" x2="1024.31" y2="351.68" style="stroke:#F0F0F0;stroke-width:9.72"/>
	<line x1="1056.71" y1="351.68" x2="1121.51" y2="351.68" style="stroke:#F0F0F0;stroke-width:9.72"/>
	<line x1="1153.91" y1="351.68" x2="1218.71" y2="351.68" style="stroke:#F0F0F0;stroke-width:9.72"/>
	<line x1="1251.11" y1="351.68" x2="1315.91" y2="351.68" style="stroke:#F0F0F0;stroke-width:9.72"/>
	<line x1="1348.31" y1="351.68" x2="1413.11" y2="351.68" style="stroke:#F0F0F0;stroke-width:9.72"/>
	<line x1="1445.51" y1="351.68" x2="1510.31" y2="351.68" style="stroke:#F0F0F0;stroke-width:9.72"/>
	<line x1="1542.71" y1="351.68" x2="1607.51" y2="351.68" style="stroke:#F0F0F0;stroke-width:9.72"/>
	<line x1="1639.91" y1="351.68" x2="1704.71" y2="351.68" style="stroke:#F0F0F0;stroke-width:9.72"/>
	<line x1="1737.11" y1="351.68" x2="1801.91" y2="351.68" style="stroke:#F0F0F0;stroke-width:9.72"/>
	<line x1="1834.31" y1="351.68" x2="1899.11" y2="351.68" style="stroke:#F0F0F0;stroke-width:9.72"/>
	<line x1="1931.51" y1="351.68" x2="1996.31" y2="351.68" style="stroke:#F0F0F0;stroke-width:9.72"/>
	<line x1="2028.71" y1="351.68" x2="2093.51" y2="351.68" style="stroke:#F0F0F0;stroke-width:9.72"/>
	<line x1="2125.91" y1="351.68" x2="2190.71" y2="351.68" style="stroke:#F0F0F0;stroke-width:9.72"/>
	<line x1="2223.11" y1="351.68" x2="2287.91" y2="351.68" style="stroke:#F0F0F0;stroke-width:9.72"/>
	<line x1="2320.31" y1="351.68" x2="2385.11" y2="351.68" style="stroke:#F0F0F0;stroke-width:9.72"/>
	<line x1="2417.51" y1="351.68" x2="2482.31" y2="351.68" style="stroke:#F0F0F0;stroke-width:9.72"/>
	<line x1="2514.71" y1="351.68" x2="2579.51" y2="351.68" style="stroke:#F0F0F0;stroke-width:9.72"/>
	<line x1="2611.91" y1="351.68" x2="2676.71" y2="351.68" style="stroke:#F0F0F0;stroke-width:9.72"/>
	<line x1="2709.11" y1="351.68" x2="2773.91" y2="351.68" style="stroke:#F0F0F0;stroke-width:9.72"/>
	<line x1="2806.31" y1="351.68" x2="2871.11" y2="351.68" style="stroke:#F0F0F0;stroke-width:9.72"/>
	<line x1="2903.51" y1="351.68" x2="2968.31" y2="351.68" style="stroke:#F0F0F0;stroke-width:9.72"/>
	<line x1="3000.71" y1="351.68" x2="3065.51" y2="351.68" style="stroke:#F0F0F0;stroke-width:9.72"/>
	<line x1="3097.91" y1="351.68" x2="3162.71" y2="351.68" style="stroke:#F0F0F0;stroke-width:9.72"/>
	<line x1="3195.11" y1="351.68" x2="3259.91" y2="351.68" style="stroke:#F0F0F0;stroke-width:9.72"/>
	<line x1="3292.31" y1="351.68" x2="3357.11" y2="351.68" style="stroke:#F0F0F0;stroke-width:9.72"/>
	<line x1="3389.51" y1="351.68" x2="3454.31" y2="351.68" style="stroke:#F0F0F0;stroke-width:9.72"/>
	<line x1="3486.71" y1="351.68" x2="3551.51" y2="351.68" style="stroke:#F0F0F0;stroke-width:9.72"/>
	<line x1="3583.91" y1="351.68" x2="3648.71" y2="351.68" style="stroke:#F0F0F0;stroke-width:9.72"/>
	<line x1="3681.11" y1="351.68" x2="3745.91" y2="351.68" style="stroke:#F0F0F0;stroke-width:9.72"/>
	<line x1="3778.31" y1="351.68" x2="3843.11" y2="351.68" style="stroke:#F0F0F0;stroke-width:9.72"/>
	<line x1="3875.51" y1="351.68" x2="3940.31" y2="351.68" style="stroke:#F0F0F0;stroke-width:9.72"/>
	<line x1="3972.71" y1="351.68" x2="4037.51" y2="351.68" style="stroke:#F0F0F0;stroke-width:9.72"/>
	<line x1="4069.91" y1="351.68" x2="4134.71" y2="351.68" style="stroke:#F0F0F0;stroke-width:9.72"/>
	<line x1="4167.11" y1="351.68" x2="4231.91" y2="351.68" style="stroke:#F0F0F0;stroke-width:9.72"/>
	<line x1="4264.31" y1="351.68" x2="4329.11" y2="351.68" style="stroke:#F0F0F0;stroke-width:9.72"/>
	<line x1="4361.51" y1="351.68" x2="4426.31" y2="351.68" style="stroke:#F0F0F0;stroke-width:9.72"/>
	<line x1="4458.71" y1="351.68" x2="4523.51" y2="351.68" style="stroke:#F0F0F0;stroke-width:9.72"/>
	<line x1="4555.91" y1="351.68" x2="4620.71" y2="351.68" style="stroke:#F0F0F0;stroke-width:9.72"/>
	<line x1="4653.11" y1="351.68" x2="4717.91" y2="351.68" style="stroke:#F0F0F0;stroke-width:9.72"/>
	<line x1="4750.31" y1="351.68" x2="4815.11" y2="351.68" style="stroke:#F0F0F0;stroke-width:9.72"/>
	<line x1="4847.51" y1="351.68" x2="4912.31" y2="351.68" style="stroke:#F0F0F0;stroke-width:9.72"/>
	<line x1="4944.71" y1="351.68" x2="5009.51" y2="351.68" style="stroke:#F0F0F0;stroke-width:9.72"/>
	<line x1="5041.91" y1="351.68" x2="5106.71" y2="351.68" style="stroke:#F0F0F0;stroke-width:9.72"/>
	<line x1="447.69" y1="2321.66" x2="447.69" y2="2256.86" style="stroke:#F0F0F0;stroke-width:9.72"/>
	<line x1="447.69" y1="2224.46" x2="447.69" y2="2159.66" style="stroke:#F0F0F0;stroke-width:9.72"/>
	<line x1="447.69" y1="2127.26" x2="447.69" y2="2062.46" style="stroke:#F0F0F0;stroke-width:9.72"/>
	<line x1="447.69" y1="2030.06" x2="447.69" y2="1965.26" style="stroke:#F0F0F0;stroke-width:9.72"/>
	<line x1="447.69" y1="1932.86" x2="447.69" y2="1868.06" style="stroke:#F0F0F0;stroke-width:9.72"/>
	<line x1="447.69" y1="1835.66" x2="447.69" y2="1770.86" style="stroke:#F0F0F0;stroke-width:9.72"/>
	<line x1="447.69" y1="1738.46" x2="447.69" y2="1673.66" style="stroke:#F0F0F0;stroke-width:9.72"/>
	<line x1="447.69" y1="1641.26" x2="447.69" y2="1576.46" style="stroke:#F0F0F0;stroke-width:9.72"/>
	<line x1="447.69" y1="1544.06" x2="447.69" y2="1479.26" style="stroke:#F0F0F0;stroke-width:9.72"/>
	<line x1="447.69" y1="1446.86" x2="447.69" y2="1382.06" style="stroke:#F0F0F0;stroke-width:9.72"/>
	<line x1="447.69" y1="1349.66" x2="447.69" y2="1284.86" style="stroke:#F0F0F0;stroke-width:9.72"/>
	<line x1="447.69" y1="1252.46" x2="447.69" y2="1187.66" style="stroke:#F0F0F0;stroke-width:9.72"/>
	<line x1="447.69" y1="1155.26" x2="447.69" y2="1090.46" style="stroke:#F0F0F0;stroke-width:9.72"/>
	<line x1="447.69" y1="1058.06" x2="447.69" y2="993.26" style="stroke:#F0F0F0;stroke-width:9.72"/>
	<line x1="447.69" y1="960.86" x2="447.69" y2="896.06" style="stroke:#F0F0F0;stroke-width:9.72"/>
	<line x1="447.69" y1="863.66" x2="447.69" y2="798.86" style="stroke:#F0F0F0;stroke-width:9.72"/>
	<line x1="447.69" y1="766.46" x2="447.69" y2="701.66" style="stroke:#F0F0F0;stroke-width:9.72"/>
	<line x1="447.69" y1="669.26" x2="447.69" y2="604.46" style="stroke:#F0F0F0;stroke-width:9.72"/>
	<line x1="447.69" y1="572.06" x2="447.69" y2="507.26" style="stroke:#F0F0F0;stroke-width:9.72"/>
	<line x1="447.69" y1="474.86" x2="447.69" y2="410.06" style="stroke:#F0F0F0;stroke-width:9.72"/>
	<line x1="447.69" y1="377.66" x2="447.69" y2="312.86" style="stroke:#F0F0F0;stroke-width:9.72"/>
	<line x1="447.69" y1="280.46" x2="447.69" y2="215.66" style="stroke:#F0F0F0;stroke-width:9.72"/>
	<line x1="447.69" y1="183.26" x2="447.69" y2="118.46" style="stroke:#F0F0F0;stroke-width:9.72"/>
	<line x1="1599.08" y1="2321.66" x2="1599.08" y2="2256.86" style="stroke:#F0F0F0;stroke-width:9.72"/>
	<line x1="1599.08" y1="2224.46" x2="1599.08" y2="2159.66" style="stroke:#F0F0F0;stroke-width:9.72"/>
	<line x1="1599.08" y1="2127.26" x2="1599.08" y2="2062.46" style="stroke:#F0F0F0;stroke-width:9.72"/>
	<line x1="1599.08" y1="2030.06" x2="1599.08" y2="1965.26" style="stroke:#F0F0F0;stroke-width:9.72"/>
	<line x1="1599.08" y1="1932.86" x2="1599.08" y2="1868.06" style="stroke:#F0F0F0;stroke-width:9.72"/>
	<line x1="1599.08" y1="1835.66" x2="1599.08" y2="1770.86" style="stroke:#F0F0F0;stroke-width:9.72"/>
	<line x1="1599.08" y1="1738.46" x2="1599.08" y2="1673.66" style="stroke:#F0F0F0;stroke-width:9.72"/>
	<line x1="1599.08" y1="1641.26" x2="1599.08" y2="1576.46" style="stroke:#F0F0F0;stroke-width:9.72"/>
	<line x1="1599.08" y1="1544.06" x2="1599.08" y2="1479.26" style="stroke:#F0F0F0;stroke-width:9.72"/>
	<line x1="1599.08" y1="1446.86" x2="1599.08" y2="1382.06" style="stroke:#F0F0F0;stroke-width:9.72"/>
	<line x1="1599.08" y1="1349.66" x2="1599.08" y2="1284.86" style="stroke:#F0F0F0;stroke-width:9.72"/>
	<line x1="1599.08" y1="1252.46" x2="1599.08" y2="1187.66" style="stroke:#F0F0F0;stroke-width:9.72"/>
	<line x1="1599.08" y1="1155.26" x2="1599.08" y2="1090.46" style="stroke:#F0F0F0;stroke-width:9.72"/>
	<line x1="1599.08" y1="1058.06" x2="1599.08" y2="993.26" style="stroke:#F0F0F0;stroke-width:9.72"/>
	<line x1="1599.08" y1="960.86" x2="1599.08" y2="896.06" style="stroke:#F0F0F0;stroke-width:9.72"/>
	<line x1="1599.08" y1="863.66" x2="1599.08" y2="798.86" style="stroke:#F0F0F0;stroke-width:9.72"/>
	<line x1="1599.08" y1="766.46" x2="1599.08" y2="701.66" style="stroke:#F0F0F0;stroke-width:9.72"/>
	<line x1="1599.08" y1="669.26" x2="1599.08" y2="604.46" style="stroke:#F0F0F0;stroke-width:9.72"/>
	<line x1="1599.08" y1="572.06" x2="1599.08" y2="507.26" style="stroke:#F0F0F0;stroke-width:9.72"/>
	<line x1="1599.08" y1="474.86" x2="1599.08" y2="410.06" style="stroke:#F0F0F0;stroke-width:9.72"/>
	<line x1="1599.08" y1="377.66" x2="1599.08" y2="312.86" style="stroke:#F0F0F0;stroke-width:9.72"/>
	<line x1="1599.08" y1="280.46" x2="1599.08" y2="215.66" style="stroke:#F0F0F0;stroke-width:9.72"/>
	<line x1="1599.08" y1="183.26" x2="1599.08" y2="118.46" style="stroke:#F0F0F0;stroke-width:9.72"/>
	<line x1="2750.46" y1="2321.66" x2="2750.46" y2="2256.86" style="stroke:#F0F0F0;stroke-width:9.72"/>
	<line x1="2750.46" y1="2224.46" x2="2750.46" y2="2159.66" style="stroke:#F0F0F0;stroke-width:9.72"/>
	<line x1="2750.46" y1="2127.26" x2="2750.46" y2="2062.46" style="stroke:#F0F0F0;stroke-width:9.72"/>
	<line x1="2750.46" y1="2030.06" x2="2750.46" y2="1965.26" style="stroke:#F0F0F0;stroke-width:9.72"/>
	<line x1="2750.46" y1="1932.86" x2="2750.46" y2="1868.06" style="stroke:#F0F0F0;stroke-width:9.72"/>
	<line x1="2750.46" y1="1835.66" x2="2750.46" y2="1770.86" style="stroke:#F0F0F0;stroke-width:9.72"/>
	<line x1="2750.46" y1="1738.46" x2="2750.46" y2="1673.66" style="stroke:#F0F0F0;stroke-width:9.72"/>
	<line x1="2750.46" y1="1641.26" x2="2750.46" y2="1576.46" style="stroke:#F0F0F0;stroke-width:9.72"/>
	<line x1="2750.46" y1="1544.06" x2="2750.46" y2="1479.26" style="stroke:#F0F0F0;stroke-width:9.72"/>
	<line x1="2750.46" y1="1446.86" x2="2750.46" y2="1382.06" style="stroke:#F0F0F0;stroke-width:9.72"/>
	<line x1="2750.46" y1="1349.66" x2="2750.46" y2="1284.86" style="stroke:#F0F0F0;stroke-width:9.72"/>
	<line x1="2750.46" y1="1252.46" x2="2750.46" y2="1187.66" style="stroke:#F0F0F0;stroke-width:9.72"/>
	<line x1="2750.46" y1="1155.26" x2="2750.46" y2="1090.46" style="stroke:#F0F0F0;stroke-width:9.72"/>
	<line x1="2750.46" y1="1058.06" x2="2750.46" y2="993.26" style="stroke:#F0F0F0;stroke-width:9.72"/>
	<line x1="2750.46" y1="960.86" x2="2750.46" y2="896.06" style="stroke:#F0F0F0;stroke-width:9.72"/>
	<line x1="2750.46" y1="863.66" x2="2750.46" y2="798.86" style="stroke:#F0F0F0;stroke-width:9.72"/>
	<line x1="2750.46" y1="766.46" x2="2750.46" y2="701.66" style="stroke:#F0F0F0;stroke-width:9.72"/>
	<line x1="2750.46" y1="669.26" x2="2750.46" y2="604.46" style="stroke:#F0F0F0;stroke-width:9.72"/>
	<line x1="2750.46" y1="572.06" x2="2750.46" y2="507.26" style="stroke:#F0F0F0;stroke-width:9.72"/>
	<line x1="2750.46" y1="474.86" x2="2750.46" y2="410.06" style="stroke:#F0F0F0;stroke-width:9.72"/>
	<line x1="2750.46" y1="377.66" x2="2750.46" y2="312.86" style="stroke:#F0F0F0;stroke-width:9.72"/>
	<line x1="2750.46" y1="280.46" x2="2750.46" y2="215.66" style="stroke:#F0F0F0;stroke-width:9.72"/>
	<line x1="2750.46" y1="183.26" x2="2750.46" y2="118.46" style="stroke:#F0F0F0;stroke-width:9.72"/>
	<line x1="3901.84" y1="2321.66" x2="3901.84" y2="2256.86" style="stroke:#F0F0F0;stroke-width:9.72"/>
	<line x1="3901.84" y1="2224.46" x2="3901.84" y2="2159.66" style="stroke:#F0F0F0;stroke-width:9.72"/>
	<line x1="3901.84" y1="2127.26" x2="3901.84" y2="2062.46" style="stroke:#F0F0F0;stroke-width:9.72"/>
	<line x1="3901.84" y1="2030.06" x2="3901.84" y2="1965.26" style="stroke:#F0F0F0;stroke-width:9.72"/>
	<line x1="3901.84" y1="1932.86" x2="3901.84" y2="1868.06" style="stroke:#F0F0F0;stroke-width:9.72"/>
	<line x1="3901.84" y1="1835.66" x2="3901.84" y2="1770.86" style="stroke:#F0F0F0;stroke-width:9.72"/>
	<line x1="3901.84" y1="1738.46" x2="3901.84" y2="1673.66" style="stroke:#F0F0F0;stroke-width:9.72"/>
	<line x1="3901.84" y1="1641.26" x2="3901.84" y2="1576.46" style="stroke:#F0F0F0;stroke-width:9.72"/>
	<line x1="3901.84" y1="1544.06" x2="3901.84" y2="1479.26" style="stroke:#F0F0F0;stroke-width:9.72"/>
	<line x1="3901.84" y1="1446.86" x2="3901.84" y2="1382.06" style="stroke:#F0F0F0;stroke-width:9.72"/>
	<line x1="3901.84" y1="1349.66" x2="3901.84" y2="1284.86" style="stroke:#F0F0F0;stroke-width:9.72"/>
	<line x1="3901.84" y1="1252.46" x2="3901.84" y2="1187.66" style="stroke:#F0F0F0;stroke-width:9.72"/>
	<line x1="3901.84" y1="1155.26" x2="3901.84" y2="1090.46" style="stroke:#F0F0F0;stroke-width:9.72"/>
	<line x1="3901.84" y1="1058.06" x2="3901.84" y2="993.26" style="stroke:#F0F0F0;stroke-width:9.72"/>
	<line x1="3901.84" y1="960.86" x2="3901.84" y2="896.06" style="stroke:#F0F0F0;stroke-width:9.72"/>
	<line x1="3901.84" y1="863.66" x2="3901.84" y2="798.86" style="stroke:#F0F0F0;stroke-width:9.72"/>
	<line x1="3901.84" y1="766.46" x2="3901.84" y2="701.66" style="stroke:#F0F0F0;stroke-width:9.72"/>
	<line x1="3901.84" y1="669.26" x2="3901.84" y2="604.46" style="stroke:#F0F0F0;stroke-width:9.72"/>
	<line x1="3901.84" y1="572.06" x2="3901.84" y2="507.26" style="stroke:#F0F0F0;stroke-width:9.72"/>
	<line x1="3901.84" y1="474.86" x2="3901.84" y2="410.06" style="stroke:#F0F0F0;stroke-width:9.72"/>
	<line x1="3901.84" y1="377.66" x2="3901.84" y2="312.86" style="stroke:#F0F0F0;stroke-width:9.72"/>
	<line x1="3901.84" y1="280.46" x2="3901.84" y2="215.66" style="stroke:#F0F0F0;stroke-width:9.72"/>
	<line x1="3901.84" y1="183.26" x2="3901.84" y2="118.46" style="stroke:#F0F0F0;stroke-width:9.72"/>
	<line x1="5053.39" y1="2321.66" x2="5053.39" y2="2256.86" style="stroke:#F0F0F0;stroke-width:9.72"/>
	<line x1="5053.39" y1="2224.46" x2="5053.39" y2="2159.66" style="stroke:#F0F0F0;stroke-width:9.72"/>
	<line x1="5053.39" y1="2127.26" x2="5053.39" y2="2062.46" style="stroke:#F0F0F0;stroke-width:9.72"/>
	<line x1="5053.39" y1="2030.06" x2="5053.39" y2="1965.26" style="stroke:#F0F0F0;stroke-width:9.72"/>
	<line x1="5053.39" y1="1932.86" x2="5053.39" y2="1868.06" style="stroke:#F0F0F0;stroke-width:9.72"/>
	<line x1="5053.39" y1="1835.66" x2="5053.39" y2="1770.86" style="stroke:#F0F0F0;stroke-width:9.72"/>
	<line x1="5053.39" y1="1738.46" x2="5053.39" y2="1673.66" style="stroke:#F0F0F0;stroke-width:9.72"/>
	<line x1="5053.39" y1="1641.26" x2="5053.39" y2="1576.46" style="stroke:#F0F0F0;stroke-width:9.72"/>
	<line x1="5053.39" y1="1544.06" x2="5053.39" y2="1479.26" style="stroke:#F0F0F0;stroke-width:9.72"/>
	<line x1="5053.39" y1="1446.86" x2="5053.39" y2="1382.06" style="stroke:#F0F0F0;stroke-width:9.72"/>
	<line x1="5053.39" y1="1349.66" x2="5053.39" y2="1284.86" style="stroke:#F0F0F0;stroke-width:9.72"/>
	<line x1="5053.39" y1="1252.46" x2="5053.39" y2="1187.66" style="stroke:#F0F0F0;stroke-width:9.72"/>
	<line x1="5053.39" y1="1155.26" x2="5053.39" y2="1090.46" style="stroke:#F0F0F0;stroke-width:9.72"/>
	<line x1="5053.39" y1="1058.06" x2="5053.39" y2="993.26" style="stroke:#F0F0F0;stroke-width:9.72"/>
	<line x1="5053.39" y1="960.86" x2="5053.39" y2="896.06" style="stroke:#F0F0F0;stroke-width:9.72"/>
	<line x1="5053.39" y1="863.66" x2="5053.39" y2="798.86" style="stroke:#F0F0F0;stroke-width:9.72"/>
	<line x1="5053.39" y1="766.46" x2="5053.39" y2="701.66" style="stroke:#F0F0F0;stroke-width:9.72"/>
	<line x1="5053.39" y1="669.26" x2="5053.39" y2="604.46" style="stroke:#F0F0F0;stroke-width:9.72"/>
	<line x1="5053.39" y1="572.06" x2="5053.39" y2="507.26" style="stroke:#F0F0F0;stroke-width:9.72"/>
	<line x1="5053.39" y1="474.86" x2="5053.39" y2="410.06" style="stroke:#F0F0F0;stroke-width:9.72"/>
	<line x1="5053.39" y1="377.66" x2="5053.39" y2="312.86" style="stroke:#F0F0F0;stroke-width:9.72"/>
	<line x1="5053.39" y1="280.46" x2="5053.39" y2="215.66" style="stroke:#F0F0F0;stroke-width:9.72"/>
	<line x1="5053.39" y1="183.26" x2="5053.39" y2="118.46" style="stroke:#F0F0F0;stroke-width:9.72"/>
	<path d=" M466.76 1371.26 L486.00 1221.92 L505.07 1435.89 L524.31 1125.73 L543.54 1242.00 L562.78 1349.16 L581.85 1501.71 L601.09 1253.98 L620.33 1542.88 L639.39 1462.89 L658.63 1409.23 L677.87 1350.00 L697.11 1281.15 L716.18 1457.33 L735.41 1055.36 L754.65 1441.63 L773.72 1489.73 L792.96 1414.46 L812.19 1269.51 L831.43 424.57 L850.50 1056.71 L869.74 1621.86 L888.98 1281.83 L908.04 1404.51 L927.28 1345.78 L946.52 1443.99 L965.76 1638.73 L984.83 1306.63 L1004.06 1327.73 L1023.30 1452.09 L1042.54 1234.07 L1061.61 898.26 L1080.84 896.40 L1100.08 1381.56 L1119.15 1127.25 L1138.39 776.08 L1157.63 641.59 L1176.86 989.55 L1195.93 849.82 L1215.17 1744.71 L1234.41 1416.99 L1253.47 1471.33 L1272.71 1221.41 L1291.95 1440.62 L1311.19 1220.74 L1330.26 1401.98 L1349.49 1101.60 L1368.73 1330.93 L1387.80 1407.71 L1407.04 1473.36 L1426.28 1220.91 L1445.51 1327.05 L1464.58 1335.99 L1483.82 1399.11 L1503.06 1526.51 L1522.29 1290.26 L1541.36 1394.21 L1560.60 1361.64 L1579.84 1275.75 L1598.91 1246.56 L1618.14 995.12 L1637.38 1300.72 L1656.62 1606.67 L1675.69 1311.69 L1694.93 1355.40 L1714.16 843.24 L1733.23 1626.58 L1752.47 1285.71 L1771.71 1711.80 L1790.94 1231.88 L1810.01 1547.27 L1829.25 771.69 L1848.49 1407.21 L1867.56 1212.81 L1886.79 1225.13 L1906.03 1201.16 L1925.27 1284.69 L1944.34 862.31 L1963.58 1437.92 L1982.81 1345.61 L2002.05 184.78 L2021.12 1810.86 L2040.36 1598.40 L2059.59 1446.86 L2078.66 1104.47 L2097.90 1386.62 L2117.14 1502.38 L2136.38 1419.19 L2155.44 1318.78 L2174.68 1375.65 L2193.92 1472.01 L2212.99 950.91 L2232.23 1081.69 L2251.46 1361.81 L2270.70 1289.93 L2289.77 1425.09 L2309.01 1500.69 L2328.24 1314.06 L2347.48 1437.58 L2366.55 1276.26 L2385.79 1316.25 L2405.03 1190.70 L2424.09 1311.53 L2443.33 1369.74 L2462.57 1402.99 L2481.81 1253.47 L2500.88 1337.51 L2520.11 1446.69 L2539.35 1423.41 L2558.42 1454.96 L2577.66 948.54 L2596.89 1435.39 L2616.13 1463.40 L2635.20 1377.84 L2654.44 1251.11 L2673.68 996.97 L2692.74 1389.15 L2711.98 1454.96 L2731.22 1376.49 L2750.46 1360.46 L2769.53 1092.99 L2788.76 1397.76 L2808.00 1053.34 L2827.24 1028.87 L2846.31 1586.08 L2865.54 1730.36 L2884.78 1308.66 L2903.85 1355.40 L2923.09 1453.28 L2942.33 771.02 L2961.56 1271.53 L2980.63 1438.93 L2999.87 1369.41 L3019.11 1181.59 L3038.18 1771.54 L3057.41 1595.19 L3076.65 1167.24 L3095.89 1343.42 L3114.96 1325.03 L3134.19 1328.06 L3153.43 1310.51 L3172.50 892.35 L3191.74 1166.06 L3210.98 1213.99 L3230.21 738.79 L3249.28 1299.21 L3268.52 951.75 L3287.76 1542.71 L3306.99 1414.63 L3326.06 1233.39 L3345.30 1614.94 L3364.54 1365.36 L3383.61 1414.13 L3402.84 1372.95 L3422.08 1365.02 L3441.32 1362.15 L3460.39 1216.01 L3479.63 1356.24 L3498.86 890.32 L3517.93 1725.81 L3537.17 1307.98 L3556.41 1539.51 L3575.64 1453.44 L3594.71 1268.33 L3613.95 1428.64 L3633.19 1073.42 L3652.43 1431.68 L3671.49 1578.32 L3690.73 1392.19 L3709.97 848.98 L3729.04 1491.75 L3748.28 1357.76 L3767.51 1699.65 L3786.75 907.37 L3805.82 1412.44 L3825.06 1290.94 L3844.29 1639.07 L3863.36 1228.33 L3882.60 1596.88 L3901.84 1366.71 L3921.08 1450.91 L3940.14 1398.77 L3959.38 1178.04 L3978.62 1811.19 L3997.69 1584.73 L4016.93 746.72 L4036.16 1540.86 L4055.40 1571.91 L4074.47 1777.95 L4093.71 1248.41 L4112.94 1335.15 L4132.18 1012.50 L4151.25 1560.77 L4170.49 1558.07 L4189.73 1783.01 L4208.79 1507.11 L4228.03 1779.47 L4247.27 1400.96 L4266.51 1544.91 L4285.58 1102.95 L4304.81 1816.43 L4324.05 1249.76 L4343.12 1098.06 L4362.36 1334.81 L4381.59 1245.21 L4400.83 1414.97 L4419.90 595.01 L4439.14 1612.58 L4458.38 1608.19 L4477.44 727.31 L4496.68 393.19 L4515.92 934.71 L4535.16 2051.16 L4554.23 1293.64 L4573.46 1234.41 L4592.70 1407.54 L4611.94 2005.59 L4631.01 503.55 L4650.24 650.70 L4669.48 259.54 L4688.55 1255.50 L4707.79 1272.54 L4727.02 1225.63 L4746.26 1441.63 L4765.33 845.61 L4784.57 1588.28 L4803.81 1118.14 L4822.88 1006.59 L4842.11 1003.72 L4861.35 1600.76 L4880.59 1757.19 L4899.66 410.06 L4918.89 587.93 L4938.13 1771.20 L4957.37 669.77 L4976.44 1609.37 L4995.68 1686.32 L5014.91 1315.58 L5033.98 1361.64" stroke-linejoin="round" style="fill:none;stroke:#1A85FF;stroke-width:9.72"/>
	<path d=" M466.76 1310.34 L486.00 1290.60 L505.07 1318.95 L524.31 1277.78 L543.54 1293.30 L562.78 1307.47 L581.85 1327.73 L601.09 1294.82 L620.33 1333.13 L639.39 1322.49 L658.63 1315.41 L677.87 1307.64 L697.11 1298.36 L716.18 1321.82 L735.41 1268.49 L754.65 1319.79 L773.72 1326.04 L792.96 1316.08 L812.19 1296.84 L831.43 1184.79 L850.50 1268.66 L869.74 1343.59 L888.98 1298.53 L908.04 1314.73 L927.28 1306.97 L946.52 1319.96 L965.76 1345.78 L984.83 1301.74 L1004.06 1304.61 L1023.30 1321.14 L1042.54 1292.12 L1061.61 1247.74 L1080.84 1247.40 L1100.08 1311.69 L1119.15 1277.94 L1138.39 1231.37 L1157.63 1213.65 L1176.86 1259.72 L1195.93 1241.16 L1215.17 1359.96 L1234.41 1316.42 L1253.47 1323.68 L1272.71 1290.43 L1291.95 1319.63 L1311.19 1290.43 L1330.26 1314.39 L1349.49 1274.57 L1368.73 1305.11 L1387.80 1315.24 L1407.04 1323.84 L1426.28 1290.43 L1445.51 1304.44 L1464.58 1305.62 L1483.82 1314.06 L1503.06 1330.93 L1522.29 1299.54 L1541.36 1313.38 L1560.60 1309.16 L1579.84 1297.69 L1598.91 1293.81 L1618.14 1260.56 L1637.38 1301.06 L1656.62 1341.56 L1675.69 1302.41 L1694.93 1308.32 L1714.16 1240.31 L1733.23 1344.26 L1752.47 1299.04 L1771.71 1355.57 L1790.94 1291.95 L1810.01 1333.80 L1829.25 1230.86 L1848.49 1315.07 L1867.56 1289.42 L1886.79 1290.94 L1906.03 1287.73 L1925.27 1298.87 L1944.34 1242.84 L1963.58 1319.29 L1982.81 1306.97 L2002.05 1153.07 L2021.12 1368.73 L2040.36 1340.55 L2059.59 1320.47 L2078.66 1275.08 L2097.90 1312.37 L2117.14 1327.73 L2136.38 1316.76 L2155.44 1303.43 L2174.68 1311.02 L2193.92 1323.68 L2212.99 1254.66 L2232.23 1272.04 L2251.46 1309.16 L2270.70 1299.54 L2289.77 1317.60 L2309.01 1327.56 L2328.24 1302.75 L2347.48 1319.12 L2366.55 1297.86 L2385.79 1303.09 L2405.03 1286.38 L2424.09 1302.41 L2443.33 1310.18 L2462.57 1314.56 L2481.81 1294.82 L2500.88 1305.96 L2520.11 1320.30 L2539.35 1317.26 L2558.42 1321.48 L2577.66 1254.32 L2596.89 1318.95 L2616.13 1322.66 L2635.20 1311.19 L2654.44 1294.48 L2673.68 1260.73 L2692.74 1312.71 L2711.98 1321.48 L2731.22 1311.02 L2750.46 1308.99 L2769.53 1273.39 L2788.76 1313.89 L2808.00 1268.16 L2827.24 1264.95 L2846.31 1338.86 L2865.54 1357.93 L2884.78 1302.08 L2903.85 1308.32 L2923.09 1321.31 L2942.33 1230.69 L2961.56 1297.18 L2980.63 1319.29 L2999.87 1310.18 L3019.11 1285.20 L3038.18 1363.50 L3057.41 1340.04 L3076.65 1283.34 L3095.89 1306.63 L3114.96 1304.27 L3134.19 1304.61 L3153.43 1302.24 L3172.50 1246.89 L3191.74 1283.18 L3210.98 1289.59 L3230.21 1226.47 L3249.28 1300.89 L3268.52 1254.66 L3287.76 1333.13 L3306.99 1316.08 L3326.06 1292.12 L3345.30 1342.74 L3364.54 1309.67 L3383.61 1316.08 L3402.84 1310.68 L3422.08 1309.50 L3441.32 1309.16 L3460.39 1289.76 L3479.63 1308.32 L3498.86 1246.56 L3517.93 1357.43 L3537.17 1301.91 L3556.41 1332.62 L3575.64 1321.31 L3594.71 1296.68 L3613.95 1317.94 L3633.19 1270.86 L3652.43 1318.44 L3671.49 1337.85 L3690.73 1313.21 L3709.97 1241.16 L3729.04 1326.38 L3748.28 1308.66 L3767.51 1353.88 L3786.75 1248.92 L3805.82 1315.91 L3825.06 1299.71 L3844.29 1345.95 L3863.36 1291.44 L3882.60 1340.21 L3901.84 1309.84 L3921.08 1320.98 L3940.14 1314.06 L3959.38 1284.69 L3978.62 1368.73 L3997.69 1338.69 L4016.93 1227.49 L4036.16 1332.79 L4055.40 1337.01 L4074.47 1364.34 L4093.71 1294.14 L4112.94 1305.62 L4132.18 1262.76 L4151.25 1335.49 L4170.49 1335.15 L4189.73 1365.02 L4208.79 1328.40 L4228.03 1364.51 L4247.27 1314.39 L4266.51 1333.46 L4285.58 1274.74 L4304.81 1369.41 L4324.05 1294.31 L4343.12 1274.06 L4362.36 1305.62 L4381.59 1293.64 L4400.83 1316.25 L4419.90 1207.41 L4439.14 1342.41 L4458.38 1341.73 L4477.44 1224.96 L4496.68 1180.74 L4515.92 1252.46 L4535.16 1400.46 L4554.23 1300.05 L4573.46 1292.29 L4592.70 1315.24 L4611.94 1394.55 L4631.01 1195.26 L4650.24 1214.83 L4669.48 1162.86 L4688.55 1294.99 L4707.79 1297.35 L4727.02 1291.11 L4746.26 1319.63 L4765.33 1240.65 L4784.57 1339.20 L4803.81 1276.76 L4822.88 1262.08 L4842.11 1261.58 L4861.35 1340.89 L4880.59 1361.64 L4899.66 1182.94 L4918.89 1206.56 L4938.13 1363.33 L4957.37 1217.36 L4976.44 1341.90 L4995.68 1352.19 L5014.91 1302.92 L5033.98 1309.16" stroke-linejoin="round" style="fill:none;stroke:#D41159;stroke-width:9.72"/>
	<line x1="376.31" y1="2321.66" x2="376.31" y2="113.40" style="stroke:#000000;stroke-width:6.48"/>
	<line x1="376.31" y1="2250.45" x2="331.43" y2="2250.45" style="stroke:#000000;stroke-width:6.48"/>
	<text x="308.81" y="2289.89" style="font-family:'Helvetica';font-size:112.56px;fill:#000000" text-anchor="end">-4</text>
	<line x1="376.31" y1="1775.76" x2="331.43" y2="1775.76" style="stroke:#000000;stroke-width:6.48"/>
	<text x="308.81" y="1815.19" style="font-family:'Helvetica';font-size:112.56px;fill:#000000" text-anchor="end">-2</text>
	<line x1="376.31" y1="1301.06" x2="331.43" y2="1301.06" style="stroke:#000000;stroke-width:6.48"/>
	<text x="308.81" y="1340.50" style="font-family:'Helvetica';font-size:112.56px;fill:#000000" text-anchor="end">0</text>
	<line x1="376.31" y1="826.37" x2="331.43" y2="826.37" style="stroke:#000000;stroke-width:6.48"/>
	<text x="308.81" y="865.81" style="font-family:'Helvetica';font-size:112.56px;fill:#000000" text-anchor="end">2</text>
	<line x1="376.31" y1="351.68" x2="331.43" y2="351.68" style="stroke:#000000;stroke-width:6.48"/>
	<text x="308.81" y="391.11" style="font-family:'Helvetica';font-size:112.56px;fill:#000000" text-anchor="end">4</text>
	<line x1="376.31" y1="2321.66" x2="5124.60" y2="2321.66" style="stroke:#000000;stroke-width:6.48"/>
	<line x1="447.69" y1="2321.66" x2="447.69" y2="2366.72" style="stroke:#000000;stroke-width:6.48"/>
	<text x="447.69" y="2467.87" style="font-family:'Helvetica';font-size:112.56px;fill:#000000" text-anchor="middle">2000m1</text>
	<line x1="1599.08" y1="2321.66" x2="1599.08" y2="2366.72" style="stroke:#000000;stroke-width:6.48"/>
	<text x="1599.08" y="2467.87" style="font-family:'Helvetica';font-size:112.56px;fill:#000000" text-anchor="middle">2005m1</text>
	<line x1="2750.46" y1="2321.66" x2="2750.46" y2="2366.72" style="stroke:#000000;stroke-width:6.48"/>
	<text x="2750.46" y="2467.87" style="font-family:'Helvetica';font-size:112.56px;fill:#000000" text-anchor="middle">2010m1</text>
	<line x1="3901.84" y1="2321.66" x2="3901.84" y2="2366.72" style="stroke:#000000;stroke-width:6.48"/>
	<text x="3901.84" y="2467.87" style="font-family:'Helvetica';font-size:112.56px;fill:#000000" text-anchor="middle">2015m1</text>
	<line x1="5053.39" y1="2321.66" x2="5053.39" y2="2366.72" style="stroke:#000000;stroke-width:6.48"/>
	<text x="5053.39" y="2467.87" style="font-family:'Helvetica';font-size:112.56px;fill:#000000" text-anchor="middle">2020m1</text>
	<text x="2750.46" y="2625.31" style="font-family:'Helvetica';font-size:112.56px;fill:#000000" text-anchor="middle">Period</text>
	<rect x="1455.81" y="2720.59" width="2589.47" height="367.20" style="fill:#FFFFFF"/>
	<rect x="1459.05" y="2723.83" width="2582.99" height="360.72" style="fill:none;stroke:#FFFFFF;stroke-width:6.48"/>
	<line x1="1504.41" y1="2825.38" x2="1763.61" y2="2825.38" style="stroke:#1A85FF;stroke-width:9.72"/>
	<line x1="1504.41" y1="2982.83" x2="1763.61" y2="2982.83" style="stroke:#D41159;stroke-width:9.72"/>
	<text x="1831.11" y="2864.82" style="font-family:'Helvetica';font-size:112.56px;fill:#000000">Structural shocks - GPR (Robustness)</text>
	<text x="1831.11" y="3022.26" style="font-family:'Helvetica';font-size:112.56px;fill:#000000">Reduced-form shocks - GPR (Robustness)</text>
</svg>
