<?xml version="1.0" encoding="UTF-8" standalone="no"?>
<!-- This is a Stata 19.5 generated SVG file (http://www.stata.com) -->

<svg version="1.1" width="7.500in" height="4.500in" viewBox="0 0 5400 3240" xmlns="http://www.w3.org/2000/svg" xmlns:xlink="http://www.w3.org/1999/xlink">
	<desc>Stata Graph - G5</desc>
	<rect x="0" y="0" width="5400" height="3240" style="fill:#FFFFFF;stroke:none"/>
	<rect x="0.00" y="0.00" width="5400.00" height="3240.00" style="fill:#FFFFFF"/>
	<rect x="3.24" y="3.24" width="5393.52" height="3233.52" style="fill:none;stroke:#FFFFFF;stroke-width:6.48"/>
	<rect x="376.31" y="113.40" width="4748.29" height="2208.26" style="fill:#FFFFFF"/>
	<rect x="379.55" y="116.64" width="4741.81" height="2201.78" style="fill:none;stroke:#FFFFFF;stroke-width:6.48"/>
	<line x1="376.31" y1="2194.76" x2="441.11" y2="2194.76" style="stroke:#F0F0F0;stroke-width:9.72"/>
	<line x1="473.51" y1="2194.76" x2="538.31" y2="2194.76" style="stroke:#F0F0F0;stroke-width:9.72"/>
	<line x1="570.71" y1="2194.76" x2="635.51" y2="2194.76" style="stroke:#F0F0F0;stroke-width:9.72"/>
	<line x1="667.91" y1="2194.76" x2="732.71" y2="2194.76" style="stroke:#F0F0F0;stroke-width:9.72"/>
	<line x1="765.11" y1="2194.76" x2="829.91" y2="2194.76" style="stroke:#F0F0F0;stroke-width:9.72"/>
	<line x1="862.31" y1="2194.76" x2="927.11" y2="2194.76" style="stroke:#F0F0F0;stroke-width:9.72"/>
	<line x1="959.51" y1="2194.76" x2="1024.31" y2="2194.76" style="stroke:#F0F0F0;stroke-width:9.72"/>
	<line x1="1056.71" y1="2194.76" x2="1121.51" y2="2194.76" style="stroke:#F0F0F0;stroke-width:9.72"/>
	<line x1="1153.91" y1="2194.76" x2="1218.71" y2="2194.76" style="stroke:#F0F0F0;stroke-width:9.72"/>
	<line x1="1251.11" y1="2194.76" x2="1315.91" y2="2194.76" style="stroke:#F0F0F0;stroke-width:9.72"/>
	<line x1="1348.31" y1="2194.76" x2="1413.11" y2="2194.76" style="stroke:#F0F0F0;stroke-width:9.72"/>
	<line x1="1445.51" y1="2194.76" x2="1510.31" y2="2194.76" style="stroke:#F0F0F0;stroke-width:9.72"/>
	<line x1="1542.71" y1="2194.76" x2="1607.51" y2="2194.76" style="stroke:#F0F0F0;stroke-width:9.72"/>
	<line x1="1639.91" y1="2194.76" x2="1704.71" y2="2194.76" style="stroke:#F0F0F0;stroke-width:9.72"/>
	<line x1="1737.11" y1="2194.76" x2="1801.91" y2="2194.76" style="stroke:#F0F0F0;stroke-width:9.72"/>
	<line x1="1834.31" y1="2194.76" x2="1899.11" y2="2194.76" style="stroke:#F0F0F0;stroke-width:9.72"/>
	<line x1="1931.51" y1="2194.76" x2="1996.31" y2="2194.76" style="stroke:#F0F0F0;stroke-width:9.72"/>
	<line x1="2028.71" y1="2194.76" x2="2093.51" y2="2194.76" style="stroke:#F0F0F0;stroke-width:9.72"/>
	<line x1="2125.91" y1="2194.76" x2="2190.71" y2="2194.76" style="stroke:#F0F0F0;stroke-width:9.72"/>
	<line x1="2223.11" y1="2194.76" x2="2287.91" y2="2194.76" style="stroke:#F0F0F0;stroke-width:9.72"/>
	<line x1="2320.31" y1="2194.76" x2="2385.11" y2="2194.76" style="stroke:#F0F0F0;stroke-width:9.72"/>
	<line x1="2417.51" y1="2194.76" x2="2482.31" y2="2194.76" style="stroke:#F0F0F0;stroke-width:9.72"/>
	<line x1="2514.71" y1="2194.76" x2="2579.51" y2="2194.76" style="stroke:#F0F0F0;stroke-width:9.72"/>
	<line x1="2611.91" y1="2194.76" x2="2676.71" y2="2194.76" style="stroke:#F0F0F0;stroke-width:9.72"/>
	<line x1="2709.11" y1="2194.76" x2="2773.91" y2="2194.76" style="stroke:#F0F0F0;stroke-width:9.72"/>
	<line x1="2806.31" y1="2194.76" x2="2871.11" y2="2194.76" style="stroke:#F0F0F0;stroke-width:9.72"/>
	<line x1="2903.51" y1="2194.76" x2="2968.31" y2="2194.76" style="stroke:#F0F0F0;stroke-width:9.72"/>
	<line x1="3000.71" y1="2194.76" x2="3065.51" y2="2194.76" style="stroke:#F0F0F0;stroke-width:9.72"/>
	<line x1="3097.91" y1="2194.76" x2="3162.71" y2="2194.76" style="stroke:#F0F0F0;stroke-width:9.72"/>
	<line x1="3195.11" y1="2194.76" x2="3259.91" y2="2194.76" style="stroke:#F0F0F0;stroke-width:9.72"/>
	<line x1="3292.31" y1="2194.76" x2="3357.11" y2="2194.76" style="stroke:#F0F0F0;stroke-width:9.72"/>
	<line x1="3389.51" y1="2194.76" x2="3454.31" y2="2194.76" style="stroke:#F0F0F0;stroke-width:9.72"/>
	<line x1="3486.71" y1="2194.76" x2="3551.51" y2="2194.76" style="stroke:#F0F0F0;stroke-width:9.72"/>
	<line x1="3583.91" y1="2194.76" x2="3648.71" y2="2194.76" style="stroke:#F0F0F0;stroke-width:9.72"/>
	<line x1="3681.11" y1="2194.76" x2="3745.91" y2="2194.76" style="stroke:#F0F0F0;stroke-width:9.72"/>
	<line x1="3778.31" y1="2194.76" x2="3843.11" y2="2194.76" style="stroke:#F0F0F0;stroke-width:9.72"/>
	<line x1="3875.51" y1="2194.76" x2="3940.31" y2="2194.76" style="stroke:#F0F0F0;stroke-width:9.72"/>
	<line x1="3972.71" y1="2194.76" x2="4037.51" y2="2194.76" style="stroke:#F0F0F0;stroke-width:9.72"/>
	<line x1="4069.91" y1="2194.76" x2="4134.71" y2="2194.76" style="stroke:#F0F0F0;stroke-width:9.72"/>
	<line x1="4167.11" y1="2194.76" x2="4231.91" y2="2194.76" style="stroke:#F0F0F0;stroke-width:9.72"/>
	<line x1="4264.31" y1="2194.76" x2="4329.11" y2="2194.76" style="stroke:#F0F0F0;stroke-width:9.72"/>
	<line x1="4361.51" y1="2194.76" x2="4426.31" y2="2194.76" style="stroke:#F0F0F0;stroke-width:9.72"/>
	<line x1="4458.71" y1="2194.76" x2="4523.51" y2="2194.76" style="stroke:#F0F0F0;stroke-width:9.72"/>
	<line x1="4555.91" y1="2194.76" x2="4620.71" y2="2194.76" style="stroke:#F0F0F0;stroke-width:9.72"/>
	<line x1="4653.11" y1="2194.76" x2="4717.91" y2="2194.76" style="stroke:#F0F0F0;stroke-width:9.72"/>
	<line x1="4750.31" y1="2194.76" x2="4815.11" y2="2194.76" style="stroke:#F0F0F0;stroke-width:9.72"/>
	<line x1="4847.51" y1="2194.76" x2="4912.31" y2="2194.76" style="stroke:#F0F0F0;stroke-width:9.72"/>
	<line x1="4944.71" y1="2194.76" x2="5009.51" y2="2194.76" style="stroke:#F0F0F0;stroke-width:9.72"/>
	<line x1="5041.91" y1="2194.76" x2="5106.71" y2="2194.76" style="stroke:#F0F0F0;stroke-width:9.72"/>
	<line x1="376.31" y1="1189.69" x2="441.11" y2="1189.69" style="stroke:#F0F0F0;stroke-width:9.72"/>
	<line x1="473.51" y1="1189.69" x2="538.31" y2="1189.69" style="stroke:#F0F0F0;stroke-width:9.72"/>
	<line x1="570.71" y1="1189.69" x2="635.51" y2="1189.69" style="stroke:#F0F0F0;stroke-width:9.72"/>
	<line x1="667.91" y1="1189.69" x2="732.71" y2="1189.69" style="stroke:#F0F0F0;stroke-width:9.72"/>
	<line x1="765.11" y1="1189.69" x2="829.91" y2="1189.69" style="stroke:#F0F0F0;stroke-width:9.72"/>
	<line x1="862.31" y1="1189.69" x2="927.11" y2="1189.69" style="stroke:#F0F0F0;stroke-width:9.72"/>
	<line x1="959.51" y1="1189.69" x2="1024.31" y2="1189.69" style="stroke:#F0F0F0;stroke-width:9.72"/>
	<line x1="1056.71" y1="1189.69" x2="1121.51" y2="1189.69" style="stroke:#F0F0F0;stroke-width:9.72"/>
	<line x1="1153.91" y1="1189.69" x2="1218.71" y2="1189.69" style="stroke:#F0F0F0;stroke-width:9.72"/>
	<line x1="1251.11" y1="1189.69" x2="1315.91" y2="1189.69" style="stroke:#F0F0F0;stroke-width:9.72"/>
	<line x1="1348.31" y1="1189.69" x2="1413.11" y2="1189.69" style="stroke:#F0F0F0;stroke-width:9.72"/>
	<line x1="1445.51" y1="1189.69" x2="1510.31" y2="1189.69" style="stroke:#F0F0F0;stroke-width:9.72"/>
	<line x1="1542.71" y1="1189.69" x2="1607.51" y2="1189.69" style="stroke:#F0F0F0;stroke-width:9.72"/>
	<line x1="1639.91" y1="1189.69" x2="1704.71" y2="1189.69" style="stroke:#F0F0F0;stroke-width:9.72"/>
	<line x1="1737.11" y1="1189.69" x2="1801.91" y2="1189.69" style="stroke:#F0F0F0;stroke-width:9.72"/>
	<line x1="1834.31" y1="1189.69" x2="1899.11" y2="1189.69" style="stroke:#F0F0F0;stroke-width:9.72"/>
	<line x1="1931.51" y1="1189.69" x2="1996.31" y2="1189.69" style="stroke:#F0F0F0;stroke-width:9.72"/>
	<line x1="2028.71" y1="1189.69" x2="2093.51" y2="1189.69" style="stroke:#F0F0F0;stroke-width:9.72"/>
	<line x1="2125.91" y1="1189.69" x2="2190.71" y2="1189.69" style="stroke:#F0F0F0;stroke-width:9.72"/>
	<line x1="2223.11" y1="1189.69" x2="2287.91" y2="1189.69" style="stroke:#F0F0F0;stroke-width:9.72"/>
	<line x1="2320.31" y1="1189.69" x2="2385.11" y2="1189.69" style="stroke:#F0F0F0;stroke-width:9.72"/>
	<line x1="2417.51" y1="1189.69" x2="2482.31" y2="1189.69" style="stroke:#F0F0F0;stroke-width:9.72"/>
	<line x1="2514.71" y1="1189.69" x2="2579.51" y2="1189.69" style="stroke:#F0F0F0;stroke-width:9.72"/>
	<line x1="2611.91" y1="1189.69" x2="2676.71" y2="1189.69" style="stroke:#F0F0F0;stroke-width:9.72"/>
	<line x1="2709.11" y1="1189.69" x2="2773.91" y2="1189.69" style="stroke:#F0F0F0;stroke-width:9.72"/>
	<line x1="2806.31" y1="1189.69" x2="2871.11" y2="1189.69" style="stroke:#F0F0F0;stroke-width:9.72"/>
	<line x1="2903.51" y1="1189.69" x2="2968.31" y2="1189.69" style="stroke:#F0F0F0;stroke-width:9.72"/>
	<line x1="3000.71" y1="1189.69" x2="3065.51" y2="1189.69" style="stroke:#F0F0F0;stroke-width:9.72"/>
	<line x1="3097.91" y1="1189.69" x2="3162.71" y2="1189.69" style="stroke:#F0F0F0;stroke-width:9.72"/>
	<line x1="3195.11" y1="1189.69" x2="3259.91" y2="1189.69" style="stroke:#F0F0F0;stroke-width:9.72"/>
	<line x1="3292.31" y1="1189.69" x2="3357.11" y2="1189.69" style="stroke:#F0F0F0;stroke-width:9.72"/>
	<line x1="3389.51" y1="1189.69" x2="3454.31" y2="1189.69" style="stroke:#F0F0F0;stroke-width:9.72"/>
	<line x1="3486.71" y1="1189.69" x2="3551.51" y2="1189.69" style="stroke:#F0F0F0;stroke-width:9.72"/>
	<line x1="3583.91" y1="1189.69" x2="3648.71" y2="1189.69" style="stroke:#F0F0F0;stroke-width:9.72"/>
	<line x1="3681.11" y1="1189.69" x2="3745.91" y2="1189.69" style="stroke:#F0F0F0;stroke-width:9.72"/>
	<line x1="3778.31" y1="1189.69" x2="3843.11" y2="1189.69" style="stroke:#F0F0F0;stroke-width:9.72"/>
	<line x1="3875.51" y1="1189.69" x2="3940.31" y2="1189.69" style="stroke:#F0F0F0;stroke-width:9.72"/>
	<line x1="3972.71" y1="1189.69" x2="4037.51" y2="1189.69" style="stroke:#F0F0F0;stroke-width:9.72"/>
	<line x1="4069.91" y1="1189.69" x2="4134.71" y2="1189.69" style="stroke:#F0F0F0;stroke-width:9.72"/>
	<line x1="4167.11" y1="1189.69" x2="4231.91" y2="1189.69" style="stroke:#F0F0F0;stroke-width:9.72"/>
	<line x1="4264.31" y1="1189.69" x2="4329.11" y2="1189.69" style="stroke:#F0F0F0;stroke-width:9.72"/>
	<line x1="4361.51" y1="1189.69" x2="4426.31" y2="1189.69" style="stroke:#F0F0F0;stroke-width:9.72"/>
	<line x1="4458.71" y1="1189.69" x2="4523.51" y2="1189.69" style="stroke:#F0F0F0;stroke-width:9.72"/>
	<line x1="4555.91" y1="1189.69" x2="4620.71" y2="1189.69" style="stroke:#F0F0F0;stroke-width:9.72"/>
	<line x1="4653.11" y1="1189.69" x2="4717.91" y2="1189.69" style="stroke:#F0F0F0;stroke-width:9.72"/>
	<line x1="4750.31" y1="1189.69" x2="4815.11" y2="1189.69" style="stroke:#F0F0F0;stroke-width:9.72"/>
	<line x1="4847.51" y1="1189.69" x2="4912.31" y2="1189.69" style="stroke:#F0F0F0;stroke-width:9.72"/>
	<line x1="4944.71" y1="1189.69" x2="5009.51" y2="1189.69" style="stroke:#F0F0F0;stroke-width:9.72"/>
	<line x1="5041.91" y1="1189.69" x2="5106.71" y2="1189.69" style="stroke:#F0F0F0;stroke-width:9.72"/>
	<line x1="376.31" y1="184.61" x2="441.11" y2="184.61" style="stroke:#F0F0F0;stroke-width:9.72"/>
	<line x1="473.51" y1="184.61" x2="538.31" y2="184.61" style="stroke:#F0F0F0;stroke-width:9.72"/>
	<line x1="570.71" y1="184.61" x2="635.51" y2="184.61" style="stroke:#F0F0F0;stroke-width:9.72"/>
	<line x1="667.91" y1="184.61" x2="732.71" y2="184.61" style="stroke:#F0F0F0;stroke-width:9.72"/>
	<line x1="765.11" y1="184.61" x2="829.91" y2="184.61" style="stroke:#F0F0F0;stroke-width:9.72"/>
	<line x1="862.31" y1="184.61" x2="927.11" y2="184.61" style="stroke:#F0F0F0;stroke-width:9.72"/>
	<line x1="959.51" y1="184.61" x2="1024.31" y2="184.61" style="stroke:#F0F0F0;stroke-width:9.72"/>
	<line x1="1056.71" y1="184.61" x2="1121.51" y2="184.61" style="stroke:#F0F0F0;stroke-width:9.72"/>
	<line x1="1153.91" y1="184.61" x2="1218.71" y2="184.61" style="stroke:#F0F0F0;stroke-width:9.72"/>
	<line x1="1251.11" y1="184.61" x2="1315.91" y2="184.61" style="stroke:#F0F0F0;stroke-width:9.72"/>
	<line x1="1348.31" y1="184.61" x2="1413.11" y2="184.61" style="stroke:#F0F0F0;stroke-width:9.72"/>
	<line x1="1445.51" y1="184.61" x2="1510.31" y2="184.61" style="stroke:#F0F0F0;stroke-width:9.72"/>
	<line x1="1542.71" y1="184.61" x2="1607.51" y2="184.61" style="stroke:#F0F0F0;stroke-width:9.72"/>
	<line x1="1639.91" y1="184.61" x2="1704.71" y2="184.61" style="stroke:#F0F0F0;stroke-width:9.72"/>
	<line x1="1737.11" y1="184.61" x2="1801.91" y2="184.61" style="stroke:#F0F0F0;stroke-width:9.72"/>
	<line x1="1834.31" y1="184.61" x2="1899.11" y2="184.61" style="stroke:#F0F0F0;stroke-width:9.72"/>
	<line x1="1931.51" y1="184.61" x2="1996.31" y2="184.61" style="stroke:#F0F0F0;stroke-width:9.72"/>
	<line x1="2028.71" y1="184.61" x2="2093.51" y2="184.61" style="stroke:#F0F0F0;stroke-width:9.72"/>
	<line x1="2125.91" y1="184.61" x2="2190.71" y2="184.61" style="stroke:#F0F0F0;stroke-width:9.72"/>
	<line x1="2223.11" y1="184.61" x2="2287.91" y2="184.61" style="stroke:#F0F0F0;stroke-width:9.72"/>
	<line x1="2320.31" y1="184.61" x2="2385.11" y2="184.61" style="stroke:#F0F0F0;stroke-width:9.72"/>
	<line x1="2417.51" y1="184.61" x2="2482.31" y2="184.61" style="stroke:#F0F0F0;stroke-width:9.72"/>
	<line x1="2514.71" y1="184.61" x2="2579.51" y2="184.61" style="stroke:#F0F0F0;stroke-width:9.72"/>
	<line x1="2611.91" y1="184.61" x2="2676.71" y2="184.61" style="stroke:#F0F0F0;stroke-width:9.72"/>
	<line x1="2709.11" y1="184.61" x2="2773.91" y2="184.61" style="stroke:#F0F0F0;stroke-width:9.72"/>
	<line x1="2806.31" y1="184.61" x2="2871.11" y2="184.61" style="stroke:#F0F0F0;stroke-width:9.72"/>
	<line x1="2903.51" y1="184.61" x2="2968.31" y2="184.61" style="stroke:#F0F0F0;stroke-width:9.72"/>
	<line x1="3000.71" y1="184.61" x2="3065.51" y2="184.61" style="stroke:#F0F0F0;stroke-width:9.72"/>
	<line x1="3097.91" y1="184.61" x2="3162.71" y2="184.61" style="stroke:#F0F0F0;stroke-width:9.72"/>
	<line x1="3195.11" y1="184.61" x2="3259.91" y2="184.61" style="stroke:#F0F0F0;stroke-width:9.72"/>
	<line x1="3292.31" y1="184.61" x2="3357.11" y2="184.61" style="stroke:#F0F0F0;stroke-width:9.72"/>
	<line x1="3389.51" y1="184.61" x2="3454.31" y2="184.61" style="stroke:#F0F0F0;stroke-width:9.72"/>
	<line x1="3486.71" y1="184.61" x2="3551.51" y2="184.61" style="stroke:#F0F0F0;stroke-width:9.72"/>
	<line x1="3583.91" y1="184.61" x2="3648.71" y2="184.61" style="stroke:#F0F0F0;stroke-width:9.72"/>
	<line x1="3681.11" y1="184.61" x2="3745.91" y2="184.61" style="stroke:#F0F0F0;stroke-width:9.72"/>
	<line x1="3778.31" y1="184.61" x2="3843.11" y2="184.61" style="stroke:#F0F0F0;stroke-width:9.72"/>
	<line x1="3875.51" y1="184.61" x2="3940.31" y2="184.61" style="stroke:#F0F0F0;stroke-width:9.72"/>
	<line x1="3972.71" y1="184.61" x2="4037.51" y2="184.61" style="stroke:#F0F0F0;stroke-width:9.72"/>
	<line x1="4069.91" y1="184.61" x2="4134.71" y2="184.61" style="stroke:#F0F0F0;stroke-width:9.72"/>
	<line x1="4167.11" y1="184.61" x2="4231.91" y2="184.61" style="stroke:#F0F0F0;stroke-width:9.72"/>
	<line x1="4264.31" y1="184.61" x2="4329.11" y2="184.61" style="stroke:#F0F0F0;stroke-width:9.72"/>
	<line x1="4361.51" y1="184.61" x2="4426.31" y2="184.61" style="stroke:#F0F0F0;stroke-width:9.72"/>
	<line x1="4458.71" y1="184.61" x2="4523.51" y2="184.61" style="stroke:#F0F0F0;stroke-width:9.72"/>
	<line x1="4555.91" y1="184.61" x2="4620.71" y2="184.61" style="stroke:#F0F0F0;stroke-width:9.72"/>
	<line x1="4653.11" y1="184.61" x2="4717.91" y2="184.61" style="stroke:#F0F0F0;stroke-width:9.72"/>
	<line x1="4750.31" y1="184.61" x2="4815.11" y2="184.61" style="stroke:#F0F0F0;stroke-width:9.72"/>
	<line x1="4847.51" y1="184.61" x2="4912.31" y2="184.61" style="stroke:#F0F0F0;stroke-width:9.72"/>
	<line x1="4944.71" y1="184.61" x2="5009.51" y2="184.61" style="stroke:#F0F0F0;stroke-width:9.72"/>
	<line x1="5041.91" y1="184.61" x2="5106.71" y2="184.61" style="stroke:#F0F0F0;stroke-width:9.72"/>
	<line x1="447.69" y1="2321.66" x2="447.69" y2="2256.86" style="stroke:#F0F0F0;stroke-width:9.72"/>
	<line x1="447.69" y1="2224.46" x2="447.69" y2="2159.66" style="stroke:#F0F0F0;stroke-width:9.72"/>
	<line x1="447.69" y1="2127.26" x2="447.69" y2="2062.46" style="stroke:#F0F0F0;stroke-width:9.72"/>
	<line x1="447.69" y1="2030.06" x2="447.69" y2="1965.26" style="stroke:#F0F0F0;stroke-width:9.72"/>
	<line x1="447.69" y1="1932.86" x2="447.69" y2="1868.06" style="stroke:#F0F0F0;stroke-width:9.72"/>
	<line x1="447.69" y1="1835.66" x2="447.69" y2="1770.86" style="stroke:#F0F0F0;stroke-width:9.72"/>
	<line x1="447.69" y1="1738.46" x2="447.69" y2="1673.66" style="stroke:#F0F0F0;stroke-width:9.72"/>
	<line x1="447.69" y1="1641.26" x2="447.69" y2="1576.46" style="stroke:#F0F0F0;stroke-width:9.72"/>
	<line x1="447.69" y1="1544.06" x2="447.69" y2="1479.26" style="stroke:#F0F0F0;stroke-width:9.72"/>
	<line x1="447.69" y1="1446.86" x2="447.69" y2="1382.06" style="stroke:#F0F0F0;stroke-width:9.72"/>
	<line x1="447.69" y1="1349.66" x2="447.69" y2="1284.86" style="stroke:#F0F0F0;stroke-width:9.72"/>
	<line x1="447.69" y1="1252.46" x2="447.69" y2="1187.66" style="stroke:#F0F0F0;stroke-width:9.72"/>
	<line x1="447.69" y1="1155.26" x2="447.69" y2="1090.46" style="stroke:#F0F0F0;stroke-width:9.72"/>
	<line x1="447.69" y1="1058.06" x2="447.69" y2="993.26" style="stroke:#F0F0F0;stroke-width:9.72"/>
	<line x1="447.69" y1="960.86" x2="447.69" y2="896.06" style="stroke:#F0F0F0;stroke-width:9.72"/>
	<line x1="447.69" y1="863.66" x2="447.69" y2="798.86" style="stroke:#F0F0F0;stroke-width:9.72"/>
	<line x1="447.69" y1="766.46" x2="447.69" y2="701.66" style="stroke:#F0F0F0;stroke-width:9.72"/>
	<line x1="447.69" y1="669.26" x2="447.69" y2="604.46" style="stroke:#F0F0F0;stroke-width:9.72"/>
	<line x1="447.69" y1="572.06" x2="447.69" y2="507.26" style="stroke:#F0F0F0;stroke-width:9.72"/>
	<line x1="447.69" y1="474.86" x2="447.69" y2="410.06" style="stroke:#F0F0F0;stroke-width:9.72"/>
	<line x1="447.69" y1="377.66" x2="447.69" y2="312.86" style="stroke:#F0F0F0;stroke-width:9.72"/>
	<line x1="447.69" y1="280.46" x2="447.69" y2="215.66" style="stroke:#F0F0F0;stroke-width:9.72"/>
	<line x1="447.69" y1="183.26" x2="447.69" y2="118.46" style="stroke:#F0F0F0;stroke-width:9.72"/>
	<line x1="1599.08" y1="2321.66" x2="1599.08" y2="2256.86" style="stroke:#F0F0F0;stroke-width:9.72"/>
	<line x1="1599.08" y1="2224.46" x2="1599.08" y2="2159.66" style="stroke:#F0F0F0;stroke-width:9.72"/>
	<line x1="1599.08" y1="2127.26" x2="1599.08" y2="2062.46" style="stroke:#F0F0F0;stroke-width:9.72"/>
	<line x1="1599.08" y1="2030.06" x2="1599.08" y2="1965.26" style="stroke:#F0F0F0;stroke-width:9.72"/>
	<line x1="1599.08" y1="1932.86" x2="1599.08" y2="1868.06" style="stroke:#F0F0F0;stroke-width:9.72"/>
	<line x1="1599.08" y1="1835.66" x2="1599.08" y2="1770.86" style="stroke:#F0F0F0;stroke-width:9.72"/>
	<line x1="1599.08" y1="1738.46" x2="1599.08" y2="1673.66" style="stroke:#F0F0F0;stroke-width:9.72"/>
	<line x1="1599.08" y1="1641.26" x2="1599.08" y2="1576.46" style="stroke:#F0F0F0;stroke-width:9.72"/>
	<line x1="1599.08" y1="1544.06" x2="1599.08" y2="1479.26" style="stroke:#F0F0F0;stroke-width:9.72"/>
	<line x1="1599.08" y1="1446.86" x2="1599.08" y2="1382.06" style="stroke:#F0F0F0;stroke-width:9.72"/>
	<line x1="1599.08" y1="1349.66" x2="1599.08" y2="1284.86" style="stroke:#F0F0F0;stroke-width:9.72"/>
	<line x1="1599.08" y1="1252.46" x2="1599.08" y2="1187.66" style="stroke:#F0F0F0;stroke-width:9.72"/>
	<line x1="1599.08" y1="1155.26" x2="1599.08" y2="1090.46" style="stroke:#F0F0F0;stroke-width:9.72"/>
	<line x1="1599.08" y1="1058.06" x2="1599.08" y2="993.26" style="stroke:#F0F0F0;stroke-width:9.72"/>
	<line x1="1599.08" y1="960.86" x2="1599.08" y2="896.06" style="stroke:#F0F0F0;stroke-width:9.72"/>
	<line x1="1599.08" y1="863.66" x2="1599.08" y2="798.86" style="stroke:#F0F0F0;stroke-width:9.72"/>
	<line x1="1599.08" y1="766.46" x2="1599.08" y2="701.66" style="stroke:#F0F0F0;stroke-width:9.72"/>
	<line x1="1599.08" y1="669.26" x2="1599.08" y2="604.46" style="stroke:#F0F0F0;stroke-width:9.72"/>
	<line x1="1599.08" y1="572.06" x2="1599.08" y2="507.26" style="stroke:#F0F0F0;stroke-width:9.72"/>
	<line x1="1599.08" y1="474.86" x2="1599.08" y2="410.06" style="stroke:#F0F0F0;stroke-width:9.72"/>
	<line x1="1599.08" y1="377.66" x2="1599.08" y2="312.86" style="stroke:#F0F0F0;stroke-width:9.72"/>
	<line x1="1599.08" y1="280.46" x2="1599.08" y2="215.66" style="stroke:#F0F0F0;stroke-width:9.72"/>
	<line x1="1599.08" y1="183.26" x2="1599.08" y2="118.46" style="stroke:#F0F0F0;stroke-width:9.72"/>
	<line x1="2750.46" y1="2321.66" x2="2750.46" y2="2256.86" style="stroke:#F0F0F0;stroke-width:9.72"/>
	<line x1="2750.46" y1="2224.46" x2="2750.46" y2="2159.66" style="stroke:#F0F0F0;stroke-width:9.72"/>
	<line x1="2750.46" y1="2127.26" x2="2750.46" y2="2062.46" style="stroke:#F0F0F0;stroke-width:9.72"/>
	<line x1="2750.46" y1="2030.06" x2="2750.46" y2="1965.26" style="stroke:#F0F0F0;stroke-width:9.72"/>
	<line x1="2750.46" y1="1932.86" x2="2750.46" y2="1868.06" style="stroke:#F0F0F0;stroke-width:9.72"/>
	<line x1="2750.46" y1="1835.66" x2="2750.46" y2="1770.86" style="stroke:#F0F0F0;stroke-width:9.72"/>
	<line x1="2750.46" y1="1738.46" x2="2750.46" y2="1673.66" style="stroke:#F0F0F0;stroke-width:9.72"/>
	<line x1="2750.46" y1="1641.26" x2="2750.46" y2="1576.46" style="stroke:#F0F0F0;stroke-width:9.72"/>
	<line x1="2750.46" y1="1544.06" x2="2750.46" y2="1479.26" style="stroke:#F0F0F0;stroke-width:9.72"/>
	<line x1="2750.46" y1="1446.86" x2="2750.46" y2="1382.06" style="stroke:#F0F0F0;stroke-width:9.72"/>
	<line x1="2750.46" y1="1349.66" x2="2750.46" y2="1284.86" style="stroke:#F0F0F0;stroke-width:9.72"/>
	<line x1="2750.46" y1="1252.46" x2="2750.46" y2="1187.66" style="stroke:#F0F0F0;stroke-width:9.72"/>
	<line x1="2750.46" y1="1155.26" x2="2750.46" y2="1090.46" style="stroke:#F0F0F0;stroke-width:9.72"/>
	<line x1="2750.46" y1="1058.06" x2="2750.46" y2="993.26" style="stroke:#F0F0F0;stroke-width:9.72"/>
	<line x1="2750.46" y1="960.86" x2="2750.46" y2="896.06" style="stroke:#F0F0F0;stroke-width:9.72"/>
	<line x1="2750.46" y1="863.66" x2="2750.46" y2="798.86" style="stroke:#F0F0F0;stroke-width:9.72"/>
	<line x1="2750.46" y1="766.46" x2="2750.46" y2="701.66" style="stroke:#F0F0F0;stroke-width:9.72"/>
	<line x1="2750.46" y1="669.26" x2="2750.46" y2="604.46" style="stroke:#F0F0F0;stroke-width:9.72"/>
	<line x1="2750.46" y1="572.06" x2="2750.46" y2="507.26" style="stroke:#F0F0F0;stroke-width:9.72"/>
	<line x1="2750.46" y1="474.86" x2="2750.46" y2="410.06" style="stroke:#F0F0F0;stroke-width:9.72"/>
	<line x1="2750.46" y1="377.66" x2="2750.46" y2="312.86" style="stroke:#F0F0F0;stroke-width:9.72"/>
	<line x1="2750.46" y1="280.46" x2="2750.46" y2="215.66" style="stroke:#F0F0F0;stroke-width:9.72"/>
	<line x1="2750.46" y1="183.26" x2="2750.46" y2="118.46" style="stroke:#F0F0F0;stroke-width:9.72"/>
	<line x1="3901.84" y1="2321.66" x2="3901.84" y2="2256.86" style="stroke:#F0F0F0;stroke-width:9.72"/>
	<line x1="3901.84" y1="2224.46" x2="3901.84" y2="2159.66" style="stroke:#F0F0F0;stroke-width:9.72"/>
	<line x1="3901.84" y1="2127.26" x2="3901.84" y2="2062.46" style="stroke:#F0F0F0;stroke-width:9.72"/>
	<line x1="3901.84" y1="2030.06" x2="3901.84" y2="1965.26" style="stroke:#F0F0F0;stroke-width:9.72"/>
	<line x1="3901.84" y1="1932.86" x2="3901.84" y2="1868.06" style="stroke:#F0F0F0;stroke-width:9.72"/>
	<line x1="3901.84" y1="1835.66" x2="3901.84" y2="1770.86" style="stroke:#F0F0F0;stroke-width:9.72"/>
	<line x1="3901.84" y1="1738.46" x2="3901.84" y2="1673.66" style="stroke:#F0F0F0;stroke-width:9.72"/>
	<line x1="3901.84" y1="1641.26" x2="3901.84" y2="1576.46" style="stroke:#F0F0F0;stroke-width:9.72"/>
	<line x1="3901.84" y1="1544.06" x2="3901.84" y2="1479.26" style="stroke:#F0F0F0;stroke-width:9.72"/>
	<line x1="3901.84" y1="1446.86" x2="3901.84" y2="1382.06" style="stroke:#F0F0F0;stroke-width:9.72"/>
	<line x1="3901.84" y1="1349.66" x2="3901.84" y2="1284.86" style="stroke:#F0F0F0;stroke-width:9.72"/>
	<line x1="3901.84" y1="1252.46" x2="3901.84" y2="1187.66" style="stroke:#F0F0F0;stroke-width:9.72"/>
	<line x1="3901.84" y1="1155.26" x2="3901.84" y2="1090.46" style="stroke:#F0F0F0;stroke-width:9.72"/>
	<line x1="3901.84" y1="1058.06" x2="3901.84" y2="993.26" style="stroke:#F0F0F0;stroke-width:9.72"/>
	<line x1="3901.84" y1="960.86" x2="3901.84" y2="896.06" style="stroke:#F0F0F0;stroke-width:9.72"/>
	<line x1="3901.84" y1="863.66" x2="3901.84" y2="798.86" style="stroke:#F0F0F0;stroke-width:9.72"/>
	<line x1="3901.84" y1="766.46" x2="3901.84" y2="701.66" style="stroke:#F0F0F0;stroke-width:9.72"/>
	<line x1="3901.84" y1="669.26" x2="3901.84" y2="604.46" style="stroke:#F0F0F0;stroke-width:9.72"/>
	<line x1="3901.84" y1="572.06" x2="3901.84" y2="507.26" style="stroke:#F0F0F0;stroke-width:9.72"/>
	<line x1="3901.84" y1="474.86" x2="3901.84" y2="410.06" style="stroke:#F0F0F0;stroke-width:9.72"/>
	<line x1="3901.84" y1="377.66" x2="3901.84" y2="312.86" style="stroke:#F0F0F0;stroke-width:9.72"/>
	<line x1="3901.84" y1="280.46" x2="3901.84" y2="215.66" style="stroke:#F0F0F0;stroke-width:9.72"/>
	<line x1="3901.84" y1="183.26" x2="3901.84" y2="118.46" style="stroke:#F0F0F0;stroke-width:9.72"/>
	<line x1="5053.39" y1="2321.66" x2="5053.39" y2="2256.86" style="stroke:#F0F0F0;stroke-width:9.72"/>
	<line x1="5053.39" y1="2224.46" x2="5053.39" y2="2159.66" style="stroke:#F0F0F0;stroke-width:9.72"/>
	<line x1="5053.39" y1="2127.26" x2="5053.39" y2="2062.46" style="stroke:#F0F0F0;stroke-width:9.72"/>
	<line x1="5053.39" y1="2030.06" x2="5053.39" y2="1965.26" style="stroke:#F0F0F0;stroke-width:9.72"/>
	<line x1="5053.39" y1="1932.86" x2="5053.39" y2="1868.06" style="stroke:#F0F0F0;stroke-width:9.72"/>
	<line x1="5053.39" y1="1835.66" x2="5053.39" y2="1770.86" style="stroke:#F0F0F0;stroke-width:9.72"/>
	<line x1="5053.39" y1="1738.46" x2="5053.39" y2="1673.66" style="stroke:#F0F0F0;stroke-width:9.72"/>
	<line x1="5053.39" y1="1641.26" x2="5053.39" y2="1576.46" style="stroke:#F0F0F0;stroke-width:9.72"/>
	<line x1="5053.39" y1="1544.06" x2="5053.39" y2="1479.26" style="stroke:#F0F0F0;stroke-width:9.72"/>
	<line x1="5053.39" y1="1446.86" x2="5053.39" y2="1382.06" style="stroke:#F0F0F0;stroke-width:9.72"/>
	<line x1="5053.39" y1="1349.66" x2="5053.39" y2="1284.86" style="stroke:#F0F0F0;stroke-width:9.72"/>
	<line x1="5053.39" y1="1252.46" x2="5053.39" y2="1187.66" style="stroke:#F0F0F0;stroke-width:9.72"/>
	<line x1="5053.39" y1="1155.26" x2="5053.39" y2="1090.46" style="stroke:#F0F0F0;stroke-width:9.72"/>
	<line x1="5053.39" y1="1058.06" x2="5053.39" y2="993.26" style="stroke:#F0F0F0;stroke-width:9.72"/>
	<line x1="5053.39" y1="960.86" x2="5053.39" y2="896.06" style="stroke:#F0F0F0;stroke-width:9.72"/>
	<line x1="5053.39" y1="863.66" x2="5053.39" y2="798.86" style="stroke:#F0F0F0;stroke-width:9.72"/>
	<line x1="5053.39" y1="766.46" x2="5053.39" y2="701.66" style="stroke:#F0F0F0;stroke-width:9.72"/>
	<line x1="5053.39" y1="669.26" x2="5053.39" y2="604.46" style="stroke:#F0F0F0;stroke-width:9.72"/>
	<line x1="5053.39" y1="572.06" x2="5053.39" y2="507.26" style="stroke:#F0F0F0;stroke-width:9.72"/>
	<line x1="5053.39" y1="474.86" x2="5053.39" y2="410.06" style="stroke:#F0F0F0;stroke-width:9.72"/>
	<line x1="5053.39" y1="377.66" x2="5053.39" y2="312.86" style="stroke:#F0F0F0;stroke-width:9.72"/>
	<line x1="5053.39" y1="280.46" x2="5053.39" y2="215.66" style="stroke:#F0F0F0;stroke-width:9.72"/>
	<line x1="5053.39" y1="183.26" x2="5053.39" y2="118.46" style="stroke:#F0F0F0;stroke-width:9.72"/>
	<path d=" M466.76 1417.50 L486.00 1228.33 L505.07 1263.94 L524.31 1270.86 L543.54 1006.93 L562.78 1235.08 L581.85 1234.58 L601.09 1027.01 L620.33 1210.78 L639.39 1052.49 L658.63 1235.25 L677.87 1639.07 L697.11 2009.64 L716.18 1245.21 L735.41 2158.31 L754.65 1679.40 L773.72 1238.79 L792.96 771.86 L812.19 1181.25 L831.43 808.82 L850.50 1040.85 L869.74 1015.20 L888.98 513.17 L908.04 1189.69 L927.28 773.21 L946.52 2250.45 L965.76 998.16 L984.83 1458.51 L1004.06 799.71 L1023.30 1449.73 L1042.54 1204.88 L1061.61 1015.54 L1080.84 1224.96 L1100.08 1188.68 L1119.15 977.23 L1138.39 752.63 L1157.63 721.74 L1176.86 1191.21 L1195.93 1037.14 L1215.17 1525.16 L1234.41 1332.79 L1253.47 858.60 L1272.71 1228.84 L1291.95 1162.86 L1311.19 765.11 L1330.26 1199.47 L1349.49 556.20 L1368.73 1183.95 L1387.80 1029.88 L1407.04 1445.34 L1426.28 1142.94 L1445.51 1696.61 L1464.58 1318.61 L1483.82 1292.29 L1503.06 1197.62 L1522.29 1206.39 L1541.36 1373.29 L1560.60 764.61 L1579.84 1386.62 L1598.91 1217.03 L1618.14 2089.46 L1637.38 1170.45 L1656.62 1223.27 L1675.69 1264.78 L1694.93 1193.91 L1714.16 1063.13 L1733.23 888.97 L1752.47 1104.47 L1771.71 1259.72 L1790.94 1119.82 L1810.01 1429.31 L1829.25 1087.93 L1848.49 1219.72 L1867.56 1273.22 L1886.79 706.72 L1906.03 1251.11 L1925.27 1388.81 L1944.34 889.14 L1963.58 1021.61 L1982.81 1247.74 L2002.05 1038.66 L2021.12 1013.51 L2040.36 1158.47 L2059.59 1282.33 L2078.66 1190.87 L2097.90 1231.71 L2117.14 1183.95 L2136.38 1155.26 L2155.44 1404.17 L2174.68 1472.68 L2193.92 1074.94 L2212.99 1225.13 L2232.23 1392.86 L2251.46 1219.22 L2270.70 1025.32 L2289.77 1226.98 L2309.01 1397.76 L2328.24 1517.06 L2347.48 1591.65 L2366.55 992.25 L2385.79 1084.22 L2405.03 1295.49 L2424.09 1107.34 L2443.33 1365.69 L2462.57 1616.63 L2481.81 975.38 L2500.88 777.60 L2520.11 858.77 L2539.35 1092.82 L2558.42 1721.59 L2577.66 1250.10 L2596.89 1345.78 L2616.13 598.56 L2635.20 787.05 L2654.44 1264.28 L2673.68 1253.64 L2692.74 1263.26 L2711.98 805.28 L2731.22 1176.69 L2750.46 1864.86 L2769.53 1529.72 L2788.76 1311.53 L2808.00 1015.71 L2827.24 1003.72 L2846.31 1366.37 L2865.54 1279.13 L2884.78 1199.98 L2903.85 1083.54 L2923.09 1188.51 L2942.33 1090.13 L2961.56 1212.81 L2980.63 482.96 L2999.87 1271.36 L3019.11 1169.94 L3038.18 1176.69 L3057.41 1175.01 L3076.65 1191.71 L3095.89 1193.23 L3114.96 1188.51 L3134.19 1428.64 L3153.43 1154.76 L3172.50 1061.61 L3191.74 1125.90 L3210.98 1182.26 L3230.21 1217.19 L3249.28 1182.26 L3268.52 1238.96 L3287.76 1225.80 L3306.99 1134.68 L3326.06 1144.13 L3345.30 1333.63 L3364.54 1043.04 L3383.61 1163.36 L3402.84 1188.17 L3422.08 1138.39 L3441.32 1171.46 L3460.39 1191.04 L3479.63 1078.65 L3498.86 1008.11 L3517.93 1177.37 L3537.17 1077.47 L3556.41 1132.31 L3575.64 1107.34 L3594.71 1127.42 L3613.95 1198.63 L3633.19 1152.06 L3652.43 1176.19 L3671.49 1204.71 L3690.73 1348.82 L3709.97 1161.17 L3729.04 1704.04 L3748.28 1271.70 L3767.51 1252.63 L3786.75 1167.92 L3805.82 1176.19 L3825.06 1100.08 L3844.29 1086.92 L3863.36 684.11 L3882.60 1169.10 L3901.84 1075.11 L3921.08 983.47 L3940.14 989.38 L3959.38 1372.78 L3978.62 1450.91 L3997.69 774.22 L4016.93 1317.43 L4036.16 776.42 L4055.40 442.80 L4074.47 995.96 L4093.71 917.49 L4112.94 1222.26 L4132.18 937.57 L4151.25 1202.01 L4170.49 1621.01 L4189.73 1214.49 L4208.79 1504.24 L4228.03 995.46 L4247.27 1945.69 L4266.51 727.65 L4285.58 1514.19 L4304.81 1204.03 L4324.05 402.47 L4343.12 2053.35 L4362.36 1462.39 L4381.59 1112.40 L4400.83 1477.07 L4419.90 722.42 L4439.14 1703.87 L4458.38 1625.91 L4477.44 1203.69 L4496.68 1122.02 L4515.92 599.74 L4535.16 1188.68 L4554.23 670.28 L4573.46 1434.88 L4592.70 1357.26 L4611.94 1184.63 L4631.01 1836.68 L4650.24 1416.99 L4669.48 984.32 L4688.55 1191.54 L4707.79 1336.67 L4727.02 1342.07 L4746.26 1342.58 L4765.33 1255.50 L4784.57 1112.40 L4803.81 1116.96 L4822.88 1190.19 L4842.11 1104.64 L4861.35 1261.07 L4880.59 1182.94 L4899.66 1241.83 L4918.89 1224.11 L4938.13 1088.94 L4957.37 1241.66 L4976.44 1196.61 L4995.68 1147.33 L5014.91 1075.78 L5033.98 1163.36" stroke-linejoin="round" style="fill:none;stroke:#1A85FF;stroke-width:9.72"/>
	<path d=" M466.76 1242.84 L486.00 1133.49 L505.07 1307.64 L524.31 1065.66 L543.54 1141.59 L562.78 1224.28 L581.85 1362.49 L601.09 1149.53 L620.33 1372.95 L639.39 1323.34 L658.63 1275.75 L677.87 1243.52 L697.11 1126.91 L716.18 1349.83 L735.41 956.14 L754.65 1300.72 L773.72 1351.18 L792.96 1290.60 L812.19 1145.81 L831.43 473.01 L850.50 979.76 L869.74 1465.76 L888.98 1175.18 L908.04 1286.55 L927.28 1265.46 L946.52 1306.63 L965.76 1502.21 L984.83 1220.74 L1004.06 1229.18 L1023.30 1333.46 L1042.54 1149.02 L1061.61 868.56 L1080.84 863.83 L1100.08 1263.26 L1119.15 1057.56 L1138.39 728.66 L1157.63 658.80 L1176.86 916.31 L1195.93 804.77 L1215.17 1555.54 L1234.41 1269.84 L1253.47 1334.31 L1272.71 1130.96 L1291.95 1288.74 L1311.19 1137.38 L1330.26 1276.93 L1349.49 1011.49 L1368.73 1212.97 L1387.80 1253.31 L1407.04 1352.87 L1426.28 1100.93 L1445.51 1213.65 L1464.58 1210.44 L1483.82 1252.13 L1503.06 1375.14 L1522.29 1162.35 L1541.36 1260.39 L1560.60 1228.16 L1579.84 1159.48 L1598.91 1141.43 L1618.14 933.69 L1637.38 1173.66 L1656.62 1431.00 L1675.69 1201.84 L1694.93 1209.43 L1714.16 804.60 L1733.23 1454.46 L1752.47 1169.10 L1771.71 1525.84 L1790.94 1134.51 L1810.01 1413.79 L1829.25 746.21 L1848.49 1262.76 L1867.56 1130.29 L1886.79 1122.19 L1906.03 1102.11 L1925.27 1186.14 L1944.34 819.62 L1963.58 1299.38 L1982.81 1226.64 L2002.05 254.81 L2021.12 1618.65 L2040.36 1459.35 L2059.59 1314.90 L2078.66 1032.41 L2097.90 1249.93 L2117.14 1362.15 L2136.38 1274.57 L2155.44 1217.70 L2174.68 1242.00 L2193.92 1327.22 L2212.99 896.57 L2232.23 989.72 L2251.46 1242.34 L2270.70 1176.69 L2289.77 1287.39 L2309.01 1385.78 L2328.24 1169.61 L2347.48 1277.10 L2366.55 1167.24 L2385.79 1159.99 L2405.03 1090.63 L2424.09 1166.57 L2443.33 1218.04 L2462.57 1243.35 L2481.81 1108.86 L2500.88 1165.22 L2520.11 1238.79 L2539.35 1215.51 L2558.42 1325.87 L2577.66 856.07 L2596.89 1299.88 L2616.13 1321.31 L2635.20 1261.58 L2654.44 1160.32 L2673.68 942.64 L2692.74 1286.55 L2711.98 1315.41 L2731.22 1264.11 L2750.46 1246.05 L2769.53 1052.66 L2788.76 1255.67 L2808.00 1006.09 L2827.24 961.20 L2846.31 1446.36 L2865.54 1529.72 L2884.78 1197.45 L2903.85 1232.55 L2923.09 1310.01 L2942.33 740.81 L2961.56 1169.78 L2980.63 1327.73 L2999.87 1295.16 L3019.11 1094.68 L3038.18 1580.18 L3057.41 1429.31 L3076.65 1117.29 L3095.89 1240.31 L3114.96 1224.28 L3134.19 1228.16 L3153.43 1184.79 L3172.50 834.30 L3191.74 1052.16 L3210.98 1113.07 L3230.21 752.63 L3249.28 1206.22 L3268.52 890.83 L3287.76 1383.92 L3306.99 1315.24 L3326.06 1136.03 L3345.30 1460.87 L3364.54 1240.99 L3383.61 1285.88 L3402.84 1272.88 L3422.08 1245.04 L3441.32 1256.51 L3460.39 1137.04 L3479.63 1246.22 L3498.86 861.13 L3517.93 1567.52 L3537.17 1203.69 L3556.41 1385.44 L3575.64 1334.81 L3594.71 1182.26 L3613.95 1296.51 L3633.19 984.66 L3652.43 1320.13 L3671.49 1399.61 L3690.73 1297.69 L3709.97 827.89 L3729.04 1350.17 L3748.28 1257.19 L3767.51 1525.33 L3786.75 867.71 L3805.82 1298.53 L3825.06 1160.83 L3844.29 1506.09 L3863.36 1111.22 L3882.60 1462.56 L3901.84 1258.54 L3921.08 1341.06 L3940.14 1261.24 L3959.38 1084.22 L3978.62 1612.58 L3997.69 1416.99 L4016.93 734.91 L4036.16 1389.83 L4055.40 1429.65 L4074.47 1581.86 L4093.71 1150.20 L4112.94 1207.41 L4132.18 941.12 L4151.25 1443.32 L4170.49 1398.09 L4189.73 1589.46 L4208.79 1363.33 L4228.03 1586.59 L4247.27 1289.08 L4266.51 1380.04 L4285.58 1030.05 L4304.81 1617.98 L4324.05 1154.59 L4343.12 1016.21 L4362.36 1209.09 L4381.59 1165.39 L4400.83 1296.17 L4419.90 613.74 L4439.14 1458.84 L4458.38 1453.44 L4477.44 706.05 L4496.68 420.36 L4515.92 902.14 L4535.16 1823.51 L4554.23 1174.67 L4573.46 1149.69 L4592.70 1265.12 L4611.94 1789.26 L4631.01 524.81 L4650.24 632.98 L4669.48 330.24 L4688.55 1149.02 L4707.79 1161.34 L4727.02 1114.59 L4746.26 1306.29 L4765.33 798.86 L4784.57 1434.38 L4803.81 1032.58 L4822.88 942.81 L4842.11 940.61 L4861.35 1442.64 L4880.59 1590.30 L4899.66 421.03 L4918.89 602.44 L4938.13 1574.61 L4957.37 641.59 L4976.44 1430.49 L4995.68 1497.99 L5014.91 1172.47 L5033.98 1248.58" stroke-linejoin="round" style="fill:none;stroke:#D41159;stroke-width:9.72"/>
	<line x1="376.31" y1="2321.66" x2="376.31" y2="113.40" style="stroke:#000000;stroke-width:6.48"/>
	<line x1="376.31" y1="2194.76" x2="331.43" y2="2194.76" style="stroke:#000000;stroke-width:6.48"/>
	<text x="308.81" y="2234.20" style="font-family:'Helvetica';font-size:112.56px;fill:#000000" text-anchor="end">-5</text>
	<line x1="376.31" y1="1189.69" x2="331.43" y2="1189.69" style="stroke:#000000;stroke-width:6.48"/>
	<text x="308.81" y="1229.12" style="font-family:'Helvetica';font-size:112.56px;fill:#000000" text-anchor="end">0</text>
	<line x1="376.31" y1="184.61" x2="331.43" y2="184.61" style="stroke:#000000;stroke-width:6.48"/>
	<text x="308.81" y="224.05" style="font-family:'Helvetica';font-size:112.56px;fill:#000000" text-anchor="end">5</text>
	<line x1="376.31" y1="2321.66" x2="5124.60" y2="2321.66" style="stroke:#000000;stroke-width:6.48"/>
	<line x1="447.69" y1="2321.66" x2="447.69" y2="2366.72" style="stroke:#000000;stroke-width:6.48"/>
	<text x="447.69" y="2467.87" style="font-family:'Helvetica';font-size:112.56px;fill:#000000" text-anchor="middle">2000m1</text>
	<line x1="1599.08" y1="2321.66" x2="1599.08" y2="2366.72" style="stroke:#000000;stroke-width:6.48"/>
	<text x="1599.08" y="2467.87" style="font-family:'Helvetica';font-size:112.56px;fill:#000000" text-anchor="middle">2005m1</text>
	<line x1="2750.46" y1="2321.66" x2="2750.46" y2="2366.72" style="stroke:#000000;stroke-width:6.48"/>
	<text x="2750.46" y="2467.87" style="font-family:'Helvetica';font-size:112.56px;fill:#000000" text-anchor="middle">2010m1</text>
	<line x1="3901.84" y1="2321.66" x2="3901.84" y2="2366.72" style="stroke:#000000;stroke-width:6.48"/>
	<text x="3901.84" y="2467.87" style="font-family:'Helvetica';font-size:112.56px;fill:#000000" text-anchor="middle">2015m1</text>
	<line x1="5053.39" y1="2321.66" x2="5053.39" y2="2366.72" style="stroke:#000000;stroke-width:6.48"/>
	<text x="5053.39" y="2467.87" style="font-family:'Helvetica';font-size:112.56px;fill:#000000" text-anchor="middle">2020m1</text>
	<text x="2750.46" y="2625.31" style="font-family:'Helvetica';font-size:112.56px;fill:#000000" text-anchor="middle">Period</text>
	<rect x="1921.73" y="2720.59" width="1657.63" height="367.20" style="fill:#FFFFFF"/>
	<rect x="1924.97" y="2723.83" width="1651.15" height="360.72" style="fill:none;stroke:#FFFFFF;stroke-width:6.48"/>
	<line x1="1970.33" y1="2825.38" x2="2229.53" y2="2825.38" style="stroke:#1A85FF;stroke-width:9.72"/>
	<line x1="1970.33" y1="2982.83" x2="2229.53" y2="2982.83" style="stroke:#D41159;stroke-width:9.72"/>
	<text x="2297.03" y="2864.82" style="font-family:'Helvetica';font-size:112.56px;fill:#000000">Structural shocks - PRI</text>
	<text x="2297.03" y="3022.26" style="font-family:'Helvetica';font-size:112.56px;fill:#000000">Structural shocks - GPR</text>
</svg>
