<?xml version="1.0" encoding="UTF-8" standalone="no"?>
<!-- This is a Stata 19.5 generated SVG file (http://www.stata.com) -->

<svg version="1.1" width="7.500in" height="4.500in" viewBox="0 0 5400 3240" xmlns="http://www.w3.org/2000/svg" xmlns:xlink="http://www.w3.org/1999/xlink">
	<desc>Stata Graph - G5R</desc>
	<rect x="0" y="0" width="5400" height="3240" style="fill:#FFFFFF;stroke:none"/>
	<rect x="0.00" y="0.00" width="5400.00" height="3240.00" style="fill:#FFFFFF"/>
	<rect x="3.24" y="3.24" width="5393.52" height="3233.52" style="fill:none;stroke:#FFFFFF;stroke-width:6.48"/>
	<rect x="376.31" y="113.40" width="4748.29" height="2208.26" style="fill:#FFFFFF"/>
	<rect x="379.55" y="116.64" width="4741.81" height="2201.78" style="fill:none;stroke:#FFFFFF;stroke-width:6.48"/>
	<line x1="376.31" y1="2160.34" x2="441.11" y2="2160.34" style="stroke:#F0F0F0;stroke-width:9.72"/>
	<line x1="473.51" y1="2160.34" x2="538.31" y2="2160.34" style="stroke:#F0F0F0;stroke-width:9.72"/>
	<line x1="570.71" y1="2160.34" x2="635.51" y2="2160.34" style="stroke:#F0F0F0;stroke-width:9.72"/>
	<line x1="667.91" y1="2160.34" x2="732.71" y2="2160.34" style="stroke:#F0F0F0;stroke-width:9.72"/>
	<line x1="765.11" y1="2160.34" x2="829.91" y2="2160.34" style="stroke:#F0F0F0;stroke-width:9.72"/>
	<line x1="862.31" y1="2160.34" x2="927.11" y2="2160.34" style="stroke:#F0F0F0;stroke-width:9.72"/>
	<line x1="959.51" y1="2160.34" x2="1024.31" y2="2160.34" style="stroke:#F0F0F0;stroke-width:9.72"/>
	<line x1="1056.71" y1="2160.34" x2="1121.51" y2="2160.34" style="stroke:#F0F0F0;stroke-width:9.72"/>
	<line x1="1153.91" y1="2160.34" x2="1218.71" y2="2160.34" style="stroke:#F0F0F0;stroke-width:9.72"/>
	<line x1="1251.11" y1="2160.34" x2="1315.91" y2="2160.34" style="stroke:#F0F0F0;stroke-width:9.72"/>
	<line x1="1348.31" y1="2160.34" x2="1413.11" y2="2160.34" style="stroke:#F0F0F0;stroke-width:9.72"/>
	<line x1="1445.51" y1="2160.34" x2="1510.31" y2="2160.34" style="stroke:#F0F0F0;stroke-width:9.72"/>
	<line x1="1542.71" y1="2160.34" x2="1607.51" y2="2160.34" style="stroke:#F0F0F0;stroke-width:9.72"/>
	<line x1="1639.91" y1="2160.34" x2="1704.71" y2="2160.34" style="stroke:#F0F0F0;stroke-width:9.72"/>
	<line x1="1737.11" y1="2160.34" x2="1801.91" y2="2160.34" style="stroke:#F0F0F0;stroke-width:9.72"/>
	<line x1="1834.31" y1="2160.34" x2="1899.11" y2="2160.34" style="stroke:#F0F0F0;stroke-width:9.72"/>
	<line x1="1931.51" y1="2160.34" x2="1996.31" y2="2160.34" style="stroke:#F0F0F0;stroke-width:9.72"/>
	<line x1="2028.71" y1="2160.34" x2="2093.51" y2="2160.34" style="stroke:#F0F0F0;stroke-width:9.72"/>
	<line x1="2125.91" y1="2160.34" x2="2190.71" y2="2160.34" style="stroke:#F0F0F0;stroke-width:9.72"/>
	<line x1="2223.11" y1="2160.34" x2="2287.91" y2="2160.34" style="stroke:#F0F0F0;stroke-width:9.72"/>
	<line x1="2320.31" y1="2160.34" x2="2385.11" y2="2160.34" style="stroke:#F0F0F0;stroke-width:9.72"/>
	<line x1="2417.51" y1="2160.34" x2="2482.31" y2="2160.34" style="stroke:#F0F0F0;stroke-width:9.72"/>
	<line x1="2514.71" y1="2160.34" x2="2579.51" y2="2160.34" style="stroke:#F0F0F0;stroke-width:9.72"/>
	<line x1="2611.91" y1="2160.34" x2="2676.71" y2="2160.34" style="stroke:#F0F0F0;stroke-width:9.72"/>
	<line x1="2709.11" y1="2160.34" x2="2773.91" y2="2160.34" style="stroke:#F0F0F0;stroke-width:9.72"/>
	<line x1="2806.31" y1="2160.34" x2="2871.11" y2="2160.34" style="stroke:#F0F0F0;stroke-width:9.72"/>
	<line x1="2903.51" y1="2160.34" x2="2968.31" y2="2160.34" style="stroke:#F0F0F0;stroke-width:9.72"/>
	<line x1="3000.71" y1="2160.34" x2="3065.51" y2="2160.34" style="stroke:#F0F0F0;stroke-width:9.72"/>
	<line x1="3097.91" y1="2160.34" x2="3162.71" y2="2160.34" style="stroke:#F0F0F0;stroke-width:9.72"/>
	<line x1="3195.11" y1="2160.34" x2="3259.91" y2="2160.34" style="stroke:#F0F0F0;stroke-width:9.72"/>
	<line x1="3292.31" y1="2160.34" x2="3357.11" y2="2160.34" style="stroke:#F0F0F0;stroke-width:9.72"/>
	<line x1="3389.51" y1="2160.34" x2="3454.31" y2="2160.34" style="stroke:#F0F0F0;stroke-width:9.72"/>
	<line x1="3486.71" y1="2160.34" x2="3551.51" y2="2160.34" style="stroke:#F0F0F0;stroke-width:9.72"/>
	<line x1="3583.91" y1="2160.34" x2="3648.71" y2="2160.34" style="stroke:#F0F0F0;stroke-width:9.72"/>
	<line x1="3681.11" y1="2160.34" x2="3745.91" y2="2160.34" style="stroke:#F0F0F0;stroke-width:9.72"/>
	<line x1="3778.31" y1="2160.34" x2="3843.11" y2="2160.34" style="stroke:#F0F0F0;stroke-width:9.72"/>
	<line x1="3875.51" y1="2160.34" x2="3940.31" y2="2160.34" style="stroke:#F0F0F0;stroke-width:9.72"/>
	<line x1="3972.71" y1="2160.34" x2="4037.51" y2="2160.34" style="stroke:#F0F0F0;stroke-width:9.72"/>
	<line x1="4069.91" y1="2160.34" x2="4134.71" y2="2160.34" style="stroke:#F0F0F0;stroke-width:9.72"/>
	<line x1="4167.11" y1="2160.34" x2="4231.91" y2="2160.34" style="stroke:#F0F0F0;stroke-width:9.72"/>
	<line x1="4264.31" y1="2160.34" x2="4329.11" y2="2160.34" style="stroke:#F0F0F0;stroke-width:9.72"/>
	<line x1="4361.51" y1="2160.34" x2="4426.31" y2="2160.34" style="stroke:#F0F0F0;stroke-width:9.72"/>
	<line x1="4458.71" y1="2160.34" x2="4523.51" y2="2160.34" style="stroke:#F0F0F0;stroke-width:9.72"/>
	<line x1="4555.91" y1="2160.34" x2="4620.71" y2="2160.34" style="stroke:#F0F0F0;stroke-width:9.72"/>
	<line x1="4653.11" y1="2160.34" x2="4717.91" y2="2160.34" style="stroke:#F0F0F0;stroke-width:9.72"/>
	<line x1="4750.31" y1="2160.34" x2="4815.11" y2="2160.34" style="stroke:#F0F0F0;stroke-width:9.72"/>
	<line x1="4847.51" y1="2160.34" x2="4912.31" y2="2160.34" style="stroke:#F0F0F0;stroke-width:9.72"/>
	<line x1="4944.71" y1="2160.34" x2="5009.51" y2="2160.34" style="stroke:#F0F0F0;stroke-width:9.72"/>
	<line x1="5041.91" y1="2160.34" x2="5106.71" y2="2160.34" style="stroke:#F0F0F0;stroke-width:9.72"/>
	<line x1="376.31" y1="1172.47" x2="441.11" y2="1172.47" style="stroke:#F0F0F0;stroke-width:9.72"/>
	<line x1="473.51" y1="1172.47" x2="538.31" y2="1172.47" style="stroke:#F0F0F0;stroke-width:9.72"/>
	<line x1="570.71" y1="1172.47" x2="635.51" y2="1172.47" style="stroke:#F0F0F0;stroke-width:9.72"/>
	<line x1="667.91" y1="1172.47" x2="732.71" y2="1172.47" style="stroke:#F0F0F0;stroke-width:9.72"/>
	<line x1="765.11" y1="1172.47" x2="829.91" y2="1172.47" style="stroke:#F0F0F0;stroke-width:9.72"/>
	<line x1="862.31" y1="1172.47" x2="927.11" y2="1172.47" style="stroke:#F0F0F0;stroke-width:9.72"/>
	<line x1="959.51" y1="1172.47" x2="1024.31" y2="1172.47" style="stroke:#F0F0F0;stroke-width:9.72"/>
	<line x1="1056.71" y1="1172.47" x2="1121.51" y2="1172.47" style="stroke:#F0F0F0;stroke-width:9.72"/>
	<line x1="1153.91" y1="1172.47" x2="1218.71" y2="1172.47" style="stroke:#F0F0F0;stroke-width:9.72"/>
	<line x1="1251.11" y1="1172.47" x2="1315.91" y2="1172.47" style="stroke:#F0F0F0;stroke-width:9.72"/>
	<line x1="1348.31" y1="1172.47" x2="1413.11" y2="1172.47" style="stroke:#F0F0F0;stroke-width:9.72"/>
	<line x1="1445.51" y1="1172.47" x2="1510.31" y2="1172.47" style="stroke:#F0F0F0;stroke-width:9.72"/>
	<line x1="1542.71" y1="1172.47" x2="1607.51" y2="1172.47" style="stroke:#F0F0F0;stroke-width:9.72"/>
	<line x1="1639.91" y1="1172.47" x2="1704.71" y2="1172.47" style="stroke:#F0F0F0;stroke-width:9.72"/>
	<line x1="1737.11" y1="1172.47" x2="1801.91" y2="1172.47" style="stroke:#F0F0F0;stroke-width:9.72"/>
	<line x1="1834.31" y1="1172.47" x2="1899.11" y2="1172.47" style="stroke:#F0F0F0;stroke-width:9.72"/>
	<line x1="1931.51" y1="1172.47" x2="1996.31" y2="1172.47" style="stroke:#F0F0F0;stroke-width:9.72"/>
	<line x1="2028.71" y1="1172.47" x2="2093.51" y2="1172.47" style="stroke:#F0F0F0;stroke-width:9.72"/>
	<line x1="2125.91" y1="1172.47" x2="2190.71" y2="1172.47" style="stroke:#F0F0F0;stroke-width:9.72"/>
	<line x1="2223.11" y1="1172.47" x2="2287.91" y2="1172.47" style="stroke:#F0F0F0;stroke-width:9.72"/>
	<line x1="2320.31" y1="1172.47" x2="2385.11" y2="1172.47" style="stroke:#F0F0F0;stroke-width:9.72"/>
	<line x1="2417.51" y1="1172.47" x2="2482.31" y2="1172.47" style="stroke:#F0F0F0;stroke-width:9.72"/>
	<line x1="2514.71" y1="1172.47" x2="2579.51" y2="1172.47" style="stroke:#F0F0F0;stroke-width:9.72"/>
	<line x1="2611.91" y1="1172.47" x2="2676.71" y2="1172.47" style="stroke:#F0F0F0;stroke-width:9.72"/>
	<line x1="2709.11" y1="1172.47" x2="2773.91" y2="1172.47" style="stroke:#F0F0F0;stroke-width:9.72"/>
	<line x1="2806.31" y1="1172.47" x2="2871.11" y2="1172.47" style="stroke:#F0F0F0;stroke-width:9.72"/>
	<line x1="2903.51" y1="1172.47" x2="2968.31" y2="1172.47" style="stroke:#F0F0F0;stroke-width:9.72"/>
	<line x1="3000.71" y1="1172.47" x2="3065.51" y2="1172.47" style="stroke:#F0F0F0;stroke-width:9.72"/>
	<line x1="3097.91" y1="1172.47" x2="3162.71" y2="1172.47" style="stroke:#F0F0F0;stroke-width:9.72"/>
	<line x1="3195.11" y1="1172.47" x2="3259.91" y2="1172.47" style="stroke:#F0F0F0;stroke-width:9.72"/>
	<line x1="3292.31" y1="1172.47" x2="3357.11" y2="1172.47" style="stroke:#F0F0F0;stroke-width:9.72"/>
	<line x1="3389.51" y1="1172.47" x2="3454.31" y2="1172.47" style="stroke:#F0F0F0;stroke-width:9.72"/>
	<line x1="3486.71" y1="1172.47" x2="3551.51" y2="1172.47" style="stroke:#F0F0F0;stroke-width:9.72"/>
	<line x1="3583.91" y1="1172.47" x2="3648.71" y2="1172.47" style="stroke:#F0F0F0;stroke-width:9.72"/>
	<line x1="3681.11" y1="1172.47" x2="3745.91" y2="1172.47" style="stroke:#F0F0F0;stroke-width:9.72"/>
	<line x1="3778.31" y1="1172.47" x2="3843.11" y2="1172.47" style="stroke:#F0F0F0;stroke-width:9.72"/>
	<line x1="3875.51" y1="1172.47" x2="3940.31" y2="1172.47" style="stroke:#F0F0F0;stroke-width:9.72"/>
	<line x1="3972.71" y1="1172.47" x2="4037.51" y2="1172.47" style="stroke:#F0F0F0;stroke-width:9.72"/>
	<line x1="4069.91" y1="1172.47" x2="4134.71" y2="1172.47" style="stroke:#F0F0F0;stroke-width:9.72"/>
	<line x1="4167.11" y1="1172.47" x2="4231.91" y2="1172.47" style="stroke:#F0F0F0;stroke-width:9.72"/>
	<line x1="4264.31" y1="1172.47" x2="4329.11" y2="1172.47" style="stroke:#F0F0F0;stroke-width:9.72"/>
	<line x1="4361.51" y1="1172.47" x2="4426.31" y2="1172.47" style="stroke:#F0F0F0;stroke-width:9.72"/>
	<line x1="4458.71" y1="1172.47" x2="4523.51" y2="1172.47" style="stroke:#F0F0F0;stroke-width:9.72"/>
	<line x1="4555.91" y1="1172.47" x2="4620.71" y2="1172.47" style="stroke:#F0F0F0;stroke-width:9.72"/>
	<line x1="4653.11" y1="1172.47" x2="4717.91" y2="1172.47" style="stroke:#F0F0F0;stroke-width:9.72"/>
	<line x1="4750.31" y1="1172.47" x2="4815.11" y2="1172.47" style="stroke:#F0F0F0;stroke-width:9.72"/>
	<line x1="4847.51" y1="1172.47" x2="4912.31" y2="1172.47" style="stroke:#F0F0F0;stroke-width:9.72"/>
	<line x1="4944.71" y1="1172.47" x2="5009.51" y2="1172.47" style="stroke:#F0F0F0;stroke-width:9.72"/>
	<line x1="5041.91" y1="1172.47" x2="5106.71" y2="1172.47" style="stroke:#F0F0F0;stroke-width:9.72"/>
	<line x1="376.31" y1="184.61" x2="441.11" y2="184.61" style="stroke:#F0F0F0;stroke-width:9.72"/>
	<line x1="473.51" y1="184.61" x2="538.31" y2="184.61" style="stroke:#F0F0F0;stroke-width:9.72"/>
	<line x1="570.71" y1="184.61" x2="635.51" y2="184.61" style="stroke:#F0F0F0;stroke-width:9.72"/>
	<line x1="667.91" y1="184.61" x2="732.71" y2="184.61" style="stroke:#F0F0F0;stroke-width:9.72"/>
	<line x1="765.11" y1="184.61" x2="829.91" y2="184.61" style="stroke:#F0F0F0;stroke-width:9.72"/>
	<line x1="862.31" y1="184.61" x2="927.11" y2="184.61" style="stroke:#F0F0F0;stroke-width:9.72"/>
	<line x1="959.51" y1="184.61" x2="1024.31" y2="184.61" style="stroke:#F0F0F0;stroke-width:9.72"/>
	<line x1="1056.71" y1="184.61" x2="1121.51" y2="184.61" style="stroke:#F0F0F0;stroke-width:9.72"/>
	<line x1="1153.91" y1="184.61" x2="1218.71" y2="184.61" style="stroke:#F0F0F0;stroke-width:9.72"/>
	<line x1="1251.11" y1="184.61" x2="1315.91" y2="184.61" style="stroke:#F0F0F0;stroke-width:9.72"/>
	<line x1="1348.31" y1="184.61" x2="1413.11" y2="184.61" style="stroke:#F0F0F0;stroke-width:9.72"/>
	<line x1="1445.51" y1="184.61" x2="1510.31" y2="184.61" style="stroke:#F0F0F0;stroke-width:9.72"/>
	<line x1="1542.71" y1="184.61" x2="1607.51" y2="184.61" style="stroke:#F0F0F0;stroke-width:9.72"/>
	<line x1="1639.91" y1="184.61" x2="1704.71" y2="184.61" style="stroke:#F0F0F0;stroke-width:9.72"/>
	<line x1="1737.11" y1="184.61" x2="1801.91" y2="184.61" style="stroke:#F0F0F0;stroke-width:9.72"/>
	<line x1="1834.31" y1="184.61" x2="1899.11" y2="184.61" style="stroke:#F0F0F0;stroke-width:9.72"/>
	<line x1="1931.51" y1="184.61" x2="1996.31" y2="184.61" style="stroke:#F0F0F0;stroke-width:9.72"/>
	<line x1="2028.71" y1="184.61" x2="2093.51" y2="184.61" style="stroke:#F0F0F0;stroke-width:9.72"/>
	<line x1="2125.91" y1="184.61" x2="2190.71" y2="184.61" style="stroke:#F0F0F0;stroke-width:9.72"/>
	<line x1="2223.11" y1="184.61" x2="2287.91" y2="184.61" style="stroke:#F0F0F0;stroke-width:9.72"/>
	<line x1="2320.31" y1="184.61" x2="2385.11" y2="184.61" style="stroke:#F0F0F0;stroke-width:9.72"/>
	<line x1="2417.51" y1="184.61" x2="2482.31" y2="184.61" style="stroke:#F0F0F0;stroke-width:9.72"/>
	<line x1="2514.71" y1="184.61" x2="2579.51" y2="184.61" style="stroke:#F0F0F0;stroke-width:9.72"/>
	<line x1="2611.91" y1="184.61" x2="2676.71" y2="184.61" style="stroke:#F0F0F0;stroke-width:9.72"/>
	<line x1="2709.11" y1="184.61" x2="2773.91" y2="184.61" style="stroke:#F0F0F0;stroke-width:9.72"/>
	<line x1="2806.31" y1="184.61" x2="2871.11" y2="184.61" style="stroke:#F0F0F0;stroke-width:9.72"/>
	<line x1="2903.51" y1="184.61" x2="2968.31" y2="184.61" style="stroke:#F0F0F0;stroke-width:9.72"/>
	<line x1="3000.71" y1="184.61" x2="3065.51" y2="184.61" style="stroke:#F0F0F0;stroke-width:9.72"/>
	<line x1="3097.91" y1="184.61" x2="3162.71" y2="184.61" style="stroke:#F0F0F0;stroke-width:9.72"/>
	<line x1="3195.11" y1="184.61" x2="3259.91" y2="184.61" style="stroke:#F0F0F0;stroke-width:9.72"/>
	<line x1="3292.31" y1="184.61" x2="3357.11" y2="184.61" style="stroke:#F0F0F0;stroke-width:9.72"/>
	<line x1="3389.51" y1="184.61" x2="3454.31" y2="184.61" style="stroke:#F0F0F0;stroke-width:9.72"/>
	<line x1="3486.71" y1="184.61" x2="3551.51" y2="184.61" style="stroke:#F0F0F0;stroke-width:9.72"/>
	<line x1="3583.91" y1="184.61" x2="3648.71" y2="184.61" style="stroke:#F0F0F0;stroke-width:9.72"/>
	<line x1="3681.11" y1="184.61" x2="3745.91" y2="184.61" style="stroke:#F0F0F0;stroke-width:9.72"/>
	<line x1="3778.31" y1="184.61" x2="3843.11" y2="184.61" style="stroke:#F0F0F0;stroke-width:9.72"/>
	<line x1="3875.51" y1="184.61" x2="3940.31" y2="184.61" style="stroke:#F0F0F0;stroke-width:9.72"/>
	<line x1="3972.71" y1="184.61" x2="4037.51" y2="184.61" style="stroke:#F0F0F0;stroke-width:9.72"/>
	<line x1="4069.91" y1="184.61" x2="4134.71" y2="184.61" style="stroke:#F0F0F0;stroke-width:9.72"/>
	<line x1="4167.11" y1="184.61" x2="4231.91" y2="184.61" style="stroke:#F0F0F0;stroke-width:9.72"/>
	<line x1="4264.31" y1="184.61" x2="4329.11" y2="184.61" style="stroke:#F0F0F0;stroke-width:9.72"/>
	<line x1="4361.51" y1="184.61" x2="4426.31" y2="184.61" style="stroke:#F0F0F0;stroke-width:9.72"/>
	<line x1="4458.71" y1="184.61" x2="4523.51" y2="184.61" style="stroke:#F0F0F0;stroke-width:9.72"/>
	<line x1="4555.91" y1="184.61" x2="4620.71" y2="184.61" style="stroke:#F0F0F0;stroke-width:9.72"/>
	<line x1="4653.11" y1="184.61" x2="4717.91" y2="184.61" style="stroke:#F0F0F0;stroke-width:9.72"/>
	<line x1="4750.31" y1="184.61" x2="4815.11" y2="184.61" style="stroke:#F0F0F0;stroke-width:9.72"/>
	<line x1="4847.51" y1="184.61" x2="4912.31" y2="184.61" style="stroke:#F0F0F0;stroke-width:9.72"/>
	<line x1="4944.71" y1="184.61" x2="5009.51" y2="184.61" style="stroke:#F0F0F0;stroke-width:9.72"/>
	<line x1="5041.91" y1="184.61" x2="5106.71" y2="184.61" style="stroke:#F0F0F0;stroke-width:9.72"/>
	<line x1="447.69" y1="2321.66" x2="447.69" y2="2256.86" style="stroke:#F0F0F0;stroke-width:9.72"/>
	<line x1="447.69" y1="2224.46" x2="447.69" y2="2159.66" style="stroke:#F0F0F0;stroke-width:9.72"/>
	<line x1="447.69" y1="2127.26" x2="447.69" y2="2062.46" style="stroke:#F0F0F0;stroke-width:9.72"/>
	<line x1="447.69" y1="2030.06" x2="447.69" y2="1965.26" style="stroke:#F0F0F0;stroke-width:9.72"/>
	<line x1="447.69" y1="1932.86" x2="447.69" y2="1868.06" style="stroke:#F0F0F0;stroke-width:9.72"/>
	<line x1="447.69" y1="1835.66" x2="447.69" y2="1770.86" style="stroke:#F0F0F0;stroke-width:9.72"/>
	<line x1="447.69" y1="1738.46" x2="447.69" y2="1673.66" style="stroke:#F0F0F0;stroke-width:9.72"/>
	<line x1="447.69" y1="1641.26" x2="447.69" y2="1576.46" style="stroke:#F0F0F0;stroke-width:9.72"/>
	<line x1="447.69" y1="1544.06" x2="447.69" y2="1479.26" style="stroke:#F0F0F0;stroke-width:9.72"/>
	<line x1="447.69" y1="1446.86" x2="447.69" y2="1382.06" style="stroke:#F0F0F0;stroke-width:9.72"/>
	<line x1="447.69" y1="1349.66" x2="447.69" y2="1284.86" style="stroke:#F0F0F0;stroke-width:9.72"/>
	<line x1="447.69" y1="1252.46" x2="447.69" y2="1187.66" style="stroke:#F0F0F0;stroke-width:9.72"/>
	<line x1="447.69" y1="1155.26" x2="447.69" y2="1090.46" style="stroke:#F0F0F0;stroke-width:9.72"/>
	<line x1="447.69" y1="1058.06" x2="447.69" y2="993.26" style="stroke:#F0F0F0;stroke-width:9.72"/>
	<line x1="447.69" y1="960.86" x2="447.69" y2="896.06" style="stroke:#F0F0F0;stroke-width:9.72"/>
	<line x1="447.69" y1="863.66" x2="447.69" y2="798.86" style="stroke:#F0F0F0;stroke-width:9.72"/>
	<line x1="447.69" y1="766.46" x2="447.69" y2="701.66" style="stroke:#F0F0F0;stroke-width:9.72"/>
	<line x1="447.69" y1="669.26" x2="447.69" y2="604.46" style="stroke:#F0F0F0;stroke-width:9.72"/>
	<line x1="447.69" y1="572.06" x2="447.69" y2="507.26" style="stroke:#F0F0F0;stroke-width:9.72"/>
	<line x1="447.69" y1="474.86" x2="447.69" y2="410.06" style="stroke:#F0F0F0;stroke-width:9.72"/>
	<line x1="447.69" y1="377.66" x2="447.69" y2="312.86" style="stroke:#F0F0F0;stroke-width:9.72"/>
	<line x1="447.69" y1="280.46" x2="447.69" y2="215.66" style="stroke:#F0F0F0;stroke-width:9.72"/>
	<line x1="447.69" y1="183.26" x2="447.69" y2="118.46" style="stroke:#F0F0F0;stroke-width:9.72"/>
	<line x1="1599.08" y1="2321.66" x2="1599.08" y2="2256.86" style="stroke:#F0F0F0;stroke-width:9.72"/>
	<line x1="1599.08" y1="2224.46" x2="1599.08" y2="2159.66" style="stroke:#F0F0F0;stroke-width:9.72"/>
	<line x1="1599.08" y1="2127.26" x2="1599.08" y2="2062.46" style="stroke:#F0F0F0;stroke-width:9.72"/>
	<line x1="1599.08" y1="2030.06" x2="1599.08" y2="1965.26" style="stroke:#F0F0F0;stroke-width:9.72"/>
	<line x1="1599.08" y1="1932.86" x2="1599.08" y2="1868.06" style="stroke:#F0F0F0;stroke-width:9.72"/>
	<line x1="1599.08" y1="1835.66" x2="1599.08" y2="1770.86" style="stroke:#F0F0F0;stroke-width:9.72"/>
	<line x1="1599.08" y1="1738.46" x2="1599.08" y2="1673.66" style="stroke:#F0F0F0;stroke-width:9.72"/>
	<line x1="1599.08" y1="1641.26" x2="1599.08" y2="1576.46" style="stroke:#F0F0F0;stroke-width:9.72"/>
	<line x1="1599.08" y1="1544.06" x2="1599.08" y2="1479.26" style="stroke:#F0F0F0;stroke-width:9.72"/>
	<line x1="1599.08" y1="1446.86" x2="1599.08" y2="1382.06" style="stroke:#F0F0F0;stroke-width:9.72"/>
	<line x1="1599.08" y1="1349.66" x2="1599.08" y2="1284.86" style="stroke:#F0F0F0;stroke-width:9.72"/>
	<line x1="1599.08" y1="1252.46" x2="1599.08" y2="1187.66" style="stroke:#F0F0F0;stroke-width:9.72"/>
	<line x1="1599.08" y1="1155.26" x2="1599.08" y2="1090.46" style="stroke:#F0F0F0;stroke-width:9.72"/>
	<line x1="1599.08" y1="1058.06" x2="1599.08" y2="993.26" style="stroke:#F0F0F0;stroke-width:9.72"/>
	<line x1="1599.08" y1="960.86" x2="1599.08" y2="896.06" style="stroke:#F0F0F0;stroke-width:9.72"/>
	<line x1="1599.08" y1="863.66" x2="1599.08" y2="798.86" style="stroke:#F0F0F0;stroke-width:9.72"/>
	<line x1="1599.08" y1="766.46" x2="1599.08" y2="701.66" style="stroke:#F0F0F0;stroke-width:9.72"/>
	<line x1="1599.08" y1="669.26" x2="1599.08" y2="604.46" style="stroke:#F0F0F0;stroke-width:9.72"/>
	<line x1="1599.08" y1="572.06" x2="1599.08" y2="507.26" style="stroke:#F0F0F0;stroke-width:9.72"/>
	<line x1="1599.08" y1="474.86" x2="1599.08" y2="410.06" style="stroke:#F0F0F0;stroke-width:9.72"/>
	<line x1="1599.08" y1="377.66" x2="1599.08" y2="312.86" style="stroke:#F0F0F0;stroke-width:9.72"/>
	<line x1="1599.08" y1="280.46" x2="1599.08" y2="215.66" style="stroke:#F0F0F0;stroke-width:9.72"/>
	<line x1="1599.08" y1="183.26" x2="1599.08" y2="118.46" style="stroke:#F0F0F0;stroke-width:9.72"/>
	<line x1="2750.46" y1="2321.66" x2="2750.46" y2="2256.86" style="stroke:#F0F0F0;stroke-width:9.72"/>
	<line x1="2750.46" y1="2224.46" x2="2750.46" y2="2159.66" style="stroke:#F0F0F0;stroke-width:9.72"/>
	<line x1="2750.46" y1="2127.26" x2="2750.46" y2="2062.46" style="stroke:#F0F0F0;stroke-width:9.72"/>
	<line x1="2750.46" y1="2030.06" x2="2750.46" y2="1965.26" style="stroke:#F0F0F0;stroke-width:9.72"/>
	<line x1="2750.46" y1="1932.86" x2="2750.46" y2="1868.06" style="stroke:#F0F0F0;stroke-width:9.72"/>
	<line x1="2750.46" y1="1835.66" x2="2750.46" y2="1770.86" style="stroke:#F0F0F0;stroke-width:9.72"/>
	<line x1="2750.46" y1="1738.46" x2="2750.46" y2="1673.66" style="stroke:#F0F0F0;stroke-width:9.72"/>
	<line x1="2750.46" y1="1641.26" x2="2750.46" y2="1576.46" style="stroke:#F0F0F0;stroke-width:9.72"/>
	<line x1="2750.46" y1="1544.06" x2="2750.46" y2="1479.26" style="stroke:#F0F0F0;stroke-width:9.72"/>
	<line x1="2750.46" y1="1446.86" x2="2750.46" y2="1382.06" style="stroke:#F0F0F0;stroke-width:9.72"/>
	<line x1="2750.46" y1="1349.66" x2="2750.46" y2="1284.86" style="stroke:#F0F0F0;stroke-width:9.72"/>
	<line x1="2750.46" y1="1252.46" x2="2750.46" y2="1187.66" style="stroke:#F0F0F0;stroke-width:9.72"/>
	<line x1="2750.46" y1="1155.26" x2="2750.46" y2="1090.46" style="stroke:#F0F0F0;stroke-width:9.72"/>
	<line x1="2750.46" y1="1058.06" x2="2750.46" y2="993.26" style="stroke:#F0F0F0;stroke-width:9.72"/>
	<line x1="2750.46" y1="960.86" x2="2750.46" y2="896.06" style="stroke:#F0F0F0;stroke-width:9.72"/>
	<line x1="2750.46" y1="863.66" x2="2750.46" y2="798.86" style="stroke:#F0F0F0;stroke-width:9.72"/>
	<line x1="2750.46" y1="766.46" x2="2750.46" y2="701.66" style="stroke:#F0F0F0;stroke-width:9.72"/>
	<line x1="2750.46" y1="669.26" x2="2750.46" y2="604.46" style="stroke:#F0F0F0;stroke-width:9.72"/>
	<line x1="2750.46" y1="572.06" x2="2750.46" y2="507.26" style="stroke:#F0F0F0;stroke-width:9.72"/>
	<line x1="2750.46" y1="474.86" x2="2750.46" y2="410.06" style="stroke:#F0F0F0;stroke-width:9.72"/>
	<line x1="2750.46" y1="377.66" x2="2750.46" y2="312.86" style="stroke:#F0F0F0;stroke-width:9.72"/>
	<line x1="2750.46" y1="280.46" x2="2750.46" y2="215.66" style="stroke:#F0F0F0;stroke-width:9.72"/>
	<line x1="2750.46" y1="183.26" x2="2750.46" y2="118.46" style="stroke:#F0F0F0;stroke-width:9.72"/>
	<line x1="3901.84" y1="2321.66" x2="3901.84" y2="2256.86" style="stroke:#F0F0F0;stroke-width:9.72"/>
	<line x1="3901.84" y1="2224.46" x2="3901.84" y2="2159.66" style="stroke:#F0F0F0;stroke-width:9.72"/>
	<line x1="3901.84" y1="2127.26" x2="3901.84" y2="2062.46" style="stroke:#F0F0F0;stroke-width:9.72"/>
	<line x1="3901.84" y1="2030.06" x2="3901.84" y2="1965.26" style="stroke:#F0F0F0;stroke-width:9.72"/>
	<line x1="3901.84" y1="1932.86" x2="3901.84" y2="1868.06" style="stroke:#F0F0F0;stroke-width:9.72"/>
	<line x1="3901.84" y1="1835.66" x2="3901.84" y2="1770.86" style="stroke:#F0F0F0;stroke-width:9.72"/>
	<line x1="3901.84" y1="1738.46" x2="3901.84" y2="1673.66" style="stroke:#F0F0F0;stroke-width:9.72"/>
	<line x1="3901.84" y1="1641.26" x2="3901.84" y2="1576.46" style="stroke:#F0F0F0;stroke-width:9.72"/>
	<line x1="3901.84" y1="1544.06" x2="3901.84" y2="1479.26" style="stroke:#F0F0F0;stroke-width:9.72"/>
	<line x1="3901.84" y1="1446.86" x2="3901.84" y2="1382.06" style="stroke:#F0F0F0;stroke-width:9.72"/>
	<line x1="3901.84" y1="1349.66" x2="3901.84" y2="1284.86" style="stroke:#F0F0F0;stroke-width:9.72"/>
	<line x1="3901.84" y1="1252.46" x2="3901.84" y2="1187.66" style="stroke:#F0F0F0;stroke-width:9.72"/>
	<line x1="3901.84" y1="1155.26" x2="3901.84" y2="1090.46" style="stroke:#F0F0F0;stroke-width:9.72"/>
	<line x1="3901.84" y1="1058.06" x2="3901.84" y2="993.26" style="stroke:#F0F0F0;stroke-width:9.72"/>
	<line x1="3901.84" y1="960.86" x2="3901.84" y2="896.06" style="stroke:#F0F0F0;stroke-width:9.72"/>
	<line x1="3901.84" y1="863.66" x2="3901.84" y2="798.86" style="stroke:#F0F0F0;stroke-width:9.72"/>
	<line x1="3901.84" y1="766.46" x2="3901.84" y2="701.66" style="stroke:#F0F0F0;stroke-width:9.72"/>
	<line x1="3901.84" y1="669.26" x2="3901.84" y2="604.46" style="stroke:#F0F0F0;stroke-width:9.72"/>
	<line x1="3901.84" y1="572.06" x2="3901.84" y2="507.26" style="stroke:#F0F0F0;stroke-width:9.72"/>
	<line x1="3901.84" y1="474.86" x2="3901.84" y2="410.06" style="stroke:#F0F0F0;stroke-width:9.72"/>
	<line x1="3901.84" y1="377.66" x2="3901.84" y2="312.86" style="stroke:#F0F0F0;stroke-width:9.72"/>
	<line x1="3901.84" y1="280.46" x2="3901.84" y2="215.66" style="stroke:#F0F0F0;stroke-width:9.72"/>
	<line x1="3901.84" y1="183.26" x2="3901.84" y2="118.46" style="stroke:#F0F0F0;stroke-width:9.72"/>
	<line x1="5053.39" y1="2321.66" x2="5053.39" y2="2256.86" style="stroke:#F0F0F0;stroke-width:9.72"/>
	<line x1="5053.39" y1="2224.46" x2="5053.39" y2="2159.66" style="stroke:#F0F0F0;stroke-width:9.72"/>
	<line x1="5053.39" y1="2127.26" x2="5053.39" y2="2062.46" style="stroke:#F0F0F0;stroke-width:9.72"/>
	<line x1="5053.39" y1="2030.06" x2="5053.39" y2="1965.26" style="stroke:#F0F0F0;stroke-width:9.72"/>
	<line x1="5053.39" y1="1932.86" x2="5053.39" y2="1868.06" style="stroke:#F0F0F0;stroke-width:9.72"/>
	<line x1="5053.39" y1="1835.66" x2="5053.39" y2="1770.86" style="stroke:#F0F0F0;stroke-width:9.72"/>
	<line x1="5053.39" y1="1738.46" x2="5053.39" y2="1673.66" style="stroke:#F0F0F0;stroke-width:9.72"/>
	<line x1="5053.39" y1="1641.26" x2="5053.39" y2="1576.46" style="stroke:#F0F0F0;stroke-width:9.72"/>
	<line x1="5053.39" y1="1544.06" x2="5053.39" y2="1479.26" style="stroke:#F0F0F0;stroke-width:9.72"/>
	<line x1="5053.39" y1="1446.86" x2="5053.39" y2="1382.06" style="stroke:#F0F0F0;stroke-width:9.72"/>
	<line x1="5053.39" y1="1349.66" x2="5053.39" y2="1284.86" style="stroke:#F0F0F0;stroke-width:9.72"/>
	<line x1="5053.39" y1="1252.46" x2="5053.39" y2="1187.66" style="stroke:#F0F0F0;stroke-width:9.72"/>
	<line x1="5053.39" y1="1155.26" x2="5053.39" y2="1090.46" style="stroke:#F0F0F0;stroke-width:9.72"/>
	<line x1="5053.39" y1="1058.06" x2="5053.39" y2="993.26" style="stroke:#F0F0F0;stroke-width:9.72"/>
	<line x1="5053.39" y1="960.86" x2="5053.39" y2="896.06" style="stroke:#F0F0F0;stroke-width:9.72"/>
	<line x1="5053.39" y1="863.66" x2="5053.39" y2="798.86" style="stroke:#F0F0F0;stroke-width:9.72"/>
	<line x1="5053.39" y1="766.46" x2="5053.39" y2="701.66" style="stroke:#F0F0F0;stroke-width:9.72"/>
	<line x1="5053.39" y1="669.26" x2="5053.39" y2="604.46" style="stroke:#F0F0F0;stroke-width:9.72"/>
	<line x1="5053.39" y1="572.06" x2="5053.39" y2="507.26" style="stroke:#F0F0F0;stroke-width:9.72"/>
	<line x1="5053.39" y1="474.86" x2="5053.39" y2="410.06" style="stroke:#F0F0F0;stroke-width:9.72"/>
	<line x1="5053.39" y1="377.66" x2="5053.39" y2="312.86" style="stroke:#F0F0F0;stroke-width:9.72"/>
	<line x1="5053.39" y1="280.46" x2="5053.39" y2="215.66" style="stroke:#F0F0F0;stroke-width:9.72"/>
	<line x1="5053.39" y1="183.26" x2="5053.39" y2="118.46" style="stroke:#F0F0F0;stroke-width:9.72"/>
	<path d=" M466.76 1452.09 L486.00 1218.04 L505.07 1216.69 L524.31 1193.23 L543.54 996.47 L562.78 1227.99 L581.85 1193.74 L601.09 996.13 L620.33 1204.37 L639.39 1007.61 L658.63 1186.14 L677.87 1543.56 L697.11 2037.66 L716.18 1174.67 L735.41 2148.36 L754.65 1653.41 L773.72 1222.43 L792.96 792.79 L812.19 1239.97 L831.43 788.91 L850.50 1070.89 L869.74 1022.12 L888.98 547.26 L908.04 1188.68 L927.28 739.46 L946.52 2250.45 L965.76 973.52 L984.83 1432.52 L1004.06 821.14 L1023.30 1443.49 L1042.54 1208.25 L1061.61 1024.48 L1080.84 1231.54 L1100.08 1190.36 L1119.15 949.72 L1138.39 786.21 L1157.63 707.23 L1176.86 1216.69 L1195.93 1017.73 L1215.17 1491.41 L1234.41 1331.44 L1253.47 852.86 L1272.71 1198.46 L1291.95 1177.71 L1311.19 716.51 L1330.26 1156.11 L1349.49 554.34 L1368.73 1138.22 L1387.80 1023.30 L1407.04 1336.67 L1426.28 1127.42 L1445.51 1615.28 L1464.58 1278.62 L1483.82 1268.49 L1503.06 1127.59 L1522.29 1168.76 L1541.36 1312.20 L1560.60 730.18 L1579.84 1313.55 L1598.91 1141.26 L1618.14 1983.99 L1637.38 1126.07 L1656.62 1179.22 L1675.69 1170.62 L1694.93 1161.34 L1714.16 996.13 L1733.23 859.28 L1752.47 1060.09 L1771.71 1206.73 L1790.94 1046.42 L1810.01 1321.48 L1829.25 1022.12 L1848.49 1201.50 L1867.56 1182.94 L1886.79 685.13 L1906.03 1217.53 L1925.27 1319.12 L1944.34 864.68 L1963.58 1002.88 L1982.81 1194.58 L2002.05 989.21 L2021.12 990.73 L2040.36 1085.91 L2059.59 1247.74 L2078.66 1147.67 L2097.90 1240.65 L2117.14 1156.95 L2136.38 1165.05 L2155.44 1349.49 L2174.68 1474.37 L2193.92 1082.19 L2212.99 1209.43 L2232.23 1412.44 L2251.46 1197.62 L2270.70 1019.25 L2289.77 1216.86 L2309.01 1307.98 L2328.24 1537.82 L2347.48 1596.54 L2366.55 968.46 L2385.79 1145.98 L2405.03 1267.99 L2424.09 1131.64 L2443.33 1368.73 L2462.57 1629.62 L2481.81 1044.90 L2500.88 934.88 L2520.11 1018.24 L2539.35 1258.71 L2558.42 1622.36 L2577.66 1284.19 L2596.89 1322.66 L2616.13 583.71 L2635.20 753.97 L2654.44 1192.22 L2673.68 1195.09 L2692.74 1182.26 L2711.98 788.40 L2731.22 1110.71 L2750.46 1782.17 L2769.53 1403.16 L2788.76 1304.10 L2808.00 934.03 L2827.24 980.61 L2846.31 1289.76 L2865.54 1284.69 L2884.78 1172.14 L2903.85 1058.74 L2923.09 1170.96 L2942.33 1070.04 L2961.56 1180.57 L2980.63 446.85 L2999.87 1216.01 L3019.11 1181.42 L3038.18 1210.61 L3057.41 1227.15 L3076.65 1144.80 L3095.89 1201.84 L3114.96 1195.09 L3134.19 1411.93 L3153.43 1154.93 L3172.50 1087.59 L3191.74 1178.38 L3210.98 1169.27 L3230.21 1191.04 L3249.28 1173.32 L3268.52 1263.09 L3287.76 1253.31 L3306.99 1082.19 L3326.06 1159.14 L3345.30 1335.49 L3364.54 1075.95 L3383.61 1185.30 L3402.84 1159.14 L3422.08 1147.50 L3441.32 1154.08 L3460.39 1174.16 L3479.63 1089.79 L3498.86 1006.76 L3517.93 1165.22 L3537.17 1086.24 L3556.41 1165.56 L3575.64 1089.45 L3594.71 1102.61 L3613.95 1163.19 L3633.19 1157.79 L3652.43 1159.99 L3671.49 1205.21 L3690.73 1305.96 L3709.97 1141.09 L3729.04 1681.43 L3748.28 1248.92 L3767.51 1267.65 L3786.75 1163.19 L3805.82 1162.35 L3825.06 1146.66 L3844.29 1022.96 L3863.36 723.26 L3882.60 1099.24 L3901.84 1036.13 L3921.08 928.97 L3940.14 1028.53 L3959.38 1366.88 L3978.62 1448.21 L3997.69 804.09 L4016.93 1279.46 L4036.16 774.06 L4055.40 426.77 L4074.47 1020.43 L4093.71 910.91 L4112.94 1235.08 L4132.18 940.78 L4151.25 1121.51 L4170.49 1616.79 L4189.73 1229.85 L4208.79 1490.74 L4228.03 1026.68 L4247.27 1895.57 L4266.51 766.13 L4285.58 1486.52 L4304.81 1212.13 L4324.05 408.21 L4343.12 1998.84 L4362.36 1436.57 L4381.59 1051.31 L4400.83 1440.62 L4419.90 692.89 L4439.14 1684.80 L4458.38 1601.94 L4477.44 1200.99 L4496.68 1136.03 L4515.92 584.38 L4535.16 1186.82 L4554.23 690.36 L4573.46 1386.62 L4592.70 1322.16 L4611.94 1180.07 L4631.01 1776.60 L4650.24 1410.24 L4669.48 953.27 L4688.55 1198.97 L4707.79 1326.54 L4727.02 1291.95 L4746.26 1279.13 L4765.33 1251.96 L4784.57 1057.05 L4803.81 1084.72 L4822.88 1139.91 L4842.11 1087.43 L4861.35 1257.86 L4880.59 1142.27 L4899.66 1270.69 L4918.89 1194.92 L4938.13 1113.58 L4957.37 1207.74 L4976.44 1194.24 L4995.68 1134.00 L5014.91 1101.77 L5033.98 1144.97" stroke-linejoin="round" style="fill:none;stroke:#1A85FF;stroke-width:9.72"/>
	<path d=" M466.76 1230.86 L486.00 1106.66 L505.07 1284.86 L524.31 1026.68 L543.54 1123.37 L562.78 1212.64 L581.85 1339.54 L601.09 1133.32 L620.33 1373.96 L639.39 1307.31 L658.63 1262.59 L677.87 1213.31 L697.11 1156.11 L716.18 1302.75 L735.41 968.12 L754.65 1289.59 L773.72 1329.58 L792.96 1266.97 L812.19 1146.32 L831.43 443.14 L850.50 969.30 L869.74 1439.61 L888.98 1156.44 L908.04 1258.71 L927.28 1209.77 L946.52 1291.61 L965.76 1453.61 L984.83 1177.20 L1004.06 1194.75 L1023.30 1298.36 L1042.54 1116.79 L1061.61 837.34 L1080.84 835.82 L1100.08 1239.64 L1119.15 1027.86 L1138.39 735.58 L1157.63 623.70 L1176.86 913.28 L1195.93 796.84 L1215.17 1541.87 L1234.41 1269.00 L1253.47 1314.39 L1272.71 1106.32 L1291.95 1288.74 L1311.19 1105.65 L1330.26 1256.51 L1349.49 1006.59 L1368.73 1197.45 L1387.80 1261.24 L1407.04 1315.91 L1426.28 1105.82 L1445.51 1194.24 L1464.58 1201.67 L1483.82 1254.15 L1503.06 1360.29 L1522.29 1163.53 L1541.36 1250.10 L1560.60 1222.93 L1579.84 1151.55 L1598.91 1127.25 L1618.14 918.00 L1637.38 1172.31 L1656.62 1426.95 L1675.69 1181.42 L1694.93 1217.70 L1714.16 791.44 L1733.23 1443.49 L1752.47 1159.82 L1771.71 1514.53 L1790.94 1114.93 L1810.01 1377.51 L1829.25 731.87 L1848.49 1260.90 L1867.56 1099.07 L1886.79 1109.36 L1906.03 1089.45 L1925.27 1158.97 L1944.34 807.47 L1963.58 1286.38 L1982.81 1209.77 L2002.05 243.34 L2021.12 1596.88 L2040.36 1420.03 L2059.59 1293.97 L2078.66 1008.96 L2097.90 1243.86 L2117.14 1340.04 L2136.38 1270.86 L2155.44 1187.32 L2174.68 1234.74 L2193.92 1314.73 L2212.99 881.21 L2232.23 989.89 L2251.46 1223.10 L2270.70 1163.19 L2289.77 1275.92 L2309.01 1338.69 L2328.24 1183.28 L2347.48 1286.21 L2366.55 1151.89 L2385.79 1185.30 L2405.03 1080.68 L2424.09 1181.25 L2443.33 1229.68 L2462.57 1257.36 L2481.81 1132.82 L2500.88 1203.02 L2520.11 1293.81 L2539.35 1274.40 L2558.42 1300.56 L2577.66 879.19 L2596.89 1284.36 L2616.13 1307.81 L2635.20 1236.43 L2654.44 1130.96 L2673.68 919.35 L2692.74 1245.88 L2711.98 1300.56 L2731.22 1235.42 L2750.46 1222.09 L2769.53 999.34 L2788.76 1253.14 L2808.00 966.43 L2827.24 946.01 L2846.31 1409.91 L2865.54 1529.89 L2884.78 1178.89 L2903.85 1217.70 L2923.09 1299.21 L2942.33 731.36 L2961.56 1147.84 L2980.63 1287.22 L2999.87 1229.34 L3019.11 1073.08 L3038.18 1564.14 L3057.41 1417.33 L3076.65 1061.27 L3095.89 1207.91 L3114.96 1192.39 L3134.19 1195.09 L3153.43 1180.41 L3172.50 832.44 L3191.74 1060.26 L3210.98 1100.08 L3230.21 704.53 L3249.28 1170.96 L3268.52 881.89 L3287.76 1373.79 L3306.99 1267.14 L3326.06 1116.28 L3345.30 1433.87 L3364.54 1225.97 L3383.61 1266.64 L3402.84 1232.38 L3422.08 1225.80 L3441.32 1223.44 L3460.39 1101.77 L3479.63 1218.38 L3498.86 830.76 L3517.93 1526.18 L3537.17 1178.21 L3556.41 1371.09 L3575.64 1299.38 L3594.71 1145.31 L3613.95 1278.79 L3633.19 983.14 L3652.43 1281.32 L3671.49 1403.33 L3690.73 1248.41 L3709.97 796.33 L3729.04 1331.27 L3748.28 1219.89 L3767.51 1504.24 L3786.75 844.93 L3805.82 1265.29 L3825.06 1164.04 L3844.29 1453.95 L3863.36 1111.89 L3882.60 1418.68 L3901.84 1227.15 L3921.08 1297.35 L3940.14 1253.98 L3959.38 1070.21 L3978.62 1597.22 L3997.69 1408.73 L4016.93 711.11 L4036.16 1372.11 L4055.40 1398.09 L4074.47 1569.54 L4093.71 1128.77 L4112.94 1200.99 L4132.18 932.34 L4151.25 1388.64 L4170.49 1386.62 L4189.73 1573.76 L4208.79 1344.09 L4228.03 1570.73 L4247.27 1255.67 L4266.51 1375.48 L4285.58 1007.61 L4304.81 1601.61 L4324.05 1129.78 L4343.12 1003.56 L4362.36 1200.66 L4381.59 1126.07 L4400.83 1267.48 L4419.90 584.89 L4439.14 1431.84 L4458.38 1428.13 L4477.44 694.91 L4496.68 416.81 L4515.92 867.54 L4535.16 1796.85 L4554.23 1166.40 L4573.46 1117.13 L4592.70 1261.07 L4611.94 1758.88 L4631.01 508.61 L4650.24 631.29 L4669.48 305.61 L4688.55 1134.51 L4707.79 1148.68 L4727.02 1109.70 L4746.26 1289.59 L4765.33 793.46 L4784.57 1411.59 L4803.81 1020.26 L4822.88 927.45 L4842.11 925.09 L4861.35 1422.06 L4880.59 1552.33 L4899.66 430.99 L4918.89 578.98 L4938.13 1563.81 L4957.37 646.99 L4976.44 1429.14 L4995.68 1493.27 L5014.91 1184.63 L5033.98 1222.93" stroke-linejoin="round" style="fill:none;stroke:#D41159;stroke-width:9.72"/>
	<line x1="376.31" y1="2321.66" x2="376.31" y2="113.40" style="stroke:#000000;stroke-width:6.48"/>
	<line x1="376.31" y1="2160.34" x2="331.43" y2="2160.34" style="stroke:#000000;stroke-width:6.48"/>
	<text x="308.81" y="2199.77" style="font-family:'Helvetica';font-size:112.56px;fill:#000000" text-anchor="end">-5</text>
	<line x1="376.31" y1="1172.47" x2="331.43" y2="1172.47" style="stroke:#000000;stroke-width:6.48"/>
	<text x="308.81" y="1211.91" style="font-family:'Helvetica';font-size:112.56px;fill:#000000" text-anchor="end">0</text>
	<line x1="376.31" y1="184.61" x2="331.43" y2="184.61" style="stroke:#000000;stroke-width:6.48"/>
	<text x="308.81" y="224.05" style="font-family:'Helvetica';font-size:112.56px;fill:#000000" text-anchor="end">5</text>
	<line x1="376.31" y1="2321.66" x2="5124.60" y2="2321.66" style="stroke:#000000;stroke-width:6.48"/>
	<line x1="447.69" y1="2321.66" x2="447.69" y2="2366.72" style="stroke:#000000;stroke-width:6.48"/>
	<text x="447.69" y="2467.87" style="font-family:'Helvetica';font-size:112.56px;fill:#000000" text-anchor="middle">2000m1</text>
	<line x1="1599.08" y1="2321.66" x2="1599.08" y2="2366.72" style="stroke:#000000;stroke-width:6.48"/>
	<text x="1599.08" y="2467.87" style="font-family:'Helvetica';font-size:112.56px;fill:#000000" text-anchor="middle">2005m1</text>
	<line x1="2750.46" y1="2321.66" x2="2750.46" y2="2366.72" style="stroke:#000000;stroke-width:6.48"/>
	<text x="2750.46" y="2467.87" style="font-family:'Helvetica';font-size:112.56px;fill:#000000" text-anchor="middle">2010m1</text>
	<line x1="3901.84" y1="2321.66" x2="3901.84" y2="2366.72" style="stroke:#000000;stroke-width:6.48"/>
	<text x="3901.84" y="2467.87" style="font-family:'Helvetica';font-size:112.56px;fill:#000000" text-anchor="middle">2015m1</text>
	<line x1="5053.39" y1="2321.66" x2="5053.39" y2="2366.72" style="stroke:#000000;stroke-width:6.48"/>
	<text x="5053.39" y="2467.87" style="font-family:'Helvetica';font-size:112.56px;fill:#000000" text-anchor="middle">2020m1</text>
	<text x="2750.46" y="2625.31" style="font-family:'Helvetica';font-size:112.56px;fill:#000000" text-anchor="middle">Period</text>
	<rect x="1568.87" y="2720.59" width="2363.17" height="367.20" style="fill:#FFFFFF"/>
	<rect x="1572.11" y="2723.83" width="2356.69" height="360.72" style="fill:none;stroke:#FFFFFF;stroke-width:6.48"/>
	<line x1="1617.47" y1="2825.38" x2="1876.67" y2="2825.38" style="stroke:#1A85FF;stroke-width:9.72"/>
	<line x1="1617.47" y1="2982.83" x2="1876.67" y2="2982.83" style="stroke:#D41159;stroke-width:9.72"/>
	<text x="1944.17" y="2864.82" style="font-family:'Helvetica';font-size:112.56px;fill:#000000">Structural shocks - PRI (Robustness)</text>
	<text x="1944.17" y="3022.26" style="font-family:'Helvetica';font-size:112.56px;fill:#000000">Structural shocks - GPR (Robustness)</text>
</svg>
