<?xml version="1.0" encoding="UTF-8" standalone="no"?>
<!-- This is a Stata 19.5 generated SVG file (http://www.stata.com) -->

<svg version="1.1" width="7.500in" height="4.500in" viewBox="0 0 5400 3240" xmlns="http://www.w3.org/2000/svg" xmlns:xlink="http://www.w3.org/1999/xlink">
	<desc>Stata Graph - G0</desc>
	<rect x="0" y="0" width="5400" height="3240" style="fill:#FFFFFF;stroke:none"/>
	<rect x="0.00" y="0.00" width="5400.00" height="3240.00" style="fill:#FFFFFF"/>
	<rect x="3.24" y="3.24" width="5393.52" height="3233.52" style="fill:none;stroke:#FFFFFF;stroke-width:6.48"/>
	<rect x="488.87" y="113.40" width="4372.99" height="2653.26" style="fill:#FFFFFF"/>
	<rect x="492.11" y="116.64" width="4366.51" height="2646.78" style="fill:none;stroke:#FFFFFF;stroke-width:6.48"/>
	<line x1="488.87" y1="2653.43" x2="553.67" y2="2653.43" style="stroke:#F0F0F0;stroke-width:9.72"/>
	<line x1="586.07" y1="2653.43" x2="650.87" y2="2653.43" style="stroke:#F0F0F0;stroke-width:9.72"/>
	<line x1="683.27" y1="2653.43" x2="748.07" y2="2653.43" style="stroke:#F0F0F0;stroke-width:9.72"/>
	<line x1="780.47" y1="2653.43" x2="845.27" y2="2653.43" style="stroke:#F0F0F0;stroke-width:9.72"/>
	<line x1="877.67" y1="2653.43" x2="942.47" y2="2653.43" style="stroke:#F0F0F0;stroke-width:9.72"/>
	<line x1="974.87" y1="2653.43" x2="1039.67" y2="2653.43" style="stroke:#F0F0F0;stroke-width:9.72"/>
	<line x1="1072.07" y1="2653.43" x2="1136.87" y2="2653.43" style="stroke:#F0F0F0;stroke-width:9.72"/>
	<line x1="1169.27" y1="2653.43" x2="1234.07" y2="2653.43" style="stroke:#F0F0F0;stroke-width:9.72"/>
	<line x1="1266.47" y1="2653.43" x2="1331.27" y2="2653.43" style="stroke:#F0F0F0;stroke-width:9.72"/>
	<line x1="1363.67" y1="2653.43" x2="1428.47" y2="2653.43" style="stroke:#F0F0F0;stroke-width:9.72"/>
	<line x1="1460.87" y1="2653.43" x2="1525.67" y2="2653.43" style="stroke:#F0F0F0;stroke-width:9.72"/>
	<line x1="1558.07" y1="2653.43" x2="1622.87" y2="2653.43" style="stroke:#F0F0F0;stroke-width:9.72"/>
	<line x1="1655.27" y1="2653.43" x2="1720.07" y2="2653.43" style="stroke:#F0F0F0;stroke-width:9.72"/>
	<line x1="1752.47" y1="2653.43" x2="1817.27" y2="2653.43" style="stroke:#F0F0F0;stroke-width:9.72"/>
	<line x1="1849.67" y1="2653.43" x2="1914.47" y2="2653.43" style="stroke:#F0F0F0;stroke-width:9.72"/>
	<line x1="1946.87" y1="2653.43" x2="2011.67" y2="2653.43" style="stroke:#F0F0F0;stroke-width:9.72"/>
	<line x1="2044.07" y1="2653.43" x2="2108.87" y2="2653.43" style="stroke:#F0F0F0;stroke-width:9.72"/>
	<line x1="2141.27" y1="2653.43" x2="2206.07" y2="2653.43" style="stroke:#F0F0F0;stroke-width:9.72"/>
	<line x1="2238.47" y1="2653.43" x2="2303.27" y2="2653.43" style="stroke:#F0F0F0;stroke-width:9.72"/>
	<line x1="2335.67" y1="2653.43" x2="2400.47" y2="2653.43" style="stroke:#F0F0F0;stroke-width:9.72"/>
	<line x1="2432.87" y1="2653.43" x2="2497.67" y2="2653.43" style="stroke:#F0F0F0;stroke-width:9.72"/>
	<line x1="2530.07" y1="2653.43" x2="2594.87" y2="2653.43" style="stroke:#F0F0F0;stroke-width:9.72"/>
	<line x1="2627.27" y1="2653.43" x2="2692.07" y2="2653.43" style="stroke:#F0F0F0;stroke-width:9.72"/>
	<line x1="2724.47" y1="2653.43" x2="2789.27" y2="2653.43" style="stroke:#F0F0F0;stroke-width:9.72"/>
	<line x1="2821.67" y1="2653.43" x2="2886.47" y2="2653.43" style="stroke:#F0F0F0;stroke-width:9.72"/>
	<line x1="2918.87" y1="2653.43" x2="2983.67" y2="2653.43" style="stroke:#F0F0F0;stroke-width:9.72"/>
	<line x1="3016.07" y1="2653.43" x2="3080.87" y2="2653.43" style="stroke:#F0F0F0;stroke-width:9.72"/>
	<line x1="3113.27" y1="2653.43" x2="3178.07" y2="2653.43" style="stroke:#F0F0F0;stroke-width:9.72"/>
	<line x1="3210.47" y1="2653.43" x2="3275.27" y2="2653.43" style="stroke:#F0F0F0;stroke-width:9.72"/>
	<line x1="3307.67" y1="2653.43" x2="3372.47" y2="2653.43" style="stroke:#F0F0F0;stroke-width:9.72"/>
	<line x1="3404.87" y1="2653.43" x2="3469.67" y2="2653.43" style="stroke:#F0F0F0;stroke-width:9.72"/>
	<line x1="3502.07" y1="2653.43" x2="3566.87" y2="2653.43" style="stroke:#F0F0F0;stroke-width:9.72"/>
	<line x1="3599.27" y1="2653.43" x2="3664.07" y2="2653.43" style="stroke:#F0F0F0;stroke-width:9.72"/>
	<line x1="3696.47" y1="2653.43" x2="3761.27" y2="2653.43" style="stroke:#F0F0F0;stroke-width:9.72"/>
	<line x1="3793.67" y1="2653.43" x2="3858.47" y2="2653.43" style="stroke:#F0F0F0;stroke-width:9.72"/>
	<line x1="3890.87" y1="2653.43" x2="3955.67" y2="2653.43" style="stroke:#F0F0F0;stroke-width:9.72"/>
	<line x1="3988.07" y1="2653.43" x2="4052.87" y2="2653.43" style="stroke:#F0F0F0;stroke-width:9.72"/>
	<line x1="4085.27" y1="2653.43" x2="4150.07" y2="2653.43" style="stroke:#F0F0F0;stroke-width:9.72"/>
	<line x1="4182.47" y1="2653.43" x2="4247.27" y2="2653.43" style="stroke:#F0F0F0;stroke-width:9.72"/>
	<line x1="4279.67" y1="2653.43" x2="4344.47" y2="2653.43" style="stroke:#F0F0F0;stroke-width:9.72"/>
	<line x1="4376.87" y1="2653.43" x2="4441.67" y2="2653.43" style="stroke:#F0F0F0;stroke-width:9.72"/>
	<line x1="4474.07" y1="2653.43" x2="4538.87" y2="2653.43" style="stroke:#F0F0F0;stroke-width:9.72"/>
	<line x1="4571.27" y1="2653.43" x2="4636.07" y2="2653.43" style="stroke:#F0F0F0;stroke-width:9.72"/>
	<line x1="4668.47" y1="2653.43" x2="4733.27" y2="2653.43" style="stroke:#F0F0F0;stroke-width:9.72"/>
	<line x1="4765.67" y1="2653.43" x2="4830.47" y2="2653.43" style="stroke:#F0F0F0;stroke-width:9.72"/>
	<line x1="488.87" y1="1880.55" x2="553.67" y2="1880.55" style="stroke:#F0F0F0;stroke-width:9.72"/>
	<line x1="586.07" y1="1880.55" x2="650.87" y2="1880.55" style="stroke:#F0F0F0;stroke-width:9.72"/>
	<line x1="683.27" y1="1880.55" x2="748.07" y2="1880.55" style="stroke:#F0F0F0;stroke-width:9.72"/>
	<line x1="780.47" y1="1880.55" x2="845.27" y2="1880.55" style="stroke:#F0F0F0;stroke-width:9.72"/>
	<line x1="877.67" y1="1880.55" x2="942.47" y2="1880.55" style="stroke:#F0F0F0;stroke-width:9.72"/>
	<line x1="974.87" y1="1880.55" x2="1039.67" y2="1880.55" style="stroke:#F0F0F0;stroke-width:9.72"/>
	<line x1="1072.07" y1="1880.55" x2="1136.87" y2="1880.55" style="stroke:#F0F0F0;stroke-width:9.72"/>
	<line x1="1169.27" y1="1880.55" x2="1234.07" y2="1880.55" style="stroke:#F0F0F0;stroke-width:9.72"/>
	<line x1="1266.47" y1="1880.55" x2="1331.27" y2="1880.55" style="stroke:#F0F0F0;stroke-width:9.72"/>
	<line x1="1363.67" y1="1880.55" x2="1428.47" y2="1880.55" style="stroke:#F0F0F0;stroke-width:9.72"/>
	<line x1="1460.87" y1="1880.55" x2="1525.67" y2="1880.55" style="stroke:#F0F0F0;stroke-width:9.72"/>
	<line x1="1558.07" y1="1880.55" x2="1622.87" y2="1880.55" style="stroke:#F0F0F0;stroke-width:9.72"/>
	<line x1="1655.27" y1="1880.55" x2="1720.07" y2="1880.55" style="stroke:#F0F0F0;stroke-width:9.72"/>
	<line x1="1752.47" y1="1880.55" x2="1817.27" y2="1880.55" style="stroke:#F0F0F0;stroke-width:9.72"/>
	<line x1="1849.67" y1="1880.55" x2="1914.47" y2="1880.55" style="stroke:#F0F0F0;stroke-width:9.72"/>
	<line x1="1946.87" y1="1880.55" x2="2011.67" y2="1880.55" style="stroke:#F0F0F0;stroke-width:9.72"/>
	<line x1="2044.07" y1="1880.55" x2="2108.87" y2="1880.55" style="stroke:#F0F0F0;stroke-width:9.72"/>
	<line x1="2141.27" y1="1880.55" x2="2206.07" y2="1880.55" style="stroke:#F0F0F0;stroke-width:9.72"/>
	<line x1="2238.47" y1="1880.55" x2="2303.27" y2="1880.55" style="stroke:#F0F0F0;stroke-width:9.72"/>
	<line x1="2335.67" y1="1880.55" x2="2400.47" y2="1880.55" style="stroke:#F0F0F0;stroke-width:9.72"/>
	<line x1="2432.87" y1="1880.55" x2="2497.67" y2="1880.55" style="stroke:#F0F0F0;stroke-width:9.72"/>
	<line x1="2530.07" y1="1880.55" x2="2594.87" y2="1880.55" style="stroke:#F0F0F0;stroke-width:9.72"/>
	<line x1="2627.27" y1="1880.55" x2="2692.07" y2="1880.55" style="stroke:#F0F0F0;stroke-width:9.72"/>
	<line x1="2724.47" y1="1880.55" x2="2789.27" y2="1880.55" style="stroke:#F0F0F0;stroke-width:9.72"/>
	<line x1="2821.67" y1="1880.55" x2="2886.47" y2="1880.55" style="stroke:#F0F0F0;stroke-width:9.72"/>
	<line x1="2918.87" y1="1880.55" x2="2983.67" y2="1880.55" style="stroke:#F0F0F0;stroke-width:9.72"/>
	<line x1="3016.07" y1="1880.55" x2="3080.87" y2="1880.55" style="stroke:#F0F0F0;stroke-width:9.72"/>
	<line x1="3113.27" y1="1880.55" x2="3178.07" y2="1880.55" style="stroke:#F0F0F0;stroke-width:9.72"/>
	<line x1="3210.47" y1="1880.55" x2="3275.27" y2="1880.55" style="stroke:#F0F0F0;stroke-width:9.72"/>
	<line x1="3307.67" y1="1880.55" x2="3372.47" y2="1880.55" style="stroke:#F0F0F0;stroke-width:9.72"/>
	<line x1="3404.87" y1="1880.55" x2="3469.67" y2="1880.55" style="stroke:#F0F0F0;stroke-width:9.72"/>
	<line x1="3502.07" y1="1880.55" x2="3566.87" y2="1880.55" style="stroke:#F0F0F0;stroke-width:9.72"/>
	<line x1="3599.27" y1="1880.55" x2="3664.07" y2="1880.55" style="stroke:#F0F0F0;stroke-width:9.72"/>
	<line x1="3696.47" y1="1880.55" x2="3761.27" y2="1880.55" style="stroke:#F0F0F0;stroke-width:9.72"/>
	<line x1="3793.67" y1="1880.55" x2="3858.47" y2="1880.55" style="stroke:#F0F0F0;stroke-width:9.72"/>
	<line x1="3890.87" y1="1880.55" x2="3955.67" y2="1880.55" style="stroke:#F0F0F0;stroke-width:9.72"/>
	<line x1="3988.07" y1="1880.55" x2="4052.87" y2="1880.55" style="stroke:#F0F0F0;stroke-width:9.72"/>
	<line x1="4085.27" y1="1880.55" x2="4150.07" y2="1880.55" style="stroke:#F0F0F0;stroke-width:9.72"/>
	<line x1="4182.47" y1="1880.55" x2="4247.27" y2="1880.55" style="stroke:#F0F0F0;stroke-width:9.72"/>
	<line x1="4279.67" y1="1880.55" x2="4344.47" y2="1880.55" style="stroke:#F0F0F0;stroke-width:9.72"/>
	<line x1="4376.87" y1="1880.55" x2="4441.67" y2="1880.55" style="stroke:#F0F0F0;stroke-width:9.72"/>
	<line x1="4474.07" y1="1880.55" x2="4538.87" y2="1880.55" style="stroke:#F0F0F0;stroke-width:9.72"/>
	<line x1="4571.27" y1="1880.55" x2="4636.07" y2="1880.55" style="stroke:#F0F0F0;stroke-width:9.72"/>
	<line x1="4668.47" y1="1880.55" x2="4733.27" y2="1880.55" style="stroke:#F0F0F0;stroke-width:9.72"/>
	<line x1="4765.67" y1="1880.55" x2="4830.47" y2="1880.55" style="stroke:#F0F0F0;stroke-width:9.72"/>
	<line x1="488.87" y1="1107.51" x2="553.67" y2="1107.51" style="stroke:#F0F0F0;stroke-width:9.72"/>
	<line x1="586.07" y1="1107.51" x2="650.87" y2="1107.51" style="stroke:#F0F0F0;stroke-width:9.72"/>
	<line x1="683.27" y1="1107.51" x2="748.07" y2="1107.51" style="stroke:#F0F0F0;stroke-width:9.72"/>
	<line x1="780.47" y1="1107.51" x2="845.27" y2="1107.51" style="stroke:#F0F0F0;stroke-width:9.72"/>
	<line x1="877.67" y1="1107.51" x2="942.47" y2="1107.51" style="stroke:#F0F0F0;stroke-width:9.72"/>
	<line x1="974.87" y1="1107.51" x2="1039.67" y2="1107.51" style="stroke:#F0F0F0;stroke-width:9.72"/>
	<line x1="1072.07" y1="1107.51" x2="1136.87" y2="1107.51" style="stroke:#F0F0F0;stroke-width:9.72"/>
	<line x1="1169.27" y1="1107.51" x2="1234.07" y2="1107.51" style="stroke:#F0F0F0;stroke-width:9.72"/>
	<line x1="1266.47" y1="1107.51" x2="1331.27" y2="1107.51" style="stroke:#F0F0F0;stroke-width:9.72"/>
	<line x1="1363.67" y1="1107.51" x2="1428.47" y2="1107.51" style="stroke:#F0F0F0;stroke-width:9.72"/>
	<line x1="1460.87" y1="1107.51" x2="1525.67" y2="1107.51" style="stroke:#F0F0F0;stroke-width:9.72"/>
	<line x1="1558.07" y1="1107.51" x2="1622.87" y2="1107.51" style="stroke:#F0F0F0;stroke-width:9.72"/>
	<line x1="1655.27" y1="1107.51" x2="1720.07" y2="1107.51" style="stroke:#F0F0F0;stroke-width:9.72"/>
	<line x1="1752.47" y1="1107.51" x2="1817.27" y2="1107.51" style="stroke:#F0F0F0;stroke-width:9.72"/>
	<line x1="1849.67" y1="1107.51" x2="1914.47" y2="1107.51" style="stroke:#F0F0F0;stroke-width:9.72"/>
	<line x1="1946.87" y1="1107.51" x2="2011.67" y2="1107.51" style="stroke:#F0F0F0;stroke-width:9.72"/>
	<line x1="2044.07" y1="1107.51" x2="2108.87" y2="1107.51" style="stroke:#F0F0F0;stroke-width:9.72"/>
	<line x1="2141.27" y1="1107.51" x2="2206.07" y2="1107.51" style="stroke:#F0F0F0;stroke-width:9.72"/>
	<line x1="2238.47" y1="1107.51" x2="2303.27" y2="1107.51" style="stroke:#F0F0F0;stroke-width:9.72"/>
	<line x1="2335.67" y1="1107.51" x2="2400.47" y2="1107.51" style="stroke:#F0F0F0;stroke-width:9.72"/>
	<line x1="2432.87" y1="1107.51" x2="2497.67" y2="1107.51" style="stroke:#F0F0F0;stroke-width:9.72"/>
	<line x1="2530.07" y1="1107.51" x2="2594.87" y2="1107.51" style="stroke:#F0F0F0;stroke-width:9.72"/>
	<line x1="2627.27" y1="1107.51" x2="2692.07" y2="1107.51" style="stroke:#F0F0F0;stroke-width:9.72"/>
	<line x1="2724.47" y1="1107.51" x2="2789.27" y2="1107.51" style="stroke:#F0F0F0;stroke-width:9.72"/>
	<line x1="2821.67" y1="1107.51" x2="2886.47" y2="1107.51" style="stroke:#F0F0F0;stroke-width:9.72"/>
	<line x1="2918.87" y1="1107.51" x2="2983.67" y2="1107.51" style="stroke:#F0F0F0;stroke-width:9.72"/>
	<line x1="3016.07" y1="1107.51" x2="3080.87" y2="1107.51" style="stroke:#F0F0F0;stroke-width:9.72"/>
	<line x1="3113.27" y1="1107.51" x2="3178.07" y2="1107.51" style="stroke:#F0F0F0;stroke-width:9.72"/>
	<line x1="3210.47" y1="1107.51" x2="3275.27" y2="1107.51" style="stroke:#F0F0F0;stroke-width:9.72"/>
	<line x1="3307.67" y1="1107.51" x2="3372.47" y2="1107.51" style="stroke:#F0F0F0;stroke-width:9.72"/>
	<line x1="3404.87" y1="1107.51" x2="3469.67" y2="1107.51" style="stroke:#F0F0F0;stroke-width:9.72"/>
	<line x1="3502.07" y1="1107.51" x2="3566.87" y2="1107.51" style="stroke:#F0F0F0;stroke-width:9.72"/>
	<line x1="3599.27" y1="1107.51" x2="3664.07" y2="1107.51" style="stroke:#F0F0F0;stroke-width:9.72"/>
	<line x1="3696.47" y1="1107.51" x2="3761.27" y2="1107.51" style="stroke:#F0F0F0;stroke-width:9.72"/>
	<line x1="3793.67" y1="1107.51" x2="3858.47" y2="1107.51" style="stroke:#F0F0F0;stroke-width:9.72"/>
	<line x1="3890.87" y1="1107.51" x2="3955.67" y2="1107.51" style="stroke:#F0F0F0;stroke-width:9.72"/>
	<line x1="3988.07" y1="1107.51" x2="4052.87" y2="1107.51" style="stroke:#F0F0F0;stroke-width:9.72"/>
	<line x1="4085.27" y1="1107.51" x2="4150.07" y2="1107.51" style="stroke:#F0F0F0;stroke-width:9.72"/>
	<line x1="4182.47" y1="1107.51" x2="4247.27" y2="1107.51" style="stroke:#F0F0F0;stroke-width:9.72"/>
	<line x1="4279.67" y1="1107.51" x2="4344.47" y2="1107.51" style="stroke:#F0F0F0;stroke-width:9.72"/>
	<line x1="4376.87" y1="1107.51" x2="4441.67" y2="1107.51" style="stroke:#F0F0F0;stroke-width:9.72"/>
	<line x1="4474.07" y1="1107.51" x2="4538.87" y2="1107.51" style="stroke:#F0F0F0;stroke-width:9.72"/>
	<line x1="4571.27" y1="1107.51" x2="4636.07" y2="1107.51" style="stroke:#F0F0F0;stroke-width:9.72"/>
	<line x1="4668.47" y1="1107.51" x2="4733.27" y2="1107.51" style="stroke:#F0F0F0;stroke-width:9.72"/>
	<line x1="4765.67" y1="1107.51" x2="4830.47" y2="1107.51" style="stroke:#F0F0F0;stroke-width:9.72"/>
	<line x1="488.87" y1="334.63" x2="553.67" y2="334.63" style="stroke:#F0F0F0;stroke-width:9.72"/>
	<line x1="586.07" y1="334.63" x2="650.87" y2="334.63" style="stroke:#F0F0F0;stroke-width:9.72"/>
	<line x1="683.27" y1="334.63" x2="748.07" y2="334.63" style="stroke:#F0F0F0;stroke-width:9.72"/>
	<line x1="780.47" y1="334.63" x2="845.27" y2="334.63" style="stroke:#F0F0F0;stroke-width:9.72"/>
	<line x1="877.67" y1="334.63" x2="942.47" y2="334.63" style="stroke:#F0F0F0;stroke-width:9.72"/>
	<line x1="974.87" y1="334.63" x2="1039.67" y2="334.63" style="stroke:#F0F0F0;stroke-width:9.72"/>
	<line x1="1072.07" y1="334.63" x2="1136.87" y2="334.63" style="stroke:#F0F0F0;stroke-width:9.72"/>
	<line x1="1169.27" y1="334.63" x2="1234.07" y2="334.63" style="stroke:#F0F0F0;stroke-width:9.72"/>
	<line x1="1266.47" y1="334.63" x2="1331.27" y2="334.63" style="stroke:#F0F0F0;stroke-width:9.72"/>
	<line x1="1363.67" y1="334.63" x2="1428.47" y2="334.63" style="stroke:#F0F0F0;stroke-width:9.72"/>
	<line x1="1460.87" y1="334.63" x2="1525.67" y2="334.63" style="stroke:#F0F0F0;stroke-width:9.72"/>
	<line x1="1558.07" y1="334.63" x2="1622.87" y2="334.63" style="stroke:#F0F0F0;stroke-width:9.72"/>
	<line x1="1655.27" y1="334.63" x2="1720.07" y2="334.63" style="stroke:#F0F0F0;stroke-width:9.72"/>
	<line x1="1752.47" y1="334.63" x2="1817.27" y2="334.63" style="stroke:#F0F0F0;stroke-width:9.72"/>
	<line x1="1849.67" y1="334.63" x2="1914.47" y2="334.63" style="stroke:#F0F0F0;stroke-width:9.72"/>
	<line x1="1946.87" y1="334.63" x2="2011.67" y2="334.63" style="stroke:#F0F0F0;stroke-width:9.72"/>
	<line x1="2044.07" y1="334.63" x2="2108.87" y2="334.63" style="stroke:#F0F0F0;stroke-width:9.72"/>
	<line x1="2141.27" y1="334.63" x2="2206.07" y2="334.63" style="stroke:#F0F0F0;stroke-width:9.72"/>
	<line x1="2238.47" y1="334.63" x2="2303.27" y2="334.63" style="stroke:#F0F0F0;stroke-width:9.72"/>
	<line x1="2335.67" y1="334.63" x2="2400.47" y2="334.63" style="stroke:#F0F0F0;stroke-width:9.72"/>
	<line x1="2432.87" y1="334.63" x2="2497.67" y2="334.63" style="stroke:#F0F0F0;stroke-width:9.72"/>
	<line x1="2530.07" y1="334.63" x2="2594.87" y2="334.63" style="stroke:#F0F0F0;stroke-width:9.72"/>
	<line x1="2627.27" y1="334.63" x2="2692.07" y2="334.63" style="stroke:#F0F0F0;stroke-width:9.72"/>
	<line x1="2724.47" y1="334.63" x2="2789.27" y2="334.63" style="stroke:#F0F0F0;stroke-width:9.72"/>
	<line x1="2821.67" y1="334.63" x2="2886.47" y2="334.63" style="stroke:#F0F0F0;stroke-width:9.72"/>
	<line x1="2918.87" y1="334.63" x2="2983.67" y2="334.63" style="stroke:#F0F0F0;stroke-width:9.72"/>
	<line x1="3016.07" y1="334.63" x2="3080.87" y2="334.63" style="stroke:#F0F0F0;stroke-width:9.72"/>
	<line x1="3113.27" y1="334.63" x2="3178.07" y2="334.63" style="stroke:#F0F0F0;stroke-width:9.72"/>
	<line x1="3210.47" y1="334.63" x2="3275.27" y2="334.63" style="stroke:#F0F0F0;stroke-width:9.72"/>
	<line x1="3307.67" y1="334.63" x2="3372.47" y2="334.63" style="stroke:#F0F0F0;stroke-width:9.72"/>
	<line x1="3404.87" y1="334.63" x2="3469.67" y2="334.63" style="stroke:#F0F0F0;stroke-width:9.72"/>
	<line x1="3502.07" y1="334.63" x2="3566.87" y2="334.63" style="stroke:#F0F0F0;stroke-width:9.72"/>
	<line x1="3599.27" y1="334.63" x2="3664.07" y2="334.63" style="stroke:#F0F0F0;stroke-width:9.72"/>
	<line x1="3696.47" y1="334.63" x2="3761.27" y2="334.63" style="stroke:#F0F0F0;stroke-width:9.72"/>
	<line x1="3793.67" y1="334.63" x2="3858.47" y2="334.63" style="stroke:#F0F0F0;stroke-width:9.72"/>
	<line x1="3890.87" y1="334.63" x2="3955.67" y2="334.63" style="stroke:#F0F0F0;stroke-width:9.72"/>
	<line x1="3988.07" y1="334.63" x2="4052.87" y2="334.63" style="stroke:#F0F0F0;stroke-width:9.72"/>
	<line x1="4085.27" y1="334.63" x2="4150.07" y2="334.63" style="stroke:#F0F0F0;stroke-width:9.72"/>
	<line x1="4182.47" y1="334.63" x2="4247.27" y2="334.63" style="stroke:#F0F0F0;stroke-width:9.72"/>
	<line x1="4279.67" y1="334.63" x2="4344.47" y2="334.63" style="stroke:#F0F0F0;stroke-width:9.72"/>
	<line x1="4376.87" y1="334.63" x2="4441.67" y2="334.63" style="stroke:#F0F0F0;stroke-width:9.72"/>
	<line x1="4474.07" y1="334.63" x2="4538.87" y2="334.63" style="stroke:#F0F0F0;stroke-width:9.72"/>
	<line x1="4571.27" y1="334.63" x2="4636.07" y2="334.63" style="stroke:#F0F0F0;stroke-width:9.72"/>
	<line x1="4668.47" y1="334.63" x2="4733.27" y2="334.63" style="stroke:#F0F0F0;stroke-width:9.72"/>
	<line x1="4765.67" y1="334.63" x2="4830.47" y2="334.63" style="stroke:#F0F0F0;stroke-width:9.72"/>
	<line x1="560.08" y1="2766.66" x2="560.08" y2="2701.86" style="stroke:#F0F0F0;stroke-width:9.72"/>
	<line x1="560.08" y1="2669.46" x2="560.08" y2="2604.66" style="stroke:#F0F0F0;stroke-width:9.72"/>
	<line x1="560.08" y1="2572.26" x2="560.08" y2="2507.46" style="stroke:#F0F0F0;stroke-width:9.72"/>
	<line x1="560.08" y1="2475.06" x2="560.08" y2="2410.26" style="stroke:#F0F0F0;stroke-width:9.72"/>
	<line x1="560.08" y1="2377.86" x2="560.08" y2="2313.06" style="stroke:#F0F0F0;stroke-width:9.72"/>
	<line x1="560.08" y1="2280.66" x2="560.08" y2="2215.86" style="stroke:#F0F0F0;stroke-width:9.72"/>
	<line x1="560.08" y1="2183.46" x2="560.08" y2="2118.66" style="stroke:#F0F0F0;stroke-width:9.72"/>
	<line x1="560.08" y1="2086.26" x2="560.08" y2="2021.46" style="stroke:#F0F0F0;stroke-width:9.72"/>
	<line x1="560.08" y1="1989.06" x2="560.08" y2="1924.26" style="stroke:#F0F0F0;stroke-width:9.72"/>
	<line x1="560.08" y1="1891.86" x2="560.08" y2="1827.06" style="stroke:#F0F0F0;stroke-width:9.72"/>
	<line x1="560.08" y1="1794.66" x2="560.08" y2="1729.86" style="stroke:#F0F0F0;stroke-width:9.72"/>
	<line x1="560.08" y1="1697.46" x2="560.08" y2="1632.66" style="stroke:#F0F0F0;stroke-width:9.72"/>
	<line x1="560.08" y1="1600.26" x2="560.08" y2="1535.46" style="stroke:#F0F0F0;stroke-width:9.72"/>
	<line x1="560.08" y1="1503.06" x2="560.08" y2="1438.26" style="stroke:#F0F0F0;stroke-width:9.72"/>
	<line x1="560.08" y1="1405.86" x2="560.08" y2="1341.06" style="stroke:#F0F0F0;stroke-width:9.72"/>
	<line x1="560.08" y1="1308.66" x2="560.08" y2="1243.86" style="stroke:#F0F0F0;stroke-width:9.72"/>
	<line x1="560.08" y1="1211.46" x2="560.08" y2="1146.66" style="stroke:#F0F0F0;stroke-width:9.72"/>
	<line x1="560.08" y1="1114.26" x2="560.08" y2="1049.46" style="stroke:#F0F0F0;stroke-width:9.72"/>
	<line x1="560.08" y1="1017.06" x2="560.08" y2="952.26" style="stroke:#F0F0F0;stroke-width:9.72"/>
	<line x1="560.08" y1="919.86" x2="560.08" y2="855.06" style="stroke:#F0F0F0;stroke-width:9.72"/>
	<line x1="560.08" y1="822.66" x2="560.08" y2="757.86" style="stroke:#F0F0F0;stroke-width:9.72"/>
	<line x1="560.08" y1="725.46" x2="560.08" y2="660.66" style="stroke:#F0F0F0;stroke-width:9.72"/>
	<line x1="560.08" y1="628.26" x2="560.08" y2="563.46" style="stroke:#F0F0F0;stroke-width:9.72"/>
	<line x1="560.08" y1="531.06" x2="560.08" y2="466.26" style="stroke:#F0F0F0;stroke-width:9.72"/>
	<line x1="560.08" y1="433.86" x2="560.08" y2="369.06" style="stroke:#F0F0F0;stroke-width:9.72"/>
	<line x1="560.08" y1="336.66" x2="560.08" y2="271.86" style="stroke:#F0F0F0;stroke-width:9.72"/>
	<line x1="560.08" y1="239.46" x2="560.08" y2="174.66" style="stroke:#F0F0F0;stroke-width:9.72"/>
	<line x1="560.08" y1="142.26" x2="560.08" y2="113.40" style="stroke:#F0F0F0;stroke-width:9.72"/>
	<line x1="1617.81" y1="2766.66" x2="1617.81" y2="2701.86" style="stroke:#F0F0F0;stroke-width:9.72"/>
	<line x1="1617.81" y1="2669.46" x2="1617.81" y2="2604.66" style="stroke:#F0F0F0;stroke-width:9.72"/>
	<line x1="1617.81" y1="2572.26" x2="1617.81" y2="2507.46" style="stroke:#F0F0F0;stroke-width:9.72"/>
	<line x1="1617.81" y1="2475.06" x2="1617.81" y2="2410.26" style="stroke:#F0F0F0;stroke-width:9.72"/>
	<line x1="1617.81" y1="2377.86" x2="1617.81" y2="2313.06" style="stroke:#F0F0F0;stroke-width:9.72"/>
	<line x1="1617.81" y1="2280.66" x2="1617.81" y2="2215.86" style="stroke:#F0F0F0;stroke-width:9.72"/>
	<line x1="1617.81" y1="2183.46" x2="1617.81" y2="2118.66" style="stroke:#F0F0F0;stroke-width:9.72"/>
	<line x1="1617.81" y1="2086.26" x2="1617.81" y2="2021.46" style="stroke:#F0F0F0;stroke-width:9.72"/>
	<line x1="1617.81" y1="1989.06" x2="1617.81" y2="1924.26" style="stroke:#F0F0F0;stroke-width:9.72"/>
	<line x1="1617.81" y1="1891.86" x2="1617.81" y2="1827.06" style="stroke:#F0F0F0;stroke-width:9.72"/>
	<line x1="1617.81" y1="1794.66" x2="1617.81" y2="1729.86" style="stroke:#F0F0F0;stroke-width:9.72"/>
	<line x1="1617.81" y1="1697.46" x2="1617.81" y2="1632.66" style="stroke:#F0F0F0;stroke-width:9.72"/>
	<line x1="1617.81" y1="1600.26" x2="1617.81" y2="1535.46" style="stroke:#F0F0F0;stroke-width:9.72"/>
	<line x1="1617.81" y1="1503.06" x2="1617.81" y2="1438.26" style="stroke:#F0F0F0;stroke-width:9.72"/>
	<line x1="1617.81" y1="1405.86" x2="1617.81" y2="1341.06" style="stroke:#F0F0F0;stroke-width:9.72"/>
	<line x1="1617.81" y1="1308.66" x2="1617.81" y2="1243.86" style="stroke:#F0F0F0;stroke-width:9.72"/>
	<line x1="1617.81" y1="1211.46" x2="1617.81" y2="1146.66" style="stroke:#F0F0F0;stroke-width:9.72"/>
	<line x1="1617.81" y1="1114.26" x2="1617.81" y2="1049.46" style="stroke:#F0F0F0;stroke-width:9.72"/>
	<line x1="1617.81" y1="1017.06" x2="1617.81" y2="952.26" style="stroke:#F0F0F0;stroke-width:9.72"/>
	<line x1="1617.81" y1="919.86" x2="1617.81" y2="855.06" style="stroke:#F0F0F0;stroke-width:9.72"/>
	<line x1="1617.81" y1="822.66" x2="1617.81" y2="757.86" style="stroke:#F0F0F0;stroke-width:9.72"/>
	<line x1="1617.81" y1="725.46" x2="1617.81" y2="660.66" style="stroke:#F0F0F0;stroke-width:9.72"/>
	<line x1="1617.81" y1="628.26" x2="1617.81" y2="563.46" style="stroke:#F0F0F0;stroke-width:9.72"/>
	<line x1="1617.81" y1="531.06" x2="1617.81" y2="466.26" style="stroke:#F0F0F0;stroke-width:9.72"/>
	<line x1="1617.81" y1="433.86" x2="1617.81" y2="369.06" style="stroke:#F0F0F0;stroke-width:9.72"/>
	<line x1="1617.81" y1="336.66" x2="1617.81" y2="271.86" style="stroke:#F0F0F0;stroke-width:9.72"/>
	<line x1="1617.81" y1="239.46" x2="1617.81" y2="174.66" style="stroke:#F0F0F0;stroke-width:9.72"/>
	<line x1="1617.81" y1="142.26" x2="1617.81" y2="113.40" style="stroke:#F0F0F0;stroke-width:9.72"/>
	<line x1="2675.36" y1="2766.66" x2="2675.36" y2="2701.86" style="stroke:#F0F0F0;stroke-width:9.72"/>
	<line x1="2675.36" y1="2669.46" x2="2675.36" y2="2604.66" style="stroke:#F0F0F0;stroke-width:9.72"/>
	<line x1="2675.36" y1="2572.26" x2="2675.36" y2="2507.46" style="stroke:#F0F0F0;stroke-width:9.72"/>
	<line x1="2675.36" y1="2475.06" x2="2675.36" y2="2410.26" style="stroke:#F0F0F0;stroke-width:9.72"/>
	<line x1="2675.36" y1="2377.86" x2="2675.36" y2="2313.06" style="stroke:#F0F0F0;stroke-width:9.72"/>
	<line x1="2675.36" y1="2280.66" x2="2675.36" y2="2215.86" style="stroke:#F0F0F0;stroke-width:9.72"/>
	<line x1="2675.36" y1="2183.46" x2="2675.36" y2="2118.66" style="stroke:#F0F0F0;stroke-width:9.72"/>
	<line x1="2675.36" y1="2086.26" x2="2675.36" y2="2021.46" style="stroke:#F0F0F0;stroke-width:9.72"/>
	<line x1="2675.36" y1="1989.06" x2="2675.36" y2="1924.26" style="stroke:#F0F0F0;stroke-width:9.72"/>
	<line x1="2675.36" y1="1891.86" x2="2675.36" y2="1827.06" style="stroke:#F0F0F0;stroke-width:9.72"/>
	<line x1="2675.36" y1="1794.66" x2="2675.36" y2="1729.86" style="stroke:#F0F0F0;stroke-width:9.72"/>
	<line x1="2675.36" y1="1697.46" x2="2675.36" y2="1632.66" style="stroke:#F0F0F0;stroke-width:9.72"/>
	<line x1="2675.36" y1="1600.26" x2="2675.36" y2="1535.46" style="stroke:#F0F0F0;stroke-width:9.72"/>
	<line x1="2675.36" y1="1503.06" x2="2675.36" y2="1438.26" style="stroke:#F0F0F0;stroke-width:9.72"/>
	<line x1="2675.36" y1="1405.86" x2="2675.36" y2="1341.06" style="stroke:#F0F0F0;stroke-width:9.72"/>
	<line x1="2675.36" y1="1308.66" x2="2675.36" y2="1243.86" style="stroke:#F0F0F0;stroke-width:9.72"/>
	<line x1="2675.36" y1="1211.46" x2="2675.36" y2="1146.66" style="stroke:#F0F0F0;stroke-width:9.72"/>
	<line x1="2675.36" y1="1114.26" x2="2675.36" y2="1049.46" style="stroke:#F0F0F0;stroke-width:9.72"/>
	<line x1="2675.36" y1="1017.06" x2="2675.36" y2="952.26" style="stroke:#F0F0F0;stroke-width:9.72"/>
	<line x1="2675.36" y1="919.86" x2="2675.36" y2="855.06" style="stroke:#F0F0F0;stroke-width:9.72"/>
	<line x1="2675.36" y1="822.66" x2="2675.36" y2="757.86" style="stroke:#F0F0F0;stroke-width:9.72"/>
	<line x1="2675.36" y1="725.46" x2="2675.36" y2="660.66" style="stroke:#F0F0F0;stroke-width:9.72"/>
	<line x1="2675.36" y1="628.26" x2="2675.36" y2="563.46" style="stroke:#F0F0F0;stroke-width:9.72"/>
	<line x1="2675.36" y1="531.06" x2="2675.36" y2="466.26" style="stroke:#F0F0F0;stroke-width:9.72"/>
	<line x1="2675.36" y1="433.86" x2="2675.36" y2="369.06" style="stroke:#F0F0F0;stroke-width:9.72"/>
	<line x1="2675.36" y1="336.66" x2="2675.36" y2="271.86" style="stroke:#F0F0F0;stroke-width:9.72"/>
	<line x1="2675.36" y1="239.46" x2="2675.36" y2="174.66" style="stroke:#F0F0F0;stroke-width:9.72"/>
	<line x1="2675.36" y1="142.26" x2="2675.36" y2="113.40" style="stroke:#F0F0F0;stroke-width:9.72"/>
	<line x1="3733.09" y1="2766.66" x2="3733.09" y2="2701.86" style="stroke:#F0F0F0;stroke-width:9.72"/>
	<line x1="3733.09" y1="2669.46" x2="3733.09" y2="2604.66" style="stroke:#F0F0F0;stroke-width:9.72"/>
	<line x1="3733.09" y1="2572.26" x2="3733.09" y2="2507.46" style="stroke:#F0F0F0;stroke-width:9.72"/>
	<line x1="3733.09" y1="2475.06" x2="3733.09" y2="2410.26" style="stroke:#F0F0F0;stroke-width:9.72"/>
	<line x1="3733.09" y1="2377.86" x2="3733.09" y2="2313.06" style="stroke:#F0F0F0;stroke-width:9.72"/>
	<line x1="3733.09" y1="2280.66" x2="3733.09" y2="2215.86" style="stroke:#F0F0F0;stroke-width:9.72"/>
	<line x1="3733.09" y1="2183.46" x2="3733.09" y2="2118.66" style="stroke:#F0F0F0;stroke-width:9.72"/>
	<line x1="3733.09" y1="2086.26" x2="3733.09" y2="2021.46" style="stroke:#F0F0F0;stroke-width:9.72"/>
	<line x1="3733.09" y1="1989.06" x2="3733.09" y2="1924.26" style="stroke:#F0F0F0;stroke-width:9.72"/>
	<line x1="3733.09" y1="1891.86" x2="3733.09" y2="1827.06" style="stroke:#F0F0F0;stroke-width:9.72"/>
	<line x1="3733.09" y1="1794.66" x2="3733.09" y2="1729.86" style="stroke:#F0F0F0;stroke-width:9.72"/>
	<line x1="3733.09" y1="1697.46" x2="3733.09" y2="1632.66" style="stroke:#F0F0F0;stroke-width:9.72"/>
	<line x1="3733.09" y1="1600.26" x2="3733.09" y2="1535.46" style="stroke:#F0F0F0;stroke-width:9.72"/>
	<line x1="3733.09" y1="1503.06" x2="3733.09" y2="1438.26" style="stroke:#F0F0F0;stroke-width:9.72"/>
	<line x1="3733.09" y1="1405.86" x2="3733.09" y2="1341.06" style="stroke:#F0F0F0;stroke-width:9.72"/>
	<line x1="3733.09" y1="1308.66" x2="3733.09" y2="1243.86" style="stroke:#F0F0F0;stroke-width:9.72"/>
	<line x1="3733.09" y1="1211.46" x2="3733.09" y2="1146.66" style="stroke:#F0F0F0;stroke-width:9.72"/>
	<line x1="3733.09" y1="1114.26" x2="3733.09" y2="1049.46" style="stroke:#F0F0F0;stroke-width:9.72"/>
	<line x1="3733.09" y1="1017.06" x2="3733.09" y2="952.26" style="stroke:#F0F0F0;stroke-width:9.72"/>
	<line x1="3733.09" y1="919.86" x2="3733.09" y2="855.06" style="stroke:#F0F0F0;stroke-width:9.72"/>
	<line x1="3733.09" y1="822.66" x2="3733.09" y2="757.86" style="stroke:#F0F0F0;stroke-width:9.72"/>
	<line x1="3733.09" y1="725.46" x2="3733.09" y2="660.66" style="stroke:#F0F0F0;stroke-width:9.72"/>
	<line x1="3733.09" y1="628.26" x2="3733.09" y2="563.46" style="stroke:#F0F0F0;stroke-width:9.72"/>
	<line x1="3733.09" y1="531.06" x2="3733.09" y2="466.26" style="stroke:#F0F0F0;stroke-width:9.72"/>
	<line x1="3733.09" y1="433.86" x2="3733.09" y2="369.06" style="stroke:#F0F0F0;stroke-width:9.72"/>
	<line x1="3733.09" y1="336.66" x2="3733.09" y2="271.86" style="stroke:#F0F0F0;stroke-width:9.72"/>
	<line x1="3733.09" y1="239.46" x2="3733.09" y2="174.66" style="stroke:#F0F0F0;stroke-width:9.72"/>
	<line x1="3733.09" y1="142.26" x2="3733.09" y2="113.40" style="stroke:#F0F0F0;stroke-width:9.72"/>
	<line x1="4790.64" y1="2766.66" x2="4790.64" y2="2701.86" style="stroke:#F0F0F0;stroke-width:9.72"/>
	<line x1="4790.64" y1="2669.46" x2="4790.64" y2="2604.66" style="stroke:#F0F0F0;stroke-width:9.72"/>
	<line x1="4790.64" y1="2572.26" x2="4790.64" y2="2507.46" style="stroke:#F0F0F0;stroke-width:9.72"/>
	<line x1="4790.64" y1="2475.06" x2="4790.64" y2="2410.26" style="stroke:#F0F0F0;stroke-width:9.72"/>
	<line x1="4790.64" y1="2377.86" x2="4790.64" y2="2313.06" style="stroke:#F0F0F0;stroke-width:9.72"/>
	<line x1="4790.64" y1="2280.66" x2="4790.64" y2="2215.86" style="stroke:#F0F0F0;stroke-width:9.72"/>
	<line x1="4790.64" y1="2183.46" x2="4790.64" y2="2118.66" style="stroke:#F0F0F0;stroke-width:9.72"/>
	<line x1="4790.64" y1="2086.26" x2="4790.64" y2="2021.46" style="stroke:#F0F0F0;stroke-width:9.72"/>
	<line x1="4790.64" y1="1989.06" x2="4790.64" y2="1924.26" style="stroke:#F0F0F0;stroke-width:9.72"/>
	<line x1="4790.64" y1="1891.86" x2="4790.64" y2="1827.06" style="stroke:#F0F0F0;stroke-width:9.72"/>
	<line x1="4790.64" y1="1794.66" x2="4790.64" y2="1729.86" style="stroke:#F0F0F0;stroke-width:9.72"/>
	<line x1="4790.64" y1="1697.46" x2="4790.64" y2="1632.66" style="stroke:#F0F0F0;stroke-width:9.72"/>
	<line x1="4790.64" y1="1600.26" x2="4790.64" y2="1535.46" style="stroke:#F0F0F0;stroke-width:9.72"/>
	<line x1="4790.64" y1="1503.06" x2="4790.64" y2="1438.26" style="stroke:#F0F0F0;stroke-width:9.72"/>
	<line x1="4790.64" y1="1405.86" x2="4790.64" y2="1341.06" style="stroke:#F0F0F0;stroke-width:9.72"/>
	<line x1="4790.64" y1="1308.66" x2="4790.64" y2="1243.86" style="stroke:#F0F0F0;stroke-width:9.72"/>
	<line x1="4790.64" y1="1211.46" x2="4790.64" y2="1146.66" style="stroke:#F0F0F0;stroke-width:9.72"/>
	<line x1="4790.64" y1="1114.26" x2="4790.64" y2="1049.46" style="stroke:#F0F0F0;stroke-width:9.72"/>
	<line x1="4790.64" y1="1017.06" x2="4790.64" y2="952.26" style="stroke:#F0F0F0;stroke-width:9.72"/>
	<line x1="4790.64" y1="919.86" x2="4790.64" y2="855.06" style="stroke:#F0F0F0;stroke-width:9.72"/>
	<line x1="4790.64" y1="822.66" x2="4790.64" y2="757.86" style="stroke:#F0F0F0;stroke-width:9.72"/>
	<line x1="4790.64" y1="725.46" x2="4790.64" y2="660.66" style="stroke:#F0F0F0;stroke-width:9.72"/>
	<line x1="4790.64" y1="628.26" x2="4790.64" y2="563.46" style="stroke:#F0F0F0;stroke-width:9.72"/>
	<line x1="4790.64" y1="531.06" x2="4790.64" y2="466.26" style="stroke:#F0F0F0;stroke-width:9.72"/>
	<line x1="4790.64" y1="433.86" x2="4790.64" y2="369.06" style="stroke:#F0F0F0;stroke-width:9.72"/>
	<line x1="4790.64" y1="336.66" x2="4790.64" y2="271.86" style="stroke:#F0F0F0;stroke-width:9.72"/>
	<line x1="4790.64" y1="239.46" x2="4790.64" y2="174.66" style="stroke:#F0F0F0;stroke-width:9.72"/>
	<line x1="4790.64" y1="142.26" x2="4790.64" y2="113.40" style="stroke:#F0F0F0;stroke-width:9.72"/>
	<path d=" M577.63 1033.93 L595.35 1033.93 L612.90 1033.93 L630.62 1033.93 L648.17 966.77 L665.89 966.77 L683.44 966.77 L700.99 904.84 L718.71 904.84 L736.26 847.63 L753.98 847.63 L771.53 966.77 L789.24 1248.58 L806.79 1248.58 L824.51 1561.95 L842.06 1717.03 L859.78 1717.03 L877.33 1561.95 L895.05 1561.95 L912.60 1421.04 L930.15 1367.72 L947.87 1310.51 L965.42 1107.68 L983.14 1107.68 L1000.69 966.77 L1018.41 1310.51 L1035.96 1248.58 L1053.68 1310.51 L1071.22 1181.25 L1088.94 1248.58 L1106.49 1248.58 L1124.04 1181.25 L1141.76 1181.25 L1159.31 1181.25 L1177.03 1107.68 L1194.58 966.77 L1212.30 794.14 L1229.85 794.14 L1247.57 744.36 L1265.12 847.63 L1282.84 904.84 L1300.39 794.14 L1317.94 794.14 L1335.66 794.14 L1353.21 653.23 L1370.93 653.23 L1388.48 463.89 L1406.19 463.89 L1423.74 430.99 L1441.46 498.15 L1459.01 498.15 L1476.73 653.23 L1494.28 697.44 L1512.00 744.36 L1529.55 744.36 L1547.10 744.36 L1564.82 794.14 L1582.37 653.23 L1600.09 697.44 L1617.64 697.44 L1635.36 966.77 L1652.91 966.77 L1670.63 966.77 L1688.18 966.77 L1705.89 966.77 L1723.44 904.84 L1740.99 794.14 L1758.71 744.36 L1776.26 744.36 L1793.98 697.44 L1811.53 744.36 L1829.25 697.44 L1846.80 697.44 L1864.52 697.44 L1882.07 534.09 L1899.79 534.09 L1917.34 571.89 L1934.89 463.89 L1952.61 399.43 L1970.16 399.43 L1987.88 339.86 L2005.43 284.68 L2023.14 258.36 L2040.69 284.68 L2058.41 284.68 L2075.96 311.85 L2093.68 311.85 L2111.23 311.85 L2128.95 369.06 L2146.50 463.89 L2164.05 430.99 L2181.77 430.99 L2199.32 498.15 L2217.04 498.15 L2234.59 430.99 L2252.31 430.99 L2269.86 463.89 L2287.57 571.89 L2305.13 697.44 L2322.84 611.55 L2340.39 571.89 L2357.94 571.89 L2375.66 534.09 L2393.21 571.89 L2410.93 697.44 L2428.48 653.23 L2446.20 571.89 L2463.75 534.09 L2481.47 571.89 L2499.02 744.36 L2516.74 794.14 L2534.29 847.63 L2551.84 653.23 L2569.56 498.15 L2587.11 498.15 L2604.82 498.15 L2622.38 498.15 L2640.09 369.06 L2657.64 339.86 L2675.36 534.09 L2692.91 611.55 L2710.63 653.23 L2728.18 571.89 L2745.90 498.15 L2763.45 534.09 L2781.00 571.89 L2798.72 571.89 L2816.27 534.09 L2833.99 534.09 L2851.54 498.15 L2869.26 498.15 L2886.81 258.36 L2904.53 258.36 L2922.08 258.36 L2939.79 258.36 L2957.34 258.36 L2974.89 233.04 L2992.61 233.04 L3010.16 233.04 L3027.88 311.85 L3045.43 311.85 L3063.15 284.68 L3080.70 284.68 L3098.42 284.68 L3115.97 284.68 L3133.69 284.68 L3151.24 311.85 L3168.79 339.86 L3186.51 311.85 L3204.06 311.85 L3221.78 369.06 L3239.33 339.86 L3257.04 339.86 L3274.59 339.86 L3292.31 339.86 L3309.86 339.86 L3327.58 339.86 L3345.13 311.85 L3362.68 258.36 L3380.40 258.36 L3397.95 233.04 L3415.67 233.04 L3433.22 208.57 L3450.94 184.78 L3468.49 184.78 L3486.21 184.78 L3503.76 184.78 L3521.48 208.57 L3539.03 258.36 L3556.74 258.36 L3574.29 430.99 L3591.84 463.89 L3609.56 498.15 L3627.11 498.15 L3644.83 498.15 L3662.38 498.15 L3680.10 463.89 L3697.65 339.86 L3715.37 339.86 L3732.92 339.86 L3750.64 311.85 L3768.19 311.85 L3785.74 430.99 L3803.46 571.89 L3821.01 498.15 L3838.73 571.89 L3856.28 498.15 L3873.99 311.85 L3891.54 311.85 L3909.26 284.68 L3926.81 369.06 L3944.53 369.06 L3962.08 430.99 L3979.63 653.23 L3997.35 744.36 L4014.90 904.84 L4032.62 904.84 L4050.17 1181.25 L4067.89 1107.68 L4085.44 1248.58 L4103.16 1310.51 L4120.71 1107.68 L4138.43 1421.04 L4155.98 1561.95 L4173.69 1561.95 L4191.24 1681.09 L4208.79 1561.95 L4226.51 1751.46 L4244.06 1930.67 L4261.78 1982.14 L4279.33 2006.78 L4297.05 1846.29 L4314.60 1875.32 L4332.32 1751.46 L4349.87 1846.29 L4367.59 1930.67 L4385.14 1956.83 L4402.69 2179.24 L4420.41 2287.24 L4437.96 2235.09 L4455.68 2252.81 L4473.23 2320.14 L4490.94 2382.07 L4508.49 2439.28 L4526.21 2479.61 L4543.76 2466.45 L4561.48 2466.45 L4579.03 2492.61 L4596.58 2492.61 L4614.30 2542.56 L4631.85 2554.54 L4649.57 2600.61 L4667.12 2622.71 L4684.84 2622.71 L4702.39 2654.78 L4720.11 2685.49 L4737.66 2685.49 L4755.38 2685.49 L4772.93 2695.44" stroke-linejoin="round" style="fill:none;stroke:#1A85FF;stroke-width:9.72"/>
	<path d=" M577.63 2349.84 L595.35 2239.14 L612.90 2353.89 L630.62 2188.86 L648.17 2142.62 L665.89 2142.28 L683.44 2387.48 L700.99 2233.74 L718.71 2395.91 L736.26 2429.16 L753.98 2405.03 L771.53 2270.19 L789.24 2179.24 L806.79 2270.70 L824.51 2033.44 L842.06 2145.49 L859.78 2223.62 L877.33 2182.95 L895.05 2335.33 L912.60 1423.91 L930.15 1607.51 L947.87 2100.26 L965.42 2052.84 L983.14 2132.49 L1000.69 2079.00 L1018.41 2226.99 L1035.96 2417.01 L1053.68 2238.64 L1071.22 2323.69 L1088.94 2402.66 L1106.49 2269.35 L1124.04 1853.89 L1141.76 1714.67 L1159.31 2097.23 L1177.03 1897.43 L1194.58 1344.26 L1212.30 1136.36 L1229.85 1364.18 L1247.57 1228.16 L1265.12 1927.29 L1282.84 1949.40 L1300.39 2057.40 L1317.94 2028.54 L1335.66 2204.89 L1353.21 2112.41 L1370.93 2223.62 L1388.48 1927.80 L1406.19 2094.86 L1423.74 2054.53 L1441.46 2162.03 L1459.01 1957.67 L1476.73 2007.79 L1494.28 1956.49 L1512.00 2187.68 L1529.55 2258.89 L1547.10 1994.46 L1564.82 2147.34 L1582.37 2095.88 L1600.09 2019.26 L1617.64 1948.56 L1635.36 1659.99 L1652.91 1820.98 L1670.63 2093.18 L1688.18 2014.20 L1705.89 2054.19 L1723.44 1501.20 L1740.99 2043.56 L1758.71 1871.10 L1776.26 2287.57 L1793.98 2051.16 L1811.53 2343.43 L1829.25 1654.09 L1846.80 1917.68 L1864.52 1824.02 L1882.07 1805.79 L1899.79 1756.86 L1917.34 1802.59 L1934.89 1468.63 L1952.61 1917.68 L1970.16 1883.76 L1987.88 902.14 L2005.43 1988.89 L2023.14 2014.03 L2040.69 2104.14 L2058.41 1861.99 L2075.96 2017.74 L2093.68 2145.32 L2111.23 2159.83 L2128.95 2062.29 L2146.50 2075.63 L2164.05 2223.96 L2181.77 1755.68 L2199.32 1760.57 L2217.04 1943.83 L2234.59 1882.41 L2252.31 2114.61 L2269.86 2223.28 L2287.57 2128.11 L2305.13 2209.28 L2322.84 2040.36 L2340.39 2081.70 L2357.94 1948.56 L2375.66 2078.66 L2393.21 2061.62 L2410.93 2117.98 L2428.48 2199.15 L2446.20 2215.35 L2463.75 2284.71 L2481.47 2180.25 L2499.02 2288.76 L2516.74 1728.84 L2534.29 2042.55 L2551.84 2018.93 L2569.56 2052.17 L2587.11 2068.03 L2604.82 1681.09 L2622.38 1991.08 L2640.09 2078.83 L2657.64 2091.15 L2675.36 2091.32 L2692.91 1854.06 L2710.63 2073.60 L2728.18 1767.32 L2745.90 1625.40 L2763.45 2082.21 L2781.00 2335.50 L2798.72 2156.29 L2816.27 2138.23 L2833.99 2228.68 L2851.54 1570.89 L2869.26 1822.84 L2886.81 1924.59 L2904.53 2037.83 L2922.08 1822.16 L2939.79 2252.48 L2957.34 2353.56 L2974.89 2095.20 L2992.61 2251.13 L3010.16 2200.67 L3027.88 2232.39 L3045.43 2081.03 L3063.15 1720.58 L3080.70 1785.21 L3098.42 1769.68 L3115.97 1343.76 L3133.69 1665.23 L3151.24 1373.96 L3168.79 1902.32 L3186.51 1905.19 L3204.06 1888.31 L3221.78 2195.78 L3239.33 2090.48 L3257.04 2130.98 L3274.59 2191.73 L3292.31 2189.03 L3309.86 2132.16 L3327.58 1926.62 L3345.13 2016.56 L3362.68 1626.41 L3380.40 2242.86 L3397.95 2010.83 L3415.67 2254.67 L3433.22 2247.07 L3450.94 2085.75 L3468.49 2134.35 L3486.21 1870.26 L3503.76 2104.48 L3521.48 2241.68 L3539.03 2209.44 L3556.74 1694.42 L3574.29 1992.43 L3591.84 1943.83 L3609.56 2328.92 L3627.11 1756.69 L3644.83 2039.68 L3662.38 1960.03 L3680.10 2306.31 L3697.65 2077.82 L3715.37 2278.63 L3732.92 2218.39 L3750.64 2160.84 L3768.19 2035.97 L3785.74 1867.39 L3803.46 2208.43 L3821.01 2166.41 L3838.73 1494.96 L3856.28 1964.42 L3873.99 2006.10 L3891.54 2240.32 L3909.26 1888.99 L3926.81 1924.26 L3944.53 1547.94 L3962.08 1871.78 L3979.63 1851.19 L3997.35 2097.06 L4014.90 1959.02 L4032.62 2196.79 L4050.17 2071.24 L4067.89 2217.71 L4085.44 1730.19 L4103.16 2257.88 L4120.71 1908.23 L4138.43 1729.86 L4155.98 1633.67 L4173.69 1504.74 L4191.24 1656.11 L4208.79 917.83 L4226.51 1555.71 L4244.06 1801.24 L4261.78 1199.98 L4279.33 623.87 L4297.05 684.45 L4314.60 1697.46 L4332.32 1452.26 L4349.87 1488.71 L4367.59 1563.98 L4385.14 2211.98 L4402.69 1134.51 L4420.41 870.41 L4437.96 184.78 L4455.68 766.13 L4473.23 1004.23 L4490.94 1105.99 L4508.49 1419.86 L4526.21 982.13 L4543.76 1597.05 L4561.48 1347.47 L4579.03 1166.23 L4596.58 926.61 L4614.30 1421.72 L4631.85 1771.88 L4649.57 758.70 L4667.12 559.07 L4684.84 1446.69 L4702.39 687.15 L4720.11 1496.64 L4737.66 1585.24 L4755.38 1700.16 L4772.93 1702.01" stroke-linejoin="round" style="fill:none;stroke:#D41159;stroke-width:9.72"/>
	<line x1="4861.86" y1="2766.66" x2="4861.86" y2="113.40" style="stroke:#000000;stroke-width:6.48"/>
	<line x1="4861.86" y1="2695.28" x2="4906.91" y2="2695.28" style="stroke:#000000;stroke-width:6.48"/>
	<text x="4929.36" y="2734.71" style="font-family:'Helvetica';font-size:112.56px;fill:#000000">0</text>
	<line x1="4861.86" y1="1870.09" x2="4906.91" y2="1870.09" style="stroke:#000000;stroke-width:6.48"/>
	<text x="4929.36" y="1909.52" style="font-family:'Helvetica';font-size:112.56px;fill:#000000">.5</text>
	<line x1="4861.86" y1="1044.90" x2="4906.91" y2="1044.90" style="stroke:#000000;stroke-width:6.48"/>
	<text x="4929.36" y="1084.34" style="font-family:'Helvetica';font-size:112.56px;fill:#000000">1</text>
	<line x1="4861.86" y1="219.54" x2="4906.91" y2="219.54" style="stroke:#000000;stroke-width:6.48"/>
	<text x="4929.36" y="258.98" style="font-family:'Helvetica';font-size:112.56px;fill:#000000">1.5</text>
	<text x="5230.31" y="1439.94" style="font-family:'Helvetica';font-size:112.56px;fill:#000000" transform="rotate(-90 5230.31,1439.94)" text-anchor="middle">Percent of Articles on China in the Bil. GPR</text>
	<line x1="488.87" y1="2766.66" x2="488.87" y2="113.40" style="stroke:#000000;stroke-width:6.48"/>
	<line x1="488.87" y1="2653.43" x2="443.81" y2="2653.43" style="stroke:#000000;stroke-width:6.48"/>
	<text x="421.37" y="2692.86" style="font-family:'Helvetica';font-size:112.56px;fill:#000000" text-anchor="end">-2</text>
	<line x1="488.87" y1="1880.55" x2="443.81" y2="1880.55" style="stroke:#000000;stroke-width:6.48"/>
	<text x="421.37" y="1919.99" style="font-family:'Helvetica';font-size:112.56px;fill:#000000" text-anchor="end">-1</text>
	<line x1="488.87" y1="1107.51" x2="443.81" y2="1107.51" style="stroke:#000000;stroke-width:6.48"/>
	<text x="421.37" y="1146.94" style="font-family:'Helvetica';font-size:112.56px;fill:#000000" text-anchor="end">0</text>
	<line x1="488.87" y1="334.63" x2="443.81" y2="334.63" style="stroke:#000000;stroke-width:6.48"/>
	<text x="421.37" y="374.07" style="font-family:'Helvetica';font-size:112.56px;fill:#000000" text-anchor="end">1</text>
	<text x="214.55" y="1439.94" style="font-family:'Helvetica';font-size:112.56px;fill:#000000" transform="rotate(-90 214.55,1439.94)" text-anchor="middle">Political Relationship Index</text>
	<line x1="488.87" y1="2766.66" x2="4861.86" y2="2766.66" style="stroke:#000000;stroke-width:6.48"/>
	<line x1="560.08" y1="2766.66" x2="560.08" y2="2811.54" style="stroke:#000000;stroke-width:6.48"/>
	<text x="560.08" y="2912.86" style="font-family:'Helvetica';font-size:112.56px;fill:#000000" text-anchor="middle">2000m1</text>
	<line x1="1617.81" y1="2766.66" x2="1617.81" y2="2811.54" style="stroke:#000000;stroke-width:6.48"/>
	<text x="1617.81" y="2912.86" style="font-family:'Helvetica';font-size:112.56px;fill:#000000" text-anchor="middle">2005m1</text>
	<line x1="2675.36" y1="2766.66" x2="2675.36" y2="2811.54" style="stroke:#000000;stroke-width:6.48"/>
	<text x="2675.36" y="2912.86" style="font-family:'Helvetica';font-size:112.56px;fill:#000000" text-anchor="middle">2010m1</text>
	<line x1="3733.09" y1="2766.66" x2="3733.09" y2="2811.54" style="stroke:#000000;stroke-width:6.48"/>
	<text x="3733.09" y="2912.86" style="font-family:'Helvetica';font-size:112.56px;fill:#000000" text-anchor="middle">2015m1</text>
	<line x1="4790.64" y1="2766.66" x2="4790.64" y2="2811.54" style="stroke:#000000;stroke-width:6.48"/>
	<text x="4790.64" y="2912.86" style="font-family:'Helvetica';font-size:112.56px;fill:#000000" text-anchor="middle">2020m1</text>
	<text x="2675.36" y="3070.31" style="font-family:'Helvetica';font-size:112.56px;fill:#000000" text-anchor="middle">Period</text>
</svg>
