<?xml version="1.0" encoding="UTF-8" standalone="no"?>
<!-- This is a Stata 18.5 generated SVG file (http://www.stata.com) -->

<svg version="1.1" width="7.500in" height="4.500in" viewBox="0 0 5400 3240" xmlns="http://www.w3.org/2000/svg" xmlns:xlink="http://www.w3.org/1999/xlink">
	<desc>Stata Graph - G0a</desc>
	<rect x="0" y="0" width="5400" height="3240" style="fill:#FFFFFF;stroke:none"/>
	<rect x="0.00" y="0.00" width="5400.00" height="3240.00" style="fill:#FFFFFF"/>
	<rect x="3.24" y="3.24" width="5393.52" height="3233.52" style="fill:none;stroke:#FFFFFF;stroke-width:6.48"/>
	<rect x="396.06" y="113.40" width="2721.94" height="2653.26" style="fill:#FFFFFF"/>
	<rect x="399.30" y="116.64" width="2715.46" height="2646.78" style="fill:none;stroke:#FFFFFF;stroke-width:6.48"/>
	<line x1="396.06" y1="2695.28" x2="460.86" y2="2695.28" style="stroke:#F0F0F0;stroke-width:9.72"/>
	<line x1="493.26" y1="2695.28" x2="558.06" y2="2695.28" style="stroke:#F0F0F0;stroke-width:9.72"/>
	<line x1="590.46" y1="2695.28" x2="655.26" y2="2695.28" style="stroke:#F0F0F0;stroke-width:9.72"/>
	<line x1="687.66" y1="2695.28" x2="752.46" y2="2695.28" style="stroke:#F0F0F0;stroke-width:9.72"/>
	<line x1="784.86" y1="2695.28" x2="849.66" y2="2695.28" style="stroke:#F0F0F0;stroke-width:9.72"/>
	<line x1="882.06" y1="2695.28" x2="946.86" y2="2695.28" style="stroke:#F0F0F0;stroke-width:9.72"/>
	<line x1="979.26" y1="2695.28" x2="1044.06" y2="2695.28" style="stroke:#F0F0F0;stroke-width:9.72"/>
	<line x1="1076.46" y1="2695.28" x2="1141.26" y2="2695.28" style="stroke:#F0F0F0;stroke-width:9.72"/>
	<line x1="1173.66" y1="2695.28" x2="1238.46" y2="2695.28" style="stroke:#F0F0F0;stroke-width:9.72"/>
	<line x1="1270.86" y1="2695.28" x2="1335.66" y2="2695.28" style="stroke:#F0F0F0;stroke-width:9.72"/>
	<line x1="1368.06" y1="2695.28" x2="1432.86" y2="2695.28" style="stroke:#F0F0F0;stroke-width:9.72"/>
	<line x1="1465.26" y1="2695.28" x2="1530.06" y2="2695.28" style="stroke:#F0F0F0;stroke-width:9.72"/>
	<line x1="1562.46" y1="2695.28" x2="1627.26" y2="2695.28" style="stroke:#F0F0F0;stroke-width:9.72"/>
	<line x1="1659.66" y1="2695.28" x2="1724.46" y2="2695.28" style="stroke:#F0F0F0;stroke-width:9.72"/>
	<line x1="1756.86" y1="2695.28" x2="1821.66" y2="2695.28" style="stroke:#F0F0F0;stroke-width:9.72"/>
	<line x1="1854.06" y1="2695.28" x2="1918.86" y2="2695.28" style="stroke:#F0F0F0;stroke-width:9.72"/>
	<line x1="1951.26" y1="2695.28" x2="2016.06" y2="2695.28" style="stroke:#F0F0F0;stroke-width:9.72"/>
	<line x1="2048.46" y1="2695.28" x2="2113.26" y2="2695.28" style="stroke:#F0F0F0;stroke-width:9.72"/>
	<line x1="2145.66" y1="2695.28" x2="2210.46" y2="2695.28" style="stroke:#F0F0F0;stroke-width:9.72"/>
	<line x1="2242.86" y1="2695.28" x2="2307.66" y2="2695.28" style="stroke:#F0F0F0;stroke-width:9.72"/>
	<line x1="2340.06" y1="2695.28" x2="2404.86" y2="2695.28" style="stroke:#F0F0F0;stroke-width:9.72"/>
	<line x1="2437.26" y1="2695.28" x2="2502.06" y2="2695.28" style="stroke:#F0F0F0;stroke-width:9.72"/>
	<line x1="2534.46" y1="2695.28" x2="2599.26" y2="2695.28" style="stroke:#F0F0F0;stroke-width:9.72"/>
	<line x1="2631.66" y1="2695.28" x2="2696.46" y2="2695.28" style="stroke:#F0F0F0;stroke-width:9.72"/>
	<line x1="2728.86" y1="2695.28" x2="2793.66" y2="2695.28" style="stroke:#F0F0F0;stroke-width:9.72"/>
	<line x1="2826.06" y1="2695.28" x2="2890.86" y2="2695.28" style="stroke:#F0F0F0;stroke-width:9.72"/>
	<line x1="2923.26" y1="2695.28" x2="2988.06" y2="2695.28" style="stroke:#F0F0F0;stroke-width:9.72"/>
	<line x1="3020.46" y1="2695.28" x2="3085.26" y2="2695.28" style="stroke:#F0F0F0;stroke-width:9.72"/>
	<line x1="3117.66" y1="2695.28" x2="3117.99" y2="2695.28" style="stroke:#F0F0F0;stroke-width:9.72"/>
	<line x1="396.06" y1="2199.66" x2="460.86" y2="2199.66" style="stroke:#F0F0F0;stroke-width:9.72"/>
	<line x1="493.26" y1="2199.66" x2="558.06" y2="2199.66" style="stroke:#F0F0F0;stroke-width:9.72"/>
	<line x1="590.46" y1="2199.66" x2="655.26" y2="2199.66" style="stroke:#F0F0F0;stroke-width:9.72"/>
	<line x1="687.66" y1="2199.66" x2="752.46" y2="2199.66" style="stroke:#F0F0F0;stroke-width:9.72"/>
	<line x1="784.86" y1="2199.66" x2="849.66" y2="2199.66" style="stroke:#F0F0F0;stroke-width:9.72"/>
	<line x1="882.06" y1="2199.66" x2="946.86" y2="2199.66" style="stroke:#F0F0F0;stroke-width:9.72"/>
	<line x1="979.26" y1="2199.66" x2="1044.06" y2="2199.66" style="stroke:#F0F0F0;stroke-width:9.72"/>
	<line x1="1076.46" y1="2199.66" x2="1141.26" y2="2199.66" style="stroke:#F0F0F0;stroke-width:9.72"/>
	<line x1="1173.66" y1="2199.66" x2="1238.46" y2="2199.66" style="stroke:#F0F0F0;stroke-width:9.72"/>
	<line x1="1270.86" y1="2199.66" x2="1335.66" y2="2199.66" style="stroke:#F0F0F0;stroke-width:9.72"/>
	<line x1="1368.06" y1="2199.66" x2="1432.86" y2="2199.66" style="stroke:#F0F0F0;stroke-width:9.72"/>
	<line x1="1465.26" y1="2199.66" x2="1530.06" y2="2199.66" style="stroke:#F0F0F0;stroke-width:9.72"/>
	<line x1="1562.46" y1="2199.66" x2="1627.26" y2="2199.66" style="stroke:#F0F0F0;stroke-width:9.72"/>
	<line x1="1659.66" y1="2199.66" x2="1724.46" y2="2199.66" style="stroke:#F0F0F0;stroke-width:9.72"/>
	<line x1="1756.86" y1="2199.66" x2="1821.66" y2="2199.66" style="stroke:#F0F0F0;stroke-width:9.72"/>
	<line x1="1854.06" y1="2199.66" x2="1918.86" y2="2199.66" style="stroke:#F0F0F0;stroke-width:9.72"/>
	<line x1="1951.26" y1="2199.66" x2="2016.06" y2="2199.66" style="stroke:#F0F0F0;stroke-width:9.72"/>
	<line x1="2048.46" y1="2199.66" x2="2113.26" y2="2199.66" style="stroke:#F0F0F0;stroke-width:9.72"/>
	<line x1="2145.66" y1="2199.66" x2="2210.46" y2="2199.66" style="stroke:#F0F0F0;stroke-width:9.72"/>
	<line x1="2242.86" y1="2199.66" x2="2307.66" y2="2199.66" style="stroke:#F0F0F0;stroke-width:9.72"/>
	<line x1="2340.06" y1="2199.66" x2="2404.86" y2="2199.66" style="stroke:#F0F0F0;stroke-width:9.72"/>
	<line x1="2437.26" y1="2199.66" x2="2502.06" y2="2199.66" style="stroke:#F0F0F0;stroke-width:9.72"/>
	<line x1="2534.46" y1="2199.66" x2="2599.26" y2="2199.66" style="stroke:#F0F0F0;stroke-width:9.72"/>
	<line x1="2631.66" y1="2199.66" x2="2696.46" y2="2199.66" style="stroke:#F0F0F0;stroke-width:9.72"/>
	<line x1="2728.86" y1="2199.66" x2="2793.66" y2="2199.66" style="stroke:#F0F0F0;stroke-width:9.72"/>
	<line x1="2826.06" y1="2199.66" x2="2890.86" y2="2199.66" style="stroke:#F0F0F0;stroke-width:9.72"/>
	<line x1="2923.26" y1="2199.66" x2="2988.06" y2="2199.66" style="stroke:#F0F0F0;stroke-width:9.72"/>
	<line x1="3020.46" y1="2199.66" x2="3085.26" y2="2199.66" style="stroke:#F0F0F0;stroke-width:9.72"/>
	<line x1="3117.66" y1="2199.66" x2="3117.99" y2="2199.66" style="stroke:#F0F0F0;stroke-width:9.72"/>
	<line x1="396.06" y1="1704.21" x2="460.86" y2="1704.21" style="stroke:#F0F0F0;stroke-width:9.72"/>
	<line x1="493.26" y1="1704.21" x2="558.06" y2="1704.21" style="stroke:#F0F0F0;stroke-width:9.72"/>
	<line x1="590.46" y1="1704.21" x2="655.26" y2="1704.21" style="stroke:#F0F0F0;stroke-width:9.72"/>
	<line x1="687.66" y1="1704.21" x2="752.46" y2="1704.21" style="stroke:#F0F0F0;stroke-width:9.72"/>
	<line x1="784.86" y1="1704.21" x2="849.66" y2="1704.21" style="stroke:#F0F0F0;stroke-width:9.72"/>
	<line x1="882.06" y1="1704.21" x2="946.86" y2="1704.21" style="stroke:#F0F0F0;stroke-width:9.72"/>
	<line x1="979.26" y1="1704.21" x2="1044.06" y2="1704.21" style="stroke:#F0F0F0;stroke-width:9.72"/>
	<line x1="1076.46" y1="1704.21" x2="1141.26" y2="1704.21" style="stroke:#F0F0F0;stroke-width:9.72"/>
	<line x1="1173.66" y1="1704.21" x2="1238.46" y2="1704.21" style="stroke:#F0F0F0;stroke-width:9.72"/>
	<line x1="1270.86" y1="1704.21" x2="1335.66" y2="1704.21" style="stroke:#F0F0F0;stroke-width:9.72"/>
	<line x1="1368.06" y1="1704.21" x2="1432.86" y2="1704.21" style="stroke:#F0F0F0;stroke-width:9.72"/>
	<line x1="1465.26" y1="1704.21" x2="1530.06" y2="1704.21" style="stroke:#F0F0F0;stroke-width:9.72"/>
	<line x1="1562.46" y1="1704.21" x2="1627.26" y2="1704.21" style="stroke:#F0F0F0;stroke-width:9.72"/>
	<line x1="1659.66" y1="1704.21" x2="1724.46" y2="1704.21" style="stroke:#F0F0F0;stroke-width:9.72"/>
	<line x1="1756.86" y1="1704.21" x2="1821.66" y2="1704.21" style="stroke:#F0F0F0;stroke-width:9.72"/>
	<line x1="1854.06" y1="1704.21" x2="1918.86" y2="1704.21" style="stroke:#F0F0F0;stroke-width:9.72"/>
	<line x1="1951.26" y1="1704.21" x2="2016.06" y2="1704.21" style="stroke:#F0F0F0;stroke-width:9.72"/>
	<line x1="2048.46" y1="1704.21" x2="2113.26" y2="1704.21" style="stroke:#F0F0F0;stroke-width:9.72"/>
	<line x1="2145.66" y1="1704.21" x2="2210.46" y2="1704.21" style="stroke:#F0F0F0;stroke-width:9.72"/>
	<line x1="2242.86" y1="1704.21" x2="2307.66" y2="1704.21" style="stroke:#F0F0F0;stroke-width:9.72"/>
	<line x1="2340.06" y1="1704.21" x2="2404.86" y2="1704.21" style="stroke:#F0F0F0;stroke-width:9.72"/>
	<line x1="2437.26" y1="1704.21" x2="2502.06" y2="1704.21" style="stroke:#F0F0F0;stroke-width:9.72"/>
	<line x1="2534.46" y1="1704.21" x2="2599.26" y2="1704.21" style="stroke:#F0F0F0;stroke-width:9.72"/>
	<line x1="2631.66" y1="1704.21" x2="2696.46" y2="1704.21" style="stroke:#F0F0F0;stroke-width:9.72"/>
	<line x1="2728.86" y1="1704.21" x2="2793.66" y2="1704.21" style="stroke:#F0F0F0;stroke-width:9.72"/>
	<line x1="2826.06" y1="1704.21" x2="2890.86" y2="1704.21" style="stroke:#F0F0F0;stroke-width:9.72"/>
	<line x1="2923.26" y1="1704.21" x2="2988.06" y2="1704.21" style="stroke:#F0F0F0;stroke-width:9.72"/>
	<line x1="3020.46" y1="1704.21" x2="3085.26" y2="1704.21" style="stroke:#F0F0F0;stroke-width:9.72"/>
	<line x1="3117.66" y1="1704.21" x2="3117.99" y2="1704.21" style="stroke:#F0F0F0;stroke-width:9.72"/>
	<line x1="396.06" y1="1208.59" x2="460.86" y2="1208.59" style="stroke:#F0F0F0;stroke-width:9.72"/>
	<line x1="493.26" y1="1208.59" x2="558.06" y2="1208.59" style="stroke:#F0F0F0;stroke-width:9.72"/>
	<line x1="590.46" y1="1208.59" x2="655.26" y2="1208.59" style="stroke:#F0F0F0;stroke-width:9.72"/>
	<line x1="687.66" y1="1208.59" x2="752.46" y2="1208.59" style="stroke:#F0F0F0;stroke-width:9.72"/>
	<line x1="784.86" y1="1208.59" x2="849.66" y2="1208.59" style="stroke:#F0F0F0;stroke-width:9.72"/>
	<line x1="882.06" y1="1208.59" x2="946.86" y2="1208.59" style="stroke:#F0F0F0;stroke-width:9.72"/>
	<line x1="979.26" y1="1208.59" x2="1044.06" y2="1208.59" style="stroke:#F0F0F0;stroke-width:9.72"/>
	<line x1="1076.46" y1="1208.59" x2="1141.26" y2="1208.59" style="stroke:#F0F0F0;stroke-width:9.72"/>
	<line x1="1173.66" y1="1208.59" x2="1238.46" y2="1208.59" style="stroke:#F0F0F0;stroke-width:9.72"/>
	<line x1="1270.86" y1="1208.59" x2="1335.66" y2="1208.59" style="stroke:#F0F0F0;stroke-width:9.72"/>
	<line x1="1368.06" y1="1208.59" x2="1432.86" y2="1208.59" style="stroke:#F0F0F0;stroke-width:9.72"/>
	<line x1="1465.26" y1="1208.59" x2="1530.06" y2="1208.59" style="stroke:#F0F0F0;stroke-width:9.72"/>
	<line x1="1562.46" y1="1208.59" x2="1627.26" y2="1208.59" style="stroke:#F0F0F0;stroke-width:9.72"/>
	<line x1="1659.66" y1="1208.59" x2="1724.46" y2="1208.59" style="stroke:#F0F0F0;stroke-width:9.72"/>
	<line x1="1756.86" y1="1208.59" x2="1821.66" y2="1208.59" style="stroke:#F0F0F0;stroke-width:9.72"/>
	<line x1="1854.06" y1="1208.59" x2="1918.86" y2="1208.59" style="stroke:#F0F0F0;stroke-width:9.72"/>
	<line x1="1951.26" y1="1208.59" x2="2016.06" y2="1208.59" style="stroke:#F0F0F0;stroke-width:9.72"/>
	<line x1="2048.46" y1="1208.59" x2="2113.26" y2="1208.59" style="stroke:#F0F0F0;stroke-width:9.72"/>
	<line x1="2145.66" y1="1208.59" x2="2210.46" y2="1208.59" style="stroke:#F0F0F0;stroke-width:9.72"/>
	<line x1="2242.86" y1="1208.59" x2="2307.66" y2="1208.59" style="stroke:#F0F0F0;stroke-width:9.72"/>
	<line x1="2340.06" y1="1208.59" x2="2404.86" y2="1208.59" style="stroke:#F0F0F0;stroke-width:9.72"/>
	<line x1="2437.26" y1="1208.59" x2="2502.06" y2="1208.59" style="stroke:#F0F0F0;stroke-width:9.72"/>
	<line x1="2534.46" y1="1208.59" x2="2599.26" y2="1208.59" style="stroke:#F0F0F0;stroke-width:9.72"/>
	<line x1="2631.66" y1="1208.59" x2="2696.46" y2="1208.59" style="stroke:#F0F0F0;stroke-width:9.72"/>
	<line x1="2728.86" y1="1208.59" x2="2793.66" y2="1208.59" style="stroke:#F0F0F0;stroke-width:9.72"/>
	<line x1="2826.06" y1="1208.59" x2="2890.86" y2="1208.59" style="stroke:#F0F0F0;stroke-width:9.72"/>
	<line x1="2923.26" y1="1208.59" x2="2988.06" y2="1208.59" style="stroke:#F0F0F0;stroke-width:9.72"/>
	<line x1="3020.46" y1="1208.59" x2="3085.26" y2="1208.59" style="stroke:#F0F0F0;stroke-width:9.72"/>
	<line x1="3117.66" y1="1208.59" x2="3117.99" y2="1208.59" style="stroke:#F0F0F0;stroke-width:9.72"/>
	<line x1="396.06" y1="712.97" x2="460.86" y2="712.97" style="stroke:#F0F0F0;stroke-width:9.72"/>
	<line x1="493.26" y1="712.97" x2="558.06" y2="712.97" style="stroke:#F0F0F0;stroke-width:9.72"/>
	<line x1="590.46" y1="712.97" x2="655.26" y2="712.97" style="stroke:#F0F0F0;stroke-width:9.72"/>
	<line x1="687.66" y1="712.97" x2="752.46" y2="712.97" style="stroke:#F0F0F0;stroke-width:9.72"/>
	<line x1="784.86" y1="712.97" x2="849.66" y2="712.97" style="stroke:#F0F0F0;stroke-width:9.72"/>
	<line x1="882.06" y1="712.97" x2="946.86" y2="712.97" style="stroke:#F0F0F0;stroke-width:9.72"/>
	<line x1="979.26" y1="712.97" x2="1044.06" y2="712.97" style="stroke:#F0F0F0;stroke-width:9.72"/>
	<line x1="1076.46" y1="712.97" x2="1141.26" y2="712.97" style="stroke:#F0F0F0;stroke-width:9.72"/>
	<line x1="1173.66" y1="712.97" x2="1238.46" y2="712.97" style="stroke:#F0F0F0;stroke-width:9.72"/>
	<line x1="1270.86" y1="712.97" x2="1335.66" y2="712.97" style="stroke:#F0F0F0;stroke-width:9.72"/>
	<line x1="1368.06" y1="712.97" x2="1432.86" y2="712.97" style="stroke:#F0F0F0;stroke-width:9.72"/>
	<line x1="1465.26" y1="712.97" x2="1530.06" y2="712.97" style="stroke:#F0F0F0;stroke-width:9.72"/>
	<line x1="1562.46" y1="712.97" x2="1627.26" y2="712.97" style="stroke:#F0F0F0;stroke-width:9.72"/>
	<line x1="1659.66" y1="712.97" x2="1724.46" y2="712.97" style="stroke:#F0F0F0;stroke-width:9.72"/>
	<line x1="1756.86" y1="712.97" x2="1821.66" y2="712.97" style="stroke:#F0F0F0;stroke-width:9.72"/>
	<line x1="1854.06" y1="712.97" x2="1918.86" y2="712.97" style="stroke:#F0F0F0;stroke-width:9.72"/>
	<line x1="1951.26" y1="712.97" x2="2016.06" y2="712.97" style="stroke:#F0F0F0;stroke-width:9.72"/>
	<line x1="2048.46" y1="712.97" x2="2113.26" y2="712.97" style="stroke:#F0F0F0;stroke-width:9.72"/>
	<line x1="2145.66" y1="712.97" x2="2210.46" y2="712.97" style="stroke:#F0F0F0;stroke-width:9.72"/>
	<line x1="2242.86" y1="712.97" x2="2307.66" y2="712.97" style="stroke:#F0F0F0;stroke-width:9.72"/>
	<line x1="2340.06" y1="712.97" x2="2404.86" y2="712.97" style="stroke:#F0F0F0;stroke-width:9.72"/>
	<line x1="2437.26" y1="712.97" x2="2502.06" y2="712.97" style="stroke:#F0F0F0;stroke-width:9.72"/>
	<line x1="2534.46" y1="712.97" x2="2599.26" y2="712.97" style="stroke:#F0F0F0;stroke-width:9.72"/>
	<line x1="2631.66" y1="712.97" x2="2696.46" y2="712.97" style="stroke:#F0F0F0;stroke-width:9.72"/>
	<line x1="2728.86" y1="712.97" x2="2793.66" y2="712.97" style="stroke:#F0F0F0;stroke-width:9.72"/>
	<line x1="2826.06" y1="712.97" x2="2890.86" y2="712.97" style="stroke:#F0F0F0;stroke-width:9.72"/>
	<line x1="2923.26" y1="712.97" x2="2988.06" y2="712.97" style="stroke:#F0F0F0;stroke-width:9.72"/>
	<line x1="3020.46" y1="712.97" x2="3085.26" y2="712.97" style="stroke:#F0F0F0;stroke-width:9.72"/>
	<line x1="3117.66" y1="712.97" x2="3117.99" y2="712.97" style="stroke:#F0F0F0;stroke-width:9.72"/>
	<line x1="396.06" y1="217.35" x2="460.86" y2="217.35" style="stroke:#F0F0F0;stroke-width:9.72"/>
	<line x1="493.26" y1="217.35" x2="558.06" y2="217.35" style="stroke:#F0F0F0;stroke-width:9.72"/>
	<line x1="590.46" y1="217.35" x2="655.26" y2="217.35" style="stroke:#F0F0F0;stroke-width:9.72"/>
	<line x1="687.66" y1="217.35" x2="752.46" y2="217.35" style="stroke:#F0F0F0;stroke-width:9.72"/>
	<line x1="784.86" y1="217.35" x2="849.66" y2="217.35" style="stroke:#F0F0F0;stroke-width:9.72"/>
	<line x1="882.06" y1="217.35" x2="946.86" y2="217.35" style="stroke:#F0F0F0;stroke-width:9.72"/>
	<line x1="979.26" y1="217.35" x2="1044.06" y2="217.35" style="stroke:#F0F0F0;stroke-width:9.72"/>
	<line x1="1076.46" y1="217.35" x2="1141.26" y2="217.35" style="stroke:#F0F0F0;stroke-width:9.72"/>
	<line x1="1173.66" y1="217.35" x2="1238.46" y2="217.35" style="stroke:#F0F0F0;stroke-width:9.72"/>
	<line x1="1270.86" y1="217.35" x2="1335.66" y2="217.35" style="stroke:#F0F0F0;stroke-width:9.72"/>
	<line x1="1368.06" y1="217.35" x2="1432.86" y2="217.35" style="stroke:#F0F0F0;stroke-width:9.72"/>
	<line x1="1465.26" y1="217.35" x2="1530.06" y2="217.35" style="stroke:#F0F0F0;stroke-width:9.72"/>
	<line x1="1562.46" y1="217.35" x2="1627.26" y2="217.35" style="stroke:#F0F0F0;stroke-width:9.72"/>
	<line x1="1659.66" y1="217.35" x2="1724.46" y2="217.35" style="stroke:#F0F0F0;stroke-width:9.72"/>
	<line x1="1756.86" y1="217.35" x2="1821.66" y2="217.35" style="stroke:#F0F0F0;stroke-width:9.72"/>
	<line x1="1854.06" y1="217.35" x2="1918.86" y2="217.35" style="stroke:#F0F0F0;stroke-width:9.72"/>
	<line x1="1951.26" y1="217.35" x2="2016.06" y2="217.35" style="stroke:#F0F0F0;stroke-width:9.72"/>
	<line x1="2048.46" y1="217.35" x2="2113.26" y2="217.35" style="stroke:#F0F0F0;stroke-width:9.72"/>
	<line x1="2145.66" y1="217.35" x2="2210.46" y2="217.35" style="stroke:#F0F0F0;stroke-width:9.72"/>
	<line x1="2242.86" y1="217.35" x2="2307.66" y2="217.35" style="stroke:#F0F0F0;stroke-width:9.72"/>
	<line x1="2340.06" y1="217.35" x2="2404.86" y2="217.35" style="stroke:#F0F0F0;stroke-width:9.72"/>
	<line x1="2437.26" y1="217.35" x2="2502.06" y2="217.35" style="stroke:#F0F0F0;stroke-width:9.72"/>
	<line x1="2534.46" y1="217.35" x2="2599.26" y2="217.35" style="stroke:#F0F0F0;stroke-width:9.72"/>
	<line x1="2631.66" y1="217.35" x2="2696.46" y2="217.35" style="stroke:#F0F0F0;stroke-width:9.72"/>
	<line x1="2728.86" y1="217.35" x2="2793.66" y2="217.35" style="stroke:#F0F0F0;stroke-width:9.72"/>
	<line x1="2826.06" y1="217.35" x2="2890.86" y2="217.35" style="stroke:#F0F0F0;stroke-width:9.72"/>
	<line x1="2923.26" y1="217.35" x2="2988.06" y2="217.35" style="stroke:#F0F0F0;stroke-width:9.72"/>
	<line x1="3020.46" y1="217.35" x2="3085.26" y2="217.35" style="stroke:#F0F0F0;stroke-width:9.72"/>
	<line x1="3117.66" y1="217.35" x2="3117.99" y2="217.35" style="stroke:#F0F0F0;stroke-width:9.72"/>
	<line x1="467.27" y1="2766.66" x2="467.27" y2="2701.86" style="stroke:#F0F0F0;stroke-width:9.72"/>
	<line x1="467.27" y1="2669.46" x2="467.27" y2="2604.66" style="stroke:#F0F0F0;stroke-width:9.72"/>
	<line x1="467.27" y1="2572.26" x2="467.27" y2="2507.46" style="stroke:#F0F0F0;stroke-width:9.72"/>
	<line x1="467.27" y1="2475.06" x2="467.27" y2="2410.26" style="stroke:#F0F0F0;stroke-width:9.72"/>
	<line x1="467.27" y1="2377.86" x2="467.27" y2="2313.06" style="stroke:#F0F0F0;stroke-width:9.72"/>
	<line x1="467.27" y1="2280.66" x2="467.27" y2="2215.86" style="stroke:#F0F0F0;stroke-width:9.72"/>
	<line x1="467.27" y1="2183.46" x2="467.27" y2="2118.66" style="stroke:#F0F0F0;stroke-width:9.72"/>
	<line x1="467.27" y1="2086.26" x2="467.27" y2="2021.46" style="stroke:#F0F0F0;stroke-width:9.72"/>
	<line x1="467.27" y1="1989.06" x2="467.27" y2="1924.26" style="stroke:#F0F0F0;stroke-width:9.72"/>
	<line x1="467.27" y1="1891.86" x2="467.27" y2="1827.06" style="stroke:#F0F0F0;stroke-width:9.72"/>
	<line x1="467.27" y1="1794.66" x2="467.27" y2="1729.86" style="stroke:#F0F0F0;stroke-width:9.72"/>
	<line x1="467.27" y1="1697.46" x2="467.27" y2="1632.66" style="stroke:#F0F0F0;stroke-width:9.72"/>
	<line x1="467.27" y1="1600.26" x2="467.27" y2="1535.46" style="stroke:#F0F0F0;stroke-width:9.72"/>
	<line x1="467.27" y1="1503.06" x2="467.27" y2="1438.26" style="stroke:#F0F0F0;stroke-width:9.72"/>
	<line x1="467.27" y1="1405.86" x2="467.27" y2="1341.06" style="stroke:#F0F0F0;stroke-width:9.72"/>
	<line x1="467.27" y1="1308.66" x2="467.27" y2="1243.86" style="stroke:#F0F0F0;stroke-width:9.72"/>
	<line x1="467.27" y1="1211.46" x2="467.27" y2="1146.66" style="stroke:#F0F0F0;stroke-width:9.72"/>
	<line x1="467.27" y1="1114.26" x2="467.27" y2="1049.46" style="stroke:#F0F0F0;stroke-width:9.72"/>
	<line x1="467.27" y1="1017.06" x2="467.27" y2="952.26" style="stroke:#F0F0F0;stroke-width:9.72"/>
	<line x1="467.27" y1="919.86" x2="467.27" y2="855.06" style="stroke:#F0F0F0;stroke-width:9.72"/>
	<line x1="467.27" y1="822.66" x2="467.27" y2="757.86" style="stroke:#F0F0F0;stroke-width:9.72"/>
	<line x1="467.27" y1="725.46" x2="467.27" y2="660.66" style="stroke:#F0F0F0;stroke-width:9.72"/>
	<line x1="467.27" y1="628.26" x2="467.27" y2="563.46" style="stroke:#F0F0F0;stroke-width:9.72"/>
	<line x1="467.27" y1="531.06" x2="467.27" y2="466.26" style="stroke:#F0F0F0;stroke-width:9.72"/>
	<line x1="467.27" y1="433.86" x2="467.27" y2="369.06" style="stroke:#F0F0F0;stroke-width:9.72"/>
	<line x1="467.27" y1="336.66" x2="467.27" y2="271.86" style="stroke:#F0F0F0;stroke-width:9.72"/>
	<line x1="467.27" y1="239.46" x2="467.27" y2="174.66" style="stroke:#F0F0F0;stroke-width:9.72"/>
	<line x1="467.27" y1="142.26" x2="467.27" y2="113.40" style="stroke:#F0F0F0;stroke-width:9.72"/>
	<line x1="983.14" y1="2766.66" x2="983.14" y2="2701.86" style="stroke:#F0F0F0;stroke-width:9.72"/>
	<line x1="983.14" y1="2669.46" x2="983.14" y2="2604.66" style="stroke:#F0F0F0;stroke-width:9.72"/>
	<line x1="983.14" y1="2572.26" x2="983.14" y2="2507.46" style="stroke:#F0F0F0;stroke-width:9.72"/>
	<line x1="983.14" y1="2475.06" x2="983.14" y2="2410.26" style="stroke:#F0F0F0;stroke-width:9.72"/>
	<line x1="983.14" y1="2377.86" x2="983.14" y2="2313.06" style="stroke:#F0F0F0;stroke-width:9.72"/>
	<line x1="983.14" y1="2280.66" x2="983.14" y2="2215.86" style="stroke:#F0F0F0;stroke-width:9.72"/>
	<line x1="983.14" y1="2183.46" x2="983.14" y2="2118.66" style="stroke:#F0F0F0;stroke-width:9.72"/>
	<line x1="983.14" y1="2086.26" x2="983.14" y2="2021.46" style="stroke:#F0F0F0;stroke-width:9.72"/>
	<line x1="983.14" y1="1989.06" x2="983.14" y2="1924.26" style="stroke:#F0F0F0;stroke-width:9.72"/>
	<line x1="983.14" y1="1891.86" x2="983.14" y2="1827.06" style="stroke:#F0F0F0;stroke-width:9.72"/>
	<line x1="983.14" y1="1794.66" x2="983.14" y2="1729.86" style="stroke:#F0F0F0;stroke-width:9.72"/>
	<line x1="983.14" y1="1697.46" x2="983.14" y2="1632.66" style="stroke:#F0F0F0;stroke-width:9.72"/>
	<line x1="983.14" y1="1600.26" x2="983.14" y2="1535.46" style="stroke:#F0F0F0;stroke-width:9.72"/>
	<line x1="983.14" y1="1503.06" x2="983.14" y2="1438.26" style="stroke:#F0F0F0;stroke-width:9.72"/>
	<line x1="983.14" y1="1405.86" x2="983.14" y2="1341.06" style="stroke:#F0F0F0;stroke-width:9.72"/>
	<line x1="983.14" y1="1308.66" x2="983.14" y2="1243.86" style="stroke:#F0F0F0;stroke-width:9.72"/>
	<line x1="983.14" y1="1211.46" x2="983.14" y2="1146.66" style="stroke:#F0F0F0;stroke-width:9.72"/>
	<line x1="983.14" y1="1114.26" x2="983.14" y2="1049.46" style="stroke:#F0F0F0;stroke-width:9.72"/>
	<line x1="983.14" y1="1017.06" x2="983.14" y2="952.26" style="stroke:#F0F0F0;stroke-width:9.72"/>
	<line x1="983.14" y1="919.86" x2="983.14" y2="855.06" style="stroke:#F0F0F0;stroke-width:9.72"/>
	<line x1="983.14" y1="822.66" x2="983.14" y2="757.86" style="stroke:#F0F0F0;stroke-width:9.72"/>
	<line x1="983.14" y1="725.46" x2="983.14" y2="660.66" style="stroke:#F0F0F0;stroke-width:9.72"/>
	<line x1="983.14" y1="628.26" x2="983.14" y2="563.46" style="stroke:#F0F0F0;stroke-width:9.72"/>
	<line x1="983.14" y1="531.06" x2="983.14" y2="466.26" style="stroke:#F0F0F0;stroke-width:9.72"/>
	<line x1="983.14" y1="433.86" x2="983.14" y2="369.06" style="stroke:#F0F0F0;stroke-width:9.72"/>
	<line x1="983.14" y1="336.66" x2="983.14" y2="271.86" style="stroke:#F0F0F0;stroke-width:9.72"/>
	<line x1="983.14" y1="239.46" x2="983.14" y2="174.66" style="stroke:#F0F0F0;stroke-width:9.72"/>
	<line x1="983.14" y1="142.26" x2="983.14" y2="113.40" style="stroke:#F0F0F0;stroke-width:9.72"/>
	<line x1="1499.18" y1="2766.66" x2="1499.18" y2="2701.86" style="stroke:#F0F0F0;stroke-width:9.72"/>
	<line x1="1499.18" y1="2669.46" x2="1499.18" y2="2604.66" style="stroke:#F0F0F0;stroke-width:9.72"/>
	<line x1="1499.18" y1="2572.26" x2="1499.18" y2="2507.46" style="stroke:#F0F0F0;stroke-width:9.72"/>
	<line x1="1499.18" y1="2475.06" x2="1499.18" y2="2410.26" style="stroke:#F0F0F0;stroke-width:9.72"/>
	<line x1="1499.18" y1="2377.86" x2="1499.18" y2="2313.06" style="stroke:#F0F0F0;stroke-width:9.72"/>
	<line x1="1499.18" y1="2280.66" x2="1499.18" y2="2215.86" style="stroke:#F0F0F0;stroke-width:9.72"/>
	<line x1="1499.18" y1="2183.46" x2="1499.18" y2="2118.66" style="stroke:#F0F0F0;stroke-width:9.72"/>
	<line x1="1499.18" y1="2086.26" x2="1499.18" y2="2021.46" style="stroke:#F0F0F0;stroke-width:9.72"/>
	<line x1="1499.18" y1="1989.06" x2="1499.18" y2="1924.26" style="stroke:#F0F0F0;stroke-width:9.72"/>
	<line x1="1499.18" y1="1891.86" x2="1499.18" y2="1827.06" style="stroke:#F0F0F0;stroke-width:9.72"/>
	<line x1="1499.18" y1="1794.66" x2="1499.18" y2="1729.86" style="stroke:#F0F0F0;stroke-width:9.72"/>
	<line x1="1499.18" y1="1697.46" x2="1499.18" y2="1632.66" style="stroke:#F0F0F0;stroke-width:9.72"/>
	<line x1="1499.18" y1="1600.26" x2="1499.18" y2="1535.46" style="stroke:#F0F0F0;stroke-width:9.72"/>
	<line x1="1499.18" y1="1503.06" x2="1499.18" y2="1438.26" style="stroke:#F0F0F0;stroke-width:9.72"/>
	<line x1="1499.18" y1="1405.86" x2="1499.18" y2="1341.06" style="stroke:#F0F0F0;stroke-width:9.72"/>
	<line x1="1499.18" y1="1308.66" x2="1499.18" y2="1243.86" style="stroke:#F0F0F0;stroke-width:9.72"/>
	<line x1="1499.18" y1="1211.46" x2="1499.18" y2="1146.66" style="stroke:#F0F0F0;stroke-width:9.72"/>
	<line x1="1499.18" y1="1114.26" x2="1499.18" y2="1049.46" style="stroke:#F0F0F0;stroke-width:9.72"/>
	<line x1="1499.18" y1="1017.06" x2="1499.18" y2="952.26" style="stroke:#F0F0F0;stroke-width:9.72"/>
	<line x1="1499.18" y1="919.86" x2="1499.18" y2="855.06" style="stroke:#F0F0F0;stroke-width:9.72"/>
	<line x1="1499.18" y1="822.66" x2="1499.18" y2="757.86" style="stroke:#F0F0F0;stroke-width:9.72"/>
	<line x1="1499.18" y1="725.46" x2="1499.18" y2="660.66" style="stroke:#F0F0F0;stroke-width:9.72"/>
	<line x1="1499.18" y1="628.26" x2="1499.18" y2="563.46" style="stroke:#F0F0F0;stroke-width:9.72"/>
	<line x1="1499.18" y1="531.06" x2="1499.18" y2="466.26" style="stroke:#F0F0F0;stroke-width:9.72"/>
	<line x1="1499.18" y1="433.86" x2="1499.18" y2="369.06" style="stroke:#F0F0F0;stroke-width:9.72"/>
	<line x1="1499.18" y1="336.66" x2="1499.18" y2="271.86" style="stroke:#F0F0F0;stroke-width:9.72"/>
	<line x1="1499.18" y1="239.46" x2="1499.18" y2="174.66" style="stroke:#F0F0F0;stroke-width:9.72"/>
	<line x1="1499.18" y1="142.26" x2="1499.18" y2="113.40" style="stroke:#F0F0F0;stroke-width:9.72"/>
	<line x1="2015.04" y1="2766.66" x2="2015.04" y2="2701.86" style="stroke:#F0F0F0;stroke-width:9.72"/>
	<line x1="2015.04" y1="2669.46" x2="2015.04" y2="2604.66" style="stroke:#F0F0F0;stroke-width:9.72"/>
	<line x1="2015.04" y1="2572.26" x2="2015.04" y2="2507.46" style="stroke:#F0F0F0;stroke-width:9.72"/>
	<line x1="2015.04" y1="2475.06" x2="2015.04" y2="2410.26" style="stroke:#F0F0F0;stroke-width:9.72"/>
	<line x1="2015.04" y1="2377.86" x2="2015.04" y2="2313.06" style="stroke:#F0F0F0;stroke-width:9.72"/>
	<line x1="2015.04" y1="2280.66" x2="2015.04" y2="2215.86" style="stroke:#F0F0F0;stroke-width:9.72"/>
	<line x1="2015.04" y1="2183.46" x2="2015.04" y2="2118.66" style="stroke:#F0F0F0;stroke-width:9.72"/>
	<line x1="2015.04" y1="2086.26" x2="2015.04" y2="2021.46" style="stroke:#F0F0F0;stroke-width:9.72"/>
	<line x1="2015.04" y1="1989.06" x2="2015.04" y2="1924.26" style="stroke:#F0F0F0;stroke-width:9.72"/>
	<line x1="2015.04" y1="1891.86" x2="2015.04" y2="1827.06" style="stroke:#F0F0F0;stroke-width:9.72"/>
	<line x1="2015.04" y1="1794.66" x2="2015.04" y2="1729.86" style="stroke:#F0F0F0;stroke-width:9.72"/>
	<line x1="2015.04" y1="1697.46" x2="2015.04" y2="1632.66" style="stroke:#F0F0F0;stroke-width:9.72"/>
	<line x1="2015.04" y1="1600.26" x2="2015.04" y2="1535.46" style="stroke:#F0F0F0;stroke-width:9.72"/>
	<line x1="2015.04" y1="1503.06" x2="2015.04" y2="1438.26" style="stroke:#F0F0F0;stroke-width:9.72"/>
	<line x1="2015.04" y1="1405.86" x2="2015.04" y2="1341.06" style="stroke:#F0F0F0;stroke-width:9.72"/>
	<line x1="2015.04" y1="1308.66" x2="2015.04" y2="1243.86" style="stroke:#F0F0F0;stroke-width:9.72"/>
	<line x1="2015.04" y1="1211.46" x2="2015.04" y2="1146.66" style="stroke:#F0F0F0;stroke-width:9.72"/>
	<line x1="2015.04" y1="1114.26" x2="2015.04" y2="1049.46" style="stroke:#F0F0F0;stroke-width:9.72"/>
	<line x1="2015.04" y1="1017.06" x2="2015.04" y2="952.26" style="stroke:#F0F0F0;stroke-width:9.72"/>
	<line x1="2015.04" y1="919.86" x2="2015.04" y2="855.06" style="stroke:#F0F0F0;stroke-width:9.72"/>
	<line x1="2015.04" y1="822.66" x2="2015.04" y2="757.86" style="stroke:#F0F0F0;stroke-width:9.72"/>
	<line x1="2015.04" y1="725.46" x2="2015.04" y2="660.66" style="stroke:#F0F0F0;stroke-width:9.72"/>
	<line x1="2015.04" y1="628.26" x2="2015.04" y2="563.46" style="stroke:#F0F0F0;stroke-width:9.72"/>
	<line x1="2015.04" y1="531.06" x2="2015.04" y2="466.26" style="stroke:#F0F0F0;stroke-width:9.72"/>
	<line x1="2015.04" y1="433.86" x2="2015.04" y2="369.06" style="stroke:#F0F0F0;stroke-width:9.72"/>
	<line x1="2015.04" y1="336.66" x2="2015.04" y2="271.86" style="stroke:#F0F0F0;stroke-width:9.72"/>
	<line x1="2015.04" y1="239.46" x2="2015.04" y2="174.66" style="stroke:#F0F0F0;stroke-width:9.72"/>
	<line x1="2015.04" y1="142.26" x2="2015.04" y2="113.40" style="stroke:#F0F0F0;stroke-width:9.72"/>
	<line x1="2530.91" y1="2766.66" x2="2530.91" y2="2701.86" style="stroke:#F0F0F0;stroke-width:9.72"/>
	<line x1="2530.91" y1="2669.46" x2="2530.91" y2="2604.66" style="stroke:#F0F0F0;stroke-width:9.72"/>
	<line x1="2530.91" y1="2572.26" x2="2530.91" y2="2507.46" style="stroke:#F0F0F0;stroke-width:9.72"/>
	<line x1="2530.91" y1="2475.06" x2="2530.91" y2="2410.26" style="stroke:#F0F0F0;stroke-width:9.72"/>
	<line x1="2530.91" y1="2377.86" x2="2530.91" y2="2313.06" style="stroke:#F0F0F0;stroke-width:9.72"/>
	<line x1="2530.91" y1="2280.66" x2="2530.91" y2="2215.86" style="stroke:#F0F0F0;stroke-width:9.72"/>
	<line x1="2530.91" y1="2183.46" x2="2530.91" y2="2118.66" style="stroke:#F0F0F0;stroke-width:9.72"/>
	<line x1="2530.91" y1="2086.26" x2="2530.91" y2="2021.46" style="stroke:#F0F0F0;stroke-width:9.72"/>
	<line x1="2530.91" y1="1989.06" x2="2530.91" y2="1924.26" style="stroke:#F0F0F0;stroke-width:9.72"/>
	<line x1="2530.91" y1="1891.86" x2="2530.91" y2="1827.06" style="stroke:#F0F0F0;stroke-width:9.72"/>
	<line x1="2530.91" y1="1794.66" x2="2530.91" y2="1729.86" style="stroke:#F0F0F0;stroke-width:9.72"/>
	<line x1="2530.91" y1="1697.46" x2="2530.91" y2="1632.66" style="stroke:#F0F0F0;stroke-width:9.72"/>
	<line x1="2530.91" y1="1600.26" x2="2530.91" y2="1535.46" style="stroke:#F0F0F0;stroke-width:9.72"/>
	<line x1="2530.91" y1="1503.06" x2="2530.91" y2="1438.26" style="stroke:#F0F0F0;stroke-width:9.72"/>
	<line x1="2530.91" y1="1405.86" x2="2530.91" y2="1341.06" style="stroke:#F0F0F0;stroke-width:9.72"/>
	<line x1="2530.91" y1="1308.66" x2="2530.91" y2="1243.86" style="stroke:#F0F0F0;stroke-width:9.72"/>
	<line x1="2530.91" y1="1211.46" x2="2530.91" y2="1146.66" style="stroke:#F0F0F0;stroke-width:9.72"/>
	<line x1="2530.91" y1="1114.26" x2="2530.91" y2="1049.46" style="stroke:#F0F0F0;stroke-width:9.72"/>
	<line x1="2530.91" y1="1017.06" x2="2530.91" y2="952.26" style="stroke:#F0F0F0;stroke-width:9.72"/>
	<line x1="2530.91" y1="919.86" x2="2530.91" y2="855.06" style="stroke:#F0F0F0;stroke-width:9.72"/>
	<line x1="2530.91" y1="822.66" x2="2530.91" y2="757.86" style="stroke:#F0F0F0;stroke-width:9.72"/>
	<line x1="2530.91" y1="725.46" x2="2530.91" y2="660.66" style="stroke:#F0F0F0;stroke-width:9.72"/>
	<line x1="2530.91" y1="628.26" x2="2530.91" y2="563.46" style="stroke:#F0F0F0;stroke-width:9.72"/>
	<line x1="2530.91" y1="531.06" x2="2530.91" y2="466.26" style="stroke:#F0F0F0;stroke-width:9.72"/>
	<line x1="2530.91" y1="433.86" x2="2530.91" y2="369.06" style="stroke:#F0F0F0;stroke-width:9.72"/>
	<line x1="2530.91" y1="336.66" x2="2530.91" y2="271.86" style="stroke:#F0F0F0;stroke-width:9.72"/>
	<line x1="2530.91" y1="239.46" x2="2530.91" y2="174.66" style="stroke:#F0F0F0;stroke-width:9.72"/>
	<line x1="2530.91" y1="142.26" x2="2530.91" y2="113.40" style="stroke:#F0F0F0;stroke-width:9.72"/>
	<line x1="3046.78" y1="2766.66" x2="3046.78" y2="2701.86" style="stroke:#F0F0F0;stroke-width:9.72"/>
	<line x1="3046.78" y1="2669.46" x2="3046.78" y2="2604.66" style="stroke:#F0F0F0;stroke-width:9.72"/>
	<line x1="3046.78" y1="2572.26" x2="3046.78" y2="2507.46" style="stroke:#F0F0F0;stroke-width:9.72"/>
	<line x1="3046.78" y1="2475.06" x2="3046.78" y2="2410.26" style="stroke:#F0F0F0;stroke-width:9.72"/>
	<line x1="3046.78" y1="2377.86" x2="3046.78" y2="2313.06" style="stroke:#F0F0F0;stroke-width:9.72"/>
	<line x1="3046.78" y1="2280.66" x2="3046.78" y2="2215.86" style="stroke:#F0F0F0;stroke-width:9.72"/>
	<line x1="3046.78" y1="2183.46" x2="3046.78" y2="2118.66" style="stroke:#F0F0F0;stroke-width:9.72"/>
	<line x1="3046.78" y1="2086.26" x2="3046.78" y2="2021.46" style="stroke:#F0F0F0;stroke-width:9.72"/>
	<line x1="3046.78" y1="1989.06" x2="3046.78" y2="1924.26" style="stroke:#F0F0F0;stroke-width:9.72"/>
	<line x1="3046.78" y1="1891.86" x2="3046.78" y2="1827.06" style="stroke:#F0F0F0;stroke-width:9.72"/>
	<line x1="3046.78" y1="1794.66" x2="3046.78" y2="1729.86" style="stroke:#F0F0F0;stroke-width:9.72"/>
	<line x1="3046.78" y1="1697.46" x2="3046.78" y2="1632.66" style="stroke:#F0F0F0;stroke-width:9.72"/>
	<line x1="3046.78" y1="1600.26" x2="3046.78" y2="1535.46" style="stroke:#F0F0F0;stroke-width:9.72"/>
	<line x1="3046.78" y1="1503.06" x2="3046.78" y2="1438.26" style="stroke:#F0F0F0;stroke-width:9.72"/>
	<line x1="3046.78" y1="1405.86" x2="3046.78" y2="1341.06" style="stroke:#F0F0F0;stroke-width:9.72"/>
	<line x1="3046.78" y1="1308.66" x2="3046.78" y2="1243.86" style="stroke:#F0F0F0;stroke-width:9.72"/>
	<line x1="3046.78" y1="1211.46" x2="3046.78" y2="1146.66" style="stroke:#F0F0F0;stroke-width:9.72"/>
	<line x1="3046.78" y1="1114.26" x2="3046.78" y2="1049.46" style="stroke:#F0F0F0;stroke-width:9.72"/>
	<line x1="3046.78" y1="1017.06" x2="3046.78" y2="952.26" style="stroke:#F0F0F0;stroke-width:9.72"/>
	<line x1="3046.78" y1="919.86" x2="3046.78" y2="855.06" style="stroke:#F0F0F0;stroke-width:9.72"/>
	<line x1="3046.78" y1="822.66" x2="3046.78" y2="757.86" style="stroke:#F0F0F0;stroke-width:9.72"/>
	<line x1="3046.78" y1="725.46" x2="3046.78" y2="660.66" style="stroke:#F0F0F0;stroke-width:9.72"/>
	<line x1="3046.78" y1="628.26" x2="3046.78" y2="563.46" style="stroke:#F0F0F0;stroke-width:9.72"/>
	<line x1="3046.78" y1="531.06" x2="3046.78" y2="466.26" style="stroke:#F0F0F0;stroke-width:9.72"/>
	<line x1="3046.78" y1="433.86" x2="3046.78" y2="369.06" style="stroke:#F0F0F0;stroke-width:9.72"/>
	<line x1="3046.78" y1="336.66" x2="3046.78" y2="271.86" style="stroke:#F0F0F0;stroke-width:9.72"/>
	<line x1="3046.78" y1="239.46" x2="3046.78" y2="174.66" style="stroke:#F0F0F0;stroke-width:9.72"/>
	<line x1="3046.78" y1="142.26" x2="3046.78" y2="113.40" style="stroke:#F0F0F0;stroke-width:9.72"/>
	<path d=" M570.38 1133.66 L578.98 963.39 L587.59 1296.17 L596.19 1432.52 L604.80 1105.82 L613.41 1855.58 L622.01 1536.81 L630.62 867.71 L639.23 1619.83 L647.83 1607.68 L656.44 1461.88 L665.04 1561.95 L673.65 1224.45 L682.26 1652.57 L690.86 1055.53 L699.47 846.96 L708.08 1210.44 L716.51 1203.19 L725.12 1353.71 L733.73 925.43 L742.33 963.06 L750.94 1327.89 L759.54 1578.32 L768.15 522.96 L776.76 901.29 L785.36 370.07 L793.97 1163.19 L802.58 1077.81 L811.18 897.75 L819.79 1211.79 L828.39 360.45 L837.00 1204.20 L845.61 335.64 L854.21 952.93 L862.82 480.09 L871.43 1246.56 L880.03 872.44 L888.64 1271.03 L897.08 1348.31 L905.68 947.03 L914.29 1031.06 L922.89 737.27 L931.50 1711.13 L940.11 1655.44 L948.71 1361.64 L957.32 1645.99 L965.93 1704.21 L974.53 1555.20 L983.14 2021.96 L991.74 1834.14 L1000.35 1901.64 L1008.96 1675.18 L1017.56 1866.04 L1026.17 1905.36 L1034.78 1800.23 L1043.38 1867.39 L1051.99 1854.73 L1060.59 1540.86 L1069.20 1495.13 L1077.64 1789.09 L1086.24 1607.85 L1094.85 1638.90 L1103.46 1707.58 L1112.06 1658.98 L1120.67 1572.08 L1129.28 1610.89 L1137.88 1676.03 L1146.49 1428.47 L1155.09 1488.21 L1163.70 1292.12 L1172.31 1388.98 L1180.91 1443.83 L1189.52 1411.09 L1198.13 1433.03 L1206.73 1591.82 L1215.34 2034.79 L1223.94 2542.39 L1232.55 2669.12 L1241.16 2637.39 L1249.76 2619.84 L1258.20 2685.15 L1266.81 1845.62 L1275.41 1502.21 L1284.02 1421.04 L1292.63 1732.05 L1301.23 1504.24 L1309.84 1485.34 L1318.44 1517.40 L1327.05 1021.11 L1335.66 1761.08 L1344.26 1671.13 L1352.87 1596.71 L1361.48 1725.30 L1370.08 1736.10 L1378.69 1875.32 L1387.29 1947.54 L1395.90 1892.36 L1404.51 1987.54 L1413.11 1854.90 L1421.72 1982.31 L1430.33 1947.38 L1438.76 1779.81 L1447.37 1913.46 L1455.98 1712.98 L1464.58 1551.49 L1473.19 1615.95 L1481.79 1575.62 L1490.40 1707.92 L1499.01 1698.30 L1507.61 1372.28 L1516.22 1555.20 L1524.83 1507.61 L1533.43 1569.54 L1542.04 1518.92 L1550.64 1070.04 L1559.25 1163.70 L1567.86 1307.31 L1576.46 1151.72 L1585.07 1290.94 L1593.68 1493.10 L1602.28 1462.05 L1610.89 1493.27 L1619.33 1518.24 L1627.93 1670.96 L1636.54 1520.27 L1645.14 1439.44 L1653.75 1524.49 L1662.36 1502.72 L1670.96 1510.31 L1679.57 1599.92 L1688.18 1619.83 L1696.78 1658.31 L1705.39 1696.78 L1713.99 1597.05 L1722.60 1606.67 L1731.21 1617.13 L1739.81 1699.65 L1748.42 1594.69 L1757.03 1757.70 L1765.63 1694.25 L1774.24 1234.41 L1782.84 1425.43 L1791.45 1757.19 L1799.89 1759.89 L1808.49 1708.43 L1817.10 1698.81 L1825.71 1755.68 L1834.31 1773.39 L1842.92 1672.48 L1851.53 1711.13 L1860.13 1663.54 L1868.74 1641.77 L1877.34 1765.13 L1885.95 1427.12 L1894.56 1217.87 L1903.16 1404.34 L1911.77 1421.38 L1920.38 1511.66 L1928.98 1526.51 L1937.59 2054.87 L1946.19 2110.89 L1954.80 1980.62 L1963.41 2101.11 L1972.01 2088.11 L1980.45 2055.21 L1989.06 2073.43 L1997.66 2065.67 L2006.27 2043.56 L2014.88 2068.71 L2023.48 2053.86 L2032.09 2136.04 L2040.69 2153.08 L2049.30 2040.53 L2057.91 1978.09 L2066.51 1957.50 L2075.12 1857.60 L2083.73 1998.00 L2092.33 1953.79 L2100.94 2092.84 L2109.54 2081.19 L2118.15 2065.50 L2126.76 2087.10 L2135.36 2053.18 L2143.97 2046.09 L2152.57 1958.01 L2161.01 2007.96 L2169.62 1997.49 L2178.23 1877.68 L2186.83 1848.32 L2195.44 1976.40 L2204.04 1913.79 L2212.65 1887.47 L2221.26 1895.57 L2229.86 1967.12 L2238.47 1943.16 L2247.07 1866.21 L2255.68 1882.58 L2264.29 1351.86 L2272.89 1376.16 L2281.50 1446.86 L2290.11 1732.56 L2298.71 1684.13 L2307.32 1523.14 L2315.93 1597.05 L2324.53 1622.53 L2333.14 1684.29 L2341.57 1734.58 L2350.18 1702.52 L2358.79 1944.00 L2367.39 1881.23 L2376.00 1789.43 L2384.61 1836.17 L2393.21 1970.49 L2401.82 1763.61 L2410.43 1740.15 L2419.03 1592.33 L2427.64 1716.02 L2436.24 1293.97 L2444.85 1728.00 L2453.46 1795.84 L2462.06 1672.82 L2470.67 1730.36 L2479.28 1764.62 L2487.88 1597.56 L2496.49 1865.19 L2505.09 1731.38 L2513.70 1444.67 L2522.14 1641.43 L2530.74 834.47 L2539.35 551.64 L2547.96 1050.13 L2556.56 1452.09 L2565.17 1550.48 L2573.78 1326.38 L2582.38 1291.78 L2590.99 1403.66 L2599.59 1563.81 L2608.20 1468.29 L2616.81 1647.84 L2625.41 1025.16 L2634.02 1219.72 L2642.63 1449.39 L2651.23 1442.64 L2659.84 1241.66 L2668.44 1475.55 L2677.05 1336.84 L2685.66 748.74 L2694.26 1226.31 L2702.70 1489.89 L2711.31 1447.71 L2719.91 1434.54 L2728.52 1403.83 L2737.13 1149.69 L2745.73 1279.29 L2754.34 1480.78 L2762.94 1561.44 L2771.55 1546.26 L2780.16 1644.47 L2788.76 1586.93 L2797.37 1540.69 L2805.98 1746.23 L2814.58 1507.78 L2823.19 1655.27 L2831.79 1517.06 L2840.40 1593.17 L2849.01 1743.53 L2857.61 1816.09 L2866.22 1857.09 L2874.83 1711.46 L2883.43 1562.63 L2891.87 1497.83 L2900.48 1571.57 L2909.08 1648.52 L2917.69 1618.14 L2926.29 1758.21 L2934.90 1468.80 L2943.51 1320.81 L2952.11 1152.22 L2960.72 1384.09 L2969.33 1594.86 L2977.93 1147.33 L2986.54 1451.08 L2995.14 1575.96 L3003.75 1698.13 L3012.36 1660.67 L3020.96 1142.94 L3029.57 1568.53 L3038.18 1046.59" stroke-linejoin="round" style="fill:none;stroke:#1A85FF;stroke-width:9.72"/>
	<path d=" M570.38 2157.13 L578.98 2353.22 L587.59 2486.36 L596.19 2318.29 L604.80 1965.09 L613.41 2565.34 L622.01 2193.75 L630.62 2459.19 L639.23 2303.27 L647.83 2434.73 L656.44 2343.09 L665.04 2559.43 L673.65 2325.38 L682.26 2443.67 L690.86 2391.53 L699.47 2410.43 L708.08 2135.36 L716.51 2511.17 L725.12 2085.58 L733.73 2325.71 L742.33 2485.86 L750.94 2418.36 L759.54 2160.84 L768.15 2593.35 L776.76 2221.09 L785.36 2254.67 L793.97 1823.18 L802.58 2442.49 L811.18 2044.07 L819.79 2295.00 L828.39 2233.57 L837.00 1646.49 L845.61 2440.13 L854.21 2144.64 L862.82 2106.84 L871.43 2168.10 L880.03 2213.16 L888.64 1736.94 L897.08 2570.40 L905.68 2148.86 L914.29 1747.41 L922.89 2621.36 L931.50 2534.29 L940.11 2295.34 L948.71 2665.58 L957.32 2226.49 L965.93 2481.64 L974.53 2621.19 L983.14 2584.07 L991.74 2272.39 L1000.35 2677.56 L1008.96 2621.87 L1017.56 2012.34 L1026.17 1959.02 L1034.78 1749.43 L1043.38 1759.39 L1051.99 1638.06 L1060.59 1474.03 L1069.20 1262.76 L1077.64 1776.94 L1086.24 1650.88 L1094.85 1682.78 L1103.46 1541.19 L1112.06 1491.08 L1120.67 1628.44 L1129.28 1720.07 L1137.88 1649.70 L1146.49 1542.88 L1155.09 1447.54 L1163.70 1021.28 L1172.31 1359.79 L1180.91 1421.38 L1189.52 1490.57 L1198.13 1492.43 L1206.73 1603.63 L1215.34 1958.01 L1223.94 2551.33 L1232.55 2662.37 L1241.16 2620.52 L1249.76 2608.03 L1258.20 2663.04 L1266.81 1796.01 L1275.41 665.21 L1284.02 1307.64 L1292.63 1314.73 L1301.23 1119.15 L1309.84 1088.61 L1318.44 363.66 L1327.05 934.20 L1335.66 1578.32 L1344.26 1767.32 L1352.87 1564.65 L1361.48 1590.30 L1370.08 1589.63 L1378.69 1980.11 L1387.29 2021.12 L1395.90 1921.05 L1404.51 2020.28 L1413.11 1956.15 L1421.72 2061.45 L1430.33 1845.28 L1438.76 1828.58 L1447.37 2078.32 L1455.98 1571.91 L1464.58 1537.82 L1473.19 1543.56 L1481.79 1169.94 L1490.40 1524.66 L1499.01 1820.64 L1507.61 1623.54 L1516.22 1551.66 L1524.83 1723.95 L1533.43 1633.67 L1542.04 1494.28 L1550.64 981.28 L1559.25 1188.00 L1567.86 751.61 L1576.46 1480.11 L1585.07 1311.53 L1593.68 1262.25 L1602.28 1436.74 L1610.89 1280.98 L1619.33 1523.98 L1627.93 1381.56 L1636.54 1382.57 L1645.14 1314.23 L1653.75 1329.08 L1662.36 1475.55 L1670.96 1583.89 L1679.57 1725.30 L1688.18 1741.50 L1696.78 1622.03 L1705.39 1771.54 L1713.99 1678.89 L1722.60 1627.76 L1731.21 1596.88 L1739.81 1628.94 L1748.42 1311.02 L1757.03 1784.53 L1765.63 1565.33 L1774.24 880.20 L1782.84 1197.11 L1791.45 1678.22 L1799.89 1702.35 L1808.49 1535.79 L1817.10 1682.61 L1825.71 1847.64 L1834.31 1722.43 L1842.92 1667.25 L1851.53 1716.53 L1860.13 1620.51 L1868.74 1738.46 L1877.34 1672.99 L1885.95 1248.75 L1894.56 1126.91 L1903.16 1349.83 L1911.77 1414.13 L1920.38 1426.78 L1928.98 1309.16 L1937.59 2086.93 L1946.19 2129.12 L1954.80 1999.01 L1963.41 2102.63 L1972.01 2074.95 L1980.45 2088.45 L1989.06 2033.78 L1997.66 2097.06 L2006.27 2031.92 L2014.88 2113.76 L2023.48 1948.22 L2032.09 2057.23 L2040.69 2043.90 L2049.30 1969.14 L2057.91 1830.60 L2066.51 1909.74 L2075.12 1812.71 L2083.73 2100.60 L2092.33 1976.74 L2100.94 2226.32 L2109.54 2156.29 L2118.15 2066.51 L2126.76 2122.71 L2135.36 2087.44 L2143.97 1965.09 L2152.57 1873.46 L2161.01 2035.46 L2169.62 1825.03 L2178.23 1950.08 L2186.83 1875.83 L2195.44 1893.21 L2204.04 1952.27 L2212.65 1892.36 L2221.26 1934.72 L2229.86 1976.40 L2238.47 1954.97 L2247.07 1797.69 L2255.68 2088.45 L2264.29 1253.81 L2272.89 986.51 L2281.50 926.27 L2290.11 1554.02 L2298.71 1635.53 L2307.32 1100.08 L2315.93 1204.20 L2324.53 1373.46 L2333.14 1357.09 L2341.57 1396.74 L2350.18 1393.37 L2358.79 1866.04 L2367.39 1930.16 L2376.00 1767.83 L2384.61 1790.27 L2393.21 1953.96 L2401.82 1326.71 L2410.43 1728.84 L2419.03 1559.25 L2427.64 1506.26 L2436.24 1261.58 L2444.85 1425.09 L2453.46 1836.51 L2462.06 1403.83 L2470.67 1576.97 L2479.28 1621.18 L2487.88 1369.91 L2496.49 1833.98 L2505.09 1802.59 L2513.70 1272.88 L2522.14 1259.89 L2530.74 464.40 L2539.35 184.78 L2547.96 848.98 L2556.56 1313.89 L2565.17 1362.83 L2573.78 1281.15 L2582.38 1390.67 L2590.99 1250.27 L2599.59 1507.95 L2608.20 1278.28 L2616.81 1484.83 L2625.41 1290.94 L2634.02 1269.68 L2642.63 1193.74 L2651.23 1627.43 L2659.84 1528.03 L2668.44 1345.78 L2677.05 1476.73 L2685.66 544.22 L2694.26 865.18 L2702.70 1603.29 L2711.31 1583.55 L2719.91 1199.47 L2728.52 1254.99 L2737.13 782.32 L2745.73 1189.01 L2754.34 1344.26 L2762.94 1384.59 L2771.55 1721.42 L2780.16 1773.39 L2788.76 1784.03 L2797.37 1589.96 L2805.98 1861.31 L2814.58 1582.88 L2823.19 1808.83 L2831.79 1522.29 L2840.40 1857.43 L2849.01 1736.44 L2857.61 1990.74 L2866.22 1879.71 L2874.83 1799.89 L2883.43 1519.09 L2891.87 1631.98 L2900.48 1407.38 L2909.08 1505.08 L2917.69 1688.01 L2926.29 1764.45 L2934.90 1514.03 L2943.51 1274.91 L2952.11 714.49 L2960.72 1362.15 L2969.33 1732.73 L2977.93 765.11 L2986.54 1196.27 L2995.14 1531.58 L3003.75 1511.66 L3012.36 1636.20 L3020.96 861.81 L3029.57 1299.88 L3038.18 917.66" stroke-linejoin="round" style="fill:none;stroke:#D41159;stroke-width:9.72"/>
	<line x1="396.06" y1="2766.66" x2="396.06" y2="113.40" style="stroke:#000000;stroke-width:6.48"/>
	<line x1="396.06" y1="2695.28" x2="351.00" y2="2695.28" style="stroke:#000000;stroke-width:6.48"/>
	<text x="328.56" y="2734.71" style="font-family:'Helvetica';font-size:112.56px;fill:#000000" text-anchor="end">0</text>
	<line x1="396.06" y1="2199.66" x2="351.00" y2="2199.66" style="stroke:#000000;stroke-width:6.48"/>
	<text x="328.56" y="2239.09" style="font-family:'Helvetica';font-size:112.56px;fill:#000000" text-anchor="end">10</text>
	<line x1="396.06" y1="1704.21" x2="351.00" y2="1704.21" style="stroke:#000000;stroke-width:6.48"/>
	<text x="328.56" y="1743.64" style="font-family:'Helvetica';font-size:112.56px;fill:#000000" text-anchor="end">20</text>
	<line x1="396.06" y1="1208.59" x2="351.00" y2="1208.59" style="stroke:#000000;stroke-width:6.48"/>
	<text x="328.56" y="1248.02" style="font-family:'Helvetica';font-size:112.56px;fill:#000000" text-anchor="end">30</text>
	<line x1="396.06" y1="712.97" x2="351.00" y2="712.97" style="stroke:#000000;stroke-width:6.48"/>
	<text x="328.56" y="752.41" style="font-family:'Helvetica';font-size:112.56px;fill:#000000" text-anchor="end">40</text>
	<line x1="396.06" y1="217.35" x2="351.00" y2="217.35" style="stroke:#000000;stroke-width:6.48"/>
	<text x="328.56" y="256.79" style="font-family:'Helvetica';font-size:112.56px;fill:#000000" text-anchor="end">50</text>
	<line x1="396.06" y1="2766.66" x2="3117.99" y2="2766.66" style="stroke:#000000;stroke-width:6.48"/>
	<line x1="467.27" y1="2766.66" x2="467.27" y2="2811.54" style="stroke:#000000;stroke-width:6.48"/>
	<text x="467.27" y="2912.86" style="font-family:'Helvetica';font-size:112.56px;fill:#000000" text-anchor="middle">1995m1</text>
	<line x1="983.14" y1="2766.66" x2="983.14" y2="2811.54" style="stroke:#000000;stroke-width:6.48"/>
	<text x="983.14" y="2912.86" style="font-family:'Helvetica';font-size:112.56px;fill:#000000" text-anchor="middle">2000m1</text>
	<line x1="1499.18" y1="2766.66" x2="1499.18" y2="2811.54" style="stroke:#000000;stroke-width:6.48"/>
	<text x="1499.18" y="2912.86" style="font-family:'Helvetica';font-size:112.56px;fill:#000000" text-anchor="middle">2005m1</text>
	<line x1="2015.04" y1="2766.66" x2="2015.04" y2="2811.54" style="stroke:#000000;stroke-width:6.48"/>
	<text x="2015.04" y="2912.86" style="font-family:'Helvetica';font-size:112.56px;fill:#000000" text-anchor="middle">2010m1</text>
	<line x1="2530.91" y1="2766.66" x2="2530.91" y2="2811.54" style="stroke:#000000;stroke-width:6.48"/>
	<text x="2530.91" y="2912.86" style="font-family:'Helvetica';font-size:112.56px;fill:#000000" text-anchor="middle">2015m1</text>
	<line x1="3046.78" y1="2766.66" x2="3046.78" y2="2811.54" style="stroke:#000000;stroke-width:6.48"/>
	<text x="3046.78" y="2912.86" style="font-family:'Helvetica';font-size:112.56px;fill:#000000" text-anchor="middle">2020m1</text>
	<text x="1757.03" y="3070.31" style="font-family:'Helvetica';font-size:112.56px;fill:#000000" text-anchor="middle">Period</text>
	<rect x="3156.98" y="1256.34" width="2090.81" height="367.20" style="fill:#FFFFFF"/>
	<rect x="3160.21" y="1259.58" width="2084.33" height="360.72" style="fill:none;stroke:#FFFFFF;stroke-width:6.48"/>
	<line x1="3205.58" y1="1361.31" x2="3464.78" y2="1361.31" style="stroke:#1A85FF;stroke-width:9.72"/>
	<line x1="3205.58" y1="1518.75" x2="3464.78" y2="1518.75" style="stroke:#D41159;stroke-width:9.72"/>
	<text x="3532.28" y="1400.74" style="font-family:'Helvetica';font-size:112.56px;fill:#000000">Energy Uncertainty Index</text>
	<text x="3532.28" y="1558.19" style="font-family:'Helvetica';font-size:112.56px;fill:#000000">Energy Uncertainty Index Weighted</text>
</svg>
